/* XPM */
static char *_858f2d552b94a518edc5b0e30e7e38bmcCY0I3nRkEWmguc[] = {
/* columns rows colors chars-per-pixel */
"64 64 16 1 ",
"  c None",
". c #05EFD3",
"X c #03EFD4",
"o c #04EFD4",
"O c #05EFD4",
"+ c #04EFD5",
"@ c #03F0D3",
"# c #04F0D3",
"$ c #03F0D4",
"% c #03F1D4",
"& c #03F0D5",
"* c #04F0D4",
"= c #05F0D4",
"- c #04F1D4",
"; c #04F0D5",
": c #05F0D5",
/* pixels */
"                                                                ",
"                                                                ",
"                                                                ",
"                                                                ",
"                                                                ",
"                                                                ",
"                                                                ",
"                                                                ",
"                                                                ",
"                                                                ",
"                                                                ",
"                                  *****$*                       ",
"                                ***********                     ",
"                              **************                    ",
"                             ****************                   ",
"                            ******************                  ",
"                           +******************                  ",
"                           ******#+   *********                 ",
"                          ********     ********                 ",
"                         ********       *******                 ",
"                         *******        *******                 ",
"                        ********        *******                 ",
"                        *******         *******                 ",
"                        *******         *******                 ",
"                       *******          *******                 ",
"                       *******          *******                 ",
"                       *******          ******+                 ",
"                      $*******         *******                  ",
"                      #******          *******                  ",
"                      $******          *******                  ",
"                      *******         *******                   ",
"                      *******         *******                   ",
"                      *******        $*******                   ",
"                      *******        *******                    ",
"                      *******$      *******$                    ",
"                      $*******     ********                     ",
"                      X********+ $********                      ",
"                       *******************                      ",
"                       ******************                       ",
"                        ****************                        ",
"                         ***********#*#                         ",
"                          **********+                           ",
"                            ++#**#                              ",
"                                                                ",
"                                                                ",
"                                                                ",
"                                                                ",
"                                                                ",
"                                                                ",
"                                                                ",
"                                                                ",
"                                                                ",
"                                                                ",
"                                                                ",
"                                                                ",
"                                                                ",
"                                                                ",
"                                                                ",
"                                                                ",
"                                                                ",
"                                                                ",
"                                                                ",
"                                                                ",
"                                                                "
};
