/* XPM */
static char *_2661ca0b0164ad9de8193b052d88b61IydUmOOxutngjR2v[] = {
/* columns rows colors chars-per-pixel */
"64 64 13 1 ",
"  c None",
". c #03EFD4",
"X c #04EFD4",
"o c #05EFD4",
"O c #03F0D3",
"+ c #04F0D3",
"@ c #05F0D3",
"# c #03F0D4",
"$ c #03F0D5",
"% c #04F0D4",
"& c #05F0D4",
"* c #04F1D4",
"= c #04F0D5",
/* pixels */
"                                                                ",
"                                                                ",
"                                                                ",
"                                                                ",
"                                                                ",
"                                                                ",
"                                                                ",
"                                                                ",
"                                                                ",
"                                                                ",
"                                                                ",
"                                     %%%%                       ",
"                                 o%%%%%%%                       ",
"                              %%%%%%%%%%%                       ",
"                             %%%%%%%%%%%%                       ",
"                            %%%%%%%%%%%%o                       ",
"                            %%%%%%%%%%%%%                       ",
"                            %%%%%%%%%%%%%                       ",
"                                  %%%%%%                        ",
"                                  %%%%%%                        ",
"                                 %%%%%%%                        ",
"                                 %%%%%%%                        ",
"                                 %%%%%%                         ",
"                                 %%%%%%                         ",
"                                %%%%%%%                         ",
"                                %%%%%%$                         ",
"                                %%%%%%%                         ",
"                                %%%%%%                          ",
"                                %%%%%%                          ",
"                               $%%%%%%                          ",
"                               %%%%%%%                          ",
"                               %%%%%%%                          ",
"                               %%%%%%                           ",
"                               %%%%%%                           ",
"                              %%%%%%+                           ",
"                              %%%%%%%                           ",
"                         %%%%%%%%%%%%%%%o                       ",
"                       %%%%%%%%%%%%%%%%%%%                      ",
"                      %%%%%%%%%%%%%%%%%%%%%                     ",
"                      %%%%%%%%%%%%%%%%%%%%$                     ",
"                      %%%%%%%%%%%%%%%%%%%%                      ",
"                       %%%%%%%%%%%%%%%%%%                       ",
"                                                                ",
"                                                                ",
"                                                                ",
"                                                                ",
"                                                                ",
"                                                                ",
"                                                                ",
"                                                                ",
"                                                                ",
"                                                                ",
"                                                                ",
"                                                                ",
"                                                                ",
"                                                                ",
"                                                                ",
"                                                                ",
"                                                                ",
"                                                                ",
"                                                                ",
"                                                                ",
"                                                                ",
"                                                                "
};
