/* XPM */
static char *_f6c24ab1da44359e806353716744d5aeReifs8RBCss7b8z[] = {
/* columns rows colors chars-per-pixel */
"64 64 14 1 ",
"  c None",
". c #03EFD4",
"X c #04EFD4",
"o c #05EFD4",
"O c #04EFD5",
"+ c #04F0D3",
"@ c #05F0D3",
"# c #03F0D4",
"$ c #04F0D4",
"% c #05F0D4",
"& c #04F1D4",
"* c #05F1D4",
"= c #04F0D5",
"- c #05F0D5",
/* pixels */
"                                                                ",
"                                                                ",
"                                                                ",
"                                                                ",
"                                                                ",
"                                                                ",
"                                                                ",
"                                                                ",
"                                                                ",
"                                                                ",
"                                                                ",
"                                  XX$$$$$                       ",
"                               X$$$$$$$$$$$                     ",
"                             $$$$$$$$$$$$$$$$                   ",
"                           #$$$$$$$$$$$$$$$$$                   ",
"                           $$$$$$$$$$$$$$$$$$$                  ",
"                          $$$$$$$$$$$$$$$$$$$$                  ",
"                          $$$$$$X     $$$$$$$$                  ",
"                          $$$$$$      $$$$$$$$                  ",
"                          $$$$$        $$$$$$X                  ",
"                          $$$$        @$$$$$$$                  ",
"                                      X$$$$$$$                  ",
"                                      $$$$$$$                   ",
"                                     $$$$$$$$                   ",
"                                    $$$$$$$$                    ",
"                                   $$$$$$$$                     ",
"                                  $$$$$$$$$                     ",
"                                 $$$$$$$$$                      ",
"                                $$$$$$$$$                       ",
"                              $$$$$$$$$X                        ",
"                             #$$$$$$$$                          ",
"                            X$$$$$$$$                           ",
"                           $$$$$$$$X                            ",
"                         $$$$$$$$X                              ",
"                        $$$$$$$$$     $$$$X                     ",
"                       $$$$$$$$       $$$$$                     ",
"                      $$$$$$$$$$$$$$$$$$$$$                     ",
"                     $$$$$$$$$$$$$$$$$$$$$                      ",
"                    $$$$$$$$$$$$$$$$$$$$$$                      ",
"                    $$$$$$$$$$$$$$$$$$$$$$                      ",
"                    $$$$$$$$$$$$$$$$$$$$$$                      ",
"                     $$$$$$$$$$$$$$$$$$$$                       ",
"                                                                ",
"                                                                ",
"                                                                ",
"                                                                ",
"                                                                ",
"                                                                ",
"                                                                ",
"                                                                ",
"                                                                ",
"                                                                ",
"                                                                ",
"                                                                ",
"                                                                ",
"                                                                ",
"                                                                ",
"                                                                ",
"                                                                ",
"                                                                ",
"                                                                ",
"                                                                ",
"                                                                ",
"                                                                "
};
