/* XPM */
static char *_fcf85c332024d0192bc102371478b54CKi1Tif66ocQeTyk[] = {
/* columns rows colors chars-per-pixel */
"64 64 14 1 ",
"  c None",
". c #03EFD3",
"X c #04EFD3",
"o c #03EFD4",
"O c #04EFD4",
"+ c #04EFD5",
"@ c #04F0D3",
"# c #03F0D4",
"$ c #03F0D5",
"% c #04F0D4",
"& c #05F0D4",
"* c #04F1D4",
"= c #04F0D5",
"- c #05F0D5",
/* pixels */
"                                                                ",
"                                                                ",
"                                                                ",
"                                                                ",
"                                                                ",
"                                                                ",
"                                                                ",
"                                                                ",
"                                                                ",
"                                                                ",
"                                                                ",
"                                 +@=@=@==                       ",
"                              ===@=@=@=@=@@                     ",
"                             ==@@=@=@=@=@=@=                    ",
"                            =@=@=@=@=@=@=@=@=                   ",
"                           @@=@=@=@=@=@=@=@=@                   ",
"                           @=@=@@=#=@=@=@=@==.                  ",
"                           =@=@==     +@=@=@@=                  ",
"                            ==        @=@=@==.                  ",
"                                      @==@=@=                   ",
"                                      =@@=@=@                   ",
"                                      @==@=@=                   ",
"                                    #=@=@=@=                    ",
"                                 @@==@=@=@=                     ",
"                               X=@=@=@=@@@                      ",
"                               =@=@=@=@==                       ",
"                              =@=@=@=@=@=X                      ",
"                               =@=@=@=@=@=                      ",
"                               =@=@==@=@=@=                     ",
"                                    @=@=@=@                     ",
"                                    =@=@=@=                     ",
"                                    X=@=@=@                     ",
"                                    =@=@=@=                     ",
"                                    @=@=@=@                     ",
"                                    =@=@=@+                     ",
"                       #@=         =@=@=@=                      ",
"                      =@=@=@X    +@==@=@@=                      ",
"                     @@=@=@==@=@=@=@@=@==                       ",
"                     ==@=@=@@=@=@=@=@==@                        ",
"                     =@=@=@==@=@=@=@=@=X                        ",
"                      =@=@=@=@@=@=@==@                          ",
"                       =@=@=@==@=@=@                            ",
"                          @===@+=                               ",
"                                                                ",
"                                                                ",
"                                                                ",
"                                                                ",
"                                                                ",
"                                                                ",
"                                                                ",
"                                                                ",
"                                                                ",
"                                                                ",
"                                                                ",
"                                                                ",
"                                                                ",
"                                                                ",
"                                                                ",
"                                                                ",
"                                                                ",
"                                                                ",
"                                                                ",
"                                                                ",
"                                                                "
};
