/* XPM */
static char *a3351e638e3345feccb477d1394ac731o8Ik5oFLvEFCVWSw[] = {
/* columns rows colors chars-per-pixel */
"64 64 11 1 ",
"  c None",
". c #03EFD4",
"X c #04EFD4",
"o c #03F0D3",
"O c #04F0D3",
"+ c #03F0D4",
"@ c #03F0D5",
"# c #04F0D4",
"$ c #05F0D4",
"% c #04F1D4",
"& c #04F0D5",
/* pixels */
"                                                                ",
"                                                                ",
"                                                                ",
"                                                                ",
"                                                                ",
"                                                                ",
"                                                                ",
"                                                                ",
"                                                                ",
"                                                                ",
"                                                                ",
"                                     +#+#                       ",
"                                    .#######                    ",
"                                    ########                    ",
"                                   #########                    ",
"                                  O#########                    ",
"                                 ##########                     ",
"                                +##########                     ",
"                                ###########                     ",
"                               #####X######                     ",
"                              O##### #####+                     ",
"                             ###### +#####                      ",
"                            +#####  ######                      ",
"                            #####   #####X                      ",
"                           #####+   ######                      ",
"                          #####X    ######                      ",
"                         #####X    ######                       ",
"                        +#####     ######                       ",
"                        #####      ######                       ",
"                       ######      #########+                   ",
"                       ######################                   ",
"                      #######################                   ",
"                      ######################                    ",
"                      #####################&                    ",
"                       #%%%%###############                     ",
"                                 +#####                         ",
"                                 ######                         ",
"                            ##############                      ",
"                           ###############+                     ",
"                          #################                     ",
"                          ################                      ",
"                           ###############                      ",
"                                                                ",
"                                                                ",
"                                                                ",
"                                                                ",
"                                                                ",
"                                                                ",
"                                                                ",
"                                                                ",
"                                                                ",
"                                                                ",
"                                                                ",
"                                                                ",
"                                                                ",
"                                                                ",
"                                                                ",
"                                                                ",
"                                                                ",
"                                                                ",
"                                                                ",
"                                                                ",
"                                                                ",
"                                                                "
};
