/* XPM */
static char *_7ef2a1f189f492397931abe8555c217YvnJsIfieyqD9isT[] = {
/* columns rows colors chars-per-pixel */
"64 64 13 1 ",
"  c None",
". c #04EFD3",
"X c #05EFD3",
"o c #04EFD4",
"O c #05EFD4",
"+ c #04EFD5",
"@ c #04F0D3",
"# c #03F0D4",
"$ c #03F0D5",
"% c #04F0D4",
"& c #05F0D4",
"* c #04F1D4",
"= c #04F0D5",
/* pixels */
"                                                                ",
"                                                                ",
"                                                                ",
"                                                                ",
"                                                                ",
"                                                                ",
"                                                                ",
"                                                                ",
"                                                                ",
"                                                                ",
"                                                                ",
"                                                                ",
"                           %%%%%%%%%%%%%%%%%%%%                 ",
"                           %%%%%%%%%%%%%%%%%%%%                 ",
"                           %%%%%%%%%%%%%%%%%%%%                 ",
"                           %%%%%%%%%%%%%%%%%%%%                 ",
"                          %%%%%%%%%%%%%%%%%%%%                  ",
"                          %%%%%%%%%%%%%%%%%%$                   ",
"                          %%%%%%                                ",
"                          %%%%%%                                ",
"                         X%%%%%%                                ",
"                         %%%%%%%                                ",
"                         %%%%%%%%%%%%%%%$                       ",
"                         %%%%%%%%%%%%%%%%%                      ",
"                         %%%%%%%%%%%%%%%%%%                     ",
"                        %%%%%%%%%%%%%%%%%%%%                    ",
"                        %%%%%%%%%%%%%%%%%%%%                    ",
"                        $%%%%%%o   %%%%%%%%%                    ",
"                         o%%%       %%%%%%%%                    ",
"                                     %%%%%%%                    ",
"                                     %%%%%%%                    ",
"                                     %%%%%%%                    ",
"                                     %%%%%%o                    ",
"                                    %%%%%%%%                    ",
"                                    %%%%%%%                     ",
"                                   %%%%%%%%                     ",
"                      o%%%%%%    o%%%%%%%%                      ",
"                     o%%%%%%%%%%%%%%%%%%%%                      ",
"                     %%%%%%%%%%%%%%%%%%%%                       ",
"                     %%%%%%%%%%%%%%%%%%%                        ",
"                     %%%%%%%%%%%%%%%%%                          ",
"                      %%%%%%%%%%%%%o                            ",
"                        %%o%%%oo                                ",
"                                                                ",
"                                                                ",
"                                                                ",
"                                                                ",
"                                                                ",
"                                                                ",
"                                                                ",
"                                                                ",
"                                                                ",
"                                                                ",
"                                                                ",
"                                                                ",
"                                                                ",
"                                                                ",
"                                                                ",
"                                                                ",
"                                                                ",
"                                                                ",
"                                                                ",
"                                                                ",
"                                                                "
};
