/* XPM */
static char *b6f3d660fd1a4e78d671a79b7cb541c0znY3TLyOvv1pnmo7[] = {
/* columns rows colors chars-per-pixel */
"64 64 13 1 ",
"  c None",
". c #04EFD4",
"X c #05EFD4",
"o c #04EFD5",
"O c #05EFD5",
"+ c #03F0D3",
"@ c #04F0D3",
"# c #03F0D4",
"$ c #04F0D4",
"% c #05F0D4",
"& c #04F1D4",
"* c #05F1D4",
"= c #04F0D5",
/* pixels */
"                                                                ",
"                                                                ",
"                                                                ",
"                                                                ",
"                                                                ",
"                                                                ",
"                                                                ",
"                                                                ",
"                                                                ",
"                                                                ",
"                                                                ",
"                                       @$$$$$$$                 ",
"                                    $$$$$$$$$$$$                ",
"                                  o$$$$$$$$$$$$@                ",
"                                #$$$$$$$$$$$$$$                 ",
"                               $$$$$$$$$$$@$o                   ",
"                              $$$$$$$$$$                        ",
"                             $$$$$$$$                           ",
"                            $$$$$$$$                            ",
"                           o$$$$$$$                             ",
"                          $$$$$$$$                              ",
"                          $$$$$$@                               ",
"                         $$$$$$$   $#$$                         ",
"                         $$$$$$@$$$$$$$$$                       ",
"                        o$$$$$$$$$$$$$$$$$$                     ",
"                        $$$$$$$$$$$$$$$$$$$                     ",
"                        $$$$$$$$$$$$$$$$$$$$                    ",
"                       $$$$$$$$$$$$$$$$$$$$$                    ",
"                       @$$$$$$$$$   $$$$$$$$                    ",
"                       $$$$$$$$      $$$$$$$o                   ",
"                       $$$$$$$       $$$$$$$$                   ",
"                       $$$$$$$        $$$$$$                    ",
"                       $$$$$$        $$$$$$$                    ",
"                       $$$$$$        $$$$$$$                    ",
"                       $$$$$$        $$$$$$$                    ",
"                       $$$$$$$      $$$$$$$                     ",
"                       $$$$$$$     $$$$$$$$                     ",
"                       $$$$$$$$$$$$$$$$$$$                      ",
"                        $$$$$$$$$$$$$$$$$                       ",
"                        $$$$$$$$$$$$$$$$                        ",
"                         $$$$$$$$$$$$$$                         ",
"                          $$$$$$$$$$$                           ",
"                            $$$$$$                              ",
"                                                                ",
"                                                                ",
"                                                                ",
"                                                                ",
"                                                                ",
"                                                                ",
"                                                                ",
"                                                                ",
"                                                                ",
"                                                                ",
"                                                                ",
"                                                                ",
"                                                                ",
"                                                                ",
"                                                                ",
"                                                                ",
"                                                                ",
"                                                                ",
"                                                                ",
"                                                                ",
"                                                                "
};
