/* XPM */
static char *c37bc061efd04da1c5d3eacb9fc9f13fVBqjWf5DoKMkif2g[] = {
/* columns rows colors chars-per-pixel */
"64 64 8 1 ",
"  c None",
". c #05EFD4",
"X c #04F0D3",
"o c #03F1D4",
"O c #04F0D4",
"+ c #05F0D4",
"@ c #04F0D5",
"# c #05F0D5",
/* pixels */
"                                                                ",
"                                                                ",
"                                                                ",
"                                                                ",
"                                                                ",
"                                                                ",
"                                                                ",
"                                                                ",
"                                                                ",
"                                                                ",
"                                                                ",
"                                                                ",
"                          OOOOOOOOOOOOOOOOOOOO                  ",
"                          OOOOOOOOOOOOOOOOOOOO                  ",
"                          OOOOOOOOOOOOOOOOOOOO                  ",
"                         OOOOOOOOOOOOOOOOOOOOo                  ",
"                         OOOOOOOOOOOOOOOOOOOO                   ",
"                         OOOOOOOOOOOOOOOOOOOo                   ",
"                         OOOO         OOOOOO                    ",
"                         OOO          OOOOOo                    ",
"                                     OOOOOO                     ",
"                                    .OOOOOo                     ",
"                                    OOOOOO                      ",
"                                   OOOOOOo                      ",
"                                   OOOOOO                       ",
"                                  OOOOOOo                       ",
"                                  OOOOOO                        ",
"                                 OOOOOOo                        ",
"                                OOOOOOO                         ",
"                                OOOOOOo                         ",
"                               OOOOOOO                          ",
"                               OOOOOOo                          ",
"                              OOOOOOO                           ",
"                              OOOOOOo                           ",
"                             OOOOOOO                            ",
"                            OOOOOOOO                            ",
"                            OOOOOOO                             ",
"                           OOOOOOOo                             ",
"                           OOOOOOO                              ",
"                          OOOOOOOo                              ",
"                          OOOOOOO                               ",
"                         OOOOOOOO                               ",
"                                                                ",
"                                                                ",
"                                                                ",
"                                                                ",
"                                                                ",
"                                                                ",
"                                                                ",
"                                                                ",
"                                                                ",
"                                                                ",
"                                                                ",
"                                                                ",
"                                                                ",
"                                                                ",
"                                                                ",
"                                                                ",
"                                                                ",
"                                                                ",
"                                                                ",
"                                                                ",
"                                                                ",
"                                                                "
};
