/* XPM */
static char *_faf6db38fd841dbeb242bfd08bb1276L1eW8MUy2Lwmmk2a[] = {
/* columns rows colors chars-per-pixel */
"64 64 17 1 ",
"  c None",
". c #03EFD3",
"X c #04EFD3",
"o c #03EFD4",
"O c #04EFD4",
"+ c #05EFD4",
"@ c #04EFD5",
"# c #05EFD5",
"$ c #03F0D3",
"% c #04F0D3",
"& c #05F0D3",
"* c #03F0D4",
"= c #03F0D5",
"- c #04F0D4",
"; c #05F0D4",
": c #04F0D5",
"> c #05F0D5",
/* pixels */
"                                                                ",
"                                                                ",
"                                                                ",
"                                                                ",
"                                                                ",
"                                                                ",
"                                                                ",
"                                                                ",
"                                                                ",
"                                                                ",
"                                                                ",
"                                  $--+-+-X                      ",
"                               =------------                    ",
"                             =---------------                   ",
"                            ------------------                  ",
"                           +-------------------                 ",
"                          +------=-   +-&=&=&=&                 ",
"                          =------+      =&=&=&=                 ",
"                          -------       &=&=&=-                 ",
"                         -------        o&=&=&-                 ",
"                         -------        -------                 ",
"                         +------       &------                  ",
"                         -------+     -------&                  ",
"                         +------=-  =--------                   ",
"                          ------&=&=&=&=----                    ",
"                           -----=&=&=&=&---                     ",
"                            ----&=&=&=&=-                       ",
"                          &-----=&=&=&=&--                      ",
"                         -------=&=&&=&=---                     ",
"                        --------&$&==&=&----                    ",
"                       --------      -&=----                    ",
"                       -------       X=&----                    ",
"                      -------         ------                    ",
"                      -------        o------                    ",
"                      -------        -------                    ",
"                      -------       +-------                    ",
"                      --------     --------                     ",
"                      ---------++----------                     ",
"                      ------------------=-                      ",
"                       -----------------+                       ",
"                        &=&=&=---------+                        ",
"                         -=&=&-------o                          ",
"                            &+=--+                              ",
"                                                                ",
"                                                                ",
"                                                                ",
"                                                                ",
"                                                                ",
"                                                                ",
"                                                                ",
"                                                                ",
"                                                                ",
"                                                                ",
"                                                                ",
"                                                                ",
"                                                                ",
"                                                                ",
"                                                                ",
"                                                                ",
"                                                                ",
"                                                                ",
"                                                                ",
"                                                                ",
"                                                                "
};
