/* XPM */
static char *_eed07922c9442c4f38dc28095de9c11hpJaszJcBNWw6SmQ[] = {
/* columns rows colors chars-per-pixel */
"64 64 15 1 ",
"  c None",
". c #04EFD3",
"X c #05EFD3",
"o c #03EFD4",
"O c #04EFD4",
"+ c #03F0D3",
"@ c #04F0D3",
"# c #05F0D3",
"$ c #03F0D4",
"% c #03F1D4",
"& c #03F0D5",
"* c #04F0D4",
"= c #05F0D4",
"- c #04F1D4",
"; c #04F0D5",
/* pixels */
"                                                                ",
"                                                                ",
"                                                                ",
"                                                                ",
"                                                                ",
"                                                                ",
"                                                                ",
"                                                                ",
"                                                                ",
"                                                                ",
"                                                                ",
"                                  OO****$                       ",
"                               ************                     ",
"                              *************O                    ",
"                            ****************O                   ",
"                            *****************                   ",
"                           ********* O*******@                  ",
"                          *******$     *******                  ",
"                          ******O      *******                  ",
"                         *******        ******                  ",
"                         *******        ******                  ",
"                         ******        *******                  ",
"                        *******        *******                  ",
"                        ********      @*******                  ",
"                        ********     *********                  ",
"                        $*******$   $********@                  ",
"                         ********************                   ",
"                         ********************                   ",
"                         *******************O                   ",
"                          ******************O                   ",
"                           @****************                    ",
"                              ***   $******$                    ",
"                                    *******                     ",
"                                   *******                      ",
"                                  ********                      ",
"                                 ********                       ",
"                               O********                        ",
"                             *O********                         ",
"                       $$O************                          ",
"                      ***************                           ",
"                     **************                             ",
"                     ************                               ",
"                      **$*$***                                  ",
"                                                                ",
"                                                                ",
"                                                                ",
"                                                                ",
"                                                                ",
"                                                                ",
"                                                                ",
"                                                                ",
"                                                                ",
"                                                                ",
"                                                                ",
"                                                                ",
"                                                                ",
"                                                                ",
"                                                                ",
"                                                                ",
"                                                                ",
"                                                                ",
"                                                                ",
"                                                                ",
"                                                                "
};
