/* XPM */
static char *enermy_201671357073[] = {
/* columns rows colors chars-per-pixel */
"64 64 89 1 ",
"  c None",
". c #716A54",
"X c #948B6C",
"o c #9F9473",
"O c #A89D79",
"+ c #BFD27D",
"@ c #F5CB4F",
"# c #F6CB4E",
"$ c #F7CC4D",
"% c #F7CC4E",
"& c #F8CC4A",
"* c #F8CC4C",
"= c #F8CD4F",
"- c #F4CB51",
"; c #F5CB51",
": c #F4CB53",
"> c #F6CC52",
", c #F3CB55",
"< c #F2CA56",
"1 c #F3CA56",
"2 c #F3CB56",
"3 c #F6CD56",
"4 c #F9CF53",
"5 c #F5CF5E",
"6 c #F8D15E",
"7 c #C8D877",
"8 c #CDDA74",
"9 c #CEDB75",
"0 c #D2DE73",
"q c #F3CE63",
"w c #F1CD66",
"e c #F9D361",
"r c #F8D367",
"t c #FAD76F",
"y c #F4D372",
"u c #FBD975",
"i c #F5D67B",
"p c #FBDB7A",
"a c #D6E16D",
"s c #D7E16F",
"d c #D7E172",
"f c #BCB087",
"g c #C5B98D",
"h c #D1D88F",
"j c #D9CA9A",
"k c #F0C884",
"l c #FBDC80",
"z c #F2D78D",
"x c #F8DE8C",
"c c #EAD191",
"v c #FCE089",
"b c #ECE49C",
"n c #FCE392",
"m c #FDE59A",
"M c #FDE69D",
"N c #F1C0AE",
"B c #E4D4A1",
"V c #F1C3B2",
"C c #F1C6B2",
"Z c #F2C5B4",
"A c #E8D7B3",
"S c #F5D8B0",
"D c #E8E0A1",
"F c #FBE7A6",
"G c #FDE8A3",
"H c #FEEBAB",
"J c #F9E8AF",
"K c #F5E7B5",
"L c #F6E7B6",
"P c #F9E6B2",
"I c #F7E8B6",
"U c #F9E8B0",
"Y c #FEECB0",
"T c #F9E9B4",
"R c #FAEAB4",
"E c #FBEAB4",
"W c #FAEAB5",
"Q c #FBEBB5",
"! c #FCECB4",
"~ c #FEECB4",
"^ c #FEEDB4",
"/ c #FFEEB5",
"( c #FFEFB6",
") c #E4DBCE",
"_ c #E4DDD9",
"` c #E3DFE2",
"' c #E3E1ED",
"] c #E2E1EE",
"[ c #E3E1EE",
/* pixels */
"                                                                ",
"                                                                ",
"                                                                ",
"                                                                ",
"                                                                ",
"                                                                ",
"                                                                ",
"                                                                ",
"                                                                ",
"                                                                ",
"                                                                ",
"                               98aad                            ",
"                              IbDh8ad                           ",
"                             U^^^Q  70                          ",
"                           Ckn^^^^Q  +7                         ",
"                         ZC 2v^^^^Q                             ",
"                        C   ;p^^^^^                             ",
"                            #p^^^~~                             ",
"                            #p^^^^^                             ",
"                      Z     %p^^^^^S                            ",
"                            =l^^^^^S                            ",
"                            =v^^^^^L                            ",
"                     Z      &n^^^^^U N                          ",
"                           24m^^^^^Q                            ",
"                           24G^^^^^Q  N                         ",
"                    V      ;eY^^^^^~                            ",
"                    V      #p^^^^^^^                            ",
"                           4M^^^^^^^Q  N                        ",
"                          2uH^^^^^^^P                           ",
"                          6G^^^^^^^^^L  N                       ",
"                         ;v^^^^^^^^^^Q                          ",
"                   V     tY^^^^^^^^^^YL                         ",
"                   V    6M^^^^^^^^^^^^Q  N                      ",
"                        eY^^^^^^^^^^^^^Q                        ",
"                       #u^^^^^^^^^^^^^^Q                        ",
"                       %t^^^^^^^^^^^^^^^L                       ",
"                      2&eY^^^^^^^^^^^^^^Q N                     ",
"                      ;&4M^^^^^^^^^^^^^^^                       ",
"                      #&=v^^^^^^^^^^^^^^^                       ",
"                      %=&u^^^^^^^^^^^^^^^                       ",
"                      %=&eH^^^^UU^((^BU^^I C                    ",
"                      #&*=n^^^(OXBjjg.B(^^^Q                    ",
"                   PQGe&*&tY^^(foOOOfgU^^^^^L                   ",
"                   M^^u&**=n^^^^^(^(((^^^^HF                    ",
"                   rnFu&**&eH^^^^^^^^^^^~xy                     ",
"                    263=****uY^^^^^^^^^^Q                       ",
"                       %****=tmH^^(^^(^^Q                       ",
"                       ;****&&=eupnMMGMz                        ",
"                        #=&****&&&*=44%                         ",
"                         ;**********=%                          ",
"                          2#&&&%**&&2                           ",
"                           ;=#2;2#=%                            ",
"       ['[[                >=#   2##                            ",
"      [[''[[[[[[[          >&#   ;&#                            ",
"          [[''[[''''[['[[[`q&q_  w&i                            ",
"            '''''['''['[[[[z&z[['Aq                             ",
"                    [[[[[[[_c)'                                 ",
"                                                                ",
"                                                                ",
"                                                                ",
"                                                                ",
"                                                                ",
"                                                                ",
"                                                                "
};
