/* XPM */
static char *enermy_291671357074[] = {
/* columns rows colors chars-per-pixel */
"64 64 83 1 ",
"  c None",
". c #797158",
"X c #988E6E",
"o c #A39776",
"O c #AFA27E",
"+ c #BAD07C",
"@ c #F7CC4E",
"# c #F7CC4F",
"$ c #F9CC4B",
"% c #F9CD4C",
"& c #F9CD4D",
"* c #F8CC4E",
"= c #F9CE4F",
"- c #F4CB53",
"; c #F5CB53",
": c #F6CC50",
"> c #F6CC51",
", c #F3CB55",
"< c #F2CA56",
"1 c #F2CA57",
"2 c #F3CB57",
"3 c #F4CB54",
"4 c #F6CC54",
"5 c #F9CF52",
"6 c #F3CB58",
"7 c #F2CB5B",
"8 c #F7D05F",
"9 c #F8D05C",
"0 c #FAD25D",
"q c #C4D876",
"w c #CFDC72",
"e c #CFDD73",
"r c #CEDB74",
"t c #D3DE73",
"y c #D4DF75",
"u c #F9D468",
"i c #FAD669",
"p c #FAD76E",
"a c #F0C873",
"s c #FBDA78",
"d c #D5E16D",
"f c #D7E26D",
"g c #BBAE86",
"h c #F0BFAC",
"j c #CFD889",
"k c #CEC093",
"l c #EDC787",
"z c #F8DB83",
"x c #FBDD82",
"c c #F8DC86",
"v c #F8D98A",
"b c #FCDF88",
"n c #EFC19C",
"m c #E3DF9E",
"M c #E8E399",
"N c #FCE394",
"B c #FDE598",
"V c #FDE69E",
"C c #EFC2A7",
"Z c #E2D2A1",
"A c #EEDEA9",
"S c #F0C1B1",
"D c #F0C2B0",
"F c #F0C3B2",
"G c #F1C5B3",
"H c #F4E1A7",
"J c #F9E3A0",
"K c #F8E7AD",
"L c #FDEAA8",
"P c #FEECAE",
"I c #F8E7B1",
"U c #FEECB3",
"Y c #F8E8B5",
"T c #F9E8B5",
"R c #F9E9B5",
"E c #FBEBB4",
"W c #FAEAB5",
"Q c #FCEBB4",
"! c #FDECB4",
"~ c #FEEDB4",
"^ c #FFEEB6",
"/ c #FFEFB6",
"( c #E3E1EE",
/* pixels */
"                                                                ",
"                                                                ",
"                                                                ",
"                                                                ",
"                                                                ",
"                                                                ",
"                               yeddy                            ",
"                               Mmjwdt                           ",
"                             KU/^R  wy                          ",
"                             BU~U^R  q                          ",
"                            6x~~UUR   +                         ",
"                            >s~~^^Q                             ",
"                            >s~~UU^                             ",
"                            >s~~U^U                             ",
"                            @s~~UUU                             ",
"                            @s~~^U^                             ",
"                            *xU~^UUR                            ",
"                            *b/~UU^I                            ",
"                            =B/~U^UR                            ",
"                           6=J~~UU^R                            ",
"                           >0L~~^~~!                            ",
"                           >iU~~!U!!                            ",
"                           @b/~~~~~~                            ",
"                          20LU~~~~~~R                           ",
"                          4b~~~~~~~~!                           ",
"                          uP~~~~~~~~~I                          ",
"                         ;B^~~~~~~~~U!                          ",
"                         sU^~~~~~~~~U^R                         ",
"                        >B^^UU~~~~~~^/!                         ",
"                       10LUUU^~~~~~~UU^R                        ",
"                       >0P^^UU~~~~~~UUU!                        ",
"                       *0LUU^!~~~~U!/^UUR                       ",
"                      6%5B~~~~U!~~~~~~~~R                       ",
"                      >%$b/~~~~^~~~~~~~~E                       ",
"                      >*$s~~~~UU~~~~~~~~^                       ",
"                      @%%0P~~~^//~~~~/~~U                       ",
"                      >*%5V/UU/ZZ^^^KgK~U                       ",
"                      5*%%xE/U/X.gOOo.A/U                       ",
"                      >%%%0L^U/ZkkkkmAUU^Y                      ",
"                      v=%%%xUU^/^^^^Q/!/UU^                     ",
"                     EL0%%%0V/UU^^!U~~~~UP~U                    ",
"                    J^P0%%=*pP//^U^U~U~~VpVU                    ",
"                    z^K0%%%%*iNLU!^^UU/UH 8v                    ",
"                    av 2*=%%*%%0psbBVVBc                        ",
"                     n  4**%%%*%$$%=55>                         ",
"                         4*%%*%*@$%%%>                          ",
"                      h   6%%%****%*2                           ",
"                          6%*417>@%4                            ",
"                       D  ;*@    **3                            ",
"                        h 3*6    **                             ",
"                          Cl     >4                             ",
"                           DD          G                        ",
"  ((((((((                    FDGGDDDD                          ",
"     ((((((((((((((((((                                         ",
"        (((((((((((((((((((((((                                 ",
"           (((((((((((((((((((((                                ",
"                                                                ",
"                                                                ",
"                                                                ",
"                                                                ",
"                                                                ",
"                                                                ",
"                                                                ",
"                                                                "
};
