/* XPM */
static char *enermy_121671357072[] = {
/* columns rows colors chars-per-pixel */
"64 64 90 1 ",
"  c None",
". c #7B755B",
"X c #998F6F",
"o c #A89F7A",
"O c #F7CC4D",
"+ c #F6CC4E",
"@ c #F7CC4E",
"# c #F9CD4C",
"$ c #F8CC4D",
"% c #F8CD4D",
"& c #F9CE4F",
"* c #F5CB51",
"= c #F4CB53",
"- c #F6CC50",
"; c #F6CC51",
": c #F4CC53",
"> c #F6CC52",
", c #F3CB56",
"< c #F3CB57",
"1 c #F4CB54",
"2 c #F8CF56",
"3 c #F9D055",
"4 c #FAD15A",
"5 c #C8DA74",
"6 c #CDDA77",
"7 c #CEDB78",
"8 c #CFD97D",
"9 c #D3DF71",
"0 c #D6DF75",
"q c #D4DE76",
"w c #F8D061",
"e c #F9D465",
"r c #FAD669",
"t c #FAD66C",
"y c #FBD974",
"u c #F9D97B",
"i c #FBDC7B",
"p c #D6E26D",
"a c #B1A680",
"s c #BBAF87",
"d c #F39E89",
"f c #CCBE92",
"g c #CDBF93",
"h c #EFBC83",
"j c #F2A391",
"k c #F3A592",
"l c #F2A593",
"z c #F0AC9E",
"x c #EDB7AF",
"c c #CEC093",
"v c #D3C697",
"b c #FCDE82",
"n c #F8DD89",
"m c #FADF8C",
"M c #FCE089",
"N c #FCE28F",
"B c #F9E096",
"V c #FDE59A",
"C c #E1D2A0",
"Z c #E2D3A1",
"A c #EDDDA8",
"S c #F2C4B2",
"D c #F3C5B3",
"F c #F1C5B4",
"G c #FAE4A0",
"H c #FDE8A1",
"J c #FDE9A6",
"K c #F7E8AE",
"L c #FEEAAA",
"P c #F2E5B0",
"I c #F7E7B5",
"U c #F6E8B1",
"Y c #F9E9B2",
"T c #FEECB1",
"R c #F8E8B5",
"E c #F9E9B5",
"W c #FAEAB4",
"Q c #FBEBB4",
"! c #FCEBB4",
"~ c #FCECB4",
"^ c #FDECB4",
"/ c #FDEDB5",
"( c #FEEDB4",
") c #FFEEB6",
"_ c #FFF0B6",
"` c #E8C6C5",
"' c #E3E0EC",
"] c #E3E0ED",
"[ c #E3E1EE",
"{ c #E3E2EF",
/* pixels */
"                                                                ",
"                                                                ",
"                                                                ",
"                                                                ",
"                                                                ",
"                                70qq                            ",
"                               089pp9                           ",
"                              WKUP 79p7                         ",
"                             G((((   75                         ",
"                             M((((Y                             ",
"                            :i((((W                             ",
"                            ;y(((((                             ",
"                            ;y(((((                             ",
"                            @y(((((                             ",
"                            @y(((((                             ",
"                            $i(((((                             ",
"                            $b(((((I                            ",
"                            $M(((((P                            ",
"                            $N_((((Y                            ",
"                           <-V(((((W                            ",
"                           ;4J(((((W                            ",
"                           ;rT((((((                            ",
"                           @M(((((((                            ",
"                          ,4J(((((((W                           ",
"                          ;b(((((((((                           ",
"                          eL(((((((((P                          ",
"                         ;N((((((((((!                          ",
"                         tT(((((((((((W                         ",
"                        ;B_(((((((((((!                         ",
"                        3V(((((((((((((W                        ",
"                       *3V_((((((((((((W                        ",
"                       @3V((((((((((((((                        ",
"                       $$M((((((((((((((W                       ",
"                      :$$i((((((((((((((W                       ",
"                      ;$$rTT((((((((((((W                       ",
"                      ;##4L(((())(((()(((                       ",
"                      ;##3V_(()ZZ_))As!((                       ",
"                      ;###iT(()X.aaoX.U((                       ",
"                      ;###4J(((ZgfgvZA(((                       ",
"                      ;####b(((_)()))((((Y                      ",
"                     Wr$###4J_((((((((((((                      ",
"                     (M$####yTT_((((((((LT~                     ",
"                    G_i$####$yHT((((((((iB(                     ",
"                    B(n:####$#3riNVLLLHn wB                     ",
"                    4N  :$$#####$$33343   h                     ",
"                    h    :#######$#$$@                          ",
"                          :$##$$###$;                           ",
"                           $#;;;$$#;                            ",
"                          1$$   :$$                             ",
"                     l    :$;    ;:     D                       ",
"                      k    :           D                        ",
"                       k             DD                         ",
"  [[[[[[[[              jl         DD                           ",
"     [[[[[{[[[[[[[[[[[[  `xzzjdjl                               ",
"        '[[[[[[[[[[[[[[[{{{[[]][                                ",
"            [[[[[[[[[[[[[[[[{[[[                                ",
"                                                                ",
"                                                                ",
"                                                                ",
"                                                                ",
"                                                                ",
"                                                                ",
"                                                                ",
"                                                                "
};
