/* XPM */
static char *enermy_61671357071[] = {
/* columns rows colors chars-per-pixel */
"64 64 90 1 ",
"  c None",
". c #77725A",
"X c #898165",
"o c #9B9272",
"O c #A19875",
"+ c #F4BC6C",
"@ c #B4CE7E",
"# c #F7CC4E",
"$ c #F9CD4B",
"% c #F9CD4C",
"& c #F8CD4D",
"* c #F8CD4E",
"= c #F2CA53",
"- c #F5CC51",
"; c #F6CC50",
": c #F7CD51",
"> c #F5CC52",
", c #F2CA55",
"< c #F3CB55",
"1 c #F2CB56",
"2 c #F3CB56",
"3 c #F9CF51",
"4 c #F6C75B",
"5 c #F1CB5C",
"6 c #F2CD5F",
"7 c #FAD056",
"8 c #F7D05F",
"9 c #FAD25D",
"0 c #C2D776",
"q c #CFDB77",
"w c #D0DC75",
"e c #D1DE74",
"r c #F4D063",
"t c #F8D260",
"y c #F8D263",
"u c #FAD565",
"i c #FBD669",
"p c #FBD76E",
"a c #F5C874",
"s c #F4D375",
"d c #FBDA76",
"f c #F4D77E",
"g c #D4E16D",
"h c #D6E074",
"j c #D9E07D",
"k c #CBBE92",
"l c #D3DB87",
"z c #F5D982",
"x c #FBDD80",
"c c #F0D78A",
"v c #FBDD88",
"b c #E0C19E",
"n c #E2C29F",
"m c #F5C694",
"M c #F2CA9A",
"N c #FCE28F",
"B c #FCE495",
"V c #FBE59E",
"C c #FCE49E",
"Z c #E6C4A1",
"A c #EFC9A4",
"S c #F1CEA9",
"D c #E9D8A5",
"F c #ECDCA8",
"G c #F6D2AC",
"H c #F8D8A9",
"J c #F9DCAE",
"K c #FDE8A3",
"L c #FEEAAB",
"P c #F7E3B2",
"I c #F6E7B3",
"U c #F5E3B4",
"Y c #F7E7B5",
"T c #FBE4B0",
"R c #F8E5B2",
"E c #F7E8B6",
"W c #FCE9B2",
"Q c #FCEBB3",
"! c #FEECB0",
"~ c #FEECB3",
"^ c #F9E9B5",
"/ c #FAEAB4",
"( c #FBEAB4",
") c #FBEBB4",
"_ c #FDECB4",
"` c #FEEDB4",
"' c #FEEEB4",
"] c #FFEFB5",
"[ c #FEEEB6",
"{ c #E3E1EE",
/* pixels */
"                                                                ",
"                                                                ",
"                                                                ",
"                                                                ",
"                                                                ",
"                                                                ",
"                                                                ",
"                                                                ",
"                               qwjh                             ",
"                               qlwgw                            ",
"                              _WQ^ hh                           ",
"                             K_'~'  0                           ",
"                            2v'_''^  0                          ",
"                            >x_''__  @                          ",
"                            ;d_'_'Q                             ",
"                            ;d'_'__                             ",
"                            *d'''__                             ",
"                            *x''_''U                            ",
"                            *f]''_'Y                            ",
"                            *N]'_''^                            ",
"                           53B'_'_'^                            ",
"                           23K''_''^                            ",
"                           >9L'__'__                            ",
"                           3p__''___                            ",
"                           *B'___'_'^                           ",
"                          2uL__''_'_^                           ",
"                          >N'''__'_''                           ",
"                         <d~_'_''_'_'I                          ",
"                         yK''_'__'_'__                          ",
"                        <v''_'_''_'_'_^                         ",
"                        yL~''_'__'_'_'~                         ",
"                       >p~''_'_''_'_'''_                        ",
"                       *d~''~''Q_'_'_'__                        ",
"                      5$iQ'''~'''_'_'__'I                       ",
"                      >$3K''~]Q'_'_''_'_^                       ",
"                      3%*B'''~'''_'__'_''                       ",
"                      3%*x'')''''_'_''_'_                       ",
"                      *$$iQ'''Q'''____'_'U                      ",
"                      %%$7K~''/bk_QWFoF'_Y                      ",
"                     c7$$$f~''!o.OooOXD_QQ_PU                   ",
"                    RWv444aHJJHAZkZAASGGGGGGM                   ",
"                   smAm++++aHHHJJTTTTQWWWCNff                   ",
"                   6dKv$$$$7N''~''__''~~~s2                     ",
"                    55r$$$$$7N~~[___'''~_                       ",
"                       3%%%%$7ufBKLQQ~~K                        ",
"                        *%%%$%$$*39uipir                        ",
"                         *%%$$$**%$$$$>                         ",
"                          3%$$$**$%%*2                          ",
"                           *$*****$*                            ",
"                           $*2   >$#                            ",
"                          2$*    >*#                            ",
"                          2*#    >*9                            ",
"    {{{{{{{                =     23z                            ",
"     {{{{{{{{{{{{{{{{{{                                         ",
"         {{{{{{{{{{{{{{{{{{{{{{                                 ",
"           {{{{{{{{{{{{{{{{{{{{{{                               ",
"                       {{                                       ",
"                                                                ",
"                                                                ",
"                                                                ",
"                                                                ",
"                                                                ",
"                                                                ",
"                                                                "
};
