/* XPM */
static char *enermy_271671357074[] = {
/* columns rows colors chars-per-pixel */
"64 64 95 2 ",
"   c None",
".  c #716A54",
"X  c #7C745C",
"o  c #998F6F",
"O  c #AFA37F",
"+  c #EFBE6A",
"@  c #F3BF7A",
"#  c #B3CD7D",
"$  c #F7CD4C",
"%  c #F6CC4D",
"&  c #F7CC4E",
"*  c #F6CC4F",
"=  c #F8CD4B",
"-  c #F4CB52",
";  c #F4CB53",
":  c #F5CC50",
">  c #F5CC51",
",  c #F2CB57",
"<  c #F7CA54",
"1  c #F3CC56",
"2  c #F8CE50",
"3  c #F1CA58",
"4  c #F2CB58",
"5  c #F5CE5B",
"6  c #F6CF5A",
"7  c #F6C95C",
"8  c #F2CC5C",
"9  c #F9D158",
"0  c #D5DF6F",
"q  c #C3D776",
"w  c #CEDD72",
"e  c #CEDA78",
"r  c #D0DB76",
"t  c #F5C862",
"y  c #F4C568",
"u  c #F9D462",
"i  c #FAD567",
"p  c #FAD76C",
"a  c #F3C274",
"s  c #F4C27B",
"d  c #FBDA77",
"f  c #F8DA7E",
"g  c #FBDC7D",
"h  c #D5E16C",
"j  c #D7E170",
"k  c #D6E074",
"l  c #BAAD86",
"z  c #C1B48B",
"x  c #C6B98E",
"c  c #F0BC9B",
"v  c #D0D981",
"b  c #D6DD80",
"n  c #D9CA9B",
"m  c #F0C287",
"M  c #F0C786",
"N  c #FBDE82",
"B  c #F4C694",
"V  c #F2C891",
"C  c #F8D694",
"Z  c #F8DB9C",
"A  c #FCE08A",
"S  c #FCE392",
"D  c #FCE496",
"F  c #FDE69E",
"G  c #F1C6AD",
"H  c #E4D5A2",
"J  c #EADAA6",
"K  c #F5DAAC",
"L  c #F1C5B2",
"P  c #F1C6B3",
"I  c #F2C6B3",
"U  c #E8E0AA",
"Y  c #FAE4A0",
"T  c #FDE8A4",
"R  c #F5E4AC",
"E  c #FEEAA9",
"W  c #F6E6B0",
"Q  c #F8E8B0",
"!  c #FAEAB3",
"~  c #FEECB0",
"^  c #FEEDB3",
"/  c #F8E8B4",
"(  c #F9E9B4",
")  c #F8E8B5",
"_  c #F9E9B5",
"`  c #FAEAB4",
"'  c #FBEBB4",
"]  c #FAEAB5",
"[  c #FCE9B4",
"{  c #FCEBB5",
"}  c #FDECB4",
"|  c #FEEDB4",
" . c #FEEEB6",
".. c #FFEFB6",
"X. c #E3E1EE",
/* pixels */
"                                                                                                                                ",
"                                                                                                                                ",
"                                                                                                                                ",
"                                                                                                                                ",
"                                                                                                                                ",
"                                                                                                                                ",
"                                                                                                                                ",
"                                                              e r k k                                                           ",
"                                                              r v w h k                                                         ",
"                                                            } Q  .J e w 0                                                       ",
"                                                          T }  .^ ^     q e                                                     ",
"                                                        8 N  .^  . .]     q                                                     ",
"                                                        - N ^ ^ ^ ^ !     #                                                     ",
"                                                        * d ^  .^  . .                                                          ",
"                                                        * d ^ ^ ^ ^ }                                                           ",
"                                                        * d  . . .^ }                                                           ",
"                                                        & g ^ ^ ^  . .                                                          ",
"                                                        & N  .^ ^ ^ ^ R                                                         ",
"                                                        = A ..^ }  .^ /                                                         ",
"                                                        & S  . .^ ^  ._                                                         ",
"                                                      8 & F } ^ } ^ } _                                                         ",
"                                                      - 9 E  .^  .^  .}                                                         ",
"                                                      * i ^ }  .^ ^ ^ ^                                                         ",
"                                                      & N ^ ^ ^ }  .} }                                                         ",
"                                                      9 T  .^  . .^ ^ } _                                                       ",
"                                                    : N } ^ ^ } } ^ ^  .}                                                       ",
"                                                    i E  .^  .}  .}  .}  ./                                                     ",
"                                                  5 D  .} ^ ^ ^ ^ ^ ^ ^ ^ }                                                     ",
"                                                  d ^ ^ ^ }  .^ ^ ^ ^ ^ } ^ /                                                   ",
"                                                6 F  . .^  .} ^ }  .}  . .^  .                                                  ",
"                                              4 u E  .^ ^ ^ ^ ^  .^ ^ } ^ ^ ^ _                                                 ",
"                                              : p  . . .}  .}  .} ^ ^  .}  .} ^                                                 ",
"                                              = i ^ ^ ^ } ^ } ^  .^ ^ }  .}  .^ _                                               ",
"                                            1 = 6 E }  . .^  .^ } ^ ^  .^ ^ } ^ _                                               ",
"                                            : & & D  .} ^ ^ ^  . .}  .} ^ ^  .^ !                                               ",
"                                            & = = N ^ ^  .} ^  .^ ^ ^ ^ }  .} ^  .                                              ",
"                                            & = = p ^ ^ ^  .^  . . .} }  . .^ ^  .                                              ",
"                                            & = = 9 T ^ ^  .^ J J  . . .Q x Q  . .R                                             ",
"                                            & = = = A  .^ ^ ..o X z l O O . J  . ./                                             ",
"                                          R p = = = u E  .^ ..n x x x x n H ^ ^ ^ ^  . .                                        ",
"                                        !  .F 2 = = = A ^ ^ ^ .. . . ... . . . .^  .^ ^ K                                       ",
"                                        Z } T 9 = = = 9 T ^  .^ ^ ^ ^  .^ ^ ^ ^ E N d N V                                       ",
"                                        y B C 2 = = = = p E  .^  .^ ^  .^  .^  .!       G                                       ",
"                                            c @ t & = & = u A T E ^ ^  . . . .^ W       G                                       ",
"                                              + a s y 7 2 = & & i p g A S S A f       I                                         ",
"                                                : < y a s a y t 7 < < < < 7 t M L L I                                           ",
"                                                  1 & = 2 7 y a a s s s s m c                                                   ",
"                                                      = = & = & = = = & 4                                                       ",
"                                                      & = : 8 4 4 & = :                                                         ",
"                                                    1 = &         : = :                                                         ",
"                                                    , = &         : = -                                                         ",
"                                                      ,           - = 8                                                         ",
"        X.X.X.X.X.X.                                                4                                                           ",
"          X.X.X.X.X.X.X.X.X.X.X.X.X.X.X.X.X.X.                                                                                  ",
"                  X.X.X.X.X.X.X.X.X.X.X.X.X.X.X.X.X.X.X.X.X.X.                                                                  ",
"                      X.X.X.X.X.X.X.X.X.X.X.X.X.X.X.X.X.X.X.X.X.X.                                                              ",
"                                                                                                                                ",
"                                                                                                                                ",
"                                                                                                                                ",
"                                                                                                                                ",
"                                                                                                                                ",
"                                                                                                                                ",
"                                                                                                                                ",
"                                                                                                                                "
};
