/* XPM */
static char *enermy_31671357070[] = {
/* columns rows colors chars-per-pixel */
"64 64 112 2 ",
"   c None",
".  c #7D755C",
"X  c #93896B",
"o  c #9B9071",
"O  c #A29676",
"+  c #A39776",
"@  c #BED776",
"#  c #F6CB4D",
"$  c #F6CB4E",
"%  c #F7CB4E",
"&  c #F6CB4F",
"*  c #F7CC4F",
"=  c #F9CB49",
"-  c #F9CC4B",
";  c #F8CC4C",
":  c #F3CA53",
">  c #F5CB51",
",  c #F6CB50",
"<  c #F3CB55",
"1  c #F5CC54",
"2  c #F5CC56",
"3  c #F4CC57",
"4  c #F9CE51",
"5  c #F2CB5C",
"6  c #FAD055",
"7  c #FAD15C",
"8  c #CAD87D",
"9  c #D0DD75",
"0  c #D2DF74",
"q  c #D2DD77",
"w  c #D6DF77",
"e  c #D5DE7D",
"r  c #F4C96D",
"t  c #F9D467",
"y  c #F5D16A",
"u  c #FBD66B",
"i  c #F6C674",
"p  c #F9D671",
"a  c #FBD871",
"s  c #FBDA79",
"d  c #FADB7D",
"f  c #F8D97E",
"g  c #FBDC7D",
"h  c #D6E26D",
"j  c #D7E172",
"k  c #BEB088",
"l  c #C7B98F",
"z  c #F1B7A7",
"x  c #F0BDA8",
"c  c #F2BDAB",
"v  c #CACB8F",
"b  c #F5C68C",
"n  c #F7CC8D",
"m  c #F2D787",
"M  c #FADC82",
"N  c #FCDD81",
"B  c #FCDF86",
"V  c #F5DB8F",
"C  c #F8DF97",
"Z  c #F9D89D",
"A  c #FCE18F",
"S  c #FDE497",
"D  c #FDE59B",
"F  c #FDE79F",
"G  c #EFC0AD",
"H  c #F1C3A7",
"J  c #F1C0AD",
"K  c #E7D7A4",
"L  c #EAD5A4",
"P  c #EAD6A7",
"I  c #F8D6AF",
"U  c #F4DBAD",
"Y  c #F1C7B1",
"T  c #F0C5B3",
"R  c #E7D7B9",
"E  c #F7DDB0",
"W  c #FADFB1",
"Q  c #EFE3AD",
"!  c #FAE5A3",
"~  c #F9E4A4",
"^  c #FDE8A5",
"/  c #F0E0AB",
"(  c #F5E4AE",
")  c #F9E7AF",
"_  c #FEEAAA",
"`  c #F8E8AF",
"'  c #FEECAF",
"]  c #F2E2B3",
"[  c #F7E6B1",
"{  c #F6E6B5",
"}  c #F8E6B4",
"|  c #F9E8B3",
" . c #FCEAB2",
".. c #FEEDB2",
"X. c #F8E8B5",
"o. c #FAE9B4",
"O. c #FBEAB4",
"+. c #FAEAB5",
"@. c #FCEBB4",
"#. c #FDECB4",
"$. c #FDECB5",
"%. c #FFEDB4",
"&. c #FEEEB5",
"*. c #FFEFB5",
"=. c #FEEEB6",
"-. c #E5DBD0",
";. c #E3E0E8",
":. c #E4E0E8",
">. c #E3E1ED",
",. c #E3E1EE",
"<. c #E3E1EF",
"1. c #E3E1F0",
/* pixels */
"                                                                                                                                ",
"                                                                                                                                ",
"                                                                                                                                ",
"                                                                                                                                ",
"                                                                                                                                ",
"                                                                                                                                ",
"                                                                                                                                ",
"                                                                                                                                ",
"                                                                                                                                ",
"                                                                                                                                ",
"                                                                9 9 w                                                           ",
"                                                              e 9 9 h j                                                         ",
"                                                            O.)  ./ 8 9 9                                                       ",
"                                                          ^ =...=.=.    9 w                                                     ",
"                                                        5 V =.%...%.|     @                                                     ",
"                                                        , N =.%.=.%.U Y Y v                                                     ",
"                                                        , g ..%.E I I Y   x J                                                   ",
"                                                        ; s %.I I %.=.        c                                                 ",
"                                                        , s I W %.%.#.          c                                               ",
"                                                        , n W =.%.%.=.{           z                                             ",
"                                                        i U =.=.%.%.%.|                                                         ",
"                                                        i B =...%.%.%.Q                                                         ",
"                                                      b - S =...%.%.%.O.            x                                           ",
"                                                    T r ; F =.=.%.=.#.O.                                                        ",
"                                                    J , 7 _ =...%.%...(                                                         ",
"                                                  Y   $ u %.D d s s S %.              z                                         ",
"                                                      ; B B B D ^ F B A [             z                                         ",
"                                                J   < 7 g F =.=.=...=.D C                                                       ",
"                                                    ; p _ =.%.%.%.%.%.%.F                                                       ",
"                                              J   : u _ =...%.%.%.%.%.%.=.~                                                     ",
"                                                  y ^ =...=...%.%.%...=.%.%.                                                    ",
"                                                1 A =.=.=...=.%.%.%.=... .=.O.                                                  ",
"                                            z   t ' %.%.%.%.%.%.%.%.%.%.%.%.%.]                                                 ",
"                                              , s =.%.%.%.%.%.%.%.%.%.%.%.%.%.%.                                                ",
"                                          z   ; d =.%.%.%.%.%.%.%.%.%.%.%.%.%.%.{       z                                       ",
"                                            : - u ..%.%.%.%.%.%.%.%.%.%.%.%.%.%.O.                                              ",
"                                            , - 7 _ =...%.%.%.%.%.%.%.%.%.%.%.%.#.                                              ",
"                                        z   $ - 4 F =.=.%.=.%.%.%.%.%.%.%.%.%.%.=.                                              ",
"                                            - - - N =.%.=...=...%.%.%.%.#.#.%.%...]     z                                       ",
"                                            ; - - u %.%...=...=.=.%.%.%.=. . .%.=.}                                             ",
"                                            ; - - 4 ^ =...=...l k %.( ( K X K ..=. .{ U x                                       ",
"                                      H { V 4 - - - g =.=...=.O . O o o O X K =...=.=.#.}                                       ",
"                                      | =...a - - - 4 F =.=.%.( / / U ( ) %.%.%...=.=.%. .                                      ",
"                                      B ....s - - ; ; u ' ..%.%.*.......%.%.%.%.=.S s f                                         ",
"                                      1 p d 7 - - - - - B ..=.=.=.....=...=...=.#.m                                             ",
"                                            < - - - - - 4 g ^ ..=.*.=.=...=.=.%.O.                                              ",
"                                              $ ; ; - - - - 4 u N A D ^ _ _ _ F                                                 ",
"                                                ; - - - - - - - ; - 4 6 7 7 7 1                                                 ",
"                                                  $ ; - - - - - - - - - - ; 1                                                   ",
"                                                    , ; - - - - - - - - $                                                       ",
"                                                      ; ; 4 $ $ $ $ - ;                                                         ",
"                                                      , ; 1       1 - ;                                                         ",
"              1.1.>.>.                                $ - ,       < - ;                                                         ",
"            1.>.>.1.>.1.>.>.>.1.>.1.>.1.1.            4 ; 1       < 4 M                                                         ",
"                    >.1.>.1.>.1.>.>.1.>.>.>.>.1.1.,.:.y ; P 1.    L 7 C                                                         ",
"                      1.>.>.>.>.:.1.>.>.1.>.>.>.,.,.,.-.R ;.>.>.>.>.]                                                           ",
"                                        1.>.1.1.>.>.1.>.1.1.                                                                    ",
"                                                                                                                                ",
"                                                                                                                                ",
"                                                                                                                                ",
"                                                                                                                                ",
"                                                                                                                                ",
"                                                                                                                                ",
"                                                                                                                                "
};
