/* XPM */
static char *enermy_331671357075[] = {
/* columns rows colors chars-per-pixel */
"64 64 85 1 ",
"  c None",
". c #7D755D",
"X c #94896C",
"o c #9F9474",
"O c #AEA27E",
"+ c #F7CC4E",
"@ c #F6CC4F",
"# c #F9CD4A",
"$ c #F9CD4C",
"% c #F8CC4D",
"& c #F9CE4F",
"* c #F5CB50",
"= c #F4CB53",
"- c #F6CC50",
"; c #F6CC51",
": c #F5CC52",
"> c #F3CB54",
", c #F3CB57",
"< c #F4CB55",
"1 c #F8CD51",
"2 c #F8CE52",
"3 c #F9D054",
"4 c #F8D25F",
"5 c #D2DF6F",
"6 c #CDDB72",
"7 c #CBDA74",
"8 c #D3DE73",
"9 c #D5DC76",
"0 c #D5DD79",
"q c #F6D162",
"w c #FAD260",
"e c #F4D168",
"r c #F3D16F",
"t c #FAD668",
"y c #F7D776",
"u c #FBD870",
"i c #FBDA77",
"p c #FBDD7F",
"a c #D7E26C",
"s c #D6E16E",
"d c #B7AA84",
"f c #BEB189",
"g c #F1A592",
"h c #F2A592",
"j c #F0A693",
"k c #F3A693",
"l c #EEB7A9",
"z c #D0D78E",
"x c #DFCF9F",
"c c #FCDF87",
"v c #F7DD96",
"b c #FCE18E",
"n c #EBE39D",
"m c #FCE292",
"M c #F7E098",
"N c #FDE599",
"B c #FDE79F",
"V c #E8D7A5",
"C c #E7DFA1",
"Z c #F2C5B2",
"A c #F2C6B2",
"S c #FDE9A6",
"D c #F8E6AE",
"F c #FEEBAD",
"G c #F5E6B4",
"H c #FAEAB2",
"J c #FCEBB2",
"K c #FEECB1",
"L c #F9E9B4",
"P c #F8E8B5",
"I c #FAE9B5",
"U c #FAEAB4",
"Y c #FBEAB4",
"T c #FBEBB5",
"R c #FBEBB6",
"E c #FDECB4",
"W c #FEEDB4",
"Q c #FFEEB5",
"! c #FFEFB5",
"~ c #FEEDB6",
"^ c #FEEEB6",
"/ c #E8C5C4",
"( c #E3E1EE",
") c #E2E2EF",
"_ c #E3E2EF",
/* pixels */
"                                                                ",
"                                                                ",
"                                                                ",
"                                                                ",
"                                                                ",
"                                 09                             ",
"                               86saa8                           ",
"                              GnCz7sss                          ",
"                             DWWWT   76                         ",
"                             mWWWWP                             ",
"                            >cWWWWP                             ",
"                            =uWWWWW                             ",
"                            @uWWWWE                             ",
"                            -uWWWWW                             ",
"                            1uWWWWW                             ",
"                            -iWWWWW                             ",
"                            &pWWWWW                             ",
"                            &c^WWWWP                            ",
"                            #bWWWWWD                            ",
"                           ,&NWWWWWP                            ",
"                           ,3SWWWWWW                            ",
"                           -wFWWWWWH                            ",
"                           -iWWWWWWW                            ",
"                           2NWWWWWWWP                           ",
"                          =uWWWWWWWWP                           ",
"                          1BWWWWWWWWW                           ",
"                         <pWWWWWWWWWWE                          ",
"                         4SWWWWWWWWWWW                          ",
"                        =pWWWWWWWWWWWWP                         ",
"                        1NWWWWWWWWWWWWW                         ",
"                       <3BWWWWWWWWWWWWWP                        ",
"                       @&BWWWWWWWWWWWWWW                        ",
"                       %&mWWWWWWWWWWWWWWP                       ",
"                      <##pWWWWWWWWWWWWWWP                       ",
"                      =##tWWWWWWWWWWWWWWP                       ",
"                      =&&wFWWWWJWWWWWWWWJ                       ",
"                      @#&2SWWWWGYWW!YVWWE                       ",
"                      -&##cWWW!doVVxf.HWW                       ",
"                      @&&#tFWW!dXoooOfHWE                       ",
"                      =###&mWWWWWWWW!!WWWG                      ",
"                     v3##%#tJWWWWWWWWWWWWE                      ",
"                    DWt#&##1bWWWWWWWWWWWWWP                     ",
"                    SWt##%##wNWWWWWWWWWWcmE                     ",
"                   eNSq-&#%&#3imSFWWWWWJywv                     ",
"                    wi  &#&#####34uippie                        ",
"                         1#%#&%#######=                         ",
"                          =#%&#&#&##1<   A                      ",
"                           %%#&&&##=                            ",
"                    h      &&=  -#&                             ",
"                          <#&    #@    A                        ",
"                     k    <&-        AA                         ",
"                      k    >        A                           ",
"  (((___((              hj      jjl                             ",
"     _((((__((_(((_____  /lljh                                  ",
"         (_(((((((((___((______                                 ",
"            ((_(___(((__((((((_(                                ",
"                                                                ",
"                                                                ",
"                                                                ",
"                                                                ",
"                                                                ",
"                                                                ",
"                                                                ",
"                                                                "
};
