/* XPM */
static char *enermy_221671357073[] = {
/* columns rows colors chars-per-pixel */
"64 64 97 2 ",
"   c None",
".  c #6E6853",
"X  c #7C755C",
"o  c #9A9071",
"O  c #B5CF7E",
"+  c #F7CC4E",
"@  c #F7CC4F",
"#  c #F9CD4A",
"$  c #F8CC4C",
"%  c #F9CD4C",
"&  c #F9CD4D",
"*  c #F8CD4E",
"=  c #F3CB53",
"-  c #F5CB51",
";  c #F4CB52",
":  c #F6CC52",
">  c #F7CD53",
",  c #F2CA57",
"<  c #F2CB57",
"1  c #F5CD54",
"2  c #F3CD5B",
"3  c #F4CD59",
"4  c #FAD056",
"5  c #FAD35E",
"6  c #CFDD72",
"7  c #CBDB75",
"8  c #CDDA75",
"9  c #D4DE72",
"0  c #D6DF73",
"q  c #F3CE63",
"w  c #F8D263",
"e  c #FAD464",
"r  c #F5D26A",
"t  c #FAD66B",
"y  c #EFCF73",
"u  c #EFD079",
"i  c #F8D673",
"p  c #FAD872",
"a  c #FBDA77",
"s  c #FBDC7C",
"d  c #FCDD7F",
"f  c #D5E16D",
"g  c #D7E26D",
"h  c #D7E073",
"j  c #B4A882",
"k  c #BBAF87",
"l  c #C6B98E",
"z  c #F0BDAC",
"x  c #F1BFAE",
"c  c #D0D789",
"v  c #DACB9B",
"b  c #EED184",
"n  c #EED185",
"m  c #ECDF8F",
"M  c #F7DB87",
"N  c #FCDE83",
"B  c #F0DE94",
"V  c #F8DF92",
"C  c #FCE18D",
"Z  c #FCE393",
"A  c #F9E19B",
"S  c #FDE598",
"D  c #F8E29F",
"F  c #FDE69F",
"G  c #E7D4A3",
"H  c #EEDEA9",
"J  c #F1C4B2",
"K  c #F2C5B2",
"L  c #F6E2A7",
"P  c #FDE8A4",
"I  c #F6E4AD",
"U  c #FEEAAB",
"Y  c #FAE7B2",
"T  c #F8E7B6",
"R  c #FCEAB1",
"E  c #FEECB0",
"W  c #FDECB3",
"Q  c #F8E8B5",
"!  c #F9E9B5",
"~  c #FBE9B4",
"^  c #FAEAB4",
"/  c #FAEAB5",
"(  c #FCEBB4",
")  c #FCEBB5",
"_  c #FDECB4",
"`  c #FEEDB4",
"'  c #FFEEB5",
"]  c #FEEEB6",
"[  c #FFEFB6",
"{  c #FEEEB7",
"}  c #E7D9C0",
"|  c #E2DCDB",
" . c #E4DEDD",
".. c #E2DFEA",
"X. c #E2E0EC",
"o. c #E3E1EE",
"O. c #E3E1EF",
/* pixels */
"                                                                                                                                ",
"                                                                                                                                ",
"                                                                                                                                ",
"                                                                                                                                ",
"                                                                                                                                ",
"                                                                                                                                ",
"                                                                                                                                ",
"                                                                                                                                ",
"                                                                J J J                                                           ",
"                                                              J       J x                                                       ",
"                                                          J               x                                                     ",
"                                                              7 8 g g 0                                                         ",
"                                                        J   I m B c 8 g h   x                                                   ",
"                                                      J   Z Z S S B     6 9                                                     ",
"                                                          N E ` ` E D     7   x                                                 ",
"                                                    J   3 N { ` ` ` Y     O                                                     ",
"                                                        1 d ` ` ` ` ~           x                                               ",
"                                                  J     : d ` ` ` ` E                                                           ",
"                                                        * s E ` ` ` `                                                           ",
"                                                J       + s ` ` ` ` `             x                                             ",
"                                                J       * N ` ` ` ` ` I                                                         ",
"                                                        * C { ` ` ` ) ~                                                         ",
"                                              x         * Z ` ` ` ` ` ~                                                         ",
"                                                      : * F ` ` ` ` ) ~                                                         ",
"                                                      2 4 U ` ` ` ` ` )             x                                           ",
"                                            J         : e E ` ` ` ` ] )                                                         ",
"                                            J         + N ` ` ` ` ` ` `                                                         ",
"                                                    , 4 P ` ` ` ` ` ` ` ~                                                       ",
"                                                    1 d ` ` ` ` ` ` ` ` R                                                       ",
"                                          x         t U ` ` ` ` ` ` ` ` ` !                                                     ",
"                                                  1 S ` ` ` ` ` ` ` ` ` ` R           z                                         ",
"                                                  d ` ` ` ` ` ` ` ` ` ` ` ] ~         x                                         ",
"                                                4 P ` ` ` ` ` ` ` ` ` ` ` ` `                                                   ",
"                                        x     = p ` ` ` ` ` ` ` ` ` ` ` ` ` ` ~                                                 ",
"                                        z     + d ` ` ` ` ` ` ` ` ` ` ` ` ` ` `                                                 ",
"                                              # a ` ` ` ` ` ` ` ` ` ` ` ` ` ` ` ~                                               ",
"                                            : # e E ` ` ` ` ` ` ` ` ` ` ` ` ` ` )                                               ",
"                                            : # 4 P ` ` ` ` ` ` ` ` ` ` ` ` ` ` `                                               ",
"                                            * * * C { ` ` ` ` ` ` ` ` ` ` ` ` ` `                                               ",
"                                      x     * * # a ` ` ` ` ` ] ] ` ` ` ` ] ` ` ` T                                             ",
"                                            * # # 5 U ` ` ` ` H H ] ] ] E l H ] ` ~                                             ",
"                                      x   y * * % % C ` ` ` [ o X l k j j . v ] ` ` ` ~                                         ",
"                                      Y ` R e # # # e U ` ` ` v l l l l v G ` ` ` ` { ` ~                                       ",
"                                      F { ` a # * # * N ` ` ` [ ] ] ] ] ] ] ` ` ` U P P L                                       ",
"                                      r S P t # % % # 4 F ` ` ` ] [ ` ` ` ` ] ` ) M 3                                           ",
"                                        : 2 : * % % % # w P ` ` E [ ` E ` ` E ] Y                                               ",
"                                              + % % % % # 4 a Z P U U [ ] E ] U I                                               ",
"                                              , % % % # * # # * 4 5 t s d C s i                                                 ",
"                                                3 * * # * # * # * # # # # # :                                                   ",
"                                                  < * * # * # * # # * # * 1                                                     ",
"                                                      * # $ * * * # # * ,                                                       ",
"                                                      > # 4       : * *                                                         ",
"              o.o.o.o.                                : * :       : * +                                                         ",
"            o.o.o.o.o.o.o.o.o.o.o.o.o.o.              * # :       : # w                                                         ",
"                    o.o.o.o.o.o.o.o.o.o.o.o.o.o.O.O. .q # b O.    n 4 A                                                         ",
"                        o.o.o.o.o.o.o.o.o.o.o.o.O.O.O.G r H O.O.o. .n                                                           ",
"                                        o.o.o.o.o.o.o...| o.o.                                                                  ",
"                                                                                                                                ",
"                                                                                                                                ",
"                                                                                                                                ",
"                                                                                                                                ",
"                                                                                                                                ",
"                                                                                                                                ",
"                                                                                                                                "
};
