/* XPM */
static char *enermy_141671357072[] = {
/* columns rows colors chars-per-pixel */
"64 64 85 1 ",
"  c None",
". c #7B735C",
"X c #978E6E",
"o c #9D9273",
"O c #AFA37E",
"+ c #F0BC6D",
"@ c #F1B474",
"# c #F0B870",
"$ c #F6CB4E",
"% c #F7CC4E",
"& c #F9CD4A",
"* c #F9CD4B",
"= c #F8CD4C",
"- c #F8CD4D",
"; c #F9CE4F",
": c #F2CA53",
"> c #F5CB50",
", c #F4CB52",
"< c #F5CC50",
"1 c #F6CC50",
"2 c #F7CC51",
"3 c #F2CB55",
"4 c #F1CB56",
"5 c #F2CC55",
"6 c #F5CD57",
"7 c #F9CF52",
"8 c #F9D157",
"9 c #FAD25B",
"0 c #CAD777",
"q c #CCD877",
"w c #D4DF71",
"e c #D5DF71",
"r c #D3DB7D",
"t c #F1C363",
"y c #F9D363",
"u c #FAD769",
"i c #FBD972",
"p c #FBDB79",
"a c #FBDB7B",
"s c #D6E16D",
"d c #D8E36C",
"f c #D6E074",
"g c #BDB088",
"h c #CABC90",
"j c #EFAE82",
"k c #F0AA89",
"l c #F1A592",
"z c #F1A593",
"x c #F3A492",
"c c #F2A594",
"v c #CFC194",
"b c #DFCF9E",
"n c #F3D586",
"m c #FCDE82",
"M c #F5DB8A",
"N c #F6DB8A",
"B c #FCE089",
"V c #F9E193",
"C c #FCE391",
"Z c #FCE497",
"A c #FDE69D",
"S c #E5D5A3",
"D c #EDDCA8",
"F c #F9E4A0",
"G c #FDE8A3",
"H c #FDE9A7",
"J c #FEEAAB",
"K c #F2E5B0",
"L c #F7E7B5",
"P c #FAEBB2",
"I c #FEECB3",
"U c #F8E8B5",
"Y c #F9E9B5",
"T c #F9EAB4",
"R c #F9EAB5",
"E c #FAEAB4",
"W c #FBEAB4",
"Q c #FBEBB4",
"! c #FDECB4",
"~ c #FEEDB4",
"^ c #FEEEB5",
"/ c #FFEFB5",
"( c #FFEFB6",
") c #FFEFB7",
"_ c #E3E1EE",
/* pixels */
"                                                                ",
"                                                                ",
"                                                                ",
"                                                                ",
"                                                                ",
"                                                                ",
"                                qwwf                            ",
"                               rrwsdsf                          ",
"                              EPQK qwsw                         ",
"                             A^I^Q    0q                        ",
"                             BI^^^E                             ",
"                            >a^I^^E                             ",
"                            6i^^Q^^                             ",
"                            <i^II^P                             ",
"                            %i^I^II                             ",
"                            <iI^I^I                             ",
"                            %a^I^I^                             ",
"                            ;mI^I^IL                            ",
"                            =B^I^I^K                            ",
"                            =C^II^^E                            ",
"                           4;AI^^I^P                            ",
"                           >8H^II^IE                            ",
"                           %uII^^I^Q                            ",
"                           %m^^II^I^                            ",
"                          :9H^I^^I^IE                           ",
"                          <mI^^II^I^Q                           ",
"                          yJ^I^I^I^I^K                          ",
"                         6C^I^I^I^I^^Q                          ",
"                         uII^I^II^I^^IE                         ",
"                        <B^^I^I^^I^II^^                         ",
"                        7A^I^I^II^I^I^^L                        ",
"                       >7GI^I^I^^I^I^Q^P                        ",
"                       %;A^II^I^I^I^I^II                        ",
"                       ;&B^^^I^I^I^I^I^^E                       ",
"                      3&&a^II^I^I^I^I^I^E                       ",
"                      >&&uII^I^I^I^I^I^IE                       ",
"                      <;&9H^^I^^^^I^^^I^^                       ",
"                      <&&;Z^I^^SS((^DgIIP                       ",
"                      >&&&p^^I^X.gOOo.P^P                       ",
"                      7&;&9HI^^bhhhvbD^I^                       ",
"                     N;&=&&mI^^^((((^^I^II                      ",
"                    EJ9&&=&8HII^^II^^I^I^^E                     ",
"                   N^J9&==&&pI^I^I^II^^QACE                     ",
"                   6mp<>==;&;pGI^^^^^I^PN<n                     ",
"                   #<6 4;&&&;&8umCAHJJHC k                      ",
"                   c    >&;&&&&&&&7899<                         ",
"                         >==&&&&&&&&&<                          ",
"                          :=;&;&&;&;> c                         ",
"                    x      %&7><>&;> c                          ",
"                     c     ;&3  3&=@c                           ",
"                      xx  t&;+  #;>                             ",
"                          #;<j                                  ",
"   _______                 3                                    ",
"     __________________                                         ",
"         ________________________                               ",
"           ______________________                               ",
"                                                                ",
"                                                                ",
"                                                                ",
"                                                                ",
"                                                                ",
"                                                                ",
"                                                                ",
"                                                                "
};
