/* XPM */
static char *enermy_51671357071[] = {
/* columns rows colors chars-per-pixel */
"64 64 107 2 ",
"   c None",
".  c #79735A",
"X  c #928A6B",
"o  c #A19875",
"O  c #F5BB64",
"+  c #F4B76C",
"@  c #F7CC4F",
"#  c #F7CD4F",
"$  c #F9CD4C",
"%  c #F8CD4D",
"&  c #F9CD4D",
"*  c #F8CD4E",
"=  c #F6C357",
"-  c #F3CA52",
";  c #F5CB52",
":  c #F5CB53",
">  c #F7CC50",
",  c #F5CC53",
"<  c #F6CD52",
"1  c #F3CB56",
"2  c #F4CC55",
"3  c #F8C953",
"4  c #F9CF51",
"5  c #F6CE5B",
"6  c #F2CC5D",
"7  c #FAD056",
"8  c #F8D05C",
"9  c #D2DF6D",
"0  c #C4D677",
"q  c #CAD976",
"w  c #C0D47C",
"e  c #CCD87E",
"r  c #D1DE72",
"t  c #F5CF62",
"y  c #F7D263",
"u  c #F6D164",
"i  c #FAD464",
"p  c #FAD669",
"a  c #FBD76F",
"s  c #EFCF75",
"d  c #F9D771",
"f  c #FBDA76",
"g  c #FBDB7A",
"h  c #F9D97C",
"j  c #D6E16E",
"k  c #D7E171",
"l  c #AFA580",
"z  c #B1A680",
"x  c #B4AA82",
"c  c #B4A984",
"v  c #F1B390",
"b  c #F3B89B",
"n  c #F2B7A3",
"m  c #D4C797",
"M  c #DADB91",
"N  c #F6C485",
"B  c #F5CC82",
"V  c #F5D986",
"C  c #FBDD81",
"Z  c #FCDF87",
"A  c #F7CA9E",
"S  c #FAD890",
"D  c #FCE28F",
"F  c #E1E090",
"G  c #FCE392",
"H  c #FDE497",
"J  c #FEE59A",
"K  c #FBE49C",
"L  c #F0C0AD",
"P  c #F0C1AE",
"I  c #E3D4A2",
"U  c #EBDCA7",
"Y  c #F8D1A4",
"T  c #F7D2AA",
"R  c #F4D1AE",
"E  c #F7D9AF",
"W  c #F9DAAE",
"Q  c #FDE7A0",
"!  c #FDE9A4",
"~  c #F0E0AB",
"^  c #F9E7AA",
"/  c #FFEBAB",
"(  c #F4E6B3",
")  c #F7E7B3",
"_  c #F9E0B0",
"`  c #FBE4B0",
"'  c #F7E8B5",
"]  c #F7E8B6",
"[  c #FDEAB3",
"{  c #FEECB0",
"}  c #F8E8B4",
"|  c #F8E8B5",
" . c #F8EAB5",
".. c #FAEAB4",
"X. c #FBEBB4",
"o. c #FBEBB5",
"O. c #FCEBB4",
"+. c #FCECB4",
"@. c #FDECB4",
"#. c #FEEDB5",
"$. c #FEEEB4",
"%. c #FFEEB5",
"&. c #FFEFB5",
"*. c #FEEEB6",
"=. c #E2E1EE",
"-. c #E3E1EE",
";. c #E3E1EF",
/* pixels */
"                                                                                                                                ",
"                                                                                                                                ",
"                                                                                                                                ",
"                                                                                                                                ",
"                                                                                                                                ",
"                                                                                                                                ",
"                                                                                                                                ",
"                                                                                                                                ",
"                                                                                                                                ",
"                                                              q r j k                                                           ",
"                                                              F M e 9 j                                                         ",
"                                                          ) @.@.@.)   0 r                                                       ",
"                                                          J *.#.#.#.X.  q w                                                     ",
"                                                        6 D *.#.#.@.X.    0                                                     ",
"                                                        : g @.*.#.#.X.    w                                                     ",
"                                                        : g *.@.#.@.@.                                                          ",
"                                                        > g @.*.*.{ *.                                                          ",
"                                                        > g *.*.*.*.@.                                                          ",
"                                                        $ h *.*.#.#.*.}                                                         ",
"                                                        $ D *.*.#.#.*.)                                                         ",
"                                                        $ D *.*.#.#.#.)                                                         ",
"                                                      : 4 J @.@.#.#.#.X.                                                        ",
"                                                      : 4 ! @.*.#.#.#.X.                                                        ",
"                                                      : i @.*.@.#.#.*.X.                                                        ",
"                                                      > f *.@.*.#.#.#.#.                                                        ",
"                                                      4 H *.*.@.#.#.#.#.}                                                       ",
"                                                    : a @.@.#.#.#.#.#.#.X.                                                      ",
"                                                    8 Q #.#.#.#.#.#.#.#.*.                                                      ",
"                                                  2 Z *.*.#.#.#.*.@.*.*.*.X.                                                    ",
"                                                  d / @.#.#.#.#.@.*.@.*.#.@.X.                                                  ",
"                                                5 H *.*.#.#.#.#.*.@.*.*.*.*.X.                                                  ",
"                                                p { *.*.#.#.#.#.@.*.*.{ *.{ *.'                                                 ",
"                                              : g #.#.#.#.#.#.#.{ *.@.^ W W W E                                                 ",
"                                              $ f #.#.#.#.#.#.` W T T T W W W W R n P                                           ",
"                                            - $ p @.#.#.[ W T T W ` #.#.#.*.*.*.X.    n                                         ",
"                                            : & 4 Q [ T Y T ^ @.*.{ #.#.#.#.#.#.*.      n                                       ",
"                                            4 & 4 S Y Y ` #.*.#.*.{ *.*.#.#.#.#.#.                                              ",
"                                            & 3 + N ^ @.#.#.#.#.*.*.*.$.#.*.#.#.*.}                                             ",
"                                            O + = i ` *.*.#.*.*.*.*.$.$.{ E @.#.*.)                                             ",
"                                          v O 3 & 4 J *.*.{ *.z o U I I m . I *.*.X.' ' v                                       ",
"                                        b Y y $ & & f / #.#.*.x X o o o z c E $.$.{ $.J B                                       ",
"                                      B Y *.Z $ & & 4 H #.#.{ @.@.@.#.{ / J D d f ! ! g ^                                       ",
"                                      u K #.D & & & & i / #.#.@.*.@.H f p d C G D d y u                                         ",
"                                        i h i & & & & & g @.*.@.D p p Z K @.#.*.{                                               ",
"                                              $ $ $ $ & $ f G d y D { *.*.*.*.*.^                                               ",
"                                              : 4 $ $ 4 $ $ $ $ p Z G J Q ! Q S                                                 ",
"                                                > $ & & $ $ $ 4 $ $ $ 4 4 7 4 -                                                 ",
"                                                  : & & & 4 $ $ $ $ $ $ 4 $ 1                                                   ",
"                                                    1 $ $ 4 $ $ $ $ $ $ 2                                                       ",
"                                                      # $ > : : 2 > $ #                                                         ",
"                                                      $ $ 6       2 $ #                                                         ",
"                                                      $ $         > $ 7                                                         ",
"          ;.-.-.-.-.-.                                $ $         2 7 h                                                         ",
"            -.-.-.-.-.-.-.-.-.-.-.-.-.-.-.-.          s 6           > V                                                         ",
"                  -.-.-.-.-.-.-.-.-.-.-.-.-.-.-.;.-.;.-.;.-.-.                                                                  ",
"                      -.-.-.-.-.;.-.-.-.-.-.-.-.-.-.-.-.;.-.-.-.-.-.                                                            ",
"                                          -.-.-.-.-.-.-.                                                                        ",
"                                                                                                                                ",
"                                                                                                                                ",
"                                                                                                                                ",
"                                                                                                                                ",
"                                                                                                                                ",
"                                                                                                                                ",
"                                                                                                                                "
};
