/* XPM */
static char *enermy_81671357071[] = {
/* columns rows colors chars-per-pixel */
"64 64 94 2 ",
"   c None",
".  c #7A735B",
"X  c #8F8769",
"o  c #A09575",
"O  c #ADA27D",
"+  c #B7D17F",
"@  c #F7CB4D",
"#  c #F5CB4E",
"$  c #F6CB4E",
"%  c #F6CB4F",
"&  c #F7CC4C",
"*  c #F6CC4F",
"=  c #F8CC4B",
"-  c #F8CC4C",
";  c #F8CD4F",
":  c #F3CA52",
">  c #F3CB53",
",  c #F4CB50",
"<  c #F4CB51",
"1  c #F4CB53",
"2  c #F1CA56",
"3  c #F8CE52",
"4  c #F2CB5A",
"5  c #F6C85A",
"6  c #F7CF5A",
"7  c #F9D059",
"8  c #F9D25D",
"9  c #C1D876",
"0  c #CED979",
"q  c #D1DE73",
"w  c #D1DD77",
"e  c #D5DF76",
"r  c #D6DF77",
"t  c #F4C662",
"y  c #F3CE61",
"u  c #F9D260",
"i  c #FAD465",
"p  c #F8D469",
"a  c #FAD76E",
"s  c #F0C473",
"d  c #F1C175",
"f  c #F4C479",
"g  c #F0C979",
"h  c #F5CF7C",
"j  c #FAD976",
"k  c #FBDA79",
"l  c #FBDC7F",
"z  c #D1E06F",
"x  c #D7E26C",
"c  c #B2A681",
"v  c #B3A782",
"b  c #F0BDAE",
"n  c #CEC094",
"m  c #DEDD9F",
"M  c #F2C486",
"N  c #F0C38F",
"B  c #FBDE85",
"V  c #F2C593",
"C  c #FCE18E",
"Z  c #FAE398",
"A  c #FCE598",
"S  c #FBE59E",
"D  c #F0C2A4",
"F  c #F1C3A9",
"G  c #F1C0AF",
"H  c #E6D6A4",
"J  c #EEDEA9",
"K  c #F1C2B1",
"L  c #F1C4B2",
"P  c #F2CAB1",
"I  c #F9E5A3",
"U  c #FDE6A0",
"Y  c #F3E6AE",
"T  c #F8E4AE",
"R  c #F4E8A9",
"E  c #FDE9A8",
"W  c #FEECAE",
"Q  c #F6E6B2",
"!  c #F8E7B0",
"~  c #F7E8B6",
"^  c #FCEBB3",
"/  c #F8E8B4",
"(  c #F8E8B5",
")  c #F9E9B5",
"_  c #FBEAB4",
"`  c #FBEBB5",
"'  c #FCECB4",
"]  c #FDECB4",
"[  c #FDECB5",
"{  c #FEEDB4",
"}  c #FFEEB5",
"|  c #FFEFB5",
" . c #FEEEB6",
".. c #E3E1EE",
/* pixels */
"                                                                                                                                ",
"                                                                                                                                ",
"                                                                                                                                ",
"                                                                                                                                ",
"                                                                                                                                ",
"                                                                                                                                ",
"                                                                  e w                                                           ",
"                                                              e 0 z x e                                                         ",
"                                                            ~ R Y m w z q                                                       ",
"                                                          I { { { {     w w                                                     ",
"                                                          C { { { { )     9                                                     ",
"                                                        : B { { { { )     +                                                     ",
"                                                        @ k { { { { '                                                           ",
"                                                        * j { { { { '                                                           ",
"                                                        * j { { { { {                                                           ",
"                                                        * k { { { { {                                                           ",
"                                                        * l { { { { { Q                                                         ",
"                                                        = B  .{ { { { (                                                         ",
"                                                        - C  .{ { { { (                                                         ",
"                                                      4 - A  .{ { { { )                                                         ",
"                                                      < 3 S { { { { { )                                                         ",
"                                                      < u W { { { { { {                                                         ",
"                                                      * j { { { { { { '                                                         ",
"                                                      3 A { { { { { { { )                                                       ",
"                                                    1 a { { { { { { { { )                                                       ",
"                                                    6 U { { { { { { { { {                                                       ",
"                                                  : l { { { { { { { { { { '                                                     ",
"                                                  p E { { { { { { { { { { {                                                     ",
"                                                1 C { { { { { { { { { { { { )                                                   ",
"                                                7 E { { { { { { { { { { { { { )                                                 ",
"                                              1 i W { { { { { { { { { { { { { )                                                 ",
"                                              @ i W { { { { { { { { { { { { { {                                                 ",
"                                              - 7 E { { { { { { { { { { { { { { )                                               ",
"                                            1 = < A { { { { { { { { { { { { { { {                                               ",
"                                            1 = = B { { { { { { { { { { { { { { )                                               ",
"                                            * - = a { { { { { { { { { { { { { { {                                               ",
"                                            @ = = 8 E { { { { { {  .{ { { J { { {                                               ",
"                                            @ * - - C | { { | v o J H H n . J { {                                               ",
"                                            - - = = j W { { { v X o o o O v T { { )                                             ",
"                                          Q B - = = 3 A { { { { ) { { { { { { { { { { )                                         ",
"                                        ) { E 7 = - = i W { { { { { { { { { { { { W { { ~                                       ",
"                                        S { { 8 = - - - B { { { { { { { { { { { E p k U P                                       ",
"                                        h Y Z 3 = - - = 3 B W { { { { { { { { { !   2 g F                                       ",
"                                          V   @ - - - - = - u k C A E W W W W S         K                                       ",
"                                            K   * - - - - - = = - 3 7 u i i u y                                                 ",
"                                              K   * - - - - - - - - = = = = :                                                   ",
"                                                G   1 - - - = - - - - - *             F                                         ",
"                                                  b N 5 = * < @ * - - *             P                                           ",
"                                                    d f f g       * - <         P K                                             ",
"                                                    1 - t F G L D f f M L L L                                                   ",
"                                                      1           t 5 s                                                         ",
"                                                                    :                                                           ",
"      ................                                                                                                          ",
"          ....................................                                                                                  ",
"                ..............................................                                                                  ",
"                      ..........................................                                                                ",
"                                                                                                                                ",
"                                                                                                                                ",
"                                                                                                                                ",
"                                                                                                                                ",
"                                                                                                                                ",
"                                                                                                                                ",
"                                                                                                                                ",
"                                                                                                                                "
};
