/* XPM */
static char *enermy_191671357073[] = {
/* columns rows colors chars-per-pixel */
"64 64 103 2 ",
"   c None",
".  c #6E6952",
"X  c #7F785E",
"o  c #9A9071",
"O  c #AEA37E",
"+  c #F7CC4E",
"@  c #F7CC4F",
"#  c #FACD49",
"$  c #F9CD4B",
"%  c #F9CD4C",
"&  c #F8CD4E",
"*  c #F9CE4F",
"=  c #F4CB53",
"-  c #F6CC50",
";  c #F6CC52",
":  c #F6CD53",
">  c #F3CB55",
",  c #F3CB56",
"<  c #F4CB54",
"1  c #F5CD57",
"2  c #F2CB58",
"3  c #F2CB59",
"4  c #FAD158",
"5  c #CBDB73",
"6  c #CBDA76",
"7  c #D1DC78",
"8  c #D5DE78",
"9  c #D1DD7C",
"0  c #F3CE65",
"q  c #F2CE66",
"w  c #FAD463",
"e  c #FAD565",
"r  c #FBD76D",
"t  c #EECF7B",
"y  c #FBDA77",
"u  c #F0D179",
"i  c #FBDC7D",
"p  c #D3E06F",
"a  c #D7E26D",
"s  c #D6E172",
"d  c #D6E173",
"f  c #D7E173",
"g  c #B9AD85",
"h  c #C0B38A",
"j  c #CABC90",
"k  c #D4C697",
"l  c #DFD09F",
"z  c #F1C481",
"x  c #F5DA87",
"c  c #F9DB82",
"v  c #FCDE82",
"b  c #F0D88A",
"n  c #EDD497",
"m  c #FCE08A",
"M  c #FCE290",
"N  c #FDE496",
"B  c #F7E09A",
"V  c #FDE69D",
"C  c #E7D3A6",
"Z  c #E8D8A4",
"A  c #EEDDA9",
"S  c #F6D6AE",
"D  c #F0C3B1",
"F  c #F1C4B1",
"G  c #F1C4B2",
"H  c #F2C7B2",
"J  c #F3C6B5",
"K  c #F2CBB0",
"L  c #F2CDB2",
"P  c #F1D0B1",
"I  c #F2D9B2",
"U  c #F5D9B2",
"Y  c #F6DAB2",
"T  c #E8E0A9",
"R  c #FAE5A1",
"E  c #FDE8A3",
"W  c #FDE9A7",
"Q  c #FEEBAC",
"!  c #F7E7B1",
"~  c #F9E4B0",
"^  c #F9E7B3",
"/  c #F7E8B5",
"(  c #FBEBB1",
")  c #FEEDB1",
"_  c #F9E9B5",
"`  c #FAEAB4",
"'  c #FBEAB4",
"]  c #FAEBB4",
"[  c #FDEBB4",
"{  c #FDEDB4",
"}  c #FDECB5",
"|  c #FEEDB4",
" . c #FEEDB5",
".. c #FFEEB4",
"X. c #FFEEB6",
"o. c #FFEFB6",
"O. c #E6D9C2",
"+. c #E3DEE2",
"@. c #E3DFE5",
"#. c #E3E0E8",
"$. c #E3E1ED",
"%. c #E3E1EE",
"&. c #E3E1EF",
/* pixels */
"                                                                                                                                ",
"                                                                                                                                ",
"                                                                                                                                ",
"                                                                                                                                ",
"                                                                                                                                ",
"                                                                                                                                ",
"                                                                                                                                ",
"                                                                                                                                ",
"                                                                                                                                ",
"                                                                                                                                ",
"                                                                7 d d 8                                                         ",
"                                                              9 9 9 a a s                                                       ",
"                                                            } ( } A   6 p s                                                     ",
"                                                          E ..[ } }       6 5                                                   ",
"                                                        3 x ..} } { ]                                                           ",
"                                                        , v ....{ { }                                                           ",
"                                                        ; y [ ....[ ..                                                          ",
"                                                        ; y ........[                                                           ",
"                                                        + y ..[ } ....                                                          ",
"                                                        + i ......} ..                                                          ",
"                                                        ; v ..} } } ..!                                                         ",
"                                                F F K z & m } ..) ..} /                                                         ",
"                                              F         $ M } ......../                                                         ",
"                                            F         3 & V ..} [ [ ..!                                                         ",
"                                          J           < 4 W ........} }                                                         ",
"                                                      ; e ) ..} ..[ ..}                                                         ",
"                                        F             & c ....) ..} ..}                                                         ",
"                                                      4 E ..} } } ..} ) ^                                                       ",
"                                                    < i ....} ....} [ ..[ F                                                     ",
"                                                    e Q ......} } ........S                                                     ",
"                                                  ; N ....} ....) ....[ ) ^ K                                                   ",
"                                                  y ) ..} ..} ) ..} ..[ ....Y                                                   ",
"                                                - V ..} } ....} } ..} ..} } } K                                                 ",
"                                              3 e ) } ....) } ..) } ..} ) ..} ~                                                 ",
"                                              ; r ....} } ....} ..} ..........} K                                               ",
"                                              $ e ( } ..) } ) } } ..} ) } ) [ } Y                                               ",
"                                            , $ 4 W ....} ..} ....} } ....} ) ..( D                                             ",
"                                            ; & & N } ....} ..} } ..) } } ....} } P                                             ",
"                                            & & & c } ............} } ..} ..} ..[                                               ",
"                                            + $ $ r ....[ ........) ..} ....) } ..                                              ",
"                                            & & $ 4 W } } o...A A ..} o.! j ~ { { / I                                           ",
"                                      P   b & $ # & v } ..} o.o X j g g g . Z { { { ..(                                         ",
"                                      ^ ) [ e $ & # e Q } ....k h h h h k l ( } ..} ..}                                         ",
"                                      m ....y $ $ $ & m } o...o.o.o.o.o.} ......} Q V B                                         ",
"                                      1 y m e $ % % # 4 W } [ ..o.o.} ..} ..} ) ( x                                             ",
"                                          3 < & % & & # r Q ......o.......} ....}                                               ",
"                                              + & # $ & & e M W ......} ..} } ..!                                               ",
"                                              , # & $ $ $ $ & 4 e y v M N N N c                                                 ",
"                                                < & $ & & % % # $ $ $ $ * & +                                                   ",
"                                                  < & # # & % % $ & $ & & ;                                                     ",
"                                                      & & # $ & $ & $ & <                                                       ",
"                                                      ; & & 2 2 2 & & &                                                         ",
"            &.$.$.$.&.                                < & *       - & -                                                         ",
"          &.&.&.$.&.&.&.&.&.#.&.%.%.                  * & -       * & <                                                         ",
"                    #.&.$.&.&.&.%.%.%.%.%.%.%.&.%.&.+.0 $ 0 %.    0 $ u                                                         ",
"                        &.$.&.&.%.&.%.%.%.%.%.%.%.%.%.n & n %.%.%.O.t                                                           ",
"                                        %.@.%.%.&.&.%.#.C @.%.                                                                  ",
"                                                                                                                                ",
"                                                                                                                                ",
"                                                                                                                                ",
"                                                                                                                                ",
"                                                                                                                                ",
"                                                                                                                                ",
"                                                                                                                                "
};
