/* XPM */
static char *enermy_371671357075[] = {
/* columns rows colors chars-per-pixel */
"64 64 93 2 ",
"   c None",
".  c #787159",
"X  c #998F6F",
"o  c #A89D7A",
"O  c #F7CC4F",
"+  c #F9CD4B",
"@  c #F8CD4C",
"#  c #F9CD4C",
"$  c #F8CD4D",
"%  c #F8CC4E",
"&  c #F4CB52",
"*  c #F4CB53",
"=  c #F5CC51",
"-  c #F6CC50",
";  c #F7CC50",
":  c #F4CC53",
">  c #F6CC53",
",  c #F2CA55",
"<  c #F3CB55",
"1  c #F3CB56",
"2  c #F4CB55",
"3  c #F4CA57",
"4  c #F5CD56",
"5  c #F8CD50",
"6  c #F9CF51",
"7  c #F2CC59",
"8  c #F6CC5A",
"9  c #FAD156",
"0  c #FAD25D",
"q  c #CEDC73",
"w  c #CAD779",
"e  c #D3DF71",
"r  c #D0DB75",
"t  c #D6DF75",
"y  c #D5DE7C",
"u  c #FAD464",
"i  c #F1D075",
"p  c #FBD974",
"a  c #FBDB79",
"s  c #FCDD7F",
"d  c #D7E26D",
"f  c #D6E16E",
"g  c #B9AD85",
"h  c #C1B48A",
"j  c #C8BB8F",
"k  c #EFAA92",
"l  c #CCD784",
"z  c #D7C899",
"x  c #F7DB87",
"c  c #FCDD82",
"v  c #FCDE85",
"b  c #FCDF88",
"n  c #FADE8C",
"m  c #EFCB9E",
"M  c #E0DE98",
"N  c #FDE18D",
"B  c #E6E295",
"V  c #FDE393",
"C  c #FEE69D",
"Z  c #E3D3A1",
"A  c #EAD6A9",
"S  c #EEDDA8",
"D  c #E7D9BE",
"F  c #FBE6A6",
"G  c #FEE8A3",
"H  c #FEEAA8",
"J  c #FFEBAD",
"K  c #F7E6B0",
"L  c #F8E7B4",
"P  c #FAE9B0",
"I  c #FBE9B2",
"U  c #FAE9B3",
"Y  c #FFECB1",
"T  c #F9E8B4",
"R  c #F9E8B5",
"E  c #FAE9B4",
"W  c #FBEAB4",
"Q  c #FAEAB5",
"!  c #FDEBB4",
"~  c #FDECB4",
"^  c #FEECB4",
"/  c #FEEDB4",
"(  c #FFEDB4",
")  c #FFEEB6",
"_  c #FFEFB6",
"`  c #E4DACB",
"'  c #E5DCD4",
"]  c #E4DCD5",
"[  c #E3E0E8",
"{  c #E3E1EC",
"}  c #E2E1EE",
"|  c #E3E1EE",
" . c #E3E1EF",
/* pixels */
"                                                                                                                                ",
"                                                                                                                                ",
"                                                                                                                                ",
"                                                                                                                                ",
"                                                                                                                                ",
"                                                                                                                                ",
"                                                                                                                                ",
"                                                                                                                                ",
"                                                                    y                                                           ",
"                                                              r q d d d t                                                       ",
"                                                              B M l q d d e                                                     ",
"                                                          K ) Y ) Q     w q e                                                   ",
"                                                          V Y ) ) Y L                                                           ",
"                                                        4 c ) ) Y ) Q                                                           ",
"                                                        3 a Y ) ) Y !                                                           ",
"                                                        = p ) ) ) ^ !                                                           ",
"                                                        = p ) Y ^ ) )                                                           ",
"                                                        % p Y ) Y ) Y                                                           ",
"                                                        5 a Y ) ) Y Y                                                           ",
"                                                        % s ) Y ) ) ) L                                                         ",
"                                                        % v ) ) ^ Y ) L                                                         ",
"                                                        % V ) ) Y ) ) Q                                                         ",
"                                                      < 5 C ) Y Y ^ ^ Q                                                         ",
"                                                      = 9 H Y ) Y ^ ^ ^                                                         ",
"                                                      = u ^ Y ) ) ) Y !                                                         ",
"                                                      5 c Y ) Y ) Y ^ )                                                         ",
"                                                      9 G ^ ) Y Y ^ Y ) Q                                                       ",
"                                                    3 s ) ) Y ^ ) ) ) Y !                                                       ",
"                                                    u H ) Y ) ) ) Y ^ ) ) K                                                     ",
"                                                  4 V Y ) ) Y ) ) ) Y ) Y !                                                     ",
"                                                  p Y ) ^ Y ) Y ^ Y ) Y Y ) Q                                                   ",
"                                                = V ) ) Y ) ) ^ Y ) Y ) ) ) !                                                   ",
"                                                0 H ^ ) Y ^ Y ) ) ) ^ Y ) ) ^ T                                                 ",
"                                              = 0 J Y ) ) ) ) Y Y ^ ) ) Y ) ^ ^                                                 ",
"                                              % 0 H ) Y Y ) ) ^ ) ) ^ Y ^ ) Y ) L                                               ",
"                                            8 @ 5 C ) Y ^ ) ) Y Y ) Y ) Y ) Y ^ Q                                               ",
"                                            3 @ % N ) Y ) Y ) ) ) ) Y ) ) ) ^ Y P                                               ",
"                                        k k 8 @ @ a ) ) Y ) ) Y Y Y ) ) Y ) Y ) )                                               ",
"                                      k     % @ @ u J Y Y ) ) ) ) ) ) Y ! ) ) ) !                                               ",
"                                            % @ @ 9 C ) ) Y ) S S ) ) ) P j J ^ ) K                                             ",
"                                            5 % # + v ) ) Y _ X . h g g o . S ) Y ) Q                                           ",
"                                    m P ) F 9 @ + + u J Y ) ) z h h h j z Z ) ) ) Y ) Q                                         ",
"                                      V ) J u @ + + @ N ) ) Y ) ) ) ) ) ) _ ) ) ) Y H                                           ",
"                                      8 s N 0 @ + + + 0 H ) ) Y Y ) ) Y Y ) Y Y J x                                             ",
"                                        , = 4 @ # # # + p Y ) Y ) Y Y ) Y ) Y ) K                                               ",
"                                              % # # # # @ p C J ) ) ) Y ) ) ) ) L                                               ",
"                                              , % # + + @ @ 9 u p v V C G G C n                                                 ",
"                                                = # # + @ @ # + @ @ @ 9 9 9 5                                                   ",
"                                                  > % @ @ @ @ # + @ @ @ @ =                                                     ",
"                                                    7 % @ @ + + # @ @ @ >                                                       ",
"                                                      = % % = 3 ; % @ >                                                         ",
"                                                      O % 4       @ @ >                                                         ",
"           . . .| | |                                 O % =       % %                                                           ",
"             . .| | | {  . . . . . . . . .            % @ 3       5 =                                                           ",
"                  | { |  . . . .{  . .{  . . . . . .{ i % A |    .] `                                                           ",
"                      | { {  . .{  . . . . . . . . . .' D [ | |  . .                                                            ",
"                                           . . . . . . . .                                                                      ",
"                                                                                                                                ",
"                                                                                                                                ",
"                                                                                                                                ",
"                                                                                                                                ",
"                                                                                                                                ",
"                                                                                                                                ",
"                                                                                                                                "
};
