/* XPM */
static char *enermy_341671357075[] = {
/* columns rows colors chars-per-pixel */
"64 64 84 1 ",
"  c None",
". c #7A735B",
"X c #7D765D",
"o c #9A9171",
"O c #AEA37E",
"+ c #F0BA6C",
"@ c #F1B573",
"# c #F0B476",
"$ c #F9CD47",
"% c #F7CC4D",
"& c #F7CD4E",
"* c #F6CC4F",
"= c #F9CD4A",
"- c #F8CD4B",
"; c #F8CD4C",
": c #F9CE4D",
"> c #F5CB50",
", c #F4CB51",
"< c #F5CB52",
"1 c #F6CC50",
"2 c #F2CB55",
"3 c #F2CC55",
"4 c #F6CD57",
"5 c #F2C65C",
"6 c #F5CB5A",
"7 c #F9D052",
"8 c #FAD25A",
"9 c #CCD776",
"0 c #C3D378",
"q c #C2D479",
"w c #CED87E",
"e c #D3DF71",
"r c #D1DB77",
"t c #D6DF74",
"y c #D6DF75",
"u c #D4DE76",
"i c #F1C263",
"p c #F9D463",
"a c #FAD769",
"s c #FBD972",
"d c #FBDB7A",
"f c #D7E26D",
"g c #BDB188",
"h c #C8BA90",
"j c #CABD91",
"k c #F0AD85",
"l c #F2A592",
"z c #F2A593",
"x c #F1A694",
"c c #CFC194",
"v c #F3D586",
"b c #FBDD80",
"n c #FCDF84",
"m c #F5DB8A",
"M c #F6DB8A",
"N c #FCDF88",
"B c #FCE18C",
"V c #F9E193",
"C c #FDE391",
"Z c #FDE59B",
"A c #E1D2A1",
"S c #E5DEA8",
"D c #EDDDA8",
"F c #FAE4A0",
"G c #FDE8A2",
"H c #F6E6AF",
"J c #F7E9AD",
"K c #FEEAA9",
"L c #F7E7B5",
"P c #FAEAB3",
"I c #FEECB1",
"U c #F8E9B4",
"Y c #F8E8B5",
"T c #F8E9B5",
"R c #F9E9B5",
"E c #FAEAB4",
"W c #FBEBB4",
"Q c #FCECB4",
"! c #FDECB4",
"~ c #FDEDB5",
"^ c #FEEDB4",
"/ c #FEEEB5",
"( c #FFEFB6",
") c #E2E1EE",
/* pixels */
"                                                                ",
"                                                                ",
"                                                                ",
"                                                                ",
"                                                                ",
"                                                                ",
"                                ruey                            ",
"                               uwefffu                          ",
"                              !JPS 9ufe                         ",
"                             F!!/^    q0                        ",
"                             NI/^^R                             ",
"                            >d/!^^R                             ",
"                            4sI/^^P                             ",
"                            *s/!^//                             ",
"                            *s!/^^^                             ",
"                            %s/!^^^                             ",
"                            1dI//!/                             ",
"                            -n/!!/IY                            ",
"                            -n///I^Y                            ",
"                            :C//!//R                            ",
"                           3:Z^^/I/R                            ",
"                           >8K^^!/!!                            ",
"                           %aI^^/!/I                            ",
"                           %n/^^!/!!                            ",
"                          28K^^^/I/IR                           ",
"                          1n^^^^!///!                           ",
"                          pK^^^^/I/!/R                          ",
"                         4C/^^^^!/!//R                          ",
"                         aI^^^^^^^^^^^R                         ",
"                        1B/^^^^^^^^^^^/                         ",
"                        7G/^^^^^^^^^^^^L                        ",
"                       >7G^^^^^^^^^^^^^P                        ",
"                       ::Z!//!/I^^^^^^^^                        ",
"                       $-B/!I/!/^^^^^^^^R                       ",
"                      4-$dI//!/!^^^^^^^^P                       ",
"                      <-$aI/!/!/^^^^^^^^R                       ",
"                      1--8K//I///^^^///^!                       ",
"                      1--$Z/!//AA(//DgI^/                       ",
"                      >===d//!/o.gOOoXL^/                       ",
"                      %===8KI//AjhjcADP^/                       ",
"                     M--===n!///((((//!/!!                      ",
"                    RK8-===8KI!/^^^^/!/I/!R                     ",
"                   m/K8-====dI/!^^^^I///ZCI                     ",
"                   4nd:-====:dGI///^/!//m6v                     ",
"                   +*5 2$:$=$:7adCZKKKGV k                      ",
"                   x    <::=:$$$-:7888%                         ",
"                         <$$$:----$--:                          ",
"                          5%==----$:1 x                         ",
"                    z      %--*%:--> z                          ",
"                     z     --3  2--@x                           ",
"                      zz  i--5  #:1                             ",
"                          +-%k                                  ",
"   )))))))                 4                                    ",
"      ))))))))))))))))                                          ",
"         )))))))))))))))))))))))                                ",
"            )))))))))))))))))))))                               ",
"                                                                ",
"                                                                ",
"                                                                ",
"                                                                ",
"                                                                ",
"                                                                ",
"                                                                ",
"                                                                "
};
