/* XPM */
static char *enermy_91671357071[] = {
/* columns rows colors chars-per-pixel */
"64 64 83 1 ",
"  c None",
". c #78715A",
"X c #978D6E",
"o c #A29776",
"O c #AEA27E",
"+ c #B9CD7D",
"@ c #F7CC4D",
"# c #F7CC4E",
"$ c #F6CC4F",
"% c #F9CD4B",
"& c #F9CD4C",
"* c #F8CD4D",
"= c #F9CE4E",
"- c #F5CB51",
"; c #F5CB52",
": c #F6CC50",
"> c #F6CD53",
", c #F3CB54",
"< c #F3CB57",
"1 c #F4CC55",
"2 c #F9CE50",
"3 c #F9CF51",
"4 c #F3CB59",
"5 c #F6CE58",
"6 c #F7D05E",
"7 c #F8D05B",
"8 c #FAD25A",
"9 c #CFDC73",
"0 c #CEDC75",
"q c #FAD462",
"w c #FBD669",
"e c #FAD76E",
"r c #F0C874",
"t c #FBDA75",
"y c #FCDB7B",
"u c #D4E06D",
"i c #D7E26D",
"p c #D5E16E",
"a c #D4E075",
"s c #BBAE87",
"d c #CCBE92",
"f c #CEBF93",
"g c #F0BFAC",
"h c #CFD78A",
"j c #D3C496",
"k c #FADC81",
"l c #FCDE82",
"z c #F9DC86",
"x c #F8D88A",
"c c #EFC19C",
"v c #E3DF9E",
"b c #FCE089",
"n c #E8E499",
"m c #FDE495",
"M c #FEE69D",
"N c #FCE59E",
"B c #F0C3AE",
"V c #E1D1A0",
"C c #E9D8A5",
"Z c #EFC5B6",
"A c #F0C2B0",
"S c #F0C3B1",
"D c #F9E3A1",
"F c #F4E3AD",
"G c #F8E5A9",
"H c #FEEAA8",
"J c #FCE9AB",
"K c #FFEBAD",
"L c #F7E6B2",
"P c #FFECB1",
"I c #F8E8B5",
"U c #F9E8B5",
"Y c #F9E9B5",
"T c #FAE9B5",
"R c #FBEAB5",
"E c #FCEBB4",
"W c #FDECB4",
"Q c #FEEDB4",
"! c #FFEDB4",
"~ c #FFEDB5",
"^ c #FFEEB6",
"/ c #FFEFB6",
"( c #E3E1EE",
/* pixels */
"                                                                ",
"                                                                ",
"                                                                ",
"                                                                ",
"                                                                ",
"                                                                ",
"                               09ppa                            ",
"                               nnh9p0                           ",
"                             G~/RR  0a                          ",
"                             m~P~~L  0                          ",
"                            <b~~~~R   +                         ",
"                            :t~~P~~                             ",
"                            :t~~~~P                             ",
"                            :t~PP~~                             ",
"                            @t~P~P~                             ",
"                            @y~~~~~                             ",
"                            *b~~~P~L                            ",
"                            %b/~~~~I                            ",
"                            %m/P~PPR                            ",
"                           4=M~~~~~R                            ",
"                           18H~~~~~E                            ",
"                           :wPP/P~QE                            ",
"                           @bP~PQQQQ                            ",
"                          <8H~~~QQQQR                           ",
"                          :l~~PPQQQQP                           ",
"                          wK~~/~QQQQ/R                          ",
"                         1m~P~~~QQQQPE                          ",
"                         tP~~/P~QQQQ~~R                         ",
"                        1m/~~P~P~~/P~~~                         ",
"                        8H~~~~/P~P~~~P~R                        ",
"                       :qK~P~~P~P/~~~PPE                        ",
"                       *8H~~P/~~P~P~~~~~L                       ",
"                      1*3M~~/P~P~~P~~/~PR                       ",
"                      1*%b/P~~~~P~~/~P~~R                       ",
"                      :*%t/~P~~~/P~P~P~PP                       ",
"                      **%qKP~~P//~~~~/~/~                       ",
"                      @**3M~~~/CV/QEFsF~~                       ",
"                      @*%%l~~P/X.sOOo.F/~                       ",
"                      ***%8H~~~VjdjjVCP~PR                      ",
"                      l*%%*l~~~~QE////~~~~~                     ",
"                     ~H8%&%8M~~~E/P~~~~~PP/E                    ",
"                    D~Kq%&&%eK~~/P~~P~P~MeM~                    ",
"                    x~H5%&&&*wmHP~~~~~/~L 6x                    ",
"                    rx 4&&&&%%*8wybmMMmz                        ",
"                     c  1*%&%*%%%%%=33@                         ",
"                         1*&*%**@%***:                          ",
"                      g   4*%&*%%=*@1                           ",
"                          4&&;,1:@%:                            ",
"                       B  1**    **,                            ",
"                        g 4*1    *%                             ",
"                          B      ;;                             ",
"                           AA          B                        ",
"  ((((((((                    ABASSSBA                          ",
"     ((((((((((((((((((                                         ",
"        (((((((((((((((((((((((                                 ",
"           (((((((((((((((((((((                                ",
"                                                                ",
"                                                                ",
"                                                                ",
"                                                                ",
"                                                                ",
"                                                                ",
"                                                                ",
"                                                                "
};
