/* XPM */
static char *enermy_11671357070[] = {
/* columns rows colors chars-per-pixel */
"64 64 94 2 ",
"   c None",
".  c #716954",
"X  c #93896B",
"o  c #A69A78",
"O  c #ADA17D",
"+  c #FACD47",
"@  c #F6CC4D",
"#  c #F7CD4E",
"$  c #F6CC4F",
"%  c #F9CD49",
"&  c #F9CD4A",
"*  c #F8CD4C",
"=  c #F9CE4D",
"-  c #F4CB50",
";  c #F5CB50",
":  c #F5CB52",
">  c #F4CB53",
",  c #F5CD55",
"<  c #F2CB58",
"1  c #F9D054",
"2  c #F8D15E",
"3  c #FAD35E",
"4  c #CFDD71",
"5  c #C2D07C",
"6  c #CAD17B",
"7  c #D2D672",
"8  c #D1D977",
"9  c #D3DE74",
"0  c #F3CE64",
"q  c #F3CF66",
"w  c #F6D163",
"e  c #F4D16C",
"r  c #FAD668",
"t  c #FAD872",
"y  c #FBD974",
"u  c #F3D57D",
"i  c #FBDB79",
"p  c #D6E26E",
"a  c #D5E075",
"s  c #BCAE87",
"d  c #C1B48B",
"f  c #C7B98F",
"g  c #D7B78C",
"h  c #E0B28C",
"j  c #EDAC99",
"k  c #CDD984",
"l  c #D4C597",
"z  c #D9CA9B",
"x  c #FADD86",
"c  c #FCDF85",
"v  c #EDD496",
"b  c #E0DE99",
"n  c #F3DF90",
"m  c #FCE291",
"M  c #FDE59A",
"N  c #EBC5A5",
"B  c #EBC3A9",
"V  c #F0C0AE",
"C  c #E0D0A0",
"Z  c #E5D4A3",
"A  c #E8D4A9",
"S  c #EFC2B2",
"D  c #F1C3B1",
"F  c #F3C6B3",
"G  c #F2C6B4",
"H  c #F5DDB1",
"J  c #F9E4A3",
"K  c #FDE8A4",
"L  c #FEEBAC",
"P  c #FEECAF",
"I  c #F7E7B5",
"U  c #F8E7B0",
"Y  c #F8E7B1",
"T  c #F9E8B1",
"R  c #FEECB2",
"E  c #F8E8B5",
"W  c #F9E9B5",
"Q  c #FBE9B4",
"!  c #FBEBB4",
"~  c #FAEAB5",
"^  c #F8E9B6",
"/  c #FCEBB4",
"(  c #FCECB4",
")  c #FDEDB4",
"_  c #FEEDB4",
"`  c #FFEFB5",
"'  c #FEEEB6",
"]  c #E7D9C2",
"[  c #E4DDDB",
"{  c #E3DDDC",
"}  c #E3DEE1",
"|  c #E3E0EB",
" . c #E3E1EE",
".. c #E3E1EF",
/* pixels */
"                                                                                                                                ",
"                                                                                                                                ",
"                                                                                                                                ",
"                                                                                                                                ",
"                                                                                                                                ",
"                                                                                                                                ",
"                                                                                                                                ",
"                                                                                                                                ",
"                                                                                                                                ",
"                                                                                                                                ",
"                                                          D S B N                                                               ",
"                                                      G       9 8 p p a                                                         ",
"                                                    G         n b k 9 p 9                                                       ",
"                                                          T _ _ _ W   5 7 a                                                     ",
"                                                  D       M ` _ _ _ W   g 6                                                     ",
"                                                V       , c _ _ _ _ W     g 5                                                   ",
"                                                        : i _ _ _ _ /     j                                                     ",
"                                                        $ i _ _ _ _ _                                                           ",
"                                              D         $ i R _ _ _ _       V                                                   ",
"                                                        % i _ _ _ _ _                                                           ",
"                                                        = c _ _ _ _ _ E       D                                                 ",
"                                            D           = c ' _ _ _ _ Y                                                         ",
"                                                        = m _ _ _ _ _ W                                                         ",
"                                                      < = M _ _ _ _ _ W         V                                               ",
"                                          D           - 1 K _ _ _ _ _ W                                                         ",
"                                                      $ 3 P _ _ _ _ _ /                                                         ",
"                                                      $ i _ _ _ _ _ _ _                                                         ",
"                                                      1 M _ _ _ _ _ _ _ T         D                                             ",
"                                                    : y R _ _ _ _ _ _ _ /                                                       ",
"                                        V           2 K _ _ _ _ _ _ _ _ _ I                                                     ",
"                                                  , m _ _ _ _ _ _ _ _ _ _ W                                                     ",
"                                                  t R _ _ _ _ _ _ _ _ _ _ _ W       V                                           ",
"                                                w M _ _ _ _ _ _ _ _ _ _ _ _ _       V                                           ",
"                                                r R _ _ _ _ _ _ _ _ _ _ _ _ _ W                                                 ",
"                                              $ i _ _ _ _ _ _ _ _ _ _ _ _ _ _ _                                                 ",
"                                              % y _ _ _ _ _ _ _ _ _ _ _ _ _ _ _ W                                               ",
"                                      V     : + r R R _ _ _ _ _ _ _ _ _ _ _ _ _ W                                               ",
"                                      V     : = 1 K _ _ _ _ _ _ _ _ _ _ _ _ _ _ _     V                                         ",
"                                            : % % m _ _ _ _ _ _ _ _ _ _ _ _ _ _ _     V                                         ",
"                                            = % % i _ _ _ _ _ R _ _ _ _ _ _ _ _ _ I                                             ",
"                                            % % % 2 P _ _ _ _ T Y ` ` ` ` Z Y _ _ T   V                                         ",
"                                            = % % = m _ _ _ ` o X C z l f . C ` _ W W W                                         ",
"                                      H ! J 3 % = % r L _ _ ` d o O o O s f Y ` _ R _ _ W                                       ",
"                                      K _ _ y + % % = m _ _ _ ` ` ` ` ` ` ` _ _ _ R P P                                         ",
"                                      t K P y + & & & 2 K _ _ _ _ _ _ _ _ _ _ _ R m e u                                         ",
"                                        e w $ % & & & & y L ' _ _ _ _ _ _ _ _ _ W                                               ",
"                                              = & & = % = r m K R _ _ _ ' ' ' _ T                                               ",
"                                              , & & & % % % = 1 r i c m M M m x                                                 ",
"                                                : % % % % = % % + % % = = = =                                                   ",
"                                                  : % % % % % % % % % % % $                                                     ",
"                                                    < = % = % % % % % % ,                                                       ",
"                                                      $ % $ - - - $ % =                                                         ",
"               . . . .                                $ % $       - % =                                                         ",
"             . . . . . . . . . . .                    $ % $       - % $                                                         ",
"                     . . . . . . . . . . . . . . ...} q + q |     e = n                                                         ",
"                         . . . . . . . . . . . . . . .v = v  . . .] q u                                                         ",
"                                         . . . .......[ A {  .                                                                  ",
"                                                                                                                                ",
"                                                                                                                                ",
"                                                                                                                                ",
"                                                                                                                                ",
"                                                                                                                                ",
"                                                                                                                                ",
"                                                                                                                                "
};
