/* XPM */
static char *enermy_101671357071[] = {
/* columns rows colors chars-per-pixel */
"64 64 89 1 ",
"  c None",
". c #79725B",
"X c #92896B",
"o c #999070",
"O c #9D9473",
"+ c #BDD379",
"@ c #F7CC4D",
"# c #F6CC4F",
"$ c #F9CD4B",
"% c #F9CD4C",
"& c #F8CD4D",
"* c #F9CD4D",
"= c #F4CB52",
"- c #F7CD50",
"; c #F5CC53",
": c #F6CD52",
"> c #F3CB54",
", c #F3CB55",
"< c #F2CB57",
"1 c #F4CB55",
"2 c #F2CB58",
"3 c #F1CB5B",
"4 c #F3CC58",
"5 c #F7CF58",
"6 c #FAD054",
"7 c #F8D05B",
"8 c #FAD25C",
"9 c #CEDD71",
"0 c #CFDC72",
"q c #CDD97A",
"w c #D6DF74",
"e c #D7DF74",
"r c #D0DB79",
"t c #FAD566",
"y c #F6D36D",
"u c #FBD86F",
"i c #F2CC76",
"p c #F9D774",
"a c #FBDA75",
"s c #F6D779",
"d c #FBDC7B",
"f c #D7E26C",
"g c #D7E073",
"h c #C6B98F",
"j c #CCBF93",
"k c #F1BFAE",
"l c #EFC182",
"z c #FCDD80",
"x c #FCDF87",
"c c #F2D98C",
"v c #F0CA95",
"b c #FCE28E",
"n c #FDE497",
"m c #FAE299",
"M c #E1D2A0",
"N c #E8D7A4",
"B c #E3DEA5",
"V c #E9D9A6",
"C c #F0DFAA",
"Z c #EFC5B8",
"A c #EEC8BE",
"S c #F2C3B1",
"D c #F1C3B4",
"F c #F1C6B7",
"G c #F6E2A2",
"H c #FDE7A0",
"J c #F6E5AF",
"K c #FDEAA9",
"L c #FBEAAD",
"P c #FEEBAC",
"I c #F7E7B5",
"U c #F7E8B5",
"Y c #F9E9B2",
"T c #FAE9B3",
"R c #FAEAB3",
"E c #FCEBB2",
"W c #FAEAB5",
"Q c #FBEBB5",
"! c #FDECB4",
"~ c #FEEDB4",
"^ c #FFEEB5",
"/ c #FFEFB5",
"( c #EDC9C1",
") c #EDCAC2",
"_ c #EACFCE",
"` c #E5D9DF",
"' c #E3E0ED",
"] c #E3E1EE",
"[ c #E3E1EF",
/* pixels */
"                                                                ",
"                                                                ",
"                                                                ",
"                                                                ",
"                                                                ",
"                                qgg                             ",
"                               rr9ffe                           ",
"                              WLRBqrfe                          ",
"                             m~~~~   r                          ",
"                             b~~~~R   +                         ",
"                            =d~~~~W                             ",
"                            :a~~~~~                             ",
"                            #a~~~~~                             ",
"                            -a~~~~~                             ",
"                            #a~~~~~                             ",
"                            &d~~~~~                             ",
"                            &z~~~~~U                            ",
"                            &b~~~~~I                            ",
"                           4&n~~~~~R                            ",
"                           >6H~~~~~R                            ",
"                           18K~~~~~W                            ",
"                           #a~~~~~~~                            ",
"                           $b~~~~~~~I                           ",
"                          >tP~~~~~~~R                           ",
"                          5b~~~~~~~~~                           ",
"                         2uE~~~~~~~~~R                          ",
"                         5H~~~~~~~~~~~                          ",
"                        ,d~~~~~~~~~~~~W                         ",
"                        -n~~~~~~~~~~~~W                         ",
"                       ,6K~~~~~~~~~~~~~W                        ",
"                       #6K~~~~~~~~~~~~~~                        ",
"                       &6H~~~~~~~~~~~~~~U                       ",
"                      4&&b~~~~~~~~~~~~~~W                       ",
"                      1&$d~~~~~~~~~~~~~~W                       ",
"                      -&$t~~~~~~~~~~~~~~W                       ",
"                      &$$8P~~~~~~~~~~~~~~                       ",
"                      -&$&n~~~~jhR~~MOJ~~                       ",
"                      -&&$a~~~~O.OoXOXJ~~                       ",
"                      &&$$6H~~~JVNVJJE~~~U                      ",
"                      p$&&$a~~E~~~~~~~~~~EU                     ",
"                     WH6%%$6n~~~~~~~~~~~~~~                     ",
"                    G~K8$%%$tH~~~~~~~~~~nb~R                    ",
"                    m/L8$%$&&8xHP~~~~~~Lc-bR                    ",
"                    ymR &$&$$$$68uabbbbs  4v                    ",
"                    li  2&&&&$&$$$$$&$-                         ",
"                         3&$$&$&$$&&&-                          ",
"                     S    3%%%&&&$&-                            ",
"                          4%%52,1&$-                            ",
"                      k   -&-    &&4      A                     ",
"                           =     &&                             ",
"                       S                 F                      ",
"                        S               S                       ",
"  [[[[[[[[               kk            S                        ",
"     [[[[[[[[[[[['[[[[[   AFD       FF                          ",
"        ['[['[[['[['[[[[]][]`__)ZF)F                            ",
"           '[['['[[[[[[[]]][[[[[                                ",
"                                                                ",
"                                                                ",
"                                                                ",
"                                                                ",
"                                                                ",
"                                                                ",
"                                                                ",
"                                                                "
};
