/* XPM */
static char *enermy_21671357070[] = {
/* columns rows colors chars-per-pixel */
"64 64 99 2 ",
"   c None",
".  c #756F57",
"X  c #999071",
"o  c #F7CC4D",
"O  c #F7CC4F",
"+  c #F9CD4A",
"@  c #F9CD4C",
"#  c #F8CD4D",
"$  c #F9CE4F",
"%  c #F5CB50",
"&  c #F4CB52",
"*  c #F4CB53",
"=  c #F5CC51",
"-  c #F6CC51",
";  c #F4CC53",
":  c #F2CB56",
">  c #F3CB57",
",  c #F2CB59",
"<  c #F6CF5D",
"1  c #FAD056",
"2  c #F7D15F",
"3  c #FAD35E",
"4  c #CBDB76",
"5  c #CEDC74",
"6  c #C5D779",
"7  c #EFCB65",
"8  c #F3CE63",
"9  c #F3CF66",
"0  c #F1CE6A",
"q  c #F6D063",
"w  c #FAD463",
"e  c #F8D56A",
"r  c #FAD66B",
"t  c #F0CF73",
"y  c #F8D673",
"u  c #FBDA76",
"i  c #F0D079",
"p  c #FBDC7B",
"a  c #FBDC7F",
"s  c #D7E26D",
"d  c #D5E16E",
"f  c #D6E073",
"g  c #B0A580",
"h  c #BAAE86",
"j  c #C4B78D",
"k  c #C9BC90",
"l  c #F0BDAC",
"z  c #F1BEAC",
"x  c #D2D78A",
"c  c #D8C99A",
"v  c #EED184",
"b  c #EFDC8D",
"n  c #FCDE83",
"m  c #F4D98E",
"M  c #F7DF92",
"N  c #FCE18C",
"B  c #EBE090",
"V  c #FCE394",
"C  c #F9E19B",
"Z  c #FDE59A",
"A  c #F8E29F",
"S  c #FDE79F",
"D  c #F0C2AF",
"F  c #E0D1A0",
"G  c #ECDAA7",
"H  c #F0C2B0",
"J  c #F2C3B3",
"K  c #F1C4B3",
"L  c #F2C4B2",
"P  c #F7DEB0",
"I  c #F6E2A7",
"U  c #FDE8A4",
"Y  c #F1E1AB",
"T  c #F5E3A9",
"R  c #FEEAAB",
"E  c #FEECAF",
"W  c #FBEAB2",
"Q  c #FCEAB2",
"!  c #FCECB3",
"~  c #F9E9B5",
"^  c #FAEAB4",
"/  c #FAEAB5",
"(  c #F8E8B6",
")  c #FCEAB4",
"_  c #FCEBB4",
"`  c #FDECB4",
"'  c #FEEDB4",
"]  c #FEEDB5",
"[  c #FFEEB5",
"{  c #FFEFB5",
"}  c #FEEEB6",
"|  c #FFEFB6",
" . c #E7D9C0",
".. c #E2DCDB",
"X. c #E4DEDD",
"o. c #E3E1EC",
"O. c #E3E1ED",
"+. c #E3E1EE",
"@. c #E3E1EF",
/* pixels */
"                                                                                                                                ",
"                                                                                                                                ",
"                                                                                                                                ",
"                                                                                                                                ",
"                                                                                                                                ",
"                                                                                                                                ",
"                                                                                                                                ",
"                                                                                                                                ",
"                                                                K H L                                                           ",
"                                                              J       z z                                                       ",
"                                                          K               z                                                     ",
"                                                              4 5 s s f                                                         ",
"                                                        K   T B m x 5 s f   z                                                   ",
"                                                      K   M V Z Z m     5 6                                                     ",
"                                                          n Q ' ' ' A     4   z                                                 ",
"                                                    J   ; n ' ' ' ' W     6                                                     ",
"                                                        ; a ' ' ' ' )           z                                               ",
"                                                  K     # p ' ' ' ' '                                                           ",
"                                                        $ p ' ' ' ' '                                                           ",
"                                                H       O a ' ' ' ' '             z                                             ",
"                                                K       # n ' ' ' ' ' (                                                         ",
"                                                        # N ' ' ' ' ) ~                                                         ",
"                                              H       > $ V ' ' ' ' ' ~                                                         ",
"                                                      > # U ' ' ' ' ' ~                                                         ",
"                                                      ; 1 U ' ' ' ' ' )             z                                           ",
"                                            K         ; w ' ' ' ' ' ' '                                                         ",
"                                            K         # n ' ' ' ' ' ' '                                                         ",
"                                                    , 1 U ' ' ' ' ' ' ' ~                                                       ",
"                                                    ; n ' ' ' ' ' ' ' ' Q                                                       ",
"                                          H         r R ' ' ' ' ' ' ' ' ' ~                                                     ",
"                                                  < Z ' ' ' ' ' ' ' ' ' ' Q           l                                         ",
"                                                , a ' ' ' ' ' ' ' ' ' ' ' ' ~         z                                         ",
"                                                2 U ' ' ' ' ' ' ' ' ' ' ' ' '                                                   ",
"                                        z     - u ' ' ' ' ' ' ' ' ' ' ' ' ' ' ~                                                 ",
"                                        z     ; a ' ' ' ' ' ' ' ' ' ' ' ' ' ' '                                                 ",
"                                            , + u ' ' ' ' ' ' ' ' ' ' ' ' ' ' ' ~                                               ",
"                                            ; + w ' ' ' ' ' ' ' ' ' ' ' ' ' ' ' ~                                               ",
"                                            # + 1 U ' ' ' ' ' ' ' ' ' ' ' ' ' ' '                                               ",
"                                            # # + N ' ' ' ' ' ' ' ' ' ' ' ' ' ' '                                               ",
"                                      z     # # + u ' ' ' ' ' | ' ' ' ' ' | ' ' ' ~                                             ",
"                                            $ # @ 3 R ' ' ' ' G G | | | | c Y | { ~                                             ",
"                                      H   t # # @ # N ' ' ' | X . j h h X . F | ! ! W '                                         ",
"                                      P ' ) w + # + w R ' ' ' c j j j k c F ' ' ' ' ' ' ~                                       ",
"                                      Z ' ' u + + + + n ' ' ' | | | | | | ' ' ' ' E U U I                                       ",
"                                      r V Z r # @ @ @ 1 Z | ' ' ' ' ' ' ' ' ' ' ' b 9                                           ",
"                                        ; 9 ; # @ @ @ + w Z ' ' ' ' ' ' ' ' ' ' W                                               ",
"                                              # @ @ # + # 1 u V U R ' ' ' ' ' E T                                               ",
"                                              > @ @ $ # # + @ $ 1 w r u a n a y                                                 ",
"                                                - # # # # # @ @ + + + + + + #                                                   ",
"                                                  > # # + # @ @ # + # # # ;                                                     ",
"                                                      $ # # # # # # + # >                                                       ",
"                                                      O + o   7   O # o                                                         ",
"              +.+.+.+.                                o # -       - # O                                                         ",
"            +.+.+.+.+.+.+.+.+.+.@.@.@.@.@.            # + -       - + 8                                                         ",
"                    +.+.+.+.+.+.@.o.@.@.@.@.@.o.@.@.X.q + v @.    v 1 C                                                         ",
"                        +.+.+.+.@.@.o.o.@.@.@.@.@.@.@.G 0 P @.@.@.X.m                                                           ",
"                                        @.@.@.o.@.@.@.@...@.@.                                                                  ",
"                                                                                                                                ",
"                                                                                                                                ",
"                                                                                                                                ",
"                                                                                                                                ",
"                                                                                                                                ",
"                                                                                                                                ",
"                                                                                                                                "
};
