/* XPM */
static char *enermy_311671357074[] = {
/* columns rows colors chars-per-pixel */
"64 64 86 1 ",
"  c None",
". c #79735A",
"X c #988F6E",
"o c #9E9574",
"O c #F6CC4E",
"+ c #F7CC4E",
"@ c #F8CC4B",
"# c #F8CC4C",
"$ c #F8CD4F",
"% c #F5CB51",
"& c #F4CB52",
"* c #F4CB53",
"= c #F6CC52",
"- c #F3CB54",
"; c #F2CA57",
": c #F3CB57",
"> c #F4CA56",
", c #F6CD54",
"< c #F8CE52",
"1 c #F2CB58",
"2 c #F2CB59",
"3 c #F1CA5A",
"4 c #F9D057",
"5 c #D2DE6F",
"6 c #CAD974",
"7 c #CCD875",
"8 c #D2DE72",
"9 c #D0D975",
"0 c #D5DE76",
"q c #F9D362",
"w c #F9D464",
"e c #FAD567",
"r c #FAD871",
"t c #FADA76",
"y c #F5D77A",
"u c #F7D87D",
"i c #F6D87E",
"p c #F7D97E",
"a c #FBDB7B",
"s c #F9DB7F",
"d c #D6E16C",
"f c #D5E06F",
"g c #D7E16F",
"h c #CABC91",
"j c #EFBDA5",
"k c #D5DA82",
"l c #FBDE84",
"z c #FCE08B",
"x c #FCE290",
"c c #FCE496",
"v c #F9E49E",
"b c #FAE49E",
"n c #FDE69D",
"m c #F2C1AE",
"M c #E6D7A4",
"N c #EFDFAA",
"B c #EFC5B6",
"V c #EEC7BA",
"C c #EDC8BD",
"Z c #EDC9BF",
"A c #F1C4B2",
"S c #F2C5B4",
"D c #F0C6B7",
"F c #FDE9A6",
"G c #F6E6AF",
"H c #FEECAF",
"J c #F2E5B2",
"K c #F7E8B4",
"L c #F7E9B6",
"P c #FAEAB1",
"I c #FEEDB3",
"U c #F9E9B4",
"Y c #F9EAB5",
"T c #FBEAB4",
"R c #FBEBB4",
"E c #FAEAB5",
"W c #FCEBB4",
"Q c #FDECB4",
"! c #FEEDB4",
"~ c #FFEFB6",
"^ c #ECCBC4",
"/ c #E9D1D0",
"( c #E5DAE1",
") c #E3E0EC",
"_ c #E3E1EE",
"` c #E3E1EF",
/* pixels */
"                                                                ",
"                                                                ",
"                                                                ",
"                                                                ",
"                                                                ",
"                               97gg0                            ",
"                               kk8fd8                           ",
"                              RP!J 75f                          ",
"                             b!!!!   76                         ",
"                            1l!!!!Y                             ",
"                            -a!!!!Y                             ",
"                            >t!!!!W                             ",
"                            =r!!!!!                             ",
"                            ,r!!!!!                             ",
"                            +t!!!!!                             ",
"                            +a!!!!!                             ",
"                            +l!!!!!Y                            ",
"                            $z~!!!!J                            ",
"                           1$c!!!!!Y                            ",
"                           ;<nI!!!!Y                            ",
"                           =4F!!!!!W                            ",
"                           =r!!!!!!!                            ",
"                           +x~!!!!!!Y                           ",
"                          -qI!!!!!!!Y                           ",
"                          =x~!!!!!!!W                           ",
"                         1rH!!!!!!!!!Y                          ",
"                         =n!!!!!!!!!!!                          ",
"                        ;tI!!!!!!!!!!!Y                         ",
"                        ,c!!!!!!!!!!!!W                         ",
"                       ;4F!!!!!!!!!!!!!Y                        ",
"                       %4F!!!!!!!!!!!!!W                        ",
"                       +$n!!!!!!!!!!!!!!K                       ",
"                      1#$z~!!!!!!!!!!!!!P                       ",
"                      ;#@a!!!!!!!!!!!!!!Y                       ",
"                      >@@eII!!!!!!!!!!!!W                       ",
"                      %@@4F!!!!~!!!!!!!!!                       ",
"                      =@@@x!!!~hhPPPMoGPW                       ",
"                      =$@@r!!!~o.oXooXG!!                       ",
"                      O$@@4n!!!NMMMNGP!!!                       ",
"                      ,@@$@t!!!~~!!!!!!!IY                      ",
"                     Yz$##@<n!!!!!!!!!!!!!Y                     ",
"                     !n$#@#@eF!!!!!!!!!!nF!                     ",
"                    b!nO@@@@$qzFI!!~~~!!ytIY                    ",
"                    lIv1O$@$@@$<qtlxcczi *i                     ",
"                    ;i  ;$@@$@$@@@@#$$%                         ",
"                    j    ;+@@@@@@+###>                          ",
"                          1@@@$@@$@O1                           ",
"                          ;@@;11-$@1      D                     ",
"                     j    =++   ;$$                             ",
"                          1+-    =%      D                      ",
"                      m                                         ",
"                       m                                        ",
"  ````````              m             D                         ",
"     `(``````````)`)```  ^C         Am                          ",
"        )`````````)```````//^CCCDVVD                            ",
"            `)``)`````````````__                                ",
"                                                                ",
"                                                                ",
"                                                                ",
"                                                                ",
"                                                                ",
"                                                                ",
"                                                                ",
"                                                                "
};
