/* XPM */
static char *enermy_381671357075[] = {
/* columns rows colors chars-per-pixel */
"64 64 92 1 ",
"  c None",
". c #7B755C",
"X c #968D6D",
"o c #9F9675",
"O c #A09676",
"+ c #F2BE66",
"@ c #F7CC4E",
"# c #F6CC4F",
"$ c #FACC49",
"% c #F9CD4C",
"& c #F8CC4D",
"* c #F9CE4F",
"= c #F5CB52",
"- c #F6CC50",
"; c #F3CB54",
": c #F2CA55",
"> c #F2CA57",
", c #F4CB54",
"< c #F5CC55",
"1 c #F8CE50",
"2 c #F9CF52",
"3 c #F7CF58",
"4 c #F6CF5E",
"5 c #F9D055",
"6 c #FAD25C",
"7 c #CBDA73",
"8 c #CFDA75",
"9 c #D1DE72",
"0 c #D5DF72",
"q c #D0DB76",
"w c #D5DE77",
"e c #F2CE68",
"r c #F7D261",
"t c #FAD565",
"y c #F5D26A",
"u c #F8D56D",
"i c #FAD76F",
"p c #FBD973",
"a c #FBDA78",
"s c #D3E06D",
"d c #D7E26C",
"f c #BEB28A",
"g c #C6B98F",
"h c #F3A592",
"j c #F2A692",
"k c #F1AA90",
"l c #D3D892",
"z c #EFD180",
"x c #FCDE82",
"c c #F6DC8A",
"v c #FCE08B",
"b c #FCE292",
"n c #F7E29F",
"m c #F5E59F",
"M c #FDE599",
"N c #FDE79F",
"B c #E3D3A1",
"V c #E9D6AA",
"C c #F1D4AE",
"Z c #F0DFAA",
"A c #F4D9B0",
"S c #EAE2A5",
"D c #FDE7A2",
"F c #F8E5A6",
"G c #FDE8A4",
"H c #F4E4AE",
"J c #FEEBAB",
"K c #F6E7B5",
"L c #F9E6B3",
"P c #F9E9B1",
"I c #F9E9B3",
"U c #FEECB1",
"Y c #F8E8B5",
"T c #F8E9B5",
"R c #F9E9B5",
"E c #FAEAB4",
"W c #FBEAB5",
"Q c #FCEBB4",
"! c #FCEBB6",
"~ c #FDECB4",
"^ c #FEEDB4",
"/ c #FFEEB5",
"( c #FFEFB5",
") c #FEEEB6",
"_ c #FEEEB7",
"` c #E7D9C1",
"' c #E3DEE3",
"] c #E3DFE4",
"[ c #E3E0EB",
"{ c #E3E0ED",
"} c #E3E1EE",
"| c #E3E1EF",
/* pixels */
"                                                                ",
"                                                                ",
"                                                                ",
"                                                                ",
"                                                                ",
"                                                                ",
"                                                                ",
"                                                                ",
"                                                                ",
"                                 wq                             ",
"                               89sdd0                           ",
"                              KFSlq9d9                          ",
"                             F^(^^   79                         ",
"                             b^^^^R                             ",
"                            <x(^^^R                             ",
"                            =a^^^^^                             ",
"                            #a^^^^^                             ",
"                            =p^^^^!                             ",
"                            %aU^^^^                             ",
"                            #a^^^^^                             ",
"                            %v_^^^^K                            ",
"                            %v_^^^^R                            ",
"                           >%M^^^^^I                            ",
"                           =5N^^^^^R                            ",
"                           =6J^^^^^!                            ",
"                           =p^^^^^^^                            ",
"                           5b^^^^^^^K                           ",
"                          =tJ^^^^^^^R                           ",
"                         k3b^^^^^^^^^                           ",
"                      khk+aU^^^^^^^^^I                          ",
"                     h   rG^^^^^^^^^^^                          ",
"                    h   ;x^^^^^^^^^^^^R                         ",
"                        3G^^^^^^^^^^^^^                         ",
"                   k   =tU^^^^^^^^^^^^^R                        ",
"                       #tU^^^^^^^^^^^^^^                        ",
"                       %6J^^^^^^^^^^^^^^R                       ",
"                      <%1M^^^^^^^^^^^^^^R                       ",
"                      #%%v_^^^^^^^^^^^^^^                       ",
"                      =%%p^^^^^^^^^^^U^^UC                      ",
"                      %%%6J^^^^(^^^^^I^^^A                      ",
"                      %%%1M^^^^gfIIHBXH^^LL                     ",
"                   C^n=%%%a^^^^o.OXXoXZ^^^^R                    ",
"                   D_Ut%%%2N^^^LZHHHIU^^^^^I                    ",
"                   pGJi$%%%aU^^^^^UU^^^^^mc                     ",
"                   >4u5%%%%1b_^^U^^^^^^^^                       ",
"                      >%%%%%6M^_^^^^^^^^R                       ",
"                       #%%%%%2axDJU^^^^J                        ",
"                        %%%%%%%%=6tpaapy                        ",
"                         %%%%%%%%%%%$%=                         ",
"                          ,%%%%%%%%%%<                          ",
"                           =%%11%%%#                            ",
"                           =%<   &%#                            ",
"      }}}}}}               =%#   #%=                            ",
"      }}}}}}}}}[]}}|       %%=   %%>                            ",
"          }}}}}}}}||||||}}[e%z| 'z,                             ",
"           [}}}}}|}|||||}}[VeA||}]                              ",
"                     ||]]}}}[}                                  ",
"                                                                ",
"                                                                ",
"                                                                ",
"                                                                ",
"                                                                ",
"                                                                ",
"                                                                "
};
