/* XPM */
static char *enermy_71671357071[] = {
/* columns rows colors chars-per-pixel */
"64 64 89 1 ",
"  c None",
". c #766F57",
"X c #998F6F",
"o c #AFA47E",
"O c #EFBF6A",
"+ c #F3BF7A",
"@ c #B3CD7C",
"# c #F7CC4D",
"$ c #F7CC4E",
"% c #F6CC4F",
"& c #F9CD4A",
"* c #F8CC4C",
"= c #F9CD4D",
"- c #F4CB52",
"; c #F7CA53",
": c #F5CC52",
"> c #F3CB56",
", c #F2CB57",
"< c #F3CC56",
"1 c #F6CD54",
"2 c #FACF51",
"3 c #F2CB58",
"4 c #F2CB5B",
"5 c #F7CB5A",
"6 c #F7CF58",
"7 c #F7C95D",
"8 c #FAD156",
"9 c #D5DF6F",
"0 c #C4D775",
"q c #CEDA79",
"w c #CFDB79",
"e c #D1DC76",
"r c #F5C763",
"t c #F5C466",
"y c #F5C56D",
"u c #FAD461",
"i c #FAD565",
"p c #FBD76D",
"a c #F4C073",
"s c #F4C37A",
"d c #FBDA77",
"f c #F9DA7D",
"g c #FBDC7D",
"h c #D6E16C",
"j c #D6E071",
"k c #D7E075",
"l c #BAAE85",
"z c #C5B78D",
"x c #CABD90",
"c c #F0BD9B",
"v c #D7DD80",
"b c #D9CA9B",
"n c #F1C287",
"m c #F0C786",
"M c #FCDE82",
"N c #F4C795",
"B c #F2C891",
"V c #F8D999",
"C c #FCE089",
"Z c #FCE08A",
"A c #FDE391",
"S c #FDE496",
"D c #EFC5A5",
"F c #E8D9A5",
"G c #F5DAAD",
"H c #F2C6B3",
"J c #F1C6B4",
"K c #E8E0AA",
"L c #FAE4A0",
"P c #FDE7A0",
"I c #F6E4AD",
"U c #FEEAA8",
"Y c #F6E7B4",
"T c #F8E8B0",
"R c #FBEAB3",
"E c #FEECB0",
"W c #FEEDB3",
"Q c #F9E9B4",
"! c #F8E8B5",
"~ c #F9E9B5",
"^ c #FBEBB4",
"/ c #FAEAB5",
"( c #FCE9B4",
") c #FCECB4",
"_ c #FDECB5",
"` c #FEEDB4",
"' c #FEEEB6",
"] c #FFEFB6",
"[ c #E3E1EE",
/* pixels */
"                                                                ",
"                                                                ",
"                                                                ",
"                                                                ",
"                                                                ",
"                                                                ",
"                                                                ",
"                               wekk                             ",
"                               wwwjj                            ",
"                              _T_Fwj9                           ",
"                             PW'''  0q                          ",
"                            4M'_W]/  0                          ",
"                            -f'WW'R  @                          ",
"                            2d'WWW'                             ",
"                            -dW'''^                             ",
"                            *dWWWWW                             ",
"                            %g'WWW'                             ",
"                            *MWW_'WI                            ",
"                            *Z''W'WY                            ",
"                            *A''WW'^                            ",
"                           32P_W_WW^                            ",
"                           -8UWWW'_^                            ",
"                           $iWW'W_W_                            ",
"                           *MW_W'W_W                            ",
"                           8S'''WW'WQ                           ",
"                          1M'W'_W_W__                           ",
"                          iUW__W'_WW_^                          ",
"                         1S'W'WWWW'W'^                          ",
"                         dWW'WW''WW'WW^                         ",
"                        6P'W_W_WW_WWW_'                         ",
"                       3iWW'WW_WW_W__WWQ                        ",
"                       %pWWW'WW''WW'WW'^                        ",
"                       &iU'WW_'WWW'WW'WWY                       ",
"                      6&8UW_'WW_W_W__WW_^                       ",
"                      1*2S'WWWWW'_WWW''WR                       ",
"                      *&*MW'W_'WWW'WWW_W'                       ",
"                      *&&pW'WW'''W_W_'W'_                       ",
"                      **&8PW'WWFF'''TzTWWY                      ",
"                      *&&&M''W'X.zloo.F''^                      ",
"                     Ip&&*uUWW'bzzzxbF_WWW''                    ",
"                    R'P2&&&M'''']']]''WWWWWWG                   ",
"                    V_U6&&&8S'W''W'WWWW'WgpMB                   ",
"                    rNV2&&&&pU''WWWWW'WWW   D                   ",
"                      c+7=&&*iZPWW'''''WI   J                   ",
"                       Oasy4*&&26dgZAAZf   H                    ",
"                        >;tassyr7;;;;77mJHJ                     ",
"                         1*&;7tysssssnc                         ",
"                          3*&&&&&&&&3                           ",
"                           *&133>%&*                            ",
"                          1&*    1&%                            ",
"                          3&1    %*1                            ",
"                           -     1*4                            ",
"    [[[[[[                        3                             ",
"      [[[[[[[[[[[[[[[[[                                         ",
"         [[[[[[[[[[[[[[[[[[[[[[                                 ",
"           [[[[[[[[[[[[[[[[[[[[[[                               ",
"                                                                ",
"                                                                ",
"                                                                ",
"                                                                ",
"                                                                ",
"                                                                ",
"                                                                ",
"                                                                "
};
