/* XPM */
static char *enermy_241671357073[] = {
/* columns rows colors chars-per-pixel */
"64 64 124 2 ",
"   c None",
".  c #6E6753",
"X  c #7D755D",
"o  c #9A9171",
"O  c #F6BC5C",
"+  c #F4B465",
"@  c #F1B36E",
"#  c #F4B46D",
"$  c #F1B57B",
"%  c #B7D27A",
"&  c #F7CB4D",
"*  c #F5CB4F",
"=  c #F7CC4C",
"-  c #F7CC4D",
";  c #F7CD4E",
":  c #F9CD4A",
">  c #F9CD4B",
",  c #F8CD4C",
"<  c #F9CE4E",
"1  c #F7C455",
"2  c #F4CA50",
"3  c #F4CB52",
"4  c #F6CC51",
"5  c #F2CA54",
"6  c #F3CB56",
"7  c #F6CB55",
"8  c #F5CD56",
"9  c #F4CC57",
"0  c #F9D055",
"q  c #FAD157",
"w  c #FAD35F",
"e  c #CFDE71",
"r  c #C8D976",
"t  c #CDDA74",
"y  c #CFDB75",
"u  c #C4D679",
"i  c #D5DE77",
"p  c #F2CE64",
"a  c #F7C368",
"s  c #F0CA6F",
"d  c #F8D261",
"f  c #FAD565",
"g  c #FBD76A",
"h  c #F8D46D",
"j  c #EFCF7A",
"k  c #F8D671",
"l  c #FBDA77",
"z  c #FBDB7A",
"x  c #FBDC7D",
"c  c #D4E16C",
"v  c #D7E26D",
"b  c #D5E16E",
"n  c #B6A983",
"m  c #BEB289",
"M  c #C1B48B",
"N  c #C6B98F",
"B  c #F3AC84",
"V  c #F7BD86",
"C  c #F1A796",
"Z  c #F1B4A1",
"A  c #F0B6A0",
"S  c #D0D98B",
"D  c #D3C496",
"F  c #DFD09F",
"G  c #F9D181",
"H  c #F7DB87",
"J  c #FCDD81",
"K  c #FCDE83",
"L  c #FCDF85",
"P  c #F9DD89",
"I  c #F3C897",
"U  c #F9CA9B",
"Y  c #FCE089",
"T  c #FCE18D",
"R  c #FCE18E",
"E  c #EAE49C",
"W  c #FAE296",
"Q  c #FDE496",
"!  c #FAE298",
"~  c #FDE59C",
"^  c #F2C4A1",
"/  c #F2C0AD",
"(  c #EAD5A2",
")  c #EEDDA8",
"_  c #F2DDA1",
"`  c #F8D2AB",
"'  c #F9D6AB",
"]  c #F9DAAE",
"[  c #F0C3B2",
"{  c #E6E0A0",
"}  c #F6E2A3",
"|  c #FBE7A5",
" . c #FDE8A2",
".. c #FDE9A7",
"X. c #F2E2AC",
"o. c #FBE6AE",
"O. c #FEEAAA",
"+. c #FEEBAD",
"@. c #F1E4B1",
"#. c #F7E7B4",
"$. c #FAE2B0",
"%. c #F9E8B2",
"&. c #FCE8B2",
"*. c #FEECB0",
"=. c #FEEDB3",
"-. c #F8E8B5",
";. c #F9E8B5",
":. c #F9E9B5",
">. c #FBEAB4",
",. c #FBEBB4",
"<. c #FAEAB5",
"1. c #FBEAB5",
"2. c #FCEBB4",
"3. c #FDECB4",
"4. c #FEEDB4",
"5. c #FFEEB5",
"6. c #FFEFB5",
"7. c #FFEDB6",
"8. c #FFEFB6",
"9. c #E5DAC7",
"0. c #E3E0E9",
"q. c #E3E1EC",
"w. c #E3E1EE",
"e. c #E3E1EF",
/* pixels */
"                                                                                                                                ",
"                                                                                                                                ",
"                                                                                                                                ",
"                                                                                                                                ",
"                                                                                                                                ",
"                                                                                                                                ",
"                                                                                                                                ",
"                                                                                                                                ",
"                                                                                                                                ",
"                                                                                                                                ",
"                                                              i t c v i                                                         ",
"                                                            @.E ( S e v                                                         ",
"                                                          %.4.4.8.,.  u e                                                       ",
"                                                          Q 4.4.6.6.<.  u r                                                     ",
"                                                        8 L 4.4.,.,.,.    %                                                     ",
"                                                        4 J 4.4.=.8.,.                                                          ",
"                                                        7 z 4.4.4.4.4.                                                          ",
"                                                        & z 4.4.4.4.4.                                                          ",
"                                                        - x 4.4.4.4.4.                                                          ",
"                                                        > J 4.4.4.4.4.;.                                                        ",
"                                                        < Y 4.4.4.4.4.;.                                                        ",
"                                                        < Q 4.4.4.4.4.<.                                                        ",
"                                                      6 < ~ 4.4.4.4.4.<.                                                        ",
"                                                      3 q ..4.4.4.4.4.<.                                                        ",
"                                                      4 f =.=.=.4.&.] ` ^ [ [ /                                                 ",
"                                                      - J 4.=.&.] ` ] $.          /                                             ",
"                                                      q  .4.$.` ] &.4.4.<.          /                                           ",
"                                                    8 J 4.] ` &.4.4.4.4.<.                                                      ",
"                                                    f O.' ' =.4.4.4.4.4.4.<.          A                                         ",
"                                                  8 Q ` ' =.4.4.4.4.4.4.4.2.                                                    ",
"                                                  x ` ' 4.4.4.4.4.4.4.4.4.4.%.          A                                       ",
"                                                7 U ` =.4.4.4.4.4.4.4.4.4.2.4.          A                                       ",
"                                              6 a U =.4.4.4.4.4.4.4.=.4.4.=.=.<.                                                ",
"                                              8 V &.4.4.4.4.4.4.=.+...O.O.=.4.&.                                                ",
"                                              + G 4.4.4.4.4. .R J x J J J J Y  .%.                                              ",
"                                            @ O f =.4.=.~ J J Q ..=.4.4.=.=. .R !                                               ",
"                                            # > 0  .+.Y Y ..=.=.4.4.4.4.4.4.4.=.~                                               ",
"                                          B 1 > > J J Q =.4.=.=.4.4.4.4.4.4.4.4.=.                                              ",
"                                          $ > > > w  .4.4.4.=.4.8.=.4.4.4.8.8.=.4.#.                                            ",
"                                        C s > > > w +.4.4.=.8.) ) 8.8.8.=.D X.4.4.%.    C                                       ",
"                                        A s < > > > T =.=.4.8.o X N m n n . F 8.4.| P P I                                       ",
"                                      ^ o.o.g > > > f +.4.4.8.D M M M N D F &.4.4.+.O.=.<.                                      ",
"                                      h l x f > > > > J 4.=.4.8.8.8.8.8.4.8.4.4.4.+. .~ }                                       ",
"                                      7 l z w > > > > q ~ 8.4.4.4.4.4.4.4.4.4.4.4.H p                                           ",
"                                        6 8 3 > > > > > w  .=.4.4.4.=.=.=.=.=.4.,.                                              ",
"                                              - > > > > > q z Q  .+.=.=.4.4.=.=._                                               ",
"                                              6 = > > > > > > < q w g l J Y z k                                                 ",
"                                                3 > > > > > > > > > > : > > >                                                   ",
"                                                  6 - > > > > > > > > > - &                                                     ",
"                                                      - > > = > - > > < 6                                                       ",
"                                                      - > 8       - > -                                                         ",
"                                                      - < 8       2 > -                                                         ",
"            e.e.e.e.e.                                < > 2       3 > d                                                         ",
"            e.q.e.e.e.e.e.e.e.e.e.e.e.e.e.e.          - -           q W                                                         ",
"                    e.e.e.e.e.e.e.e.e.e.e.e.e.e.e.e.q.( ( q.e.    9.j _                                                         ",
"                      e.e.e.e.e.q.e.e.e.e.e.e.e.e.e.e.e.e.e.e.e.e.e.                                                            ",
"                                          e.e.e.e.e.e.e.e.                                                                      ",
"                                                                                                                                ",
"                                                                                                                                ",
"                                                                                                                                ",
"                                                                                                                                ",
"                                                                                                                                ",
"                                                                                                                                ",
"                                                                                                                                "
};
