/* XPM */
static char *enermy_301671357074[] = {
/* columns rows colors chars-per-pixel */
"64 64 98 2 ",
"   c None",
".  c #7A725A",
"X  c #93896B",
"o  c #9A8F70",
"O  c #9C9172",
"+  c #9D9373",
"@  c #A29676",
"#  c #BFD57B",
"$  c #F7CC4D",
"%  c #F6CC4F",
"&  c #F7CC4F",
"*  c #F9CD49",
"=  c #F9CD4B",
"-  c #F8CC4C",
";  c #F8CD4C",
":  c #F8CD4D",
">  c #F9CE4D",
",  c #F3CB53",
"<  c #F4CB53",
"1  c #F5CC51",
"2  c #F6CC50",
"3  c #F6CD52",
"4  c #F3CB54",
"5  c #F1CA57",
"6  c #F2CB56",
"7  c #F3CB57",
"8  c #F9CF52",
"9  c #F1CA58",
"0  c #F1CB5B",
"q  c #F7D05C",
"w  c #FAD158",
"e  c #F8D05B",
"r  c #FAD35D",
"t  c #CFDD72",
"y  c #D3DE73",
"u  c #D6DF74",
"i  c #D6DF76",
"p  c #D0DB79",
"a  c #D0DC7A",
"s  c #FAD463",
"d  c #F6D36D",
"f  c #FBD86D",
"g  c #F4D277",
"h  c #F9D773",
"j  c #FBDA75",
"k  c #FBDC7C",
"l  c #D6E26D",
"z  c #C7B98E",
"x  c #CDBE93",
"c  c #EEC181",
"v  c #FCDE84",
"b  c #F3D98C",
"n  c #F0CA93",
"m  c #F9DF90",
"M  c #FCE08A",
"N  c #FCE18E",
"B  c #FCE290",
"V  c #FBE396",
"C  c #FCE394",
"Z  c #FDE599",
"A  c #FDE59A",
"S  c #F0C1AD",
"D  c #E2D2A0",
"F  c #E9D9A5",
"G  c #EFDFAA",
"H  c #EFC4B3",
"J  c #EEC6B8",
"K  c #F2C4B1",
"L  c #F0C5B3",
"P  c #F0C7B6",
"I  c #F6E2A2",
"U  c #FAE5A0",
"Y  c #FDE7A0",
"T  c #F6E6AE",
"R  c #FEEAAA",
"E  c #F3E5B1",
"W  c #F7E7B5",
"Q  c #F9E8B2",
"!  c #F8E9B2",
"~  c #FAE9B2",
"^  c #FBEAB2",
"/  c #FEEDB3",
"(  c #F9E9B4",
")  c #FAE9B5",
"_  c #FAEAB4",
"`  c #FBEBB4",
"'  c #FDECB4",
"]  c #FEEDB4",
"[  c #FFEEB5",
"{  c #FFEFB5",
"}  c #EDCAC0",
"|  c #ECCBC1",
" . c #EACEC8",
".. c #E8D2D2",
"X. c #E5D9DF",
"o. c #E3E1ED",
"O. c #E3E1EE",
"+. c #E3E1EF",
/* pixels */
"                                                                                                                                ",
"                                                                                                                                ",
"                                                                                                                                ",
"                                                                                                                                ",
"                                                                                                                                ",
"                                                                p y i                                                           ",
"                                                              a a t l l p                                                       ",
"                                                            _ T ! E p y l i                                                     ",
"                                                          U ] ] ] ]       a                                                     ",
"                                                          M ] ] ] ] !       #                                                   ",
"                                                        4 k ] ] ] ] _                                                           ",
"                                                        8 j ] ] ] ] ]                                                           ",
"                                                        % j / ] ] ] ]                                                           ",
"                                                        1 j ] ] ] ] ]                                                           ",
"                                                        : j ] ] ] ] ]                                                           ",
"                                                        : k ] ] ] ] ]                                                           ",
"                                                        : v ] ] ] ] ] W                                                         ",
"                                                        : M { ] ] ] ] E                                                         ",
"                                                        : C ] ] ] ] ] _                                                         ",
"                                                      1 8 Y ] ] ] ] ] _                                                         ",
"                                                      1 r R ] ] ] ] ] !                                                         ",
"                                                      1 f ] ] ] ] ] ] ]                                                         ",
"                                                      : N ] ] ] ] ] ] ] W                                                       ",
"                                                    4 s R ] ] ] ] ] ] ] _                                                       ",
"                                                    1 B ] ] ] ] ] ] ] ] '                                                       ",
"                                                  4 f ] ] ] ] ] ] ] ] ] ] Q                                                     ",
"                                                  q Y ] ] ] ] ] ] ] ] ] ] '                                                     ",
"                                                4 k ] ] ] ] ] ] ] ] ] ] ] ] _                                                   ",
"                                                % Z ] ] ] ] ] ] ] ] ] ] ] ] '                                                   ",
"                                              4 w R ] ] ] ] ] ] ] ] ] ] ] ] ] _                                                 ",
"                                              % w R ] ] ] ] ] ] ] ] ] ] ] ] ] '                                                 ",
"                                              : 8 Y ] ] ] ] ] ] ] ] ] ] ] ] ] ] W                                               ",
"                                            4 = : B { ] ] ] ] ] ] ] ] ] ] ] ] ] _                                               ",
"                                            < = * k ] ] ] ] ] ] ] ] ] ] ] ] ] ] _                                               ",
"                                            & = * f ] ] ] ] ] ] ] ] ] ] ] ] ] ] ]                                               ",
"                                            3 * * w R ] ] ] ] ] ] ] ] ] ] ' ] ] ]                                               ",
"                                            : : * : C ] ] ] { x z / ! Q D O T ] ]                                               ",
"                                            3 * : * j / ] ] { + . @ o o O X T ] ]                                               ",
"                                            8 * : * 8 Y ] ] ] G F F F T T ! ] ] ] E                                             ",
"                                            h : * * * j ] ] ] { ] ] ] ] ] ] ] ] ] ] E                                           ",
"                                          ! Y 8 = = = 8 Z / ] ] ] ] ] ] ] ] ] ] ] ] ]                                           ",
"                                        I ] R w = = = = s A { ] ] ] ] ] ] ] ] ] Z N ] _                                         ",
"                                        m ] R r * : = = : r v A R / ] ] ] ] ] ] b 4 M !                                         ",
"                                        d Y Q   * = = = : = * 8 r f k N N B v g     < n                                         ",
"                                        c g     4 : : = : * : * * * * * : * 8                                                   ",
"                                                  0 : : = : * : : * * : : 3                                                     ",
"                                          K         0 : = = : * * * : :                                                         ",
"                                                    4 = > 4 6 6 9 : * <                                                         ",
"                                            H       1 * %         : : 9             L                                           ",
"                                                      1           : :                                                           ",
"                                              S                                   P                                             ",
"                                                K                               K                                               ",
"    +.+.+.+.+.+.+.+.                              K S                         K                                                 ",
"          +.+.+.o.+.+.+.+.+.+.+.o.+.+.+.+.+.+.      H J K               P L                                                     ",
"                +.o.+.+.o.+.+.+.+.o.o.+.+.+.+.+.+.+.+.o.X... .| J J } L                                                         ",
"                      o.+.+.o.+.o.+.+.o.+.+.+.+.+.+.+.+.+.+.+.+.                                                                ",
"                                                                                                                                ",
"                                                                                                                                ",
"                                                                                                                                ",
"                                                                                                                                ",
"                                                                                                                                ",
"                                                                                                                                ",
"                                                                                                                                ",
"                                                                                                                                "
};
