/* XPM */
static char *enermy_351671357075[] = {
/* columns rows colors chars-per-pixel */
"64 64 76 1 ",
"  c None",
". c #7B745B",
"X c #988E6E",
"o c #9F9574",
"O c #F1B96D",
"+ c #F7CC4E",
"@ c #F6CC4F",
"# c #F7CC4F",
"$ c #F9CD4A",
"% c #F8CD4B",
"& c #F9CD4B",
"* c #F8CD4D",
"= c #F9CE4E",
"- c #F3CB51",
"; c #F5CB51",
": c #F4CB52",
"> c #F5CC51",
", c #F3CB54",
"< c #F2CA56",
"1 c #F4C956",
"2 c #F6CB5B",
"3 c #F7CF58",
"4 c #F1CB5C",
"5 c #FAD053",
"6 c #FAD259",
"7 c #CFDB73",
"8 c #CFDB74",
"9 c #CADA78",
"0 c #D5DE76",
"q c #FAD462",
"w c #FAD669",
"e c #EFCE75",
"r c #FBD971",
"t c #F7D87B",
"y c #FBDB78",
"u c #D3E06E",
"i c #D4E06F",
"p c #D8E36C",
"a c #C5B78D",
"s c #F0B081",
"d c #F1A593",
"f c #F1A595",
"g c #D7DC87",
"h c #DCCC9C",
"j c #FCDD81",
"k c #FCDF87",
"l c #F3DA8E",
"z c #F9DE88",
"x c #F7D69C",
"c c #FCE08B",
"v c #FCE392",
"b c #FDE59A",
"n c #FAE49C",
"m c #EDDCA8",
"M c #FDE7A0",
"N c #FDE9A7",
"B c #F2E2AC",
"V c #F8E7AF",
"C c #FEECAF",
"Z c #EFE4B1",
"A c #F6E6B0",
"S c #F7E8B5",
"D c #F7E8B6",
"F c #FAE9B0",
"G c #FDECB3",
"H c #F9E9B5",
"J c #FBEBB4",
"K c #FAEAB5",
"L c #FBEBB5",
"P c #FCECB4",
"I c #FDECB4",
"U c #FFEDB4",
"Y c #FFEEB6",
"T c #E3E1EE",
"R c #E2E1EF",
"E c #E3E1EF",
/* pixels */
"                                                                ",
"                                                                ",
"                                                                ",
"                                                                ",
"                                                                ",
"                                                                ",
"                                                                ",
"                               78upi0                           ",
"                               gg9uppi                          ",
"                              JUYZ  8iu                         ",
"                             nUUUG                              ",
"                            4kUUUYH                             ",
"                            -yYUUUH                             ",
"                            >rUUUGY                             ",
"                            #rUUUUG                             ",
"                            #rUUUUG                             ",
"                            #yUUUUU                             ",
"                            #yUUUUU                             ",
"                            *jYUUUUS                            ",
"                            $cYUUUYS                            ",
"                            =vYUUUUH                            ",
"                           ,5nUUUUYV                            ",
"                           16NUUUUUJ                            ",
"                           #rYUUUUUU                            ",
"                           *vYUUUUUUS                           ",
"                          <qCUUUUGUGV                           ",
"                          6vYUUUUUUUY                           ",
"                         4rCUUUUUUUGUH                          ",
"                         3nYYUUUUUUUUG                          ",
"                        <yUUUUUUUUUUUUH                         ",
"                        #bYUUUUUUUUUUUY                         ",
"                       <5NYUUUUUUUUUUUUH                        ",
"                       #5NUUUUUUUUUUUUUU                        ",
"                       **bYUUUUUUUUUUUUUA                       ",
"                      4*$cYUUUUUUUUUUUUUH                       ",
"                      >$$yUUUUUUUUUUUUUJH                       ",
"                      >*$wCYUUUUUUUUUUUUJ                       ",
"                      #$$6NUUUUYUUUUUJUUY                       ",
"                      #*$$vYUUYaaGVVhXVUG                       ",
"                      #$$$rUUUYo.oXXXXVUU                       ",
"                     l+$&&5nYYUBmmmBVGUUUGS                     ",
"                   AYN6$&&&yUUUYYYYUUGUUUYH                     ",
"                   zYN6$$*$5bYUUUUUUUUGYNvJ                     ",
"                   2ww+$$*$$qNYYUUUUUUUYx1                      ",
"                   s-  #$*$$$qcMCUYYYYYY                        ",
"                   f    *$$*$$$5qrycvvzy                        ",
"                    d   1*$*$$*$$$$#**#                         ",
"                      ddsO*$$*$$$$$$*>                          ",
"                           *$$$*$$$>                            ",
"                           #$#4<>*$>                            ",
"                           **<   *$                             ",
"                           $$    *1                             ",
"    TTEETT                 *#                                   ",
"      TTTTTTTETTTTEEEE     e4                                   ",
"         TTTTTTTTTTTEEEEEEETTTTTE                               ",
"           TTTTTTTTTEEEEEEETTTTTE                               ",
"                                                                ",
"                                                                ",
"                                                                ",
"                                                                ",
"                                                                ",
"                                                                ",
"                                                                ",
"                                                                "
};
