/* XPM */
static char *enermy_321671357074[] = {
/* columns rows colors chars-per-pixel */
"64 64 91 1 ",
"  c None",
". c #7B745B",
"X c #998F6F",
"o c #ABA07B",
"O c #EFB47B",
"+ c #F5CB4F",
"@ c #F7CC4C",
"# c #F6CC4F",
"$ c #F9CD48",
"% c #F9CD4A",
"& c #F8CD4B",
"* c #F9CE4E",
"= c #F3CA53",
"- c #F5CB50",
"; c #F4CB52",
": c #F4CB53",
"> c #F6CC50",
", c #F6CC52",
"< c #F2CA55",
"1 c #F3CB55",
"2 c #F8CF55",
"3 c #F9D053",
"4 c #FAD159",
"5 c #CDDA77",
"6 c #CDDB78",
"7 c #CCDA7A",
"8 c #D0DE72",
"9 c #D1DC77",
"0 c #D4DF76",
"q c #D6DF76",
"w c #F8D160",
"e c #F9D464",
"r c #FAD667",
"t c #FAD66A",
"y c #FAD66B",
"u c #FBD973",
"i c #F9D97B",
"p c #FBDC7A",
"a c #D6E26D",
"s c #D6E171",
"d c #B5A982",
"f c #BBAF87",
"g c #CDBF93",
"h c #F3A290",
"j c #F3A390",
"k c #F1A492",
"l c #F3A492",
"z c #F0A899",
"x c #EFAFA2",
"c c #F0BCAB",
"v c #D4C596",
"b c #EFC18A",
"n c #FCDE82",
"m c #F8DD89",
"M c #FCE089",
"N c #FCE18D",
"B c #FAE091",
"V c #FCE393",
"C c #FDE69B",
"Z c #E1D2A0",
"A c #E2D3A1",
"S c #E5DFA7",
"D c #EDDDA8",
"F c #F2C1B2",
"G c #F3C5B4",
"H c #F2C6B4",
"J c #FAE5A0",
"K c #FDE8A1",
"L c #FDE9A6",
"P c #FEEAAA",
"I c #F7E8B5",
"U c #F9E9B2",
"Y c #FBEBB3",
"T c #FEECB1",
"R c #F8E8B5",
"E c #F8E9B5",
"W c #F9E9B5",
"Q c #FAEAB4",
"! c #FBEBB4",
"~ c #FBEBB5",
"^ c #FCEBB4",
"/ c #FDECB4",
"( c #FDEDB4",
") c #FEEDB4",
"_ c #FFEEB5",
"` c #FFEFB6",
"' c #E8C6C6",
"] c #E3DFEC",
"[ c #E3E0EC",
"{ c #E3E1EE",
"} c #E3E2EF",
/* pixels */
"                                                                ",
"                                                                ",
"                                                                ",
"                                                                ",
"                                                                ",
"                                9ssq                            ",
"                               q65aaq                           ",
"                              ~~)S 58a6                         ",
"                             K`^))   66                         ",
"                             mTT))U                             ",
"                            -p^`))~                             ",
"                            -u`T)`^                             ",
"                            -u``))U                             ",
"                            @uT^))`                             ",
"                            @u`^)))                             ",
"                            @pT`)))                             ",
"                            &nT^^T`I                            ",
"                            &M````^I                            ",
"                            &V`TT`TU                            ",
"                           1&C```^`~                            ",
"                           <4L))TT`U                            ",
"                           @eT))^``^                            ",
"                           @M`))`^T`                            ",
"                          <4L`))TT`^~                           ",
"                          @n))))`^`^^                           ",
"                          eP))))T`T``R                          ",
"                         -V`))))^`^^`U                          ",
"                         yT`))))`T`TT`~                         ",
"                        @N))))))))))^`^                         ",
"                        3K`)))))))))`T^~                        ",
"                       -3K`)))))))))))`U                        ",
"                       @>C`)))))))))))))                        ",
"                       &$m`^))))))))))))~                       ",
"                      :$$pT`)))))))))))`~                       ",
"                      -$$rP`))))))))))))U                       ",
"                      ,*$4L))))``)))``))`                       ",
"                      &$&*V`))`ZZ```DfT^U                       ",
"                      :&*$p)))`X.dooX.U``                       ",
"                      ,$$$4L)))ZgggvZD))U                       ",
"                      ,&&$$n)))```````))`U                      ",
"                     ~y$%%%4LT))))))^`^`T^                      ",
"                     `n$%%%$uT))))))T``TPT^                     ",
"                    J`n$$*$$&uK)T`))`T^`iN~                     ",
"                    m^m<&$**&$2rpNCLPPKm wB                     ",
"                    wV  :$&$&&$$$$*2442   b                     ",
"                    O    :&&$$&&&$&$$@                          ",
"                          :&&&&$&&&&-                           ",
"                    c      &$,@,@$$:                            ",
"                          -$@   <$$      H                      ",
"                     j    :&@    @:     H                       ",
"                      l    :           F                        ",
"                       j             GF                         ",
"  }}}}}}}]              hh         FF                           ",
"     ]]}}}}}}}}}]}}}}]}  'Fxzhjhl                               ",
"        ]}}}}}}]]}}]}}}]}}}}}]]]                                ",
"            ]]}}}}}}}]}}}}}]}}}}                                ",
"                                                                ",
"                                                                ",
"                                                                ",
"                                                                ",
"                                                                ",
"                                                                ",
"                                                                ",
"                                                                "
};
