/* XPM */
static char *enermy_361671357075[] = {
/* columns rows colors chars-per-pixel */
"64 64 84 1 ",
"  c None",
". c #7A745B",
"X c #948C6D",
"o c #9F9674",
"O c #ABA17D",
"+ c #F7CC4C",
"@ c #F6CC4F",
"# c #F7CC4F",
"$ c #F8CC4A",
"% c #F8CC4C",
"& c #F8CC4D",
"* c #F3CB52",
"= c #F5CB50",
"- c #F4CB51",
"; c #F4CB52",
": c #F6CC50",
"> c #F6CD52",
", c #F3CB55",
"< c #F1CA56",
"1 c #F8CE50",
"2 c #F9CF55",
"3 c #F2CB59",
"4 c #F0CA5D",
"5 c #F9D058",
"6 c #F8D15F",
"7 c #CAD776",
"8 c #CEDB72",
"9 c #CFDD71",
"0 c #C9D87C",
"q c #D2DD74",
"w c #F9D360",
"e c #F2D16F",
"r c #FAD669",
"t c #FAD771",
"y c #FBD973",
"u c #FBDB7A",
"i c #D7E26C",
"p c #D6E26D",
"a c #D8E36D",
"s c #D5E071",
"d c #B7AC84",
"f c #C3B78C",
"g c #D8DB8F",
"h c #FBDE84",
"j c #F0D891",
"k c #DFE08D",
"l c #FCE18D",
"z c #FCE497",
"x c #FBE399",
"c c #FDE59B",
"v c #E1D1A0",
"b c #E9D5A6",
"n c #EADAA6",
"m c #E7D7B4",
"M c #FDE7A0",
"N c #FDE9A6",
"B c #F2E2AC",
"V c #FBE7A9",
"C c #F9E7AC",
"Z c #FCE9AC",
"A c #FEECAF",
"S c #F6E6B1",
"D c #F5E7B4",
"F c #F4E6B5",
"G c #F7E8B5",
"H c #F9E9B4",
"J c #F8E8B5",
"K c #FAEAB4",
"L c #FBEBB4",
"P c #FAEAB5",
"I c #FBEBB5",
"U c #FCECB4",
"Y c #FDEDB4",
"T c #FEEDB4",
"R c #FEEDB5",
"E c #FFEEB5",
"W c #FFEFB5",
"Q c #FDECB6",
"! c #FEEEB6",
"~ c #FFEFB6",
"^ c #E3E1EB",
"/ c #E3E1ED",
"( c #E3E1EE",
") c #E3E1EF",
/* pixels */
"                                                                ",
"                                                                ",
"                                                                ",
"                                                                ",
"                                                                ",
"                                                                ",
"                                                                ",
"                                                                ",
"                               qqiiqq                           ",
"                               gg0qiis                          ",
"                             STTUD  78s                         ",
"                             cQTT!                              ",
"                            3h!TTTK                             ",
"                            ;uQ!TTL                             ",
"                            @tTTTTU                             ",
"                            @yTTTTU                             ",
"                            :yTTTT!                             ",
"                            :u!TTTL                             ",
"                            @u!TTTTS                            ",
"                            %h!TTT!G                            ",
"                            1h!TTTTK                            ",
"                           ,1z!TTTTL                            ",
"                           ,2MTTTTTL                            ",
"                           ;6TTTTT!C                            ",
"                           @uTTTTTTL                            ",
"                           1c!TTTTTTK                           ",
"                          *tTTTTTTTTK                           ",
"                          6M!TTTTTTT!                           ",
"                         ,hTTTTTTTTT!L                          ",
"                         6N!TTTTTTTTT!                          ",
"                        ;h!TTTTTTTTTTTK                         ",
"                        @M!TTTTTTTTTTT!S                        ",
"                       *2NTTTTTTTTTTTTTL                        ",
"                       :5N!TTTTTTTTTTTTT                        ",
"                       %:c!TTTTTTTTTTTTTK                       ",
"                      ,%%l!TTTTTTTTTTTTTK                       ",
"                      :$$u!TTTTTTTTTTTTTL                       ",
"                      :@$rATTTTTTTTTT!TT!                       ",
"                      :%$2N!TTTUT!T!LnTTT                       ",
"                      :%%$l!TTWOonvvf.B!!D                      ",
"                     j@$%$rATTTdXoooddTTTTL                     ",
"                   CQZ5$%%1c!TTTTUTT!!TTT!!                     ",
"                   lTAw$%%%rATTTTTTTTTTT!NC                     ",
"                   :ry2%%%%%l!!TTTTTTTTTCe                      ",
"                    3 4@%%%$2lT!!!!TTT!!S                       ",
"                       ;%%%%$%rhzNA!TTAZ                        ",
"                        :%%%%%%$@2wryyr3                        ",
"                         @%%%%%%$$$$$$*                         ",
"                          ;%%%%%%%%$;,                          ",
"                           :$+:%1%%;                            ",
"                           @%;  3&%*                            ",
"                           %%*   &%                             ",
"    (((((((                @%3   ;;                             ",
"     ((((((((((()))))(     @%                                   ",
"         (((((()())))))))))mb^))((                              ",
"           (((((((())))())))))))(                               ",
"                      ((((((                                    ",
"                                                                ",
"                                                                ",
"                                                                ",
"                                                                ",
"                                                                ",
"                                                                ",
"                                                                "
};
