/* XPM */
static char *enermy_161671357072[] = {
/* columns rows colors chars-per-pixel */
"64 64 83 1 ",
"  c None",
". c #7A745B",
"X c #9A9171",
"o c #A19776",
"O c #A19876",
"+ c #F7CC4C",
"@ c #F6CC4F",
"# c #F7CC4F",
"$ c #F8CC4A",
"% c #F8CC4B",
"& c #F8CC4C",
"* c #F8CC4D",
"= c #F3CB53",
"- c #F5CB50",
"; c #F4CB51",
": c #F4CB52",
"> c #F6CD52",
", c #F6CD53",
"< c #F3CB55",
"1 c #F8CE50",
"2 c #F1CA58",
"3 c #F2CC5E",
"4 c #F9D056",
"5 c #F9D05B",
"6 c #CAD776",
"7 c #CFDB73",
"8 c #CEDC72",
"9 c #C9D87D",
"0 c #D5DF76",
"q c #FAD362",
"w c #F8D264",
"e c #FAD66A",
"r c #FAD771",
"t c #FAD873",
"y c #FAD975",
"u c #FBDB7A",
"i c #D6E26D",
"p c #D8E36C",
"a c #D3E071",
"s c #B1A681",
"d c #C0B48A",
"f c #D8DB8F",
"g c #FBDE84",
"h c #FADF8B",
"j c #F0D892",
"k c #DFE08D",
"l c #FCE18D",
"z c #FCE497",
"x c #FBE59F",
"c c #FDE69C",
"v c #E1D1A0",
"b c #E8D6AD",
"n c #EDDDA8",
"m c #FDE8A3",
"M c #F6E4A9",
"N c #FAE7A9",
"B c #F9E7AD",
"V c #FDE9A8",
"C c #FEECAE",
"Z c #F5E7B4",
"A c #F6E7B5",
"S c #F7E8B5",
"D c #FAEAB2",
"F c #FEECB3",
"G c #F9E9B4",
"H c #F8E8B5",
"J c #FAEAB4",
"K c #FBEBB4",
"L c #FAEAB5",
"P c #FCEBB4",
"I c #FCECB4",
"U c #FDECB5",
"Y c #FEEDB4",
"T c #FEEDB5",
"R c #FFEEB5",
"E c #FFEFB5",
"W c #FDECB6",
"Q c #FEEEB6",
"! c #FFEFB6",
"~ c #E3E1EB",
"^ c #E3E1ED",
"/ c #E3E1EE",
"( c #E3E1EF",
/* pixels */
"                                                                ",
"                                                                ",
"                                                                ",
"                                                                ",
"                                                                ",
"                                                                ",
"                                                                ",
"                                                                ",
"                               88ipaa                           ",
"                               kf9aipa                          ",
"                             MIFPZ  68a                         ",
"                             xQFFQ                              ",
"                            3gQFQFJ                             ",
"                            =uQFQFK                             ",
"                            @yFFFFF                             ",
"                            @tQQFQQ                             ",
"                            @yFFFQQ                             ",
"                            ,uQFFFF                             ",
"                            @uQQQFQA                            ",
"                            &gQFQFQS                            ",
"                            @lEEFFFJ                            ",
"                           2@zQFFQQJ                            ",
"                           =4mQFQFFJ                            ",
"                           ,qCFQFFQK                            ",
"                           @uQFFFQQQ                            ",
"                           1cEQFFFFES                           ",
"                          :rFFFFQEFFK                           ",
"                          ,cQFEQFFQFQ                           ",
"                         =gFFFEFEFFFFJ                          ",
"                         wVQFQFFFFQQQF                          ",
"                        :gQQFFQQQFFFQFK                         ",
"                        @mQFQFFFEFQFFFQS                        ",
"                       =5VQFQFFQFQQFFFEI                        ",
"                       ,4VQQFEFFFFFEEIQK                        ",
"                       &@cQFFEFEEFFFFEFFS                       ",
"                      <$+lEFQFFQFQEIQFFQJ                       ",
"                      ,$+uFFFQFFQFFQFQFFD                       ",
"                      @@$qCEFQFEFFQEFEIEQ                       ",
"                      ,&$4mQFFQDIFEEFnFFQ                       ",
"                      @&$+lQQFFsXnvns.nEFA                      ",
"                     j,@&&eFQFEsXOXOsdIFQFK                     ",
"                   BQV,$&&1zQQFFFFFEEEFFFEQ                     ",
"                   hQCq$&&&eCQFFFFFQFQFFFmN                     ",
"                   ,et1&&&&&lQQFEQFFFQFQN3                      ",
"                    < 3@&&&$,lFQEQQQFFQQS                       ",
"                       :&&&&&1egzVCFQFFx                        ",
"                        ,&&&&&$$@4qette3                        ",
"                         1&&&&*$@$$$$$=                         ",
"                          :&&&&*$*$@,2                          ",
"                           1&&,*-*$@                            ",
"                           @&:  3&&<                            ",
"                           &&=   &&                             ",
"    ///////                1*3   ::                             ",
"     ///////////(((((/     ,@                                   ",
"         ///(////((((((((//bb~////                              ",
"           ////////((((/((((/////                               ",
"                      //////                                    ",
"                                                                ",
"                                                                ",
"                                                                ",
"                                                                ",
"                                                                ",
"                                                                ",
"                                                                "
};
