/* XPM */
static char *enermy_251671357073[] = {
/* columns rows colors chars-per-pixel */
"64 64 98 2 ",
"   c None",
".  c #79735A",
"X  c #928A6A",
"o  c #A09875",
"O  c #F5BE62",
"+  c #F5B76A",
"@  c #F6CB4F",
"#  c #F7CD4E",
"$  c #F7CC4F",
"%  c #F9CD4B",
"&  c #F9CD4C",
"*  c #F8CC4D",
"=  c #F8CD4D",
"-  c #F7C456",
";  c #F5CB52",
":  c #F5CC52",
">  c #F5CC53",
",  c #F6CD52",
"<  c #F3CB55",
"1  c #F3CB56",
"2  c #F4CC54",
"3  c #F5CD57",
"4  c #F9CE50",
"5  c #F9CF53",
"6  c #FAD054",
"7  c #FAD057",
"8  c #F8D05C",
"9  c #C4D776",
"0  c #CAD977",
"q  c #D0DC76",
"w  c #EFCD6D",
"e  c #F7D161",
"r  c #FAD462",
"t  c #FAD668",
"y  c #F9D66D",
"u  c #F8D56F",
"i  c #EFCF75",
"p  c #F4CA7C",
"a  c #FBD971",
"s  c #FBDB79",
"d  c #D5E16F",
"f  c #D7E171",
"g  c #B2A881",
"h  c #F1AE85",
"j  c #F3B89B",
"k  c #F2B7A4",
"l  c #F1BEA7",
"z  c #B4CC80",
"x  c #D4C797",
"c  c #DADB91",
"v  c #F6C385",
"b  c #F4CD89",
"n  c #F5D986",
"m  c #F9DA80",
"M  c #FCDE81",
"N  c #F8CE95",
"B  c #FCE088",
"V  c #FBE08F",
"C  c #FCE28F",
"Z  c #E1E090",
"A  c #FDE597",
"S  c #FBE49B",
"D  c #FDE69E",
"F  c #F6CAA4",
"G  c #E2D3A1",
"H  c #E6D7A4",
"J  c #EEDFAA",
"K  c #F7D2A9",
"L  c #F4D1AE",
"P  c #F6D9AE",
"I  c #F8D9AD",
"U  c #F9DDAF",
"Y  c #F8E4A3",
"T  c #FDE8A3",
"R  c #F6E4AC",
"E  c #FFEBAB",
"W  c #FEECAF",
"Q  c #F7E7B5",
"!  c #FCE5B0",
"~  c #F7E8B4",
"^  c #F7E8B6",
"/  c #F9E8B1",
"(  c #FCEAB3",
")  c #FEEDB1",
"_  c #F9E9B4",
"`  c #F8E9B5",
"'  c #F9E9B5",
"]  c #FBEBB4",
"[  c #F9E8B7",
"{  c #FCECB4",
"}  c #FDEDB4",
"|  c #FDECB5",
" . c #FEEDB4",
".. c #FFEEB5",
"X. c #FEEEB6",
"o. c #FFEFB6",
"O. c #E3E1EE",
"+. c #E3E1EF",
/* pixels */
"                                                                                                                                ",
"                                                                                                                                ",
"                                                                                                                                ",
"                                                                                                                                ",
"                                                                                                                                ",
"                                                                                                                                ",
"                                                                                                                                ",
"                                                                                                                                ",
"                                                                                                                                ",
"                                                              0 q f f                                                           ",
"                                                              Z c 0 f d                                                         ",
"                                                          R  . .X.~   9 q                                                       ",
"                                                          D X. . . .]   0                                                       ",
"                                                        1 M X. . . .]     9                                                     ",
"                                                        ; M  . . . . .    z                                                     ",
"                                                        @ s  . . . .X.                                                          ",
"                                                        = s  . . . .X.                                                          ",
"                                                        $ s  .X. . .X.                                                          ",
"                                                        = M X.X. . . .Q                                                         ",
"                                                        = M X.X. . .X.]                                                         ",
"                                                        % C X. . . . ./                                                         ",
"                                                      < = A X. . . .X.Q                                                         ",
"                                                      > 5 T  . . . . ./                                                         ",
"                                                      2 r  . . . . . .X.                                                        ",
"                                                      $ s  . . . . . . .                                                        ",
"                                                      4 A X. . . . . . .~                                                       ",
"                                                    ; a  . . . . . . . .]                                                       ",
"                                                    8 D  . . . . . . . .X.                                                      ",
"                                                  2 M X.X.X. . . . . . . ./                                                     ",
"                                                  y W  . . . . . . . . . . .~                                                   ",
"                                                > A X. . . . . . . . . . . .X.                                                  ",
"                                                t W X. . . . . . . . . . . .X.]                                                 ",
"                                              ; s  . . . . . . . .] ( ! U U I P                                                 ",
"                                              = s  . . . . . .! P K K K I I I I L l l                                           ",
"                                            1 % t  . . ./ I K K I ! (  . . . . ./     k                                         ",
"                                            > % 6 T X.I F K !  . . . . . . . .X.X.      k                                       ",
"                                            $ % = N F K !  . . . . . . . . . . .X.                                              ",
"                                            = - + v ! X. . . . . . . . . .X. . .X.Q                                             ",
"                                            O + - r W  . . . . .(  .X.X. .J (  . .Q                                             ",
"                                          h + = = = A X. . .o.g o J H G x . G X.X.] ~ ~ l                                       ",
"                                        j N r % & % a  . . .o.g X o o o o g / ) ) o.) D b                                       ",
"                                      p K X.B % & & 4 A X. . . .( (  . .E A B a a T T s Y                                       ",
"                                      e D X.C = & & % r E  . . .X.W A s t a M C B y a 2                                         ",
"                                        e y y % & & & & s W X.W C t t B T  .X.X.X.                                              ",
"                                              = = % & & 4 a A a r C W  .X.X.X.X./                                               ",
"                                              ; % = & & = % 4 & t M A D T T D V                                                 ",
"                                                > = & & % & = % % % = = 6 6 4 <                                                 ",
"                                                  4 & & & & % = % % % = % % <                                                   ",
"                                                    1 = = = % % = = % = 3                                                       ",
"                                                      = = 4 ; > > = = =                                                         ",
"                                                      = % <       > = =                                                         ",
"                                                      = =         ; % $                                                         ",
"          +.+.+.O.O.+.                                = =         2 4 m                                                         ",
"            +.+.O.+.+.+.+.+.+.+.O.O.+.+.+.+.          i w           4 n                                                         ",
"                  +.+.+.O.O.+.+.O.O.O.O.+.+.+.O.O.O.O.O.O.O.O.                                                                  ",
"                      O.O.O.O.+.+.O.O.O.+.+.+.+.O.O.O.O.O.O.O.O.+.+.                                                            ",
"                                          +.+.+.+.+.+.                                                                          ",
"                                                                                                                                ",
"                                                                                                                                ",
"                                                                                                                                ",
"                                                                                                                                ",
"                                                                                                                                ",
"                                                                                                                                ",
"                                                                                                                                "
};
