/* XPM */
static char *enermy_131671357072[] = {
/* columns rows colors chars-per-pixel */
"64 64 88 1 ",
"  c None",
". c #7E775E",
"X c #938B6C",
"o c #9E9574",
"O c #ADA37E",
"+ c #F7CD4E",
"@ c #F6CC4F",
"# c #F9CD4A",
"$ c #F9CD4C",
"% c #F8CD4D",
"& c #F9CE4F",
"* c #F4CB51",
"= c #F4CB53",
"- c #F2CC52",
"; c #F6CC50",
": c #F6CD51",
"> c #F7CE51",
", c #F5CC52",
"< c #F4CC53",
"1 c #F3CB55",
"2 c #F3CC56",
"3 c #F9CF53",
"4 c #F2CB59",
"5 c #F9D057",
"6 c #FAD15B",
"7 c #CFDC73",
"8 c #CCD975",
"9 c #D0DB75",
"0 c #D6DE78",
"q c #D6DE7A",
"w c #F2CE62",
"e c #F8D161",
"r c #F8D260",
"t c #FAD360",
"y c #F2D26F",
"u c #F4D36E",
"i c #F7D46C",
"p c #FAD668",
"a c #FBD870",
"s c #FBDA77",
"d c #FBDC7E",
"f c #D6E26D",
"g c #D6E16F",
"h c #D6E074",
"j c #BBB087",
"k c #F1A28F",
"l c #F1A391",
"z c #F2A491",
"x c #F1A593",
"c c #F0A695",
"v c #EEAFA4",
"b c #EEB9AC",
"n c #D1D78F",
"m c #FCDE82",
"M c #FCDF88",
"N c #EBE49D",
"B c #FBE192",
"V c #FDE291",
"C c #F7E099",
"Z c #F7E19E",
"A c #FDE599",
"S c #FDE69E",
"D c #E1D1A0",
"F c #EADAA6",
"G c #F2C4B2",
"H c #E7E0A2",
"J c #FDE8A3",
"K c #FDE9A7",
"L c #F6E6AF",
"P c #FCE9AA",
"I c #FEECAE",
"U c #F6E7B4",
"Y c #F8E8B3",
"T c #FCEBB2",
"R c #FCEBB3",
"E c #FEECB3",
"W c #F8E8B5",
"Q c #FAEAB5",
"! c #FBEAB5",
"~ c #FBEBB5",
"^ c #FDECB4",
"/ c #FEEDB4",
"( c #FFEEB6",
") c #FFEFB6",
"_ c #E8C5C3",
"` c #E3E1EE",
"' c #E2E2EF",
"] c #E3E2EF",
/* pixels */
"                                                                ",
"                                                                ",
"                                                                ",
"                                                                ",
"                                                                ",
"                                 00                             ",
"                               97fffh                           ",
"                              UNHn87fh                          ",
"                             J/)/^   87                         ",
"                             B////W                             ",
"                            1d////W                             ",
"                            -s/////                             ",
"                            >i/////                             ",
"                            @a////T                             ",
"                            >a/////                             ",
"                            >s////^                             ",
"                            @d/////                             ",
"                            %m(////W                            ",
"                            %V/////Y                            ",
"                           4%A)////W                            ",
"                           13J/////^                            ",
"                           >6T/////T                            ",
"                           @s///////                            ",
"                           5A(//////W                           ",
"                          =a^///////W                           ",
"                          >S(////////                           ",
"                         1d//////////^                          ",
"                         rK///////////                          ",
"                        >d////////////W                         ",
"                        >A/////////////                         ",
"                       13J/////////////^                        ",
"                       @3S/////////////^                        ",
"                       %%V//////////////U                       ",
"                      4%#m///////////////                       ",
"                      =##a//////////////W                       ",
"                      =$#tI//////////(//T                       ",
"                      >$%5SE///E/(/)^F^/^                       ",
"                      >$%#M)//)OoFDDj.U//                       ",
"                      3###pI//)jXoooOjTT/                       ",
"                      >%%%%V)//EEW//)//E/U                      ",
"                     C5#$$#pEE////////////                      ",
"                    YEp#$$$$V/EE//////////W                     ",
"                    PTp#$$%#6AE)///////EMV/                     ",
"                   wAKu>$$$##5sVJIE////TywJ                     ",
"                    ri  @#%%$###56asmmsu                        ",
"                         3#%$$%%######=                         ",
"                          3%$$%%%%%#%2   G                      ",
"                           %$%%%%##3                            ",
"                    z      %%1  3#%                             ",
"                          3%%    %@    G                        ",
"                     z    4+>        GG                         ",
"                      z    -        G                           ",
"  ```]`]]`              kz      ccb                             ",
"     ]````]]```````]```  _bvcz                                  ",
"         `````````````````]]]]]                                 ",
"            `]]`]`]``````````]``                                ",
"                                                                ",
"                                                                ",
"                                                                ",
"                                                                ",
"                                                                ",
"                                                                ",
"                                                                ",
"                                                                "
};
