/* XPM */
static char *enermy_41671357071[] = {
/* columns rows colors chars-per-pixel */
"64 64 115 2 ",
"   c None",
".  c #6E6854",
"X  c #7D765E",
"o  c #9B9172",
"O  c #F6B962",
"+  c #F5B46E",
"@  c #F1B371",
"#  c #F1B57C",
"$  c #B9D27B",
"%  c #F4CA4F",
"&  c #F7CC4E",
"*  c #F9CD4B",
"=  c #F8CD4C",
"-  c #F9CD4C",
";  c #F8CD4E",
":  c #F9CE4F",
">  c #F7C556",
",  c #F4CB51",
"<  c #F6C852",
"1  c #F4CB53",
"2  c #F6CC52",
"3  c #F2C954",
"4  c #F3CB55",
"5  c #F3CB56",
"6  c #F6CC54",
"7  c #F7CE56",
"8  c #F4CD5A",
"9  c #FAD156",
"0  c #FAD25D",
"q  c #C9D977",
"w  c #C5D779",
"e  c #D0DD73",
"r  c #D0DC75",
"t  c #D6DE76",
"y  c #F7C368",
"u  c #F0CA6F",
"i  c #FAD462",
"p  c #FAD565",
"a  c #F9D468",
"s  c #FBD76A",
"d  c #EFD07B",
"f  c #FBDA76",
"g  c #FBDC7A",
"h  c #F8D97C",
"j  c #FBDD7F",
"k  c #D4E16D",
"l  c #D5E16F",
"z  c #D7E26E",
"x  c #B1A782",
"c  c #B8AC86",
"v  c #C0B48B",
"b  c #C6BA8F",
"n  c #F3AB84",
"m  c #F7BD86",
"M  c #F2A396",
"N  c #F0AB95",
"B  c #F1B2A0",
"V  c #F0B6A0",
"C  c #F2BEAC",
"Z  c #D1D98A",
"A  c #D1C396",
"S  c #DCCE9D",
"D  c #F9D181",
"F  c #FCDE83",
"G  c #F9DD88",
"H  c #F9DC8A",
"J  c #F3C997",
"K  c #F9CA9B",
"L  c #F2DD9F",
"P  c #FCE088",
"I  c #FCE28E",
"U  c #EBE49D",
"Y  c #FAE296",
"T  c #FDE496",
"R  c #FAE298",
"E  c #FCE59B",
"W  c #FDE69C",
"Q  c #F2C4A1",
"!  c #EAD5A2",
"~  c #EEDEA9",
"^  c #F7D2AC",
"/  c #F9D4AA",
"(  c #F9DAAF",
")  c #F1C2B0",
"_  c #F0C2B2",
"`  c #E6E1A0",
"'  c #FDE8A2",
"]  c #FDE9A5",
"[  c #F6E3AD",
"{  c #FBE9A9",
"}  c #FEEAA9",
"|  c #FEECAE",
" . c #F1E4B1",
".. c #FAE2B1",
"X. c #F7E8B4",
"o. c #F8E8B0",
"O. c #F9E9B1",
"+. c #FCE9B2",
"@. c #FDEDB3",
"#. c #FEEEB3",
"$. c #F9E9B5",
"%. c #FAEBB5",
"&. c #FBEBB5",
"*. c #FBECB4",
"=. c #FCECB4",
"-. c #FDEDB5",
";. c #FEEEB4",
":. c #FFEEB6",
">. c #FFEFB6",
",. c #FFF0B6",
"<. c #E5DAC7",
"1. c #E3E1EA",
"2. c #E3E1EC",
"3. c #E3E1ED",
"4. c #E3E1EE",
/* pixels */
"                                                                                                                                ",
"                                                                                                                                ",
"                                                                                                                                ",
"                                                                                                                                ",
"                                                                                                                                ",
"                                                                                                                                ",
"                                                                                                                                ",
"                                                                                                                                ",
"                                                                                                                                ",
"                                                                                                                                ",
"                                                              q e z z t                                                         ",
"                                                             .U ` Z e z                                                         ",
"                                                          +.@.;.;.;.  w e                                                       ",
"                                                          T #.;.;.;.%.  w q                                                     ",
"                                                        8 P ,.;.;.;.%.    $                                                     ",
"                                                        2 F ;.;.;.;.&.                                                          ",
"                                                        6 g ;.;.;.;.;.                                                          ",
"                                                        : g ;.;.;.;.;.                                                          ",
"                                                        & g ,.;.;.;.;.                                                          ",
"                                                        & G ;.;.;.;.;.X.                                                        ",
"                                                        * G ;.;.;.;.;.%.                                                        ",
"                                                        : E ;.;.;.;.#.X.                                                        ",
"                                                      5 : W ;.;.;.;.;.%.                                                        ",
"                                                      2 9 ] ;.;.;.;.;.%.                                                        ",
"                                                      2 p | ;.;.;.+.( ^ Q _ _ C                                                 ",
"                                                      & F ;.;.+.( ^ ( ..          C                                             ",
"                                                      9 ' ;...^ ( +.;.;.+.          C                                           ",
"                                                    6 j #.( ^ +.;.;.;.;.@.                                                      ",
"                                                    p } / / #.;.;.;.;.;.;.[           B                                         ",
"                                                  6 T ^ / ;.;.;.;.;.;.;.;.%.                                                    ",
"                                                  F / / ;.;.;.;.;.;.;.;.;.;.%.          B                                       ",
"                                                6 K / #.;.;.;.;.;.;.;.;.;.;.;.          B                                       ",
"                                              5 y K ;.;.;.;.;.#.;.;.#.#.;.;.;.%.                                                ",
"                                              < m &.;.;.;.;.;.#.;.| } ] } | ;.;.                                                ",
"                                              O D ;.;.;.;.#.' I F F F F P G G ' %.                                              ",
"                                            + O p | ;.;.W g F E ] | #.#.| | ' I R                                               ",
"                                            + : 9 ' | G P ] ;.:.;.;.;.;.,.#.#.#.E                                               ",
"                                          n > * : F F T ;.;.;.;.;.;.;.;.#.#.#.#.#.                                              ",
"                                          # * : * i ' #.;.;.;.:.,.;.;.;.;.,.;.;.;.X.                                            ",
"                                        M u * * * 0 } #.;.;.;.~ ~ ,.,.;.#.A [ ;.;.%.    N                                       ",
"                                        V u & : * * I ;.;.;.:.o X b v c x . S ;.;.} G G J                                       ",
"                                      Q [ } s * * * p | ;.;.;.S v v v b A S &.;.;.| } ;.%.                                      ",
"                                      a f g i * * : * G ;.;.;.;.;.,.,.,.;.;.;.;.#.#.' W L                                       ",
"                                      6 f j 0 * * * * 9 W ;.;.;.;.;.;.;.;.;.;.;.&.h 8                                           ",
"                                        5 8 2 : - - - - i ' ;.;.;.;.;.;.;.;.;.;.;.                                              ",
"                                              & - - - - : 9 g T ] #.#.#.;.;.;.| +.                                              ",
"                                              5 - - - - * * * : 9 i s g F F j h                                                 ",
"                                                , - - - * * * * * * * * * * <                                                   ",
"                                                  5 & : * : * : * * * * : 6                                                     ",
"                                                      % * : * * & * : * 3                                                       ",
"                                                      : * ,       , : &                                                         ",
"                                                      : : 8       % * :                                                         ",
"            4.4.4.4.4.                                : * 5       % : a                                                         ",
"            4.1.1.4.4.1.4.1.4.4.4.4.4.4.4.4.          : *           9 Y                                                         ",
"                    4.4.4.4.4.4.4.4.4.4.4.4.4.4.4.4.1.! ! 1.4.    <.d L                                                         ",
"                      4.4.1.4.4.1.4.4.4.4.4.4.4.4.4.4.4.4.4.4.4.4.4.                                                            ",
"                                          4.4.4.4.4.4.4.4.                                                                      ",
"                                                                                                                                ",
"                                                                                                                                ",
"                                                                                                                                ",
"                                                                                                                                ",
"                                                                                                                                ",
"                                                                                                                                ",
"                                                                                                                                "
};
