/* XPM */
static char *enermy_111671357071[] = {
/* columns rows colors chars-per-pixel */
"64 64 92 1 ",
"  c None",
". c #79735A",
"X c #948C6C",
"o c #99906F",
"O c #9E9574",
"+ c #F6CB4E",
"@ c #F7CC4D",
"# c #F7CC4E",
"$ c #F7CC4F",
"% c #F8CC4B",
"& c #F8CC4C",
"* c #F8CD4F",
"= c #F2CA53",
"- c #F3CA53",
"; c #F5CB51",
": c #F4CB53",
"> c #F6CC50",
", c #F2CA55",
"< c #F3CB55",
"1 c #F4CA56",
"2 c #F9CF55",
"3 c #F1CA58",
"4 c #F3CB58",
"5 c #F1CA5A",
"6 c #F9D057",
"7 c #F6D05D",
"8 c #F9D15C",
"9 c #CADB75",
"0 c #CEDB76",
"q c #D0DA75",
"w c #D2DB7E",
"e c #FAD464",
"r c #FAD76F",
"t c #FAD974",
"y c #F5D67A",
"u c #F7D77E",
"i c #F6D87E",
"p c #F7D97E",
"a c #FBDA79",
"s c #F9DB7F",
"d c #D4E06D",
"f c #D7E26C",
"g c #D6E171",
"h c #D7E171",
"j c #CABD91",
"k c #F2BEAC",
"l c #B9D180",
"z c #DFD09F",
"x c #FBDE84",
"c c #FCE08B",
"v c #FCE290",
"b c #FCE396",
"n c #FAE49E",
"m c #FAE49F",
"M c #FDE69D",
"N c #F0C0A7",
"B c #EADAA6",
"V c #EFC4B4",
"C c #EFC5B6",
"Z c #EFC5B7",
"A c #EEC7BB",
"S c #EDC8BD",
"D c #EEC8BD",
"F c #EEC9BD",
"G c #F2C3B1",
"H c #F1C3B2",
"J c #FDE9A6",
"K c #F3E3AC",
"L c #F9E9AE",
"P c #F2E5B2",
"I c #F7E7B5",
"U c #F7E8B6",
"Y c #FAEAB1",
"T c #FEECB0",
"R c #F9E9B4",
"E c #F9E9B5",
"W c #FAEAB4",
"Q c #FBEBB4",
"! c #FAEAB5",
"~ c #FCEBB4",
"^ c #FDECB4",
"/ c #FFEDB4",
"( c #FFEFB5",
") c #FEEEB6",
"_ c #ECCAC2",
"` c #ECCBC4",
"' c #E9D1D0",
"] c #E5D9E1",
"[ c #E3E0EC",
"{ c #E3E0ED",
"} c #E3E1EE",
"| c #E3E1EF",
/* pixels */
"                                                                ",
"                                                                ",
"                                                                ",
"                                                                ",
"                                                                ",
"                               q0gg0                            ",
"                               wwwdfg                           ",
"                              QY~P 0gg                          ",
"                             n)/)~   09                         ",
"                            3x)/T)Q   l                         ",
"                            <a)))TQ                             ",
"                            1t)T))~                             ",
"                            ;t))T)/                             ",
"                            +tT)/))                             ",
"                            +t/)///                             ",
"                            +a))///                             ",
"                            >x)T//~U                            ",
"                            *c))/))P                            ",
"                            *b))//TQ                            ",
"                           <*M)T//)Q                            ",
"                           ;8J)/////                            ",
"                           >r/////~Y                            ",
"                           +c)////))I                           ",
"                          =e/)//////Q                           ",
"                          >v)////////                           ",
"                         3rT)////////I                          ",
"                         4M)//////////                          ",
"                        1a))/////////)Q                         ",
"                        >b)T))////////Y                         ",
"                       36J)))T////////~Q                        ",
"                       ;6J))))//////)))~                        ",
"                       $*M)TT)///////T)~I                       ",
"                      3%>x))//T)////////Q                       ",
"                      4%*a)T/)))////////~                       ",
"                      1*%eL)//)T/))/)~//Y                       ",
"                      >%%6J)//)()T//TY//)                       ",
"                      >*%%c))/)jj~YLzOY)/                       ",
"                      >**%t))TTO.OoOoXL/)                       ",
"                      ;&%%2M)))KBBBBKY///                       ",
"                      4%%%*a)T))))T)////)Q                      ",
"                     Qx>&&&2M))TT))/))~T))Q                     ",
"                     )M>&&&&eJ)))T//~)))MJ)                     ",
"                    n~M>&&%*&exJ/))))))Yya/I                    ",
"                    s/J4&%%%&%>6etxcbbxx <u                     ",
"                    1p  <+*%&&%%%%%&**;                         ",
"                    k    3+%&&&%%%&&&1                          ",
"                          3%&&*%&&&+3                           ",
"                          <*%1343&&4      H                     ",
"                     H    1*+   3%*                             ",
"                           *=    ;;      H                      ",
"                      N                                         ",
"                       H                N                       ",
"  ||||||||              H             H                         ",
"     |[||||||||||||[|||  _H         HH                          ",
"        |[|||[|||[||||||}}]'`FFAHZFF                            ",
"            |||[|[|[||||}}}}||}}                                ",
"                                                                ",
"                                                                ",
"                                                                ",
"                                                                ",
"                                                                ",
"                                                                ",
"                                                                ",
"                                                                "
};
