/* XPM */
static char *enermy_261671357074[] = {
/* columns rows colors chars-per-pixel */
"64 64 94 2 ",
"   c None",
".  c #78735A",
"X  c #8A8266",
"o  c #9C9372",
"O  c #A49C78",
"+  c #F3BE69",
"@  c #F3BB6C",
"#  c #B4CE7D",
"$  c #BDD578",
"%  c #F6CB4D",
"&  c #F6CB4F",
"*  c #F7CC4C",
"=  c #F7CC4E",
"-  c #F8CC4B",
";  c #F8CE4E",
":  c #F2C952",
">  c #F3CA53",
",  c #F4CB51",
"<  c #F4CB52",
"1  c #F6CC50",
"2  c #F2CA56",
"3  c #F2CB56",
"4  c #F6CD55",
"5  c #F9CF54",
"6  c #F6C75C",
"7  c #F1CA58",
"8  c #F2CB5A",
"9  c #F9D15B",
"0  c #C7D975",
"q  c #CEDB77",
"w  c #CDDC75",
"e  c #CFDC74",
"r  c #F3CE61",
"t  c #F7D163",
"y  c #F8D160",
"u  c #FAD567",
"i  c #F1D06C",
"p  c #F5D16D",
"a  c #FAD76D",
"s  c #F5C774",
"d  c #F3D475",
"f  c #FBD976",
"g  c #FBDC7C",
"h  c #D4E16C",
"j  c #D7E16F",
"k  c #D6E171",
"l  c #D5E174",
"z  c #CBBE92",
"x  c #D3DA87",
"c  c #DBDE87",
"v  c #F8D686",
"b  c #F5D880",
"n  c #FBDD81",
"m  c #F0D789",
"M  c #E1C19E",
"N  c #F4C593",
"B  c #F2CA9B",
"V  c #FCE08B",
"C  c #FCE290",
"Z  c #FCE395",
"A  c #FBE49E",
"S  c #E4C3A0",
"D  c #EECCA6",
"F  c #F5C6A2",
"G  c #EADAA7",
"H  c #EDDDA8",
"J  c #F7D7A8",
"K  c #F6D2AC",
"L  c #F9DAAD",
"P  c #EEE3AF",
"I  c #FDE7A0",
"U  c #FDE8A5",
"Y  c #FEEAAB",
"T  c #F5E4B5",
"R  c #FBE1B0",
"E  c #F9E4B1",
"W  c #F8E4B2",
"Q  c #FCE6B1",
"!  c #F7E8B5",
"~  c #FCEAB2",
"^  c #FCEBB3",
"/  c #FEECB1",
"(  c #F9E9B5",
")  c #FAEAB4",
"_  c #FBEBB4",
"`  c #FAEAB5",
"'  c #F8E9B6",
"]  c #FDECB4",
"[  c #FEECB4",
"{  c #FEEDB4",
"}  c #FEEEB4",
"|  c #FEEEB6",
" . c #FFEFB6",
".. c #E3E1EE",
/* pixels */
"                                                                                                                                ",
"                                                                                                                                ",
"                                                                                                                                ",
"                                                                                                                                ",
"                                                                                                                                ",
"                                                                                                                                ",
"                                                                                                                                ",
"                                                                                                                                ",
"                                                              q e k l                                                           ",
"                                                              c x e h k                                                         ",
"                                                            _ ^ ^ P   e l                                                       ",
"                                                          A { { { {     0                                                       ",
"                                                        8 V { { { { _     $                                                     ",
"                                                        1 n { { { { _     #                                                     ",
"                                                        4 f { { { { ^                                                           ",
"                                                        1 f { { { { {                                                           ",
"                                                        % g { { { { {                                                           ",
"                                                        = g { { { { { T                                                         ",
"                                                        = n { { { { { T                                                         ",
"                                                        - V { { { { { _                                                         ",
"                                                      2 1 Z  .{ { { { _                                                         ",
"                                                      8 5 I { { { { { _                                                         ",
"                                                      1 9 Y { { { { { _                                                         ",
"                                                      1 a { { { { { { _                                                         ",
"                                                      = V  .{ { { { { { T                                                       ",
"                                                    2 u Y { { { { { {  ._                                                       ",
"                                                    1 C { { { { { { { { {                                                       ",
"                                                  8 f / { { { { { { { { { _                                                     ",
"                                                  t U { { { { { { { { { { `                                                     ",
"                                                2 V { { { { { { { { { { { { _                                                   ",
"                                                y Y { { { { { { { { { { { { {                                                   ",
"                                              > a { { { { { { { { { { { { { { _                                                 ",
"                                              = f { { { { { { { { { { { { { { {                                                 ",
"                                            8 - u / { { { { { { { { { { { { { { _                                               ",
"                                            < - 9 U { { { { { { { { { { { { { { {                                               ",
"                                            = - ; Z { { { { { { { { { { { { { { `                                               ",
"                                            = - = n } / { { { { { { { { { { { { {                                               ",
"                                            = - = u / { { { {  .{ { { { { ` { { { T                                             ",
"                                            - - - 5 I { { {  .z z { ` ^ H o G  ./ _                                             ",
"                                          m 5 - - - g  . .{  .o . O o o o X G { ^ ^ W W T                                       ",
"                                        W W v 6 6 6 s J L L L D S M M S D D K K K K K K B                                       ",
"                                      p N F N @ @ @ + s J J L L R R R Q Q Q Q ^ ^ A C n b                                       ",
"                                      > f U V - - - - ; V  .{ { { { { { { { { { ^ d 2 8                                         ",
"                                        8 i r - - - - - 5 C /  . .{ { { { { { { _                                               ",
"                                              1 - - - - - ; u n Z I Y / / { / U                                                 ",
"                                                = - - - - - - - ; 5 9 u a a u p                                                 ",
"                                                8 % - - - - - - ; - - - ; - ,                                                   ",
"                                                    4 - - - - - - - - - % 2                                                     ",
"                                                      ; - = % = = = - =                                                         ",
"                                                      - - 2       , - ,                                                         ",
"                                                    2 - ;         , - %                                                         ",
"                                                    8 - %         , ; 4                                                         ",
"        ..............                                2           2 5 b                                                         ",
"          ....................................                                                                                  ",
"                  ............................................                                                                  ",
"                      ............................................                                                              ",
"                                              ....                                                                              ",
"                                                                                                                                ",
"                                                                                                                                ",
"                                                                                                                                ",
"                                                                                                                                ",
"                                                                                                                                ",
"                                                                                                                                ",
"                                                                                                                                "
};
