/* XPM */
static char *enermy_281671357074[] = {
/* columns rows colors chars-per-pixel */
"64 64 95 2 ",
"   c None",
".  c #7C755C",
"X  c #90896A",
"o  c #A09775",
"O  c #ADA37E",
"+  c #F7CD4C",
"@  c #F7CC4D",
"#  c #F6CC4E",
"$  c #F6CC4F",
"%  c #F8CD4A",
"&  c #F8CD4C",
"*  c #F8CE4F",
"=  c #F3CB53",
"-  c #F5CB50",
";  c #F4CB52",
":  c #F5CC51",
">  c #F4CC53",
",  c #F4CB54",
"<  c #F2CA5A",
"1  c #F6C95B",
"2  c #F2CC5B",
"3  c #F7CF5A",
"4  c #F9D056",
"5  c #F9D35F",
"6  c #D1DF6E",
"7  c #C1D677",
"8  c #CBDB74",
"9  c #C9D878",
"0  c #CDD978",
"q  c #D2DE75",
"w  c #D5DF76",
"e  c #F4C762",
"r  c #FAD566",
"t  c #F8D569",
"y  c #FAD86F",
"u  c #F0C473",
"i  c #F1C276",
"p  c #F4C479",
"a  c #F1C979",
"s  c #F5CF7D",
"d  c #FBDA78",
"f  c #D7E26B",
"g  c #D5E073",
"h  c #D6E076",
"j  c #B3A882",
"k  c #F0BEAE",
"l  c #B5CD80",
"z  c #CFC194",
"x  c #DCDB9F",
"c  c #F2C586",
"v  c #F0C38F",
"b  c #FBDD80",
"n  c #FBDF86",
"m  c #F2C594",
"M  c #FCE18E",
"N  c #FCE495",
"B  c #FAE399",
"V  c #FDE599",
"C  c #FBE59F",
"Z  c #F0C1A4",
"A  c #F0C2A4",
"S  c #E6D6A4",
"D  c #EEDEA9",
"F  c #F1C0B0",
"G  c #F1C3B1",
"H  c #F1C6B3",
"J  c #F1C8B0",
"K  c #FDE6A0",
"L  c #FAE5A4",
"P  c #F4E3AF",
"I  c #F2E6AE",
"U  c #F6E5AF",
"Y  c #FBE3AD",
"T  c #F4E8AA",
"R  c #FDEAA9",
"E  c #FEEBAE",
"W  c #F6E7B5",
"Q  c #F7E7B5",
"!  c #F8E7B3",
"~  c #F7E8B5",
"^  c #F7E8B6",
"/  c #FCEBB3",
"(  c #FEECB1",
")  c #F9E9B4",
"_  c #FAE9B5",
"`  c #FAEAB5",
"'  c #FBEBB5",
"]  c #FCECB5",
"[  c #FDECB5",
"{  c #FFEDB5",
"}  c #FDECB6",
"|  c #FEEDB6",
" . c #FFEEB6",
".. c #FFEFB7",
"X. c #E3E1EE",
/* pixels */
"                                                                                                                                ",
"                                                                                                                                ",
"                                                                                                                                ",
"                                                                                                                                ",
"                                                                                                                                ",
"                                                                                                                                ",
"                                                                  h w                                                           ",
"                                                              g 0 6 f g                                                         ",
"                                                            ~ T I x 9 6 g                                                       ",
"                                                          L | | | |     8 q                                                     ",
"                                                          M | | | | )     7                                                     ",
"                                                        = b | | | | )     l                                                     ",
"                                                        ; d | | | | |                                                           ",
"                                                        @ d | | | | /                                                           ",
"                                                        @ d | | | | |                                                           ",
"                                                        @ d | | | | |                                                           ",
"                                                        @ b | | | | | Q                                                         ",
"                                                        % M | | | | | Q                                                         ",
"                                                        % M | | | | | )                                                         ",
"                                                      < @ V | | | | | )                                                         ",
"                                                      ; 4 K | | | | | )                                                         ",
"                                                      ; 5 E | | | | | |                                                         ",
"                                                      @ d | | | | | | |                                                         ",
"                                                      * V | | | | | | | !                                                       ",
"                                                    , y ( | | | | | | | )                                                       ",
"                                                    3 K | | | | | | | | |                                                       ",
"                                                  ; b | | | | | | | | | | )                                                     ",
"                                                  t E | | | | | | | | | | |                                                     ",
"                                                > M | | | | | | | | | | | | )                                                   ",
"                                                5 R | | | | | | | | | | | | | )                                                 ",
"                                              > r ( | | | | | | | | | | | | | '                                                 ",
"                                              @ r ( | | | | | | | | | | | | | |                                                 ",
"                                              % 4 R | | | | | | | | | | | | | | )                                               ",
"                                            , % * V | | | | | | | | | | | | | | |                                               ",
"                                            ; * % M | | | | | | | | | | | | | | )                                               ",
"                                            @ % % t | | | | | | | | | | | | | | |                                               ",
"                                            * * % 5 R | | | | | |  .|  .| D | | |                                               ",
"                                            @ % % * N | | | | j o D S S z . D | |                                               ",
"                                            % * * % y ( | | | j X o o o O j ! | | )                                             ",
"                                          P b * % % * N | | | / / / / | | | | | | | | )                                         ",
"                                        ! | R 4 % & % r E } | | | | | | | | | | | E | | )                                       ",
"                                        L | E 5 % & & & n | | | | | | | | | | | R t d C J                                       ",
"                                        s Y B 4 % & & % 4 n E } | | | | | | | | )   2 a Z                                       ",
"                                          m   ; & & & % % * 5 d M N R E ( ( E C                                                 ",
"                                            G   @ * * * % % % % * * 4 r r r 5 2                                                 ",
"                                              k   @ % % * * % * * % % % % % ;                                                   ",
"                                                G   ; & % & % % % % @ % @             H                                         ",
"                                                  k v 1 & @ > @ @ @ * @             G                                           ",
"                                                    i p p a       @ % >         G H                                             ",
"                                                    > * e Z G G Z p p c J J J                                                   ",
"                                                      >           e 1 u                                                         ",
"                                                                    =                                                           ",
"      X.X.X.X.X.X.X.                                                                                                            ",
"            X.X.X.X.X.X.X.X.X.X.X.X.X.X.X.X.X.                                                                                  ",
"                  X.X.X.X.X.X.X.X.X.X.X.X.X.X.X.X.X.X.X.X.X.                                                                    ",
"                      X.X.X.X.X.X.X.X.X.X.X.X.X.X.X.X.X.X.X.X.X.                                                                ",
"                                                                                                                                ",
"                                                                                                                                ",
"                                                                                                                                ",
"                                                                                                                                ",
"                                                                                                                                ",
"                                                                                                                                ",
"                                                                                                                                ",
"                                                                                                                                "
};
