/* XPM */
static char *enermy_151671357072[] = {
/* columns rows colors chars-per-pixel */
"64 64 83 1 ",
"  c None",
". c #7B745C",
"X c #968D6D",
"o c #988F6F",
"O c #999171",
"+ c #9E9574",
"@ c #F0B86C",
"# c #EFB773",
"$ c #F5CB4F",
"% c #F6CB4E",
"& c #F7CC4E",
"* c #F6CC4F",
"= c #F8CC4A",
"- c #F8CC4B",
"; c #F8CC4C",
": c #F8CD4E",
"> c #F3CA52",
", c #F3CB52",
"< c #F2CA53",
"1 c #F5CB50",
"2 c #F4CB51",
"3 c #F4CA52",
"4 c #F6CC50",
"5 c #F2CA56",
"6 c #F2CA57",
"7 c #F6CE58",
"8 c #F1CB5D",
"9 c #F5CB5C",
"0 c #F9D056",
"q c #D3DF6F",
"w c #CBDA77",
"e c #CEDA76",
"r c #D0DB73",
"t c #D3DD75",
"y c #F1C561",
"u c #F9D463",
"i c #FAD76C",
"p c #EECE75",
"a c #FAD872",
"s c #F6D87C",
"d c #FBDB79",
"f c #D4E06E",
"g c #D6E16F",
"h c #D8E36C",
"j c #C4B88D",
"k c #F1A691",
"l c #F2A595",
"z c #D7DC87",
"x c #DBCD9C",
"c c #FBDD82",
"v c #F3DA8F",
"b c #F9DD89",
"n c #F9DD9C",
"m c #FCE08A",
"M c #FCE291",
"N c #FCE293",
"B c #FCE393",
"V c #FCE394",
"C c #FCE497",
"Z c #FDE79E",
"A c #EDDCA8",
"S c #FAE7A7",
"D c #FDE9A7",
"F c #F2E2AC",
"G c #FEECAF",
"H c #F0E4B1",
"J c #F7E7B0",
"K c #F6E6B1",
"L c #F7E8B6",
"P c #FCECB3",
"I c #F8E9B5",
"U c #F9EAB5",
"Y c #FAEAB4",
"T c #FBEBB4",
"R c #FAEAB5",
"E c #FBEBB5",
"W c #FCEBB4",
"Q c #FDECB4",
"! c #FCECB5",
"~ c #FFEDB4",
"^ c #FFEEB6",
"/ c #E3E1EE",
"( c #E3E1EF",
/* pixels */
"                                                                ",
"                                                                ",
"                                                                ",
"                                                                ",
"                                                                ",
"                                                                ",
"                                                                ",
"                               teghgt                           ",
"                               zzwfhhq                          ",
"                              T~~H  eqg                         ",
"                             n~~~P                              ",
"                            8c~~~^R                             ",
"                            <d~~~PR                             ",
"                            2a~~~~W                             ",
"                            1a~~~~P                             ",
"                            &a~~~~P                             ",
"                            $d~~~~~                             ",
"                            &d~~~~~                             ",
"                            &c~~~~~L                            ",
"                            :b^~~~^R                            ",
"                            &M^~~~~L                            ",
"                           6:Z~~~~~Y                            ",
"                           30D~~~~~Y                            ",
"                           $i^~~~~~~                            ",
"                           &M^~~~~~~L                           ",
"                          <uG~~~~~~PY                           ",
"                          7M^~~~~~~~^                           ",
"                         8aG~~~~~~~~~R                          ",
"                         7Z^~~~~~~~~~P                          ",
"                        6d~~~~~~~~~~~~R                         ",
"                        &C^~~~~~~~~~~~^                         ",
"                       60D^~~~~~~~~~~~~R                        ",
"                       30D~~~~~~~~~~~~~R                        ",
"                       &:Z~~~~~~~~~~~~~~K                       ",
"                      8--b^~~~~~~~~~~~~~R                       ",
"                      <--d~~~~~~~~~~~~~~R                       ",
"                      3--uG~~~~~~~~~~~~~W                       ",
"                      &&-0D~~~~^^~~~~P~~T                       ",
"                      $--:M^~~^jj~JJxXF^~                       ",
"                      $:--a~~~^+.+oXOoJ^~K                      ",
"                     v$-;;0Z^^~FAAAFF^^~~~L                     ",
"                   K^D0-;;-d~~~^^^^~~~~~~^R                     ",
"                   b~D0-;;;0Z^~~~~~~~~~~DBS                     ",
"                   9ii$:;;;;uD^^~~~~~~~^ny                      ",
"                   #<  3;;;;-ubZG~^^^^^^                        ",
"                   l    ;;;;--:0uacmMBms                        ",
"                    k   6;;-:-;-====&=1                         ",
"                      kkk@;-:-;;=&=&:2                          ",
"                           :--;-:--$                            ",
"                           $:$863-:<                            ",
"                           :-6   -:                             ",
"                           ;:    13                             ",
"    //((//                 :3                                   ",
"      /////(/(////////     p8                                   ",
"         //////////////////(/////                               ",
"           //////////////////////                               ",
"                                                                ",
"                                                                ",
"                                                                ",
"                                                                ",
"                                                                ",
"                                                                ",
"                                                                ",
"                                                                "
};
