/* XPM */
static char *enermy_01671357070[] = {
/* columns rows colors chars-per-pixel */
"64 64 96 2 ",
"   c None",
".  c #726B54",
"X  c #948C6C",
"o  c #9F9674",
"O  c #A89E7A",
"+  c #F7CC4E",
"@  c #F6CC4F",
"#  c #F9CD4A",
"$  c #F9CD4C",
"%  c #F8CD4D",
"&  c #F8CD4E",
"*  c #F9CE4F",
"=  c #F3CB53",
"-  c #F5CC51",
";  c #F6CC51",
":  c #F5CC53",
">  c #F3CB55",
",  c #F2CB56",
"<  c #F3CC56",
"1  c #F6CE55",
"2  c #F5CF5D",
"3  c #F9D053",
"4  c #FAD35F",
"5  c #CFDC72",
"6  c #CEDA74",
"7  c #CDD978",
"8  c #CBD87E",
"9  c #F3C960",
"0  c #F3CE61",
"q  c #F3CE63",
"w  c #F2CE66",
"e  c #F7D164",
"r  c #FAD462",
"t  c #FBD86F",
"y  c #F4D372",
"u  c #F9D771",
"i  c #FBDA75",
"p  c #F5D67B",
"a  c #FBDB79",
"s  c #FCDD7F",
"d  c #D5E16C",
"f  c #D6E16E",
"g  c #D7E171",
"h  c #BCB188",
"j  c #C5B98D",
"k  c #F1BFAE",
"l  c #D8CA9B",
"z  c #F0C783",
"x  c #EAD18F",
"c  c #EED38E",
"v  c #FCDF88",
"b  c #F8DE8C",
"n  c #FADF8C",
"m  c #ECE49D",
"M  c #FCE391",
"N  c #FDE599",
"B  c #FDE69D",
"V  c #E4D5A2",
"C  c #F1C2B1",
"Z  c #F1C6B2",
"A  c #F2C5B4",
"S  c #E8D8B4",
"D  c #F4D7B1",
"F  c #E7E0A2",
"G  c #FBE6A4",
"H  c #F8E5A7",
"J  c #FDE8A3",
"K  c #F9E4AC",
"L  c #FEEBAC",
"P  c #F5E7B5",
"I  c #F6E7B6",
"U  c #F7E8B6",
"Y  c #F9E8B0",
"T  c #FEECB0",
"R  c #F8E9B4",
"E  c #F9EAB5",
"W  c #FBEAB4",
"Q  c #FBEBB4",
"!  c #FAEAB5",
"~  c #FBEAB6",
"^  c #FCEBB4",
"/  c #FCEBB5",
"(  c #FCECB4",
")  c #FEECB4",
"_  c #FEEDB4",
"`  c #FFEDB5",
"'  c #FFEEB5",
"]  c #FFEFB5",
"[  c #FEEEB6",
"{  c #FFEFB6",
"}  c #E4DBCF",
"|  c #E4DCD4",
" . c #E3DEDF",
".. c #E3DFE3",
"X. c #E3E1EE",
"o. c #E3E1EF",
/* pixels */
"                                                                                                                                ",
"                                                                                                                                ",
"                                                                                                                                ",
"                                                                                                                                ",
"                                                                                                                                ",
"                                                                                                                                ",
"                                                                                                                                ",
"                                                                                                                                ",
"                                                                                                                                ",
"                                                                                                                                ",
"                                                                  7 7                                                           ",
"                                                              6 5 d d g                                                         ",
"                                                            U m F 8 6 d g                                                       ",
"                                                          H T ` ` ~     8 5                                                     ",
"                                                      A z M [ ` ` ` U     7 8                                                   ",
"                                                  A A   9 v [ [ T ` (                                                           ",
"                                                Z       - s ( T ` T ^                                                           ",
"                                                        - a ` ` ` ) `                                                           ",
"                                                        & a ` ` ` ` )                                                           ",
"                                            A           + a T ` T ( ` D                                                         ",
"                                                        # v ( ` ` ` ` D                                                         ",
"                                                        # v [ T ` ( ( U                                                         ",
"                                          A             # M [ ] ( ` T E   C                                                     ",
"                                                      , * N [ ( ` ` ( (                                                         ",
"                                                      < 3 J T ` ` ( ` (     C                                                   ",
"                                        C             - r L [ ` T [ ` (                                                         ",
"                                        C             + a [ T ] [ [ ` T                                                         ",
"                                                      3 N ( ` ( ` T ( [ ~     k                                                 ",
"                                                    - i T ` ` ` ` [ ( ` R                                                       ",
"                                                    e J ` ` [ T ` T [ ` T U     C                                               ",
"                                                  - v ` ( ` ( ( ( ] ( T T ~                                                     ",
"                                      C           u T ` T ` ` ` ` T ` ` ` ` I                                                   ",
"                                      C         2 N [ ( ` T ` ` ( [ ` ` ( ` (     k                                             ",
"                                                r L [ ` ( ] ( [ [ T [ T ] T ` U                                                 ",
"                                              + a T ] T [ T [ T ` ] T [ ` ( T (                                                 ",
"                                              & u [ ( ` ` [ ( ` ` ( ` ( T ` ` ` I                                               ",
"                                            < # r L ] T [ ` ` T ( ` ` [ [ [ T [ ~   k                                           ",
"                                            - # 3 B ` ` T [ ( ] [ [ T T ` ( T [ ^                                               ",
"                                            + # # M [ ` ` ( ` ` T [ ( [ ` [ [ ` T                                               ",
"                                            + # # a ] ( T ] ( T T ` ` [ T [ T ` `                                               ",
"                                            & & # r L T ` ` T R R [ [ [ [ V R T [ U   Z                                         ",
"                                            & # $ * M ` ` ` ] O X V l l j . V ] T ` ( (                                         ",
"                                      K ` K 4 # $ # t T T ` [ h o O O O h j Y ` T ( ` ` U                                       ",
"                                      B ` ` i # # & & M ` ` ] [ ] ] ] ] [ [ T [ ` ` L G                                         ",
"                                      e M J t # & # # r L ` ` ` T [ ` ` T [ ` ( ` b y                                           ",
"                                        < 2 1 + # & & # i T ` ` [ T [ T ( ` [ T ~                                               ",
"                                              & & # & # & t N L ` ` [ [ [ T [ ` R                                               ",
"                                              - # & # & # # $ 4 t s M N B J B n                                                 ",
"                                                & & & # $ $ $ # # # & & 3 3 &                                                   ",
"                                                  - & & $ $ $ $ & # & # & +                                                     ",
"                                                    > & # $ $ $ # $ # & =                                                       ",
"                                                      & & & = = = & & &                                                         ",
"              X.o.o.X.                                - & &       = & &                                                         ",
"            X.X.X.X.X.X.X.X.X.X.X.                    + # =       - # +                                                         ",
"                    X.X.X.X.X.X.X.X.X.X.X.X.X.o.o.o...r # 0  .    w & p                                                         ",
"                        X.X.X.X.X.o.X.X.X.X.X.X.X.X.X.x # c X.X.X.S 0                                                           ",
"                                        X.X.X.X.X.X.X.| x | X.                                                                  ",
"                                                                                                                                ",
"                                                                                                                                ",
"                                                                                                                                ",
"                                                                                                                                ",
"                                                                                                                                ",
"                                                                                                                                ",
"                                                                                                                                "
};
