/* XPM */
static char *enermy_231671357073[] = {
/* columns rows colors chars-per-pixel */
"64 64 109 2 ",
"   c None",
".  c #7D765D",
"X  c #938B6B",
"o  c #9A9171",
"O  c #A19876",
"+  c #F9CD47",
"@  c #F7CC4C",
"#  c #F7CC4D",
"$  c #F5CC4F",
"%  c #F6CC4E",
"&  c #F7CC4F",
"*  c #F9CD49",
"=  c #F9CD4A",
"-  c #F8CD4B",
";  c #F9CD4B",
":  c #F8CD4C",
">  c #F9CF4F",
",  c #F4CB51",
"<  c #F5CC53",
"1  c #F3CB54",
"2  c #F3CB55",
"3  c #F5CD56",
"4  c #F8CD50",
"5  c #FAD154",
"6  c #FAD25B",
"7  c #C4D875",
"8  c #C9D77C",
"9  c #D0DE71",
"0  c #D1DC77",
"q  c #D2DA78",
"w  c #D6DE78",
"e  c #D2DB7D",
"r  c #F1CF6C",
"t  c #F8D262",
"y  c #F8D366",
"u  c #FAD76B",
"i  c #FBD86E",
"p  c #F7C674",
"a  c #F5D175",
"s  c #F9D671",
"d  c #FBD973",
"f  c #FAD97A",
"g  c #FBDC7B",
"h  c #FBDD7F",
"j  c #D6E26D",
"k  c #D7E073",
"l  c #C2B68C",
"z  c #F1B7A7",
"x  c #F0BDA7",
"c  c #F2BCAB",
"v  c #C9C98E",
"b  c #F4C68C",
"n  c #F7CC8D",
"m  c #F2D787",
"M  c #FADC80",
"N  c #FCDF85",
"B  c #F4DB8F",
"V  c #F9D89D",
"C  c #FCE28F",
"Z  c #F8E097",
"A  c #FDE497",
"S  c #FDE69C",
"D  c #FDE79E",
"F  c #F1C3A7",
"G  c #F0C0AD",
"H  c #F1C2AF",
"J  c #F0CBAF",
"K  c #E3D4A1",
"L  c #EAD5A7",
"P  c #E4DEA5",
"I  c #E9D9A6",
"U  c #EFD9A9",
"Y  c #F7D6AF",
"T  c #E7D7B8",
"R  c #F7DDB1",
"E  c #FADFB1",
"W  c #FAE5A3",
"Q  c #FDE7A1",
"!  c #FDE9A6",
"~  c #F0E0AB",
"^  c #F4E4AE",
"/  c #F9E1A9",
"(  c #F7E8AF",
")  c #FEEBAB",
"_  c #FAE8AF",
"`  c #F2E2B2",
"'  c #F6E7B5",
"]  c #F8E7B4",
"[  c #F9E8B3",
"{  c #FAE9B3",
"}  c #FAEAB3",
"|  c #FCEAB2",
" . c #FEEDB1",
".. c #F8E8B4",
"X. c #F9E9B4",
"o. c #F9EAB4",
"O. c #FBEAB4",
"+. c #FCEBB4",
"@. c #FDECB4",
"#. c #FDECB5",
"$. c #FEEDB4",
"%. c #FEEEB5",
"&. c #FFEEB5",
"*. c #FFEFB5",
"=. c #FEEEB6",
"-. c #E5DBD0",
";. c #E3DFE6",
":. c #E3E1EE",
">. c #E3E1EF",
/* pixels */
"                                                                                                                                ",
"                                                                                                                                ",
"                                                                                                                                ",
"                                                                                                                                ",
"                                                                                                                                ",
"                                                                                                                                ",
"                                                                                                                                ",
"                                                                                                                                ",
"                                                                                                                                ",
"                                                                                                                                ",
"                                                                q k w                                                           ",
"                                                              e e 9 j k                                                         ",
"                                                            o.( } P 8 9 k                                                       ",
"                                                          W $.$.$.$.    7 0                                                     ",
"                                                        1 C $.$.$.$._     7                                                     ",
"                                                        $ C $.$.$.} E H   v                                                     ",
"                                                        $ g $.$.E Y Y J   x H                                                   ",
"                                                        : g | Y Y } $.        c                                                 ",
"                                                        : f Y E $.$.$.          c                                               ",
"                                                        < n E $.$.$.$.'           z                                             ",
"                                                        p V $.$.$.$.$.]                                                         ",
"                                                        p A =.$.$.$.$.}                                                         ",
"                                                      b : A =.$.$.$.$._             x                                           ",
"                                                      a : Q $.$.$.$.$.o.                                                        ",
"                                                    H $ 6 ) *.$.$.$.$.}                                                         ",
"                                                  H   $ d ) A g d g A |               z                                         ",
"                                                      4 C M N S ! S N A `             z                                         ",
"                                                H   1 6 M S $.$.$.$.$.A Z                                                       ",
"                                                    : d ) $.$.$.$.$.$.$.Q                                                       ",
"                                              H   1 u ) $.$.$.$.$.$.$.$.$._                                                     ",
"                                                  t ! $.$.$.$.$.$.$.$.$.$.|                                                     ",
"                                                3 A $.$.$.$.$.$.$.$.$.$.$.$.o.                                                  ",
"                                            z   t ) $.$.$.$.$.$.$.$.$.$.$.$.$.`                                                 ",
"                                              3 g =.$.$.$.$.$.$.$.$.$.$.$.$.$.|                                                 ",
"                                          z   : M *.$.$.$.$.$.$.$.$.$.$.$.$.$.$.'                                               ",
"                                            , + d $.$.$.$.$.$.$.$.$.$.$.$.$.$.$.o.                                              ",
"                                            $ = 6 ) $.$.$.$.$.$.$.$.$.$.$.$.$.$.+.                                              ",
"                                        z   : = 5 A =.$.$.$.$.$.$.$.$.$.$.$.$.$.$.                                              ",
"                                            = + + C =.$.$.$.$.$.$.$.$.$.$.$.$.$.$.'     z                                       ",
"                                            $ + + u $.$.$.$.$.$.$.$.$.$.$.| $.$.$.]                                             ",
"                                            : = = 5 S $.$.$.*.l l | } ^ I X I *.$.@.' U x                                       ",
"                                      F ' B : = = = g $.$.$.*.O . O o o o X I *.$.$.@.@.]                                       ",
"                                      / $.$.d + = = 5 S =.$.$.( ~ ~ U ^ ( @.$.$.@.*.@.$.o.                                      ",
"                                      N $.$.g + = = = u $.$.$.$.$.*.*.*.$.$.$.$.$.A M a                                         ",
"                                      < i f 6 = = = = = C $.$.$.$.$.$.$.$.$.$.$.@.m                                             ",
"                                            2 = = = = = = g ! $.$.*.*.*.$.$.$.$.o.                                              ",
"                                              $ = = = = = = 5 u M A A ! ) ) ) S                                                 ",
"                                                = = = = = = = = = = > 5 6 6 6 3                                                 ",
"                                                  $ = = = = = = = = = = = = 3                                                   ",
"                                                    < = = = = = = = = = $                                                       ",
"                                                      : = : $ $ $ : = =                                                         ",
"                                                      $ = <       2 = =                                                         ",
"              >.>.>.>.                                : = ,       2 = =                                                         ",
"            >.>.:.>.>.>.>.>.>.>.:.:.>.>.>.            : = 2       2 : M                                                         ",
"                    >.>.:.:.>.>.:.:.:.:.>.>.>.>.>.>.;.r : L >.    U y Z                                                         ",
"                      :.:.:.:.>.:.>.:.:.>.>.>.>.>.>.>.-.T >.>.>.>.;.`                                                           ",
"                                          >.>.>.>.>.>.>.>.>.                                                                    ",
"                                                                                                                                ",
"                                                                                                                                ",
"                                                                                                                                ",
"                                                                                                                                ",
"                                                                                                                                ",
"                                                                                                                                ",
"                                                                                                                                "
};
