/* XPM */
static char *enermy_211671357073[] = {
/* columns rows colors chars-per-pixel */
"64 64 101 2 ",
"   c None",
".  c #716954",
"X  c #92886B",
"o  c #A29777",
"O  c #AA9E7B",
"+  c #BAD17E",
"@  c #F5CB4F",
"#  c #F7CC4E",
"$  c #F6CC4F",
"%  c #FACD4A",
"&  c #F8CC4C",
"*  c #F9CD4C",
"=  c #F8CD4D",
"-  c #F8CD4E",
";  c #F3CB53",
":  c #F5CC50",
">  c #F6CC50",
",  c #F7CD53",
"<  c #F3CB55",
"1  c #F5CC54",
"2  c #F7CE57",
"3  c #FACF50",
"4  c #F1CA58",
"5  c #F4CD59",
"6  c #F6CF5C",
"7  c #F9D157",
"8  c #CCCE7A",
"9  c #CFD876",
"0  c #D3D672",
"q  c #D6DF75",
"w  c #D2DD7A",
"e  c #F3CF65",
"r  c #F2CF68",
"t  c #F6D062",
"y  c #FAD360",
"u  c #F5D26A",
"i  c #FAD669",
"p  c #F3D273",
"a  c #FBD974",
"s  c #FBDB7A",
"d  c #D6E16D",
"f  c #D7E26E",
"g  c #D4E074",
"h  c #BBAE87",
"j  c #C5B78D",
"k  c #D9B68A",
"l  c #E2B08B",
"z  c #EFAA97",
"x  c #F0BEAD",
"c  c #F0BFAE",
"v  c #D4C597",
"b  c #D9CA9B",
"n  c #F3D784",
"m  c #FBDD80",
"M  c #F9DD87",
"N  c #FCDF87",
"B  c #F9DE8D",
"V  c #EDD392",
"C  c #ECD499",
"Z  c #E0DE99",
"A  c #E6E297",
"S  c #FCE290",
"D  c #FCE497",
"F  c #FDE59B",
"G  c #EBC4A7",
"H  c #E2D2A1",
"J  c #E7D4A9",
"K  c #F1C2B1",
"L  c #F1C3B2",
"P  c #F1C4B3",
"I  c #F1C5B4",
"U  c #F9E4A3",
"Y  c #FDE8A4",
"T  c #F7E5AA",
"R  c #FDE9A8",
"E  c #FEEBAD",
"W  c #F7E6B0",
"Q  c #F7E7B5",
"!  c #F8E7B0",
"~  c #F9E8B1",
"^  c #FEECB1",
"/  c #F9E9B4",
"(  c #F8E8B5",
")  c #F9E8B5",
"_  c #F9EAB5",
"`  c #FBEAB4",
"'  c #FBEBB4",
"]  c #FCEBB4",
"[  c #FCECB4",
"{  c #FDECB4",
"}  c #FEECB4",
"|  c #FEEDB4",
" . c #FFEFB5",
".. c #FEEEB6",
"X. c #E6D9C2",
"o. c #E3DDDB",
"O. c #E3DFE5",
"+. c #E3E0E8",
"@. c #E3E0EA",
"#. c #E3E1EE",
"$. c #E3E1EF",
/* pixels */
"                                                                                                                                ",
"                                                                                                                                ",
"                                                                                                                                ",
"                                                                                                                                ",
"                                                                                                                                ",
"                                                                                                                                ",
"                                                                                                                                ",
"                                                                                                                                ",
"                                                                                                                                ",
"                                                                                                                                ",
"                                                          L P G G                                                               ",
"                                                      P       w 9 f f q                                                         ",
"                                                    L         A Z w 9 f w                                                       ",
"                                                          T | | | _   8 0 g                                                     ",
"                                                  I       F | | | | _   l 9                                                     ",
"                                                L       < N ..| | | Q     k +                                                   ",
"                                                        : m | | | | ]     z                                                     ",
"                                                        : s | | | | |                                                           ",
"                                              I         - s | | | | |       c                                                   ",
"                                                        $ s | | | | |                                                           ",
"                                                        3 m | | | | | Q       L                                                 ",
"                                            L           # N | | | | | Q                                                         ",
"                                                        # S | | | | | _                                                         ",
"                                                      t 3 F | | | | ^ _         c                                               ",
"                                          I           ; 7 Y | | | | | _                                                         ",
"                                                      : y E | | | | | ]                                                         ",
"                                                      # s | | | | | | |                                                         ",
"                                                      3 F | | | | | | | ~         c                                             ",
"                                                    1 a ^ | | | | | | | ]                                                       ",
"                                        L           t Y | | | | | | | | | !                                                     ",
"                                                  1 S | | | | | | | | | | _                                                     ",
"                                                  a ^ | | | | | | | | | | | _       c                                           ",
"                                                6 F | | | | | | | | | | | | ]       c                                           ",
"                                              4 i ^ | | | | | | | | | | | | ^ _                                                 ",
"                                              # s ..| | | | | | | | | | | | | |                                                 ",
"                                              & a | | | | | | | | | | | | | | | _                                               ",
"                                      c     $ % i ^ | | | | | | | | | | | | | | Q                                               ",
"                                      c     $ - 7 Y ..| | | | | | | | | | | | | |     c                                         ",
"                                            - - - S ..| | | | | | | | | | | | | |     c                                         ",
"                                            - - % s | | | | | | | | | | | | | | | Q                                             ",
"                                            - - % y E | | | | ~ ! |  . . .H ! | | _   c                                         ",
"                                            - % - 3 D | | |  .O X H b v j . H  .| _ _ _                                         ",
"                                      _ _ U 6 - % % i ^ | |  .j o O O O h j !  .| | ^ | Q                                       ",
"                                      Y |  .a % % % 7 S | | |  . . . . . . .| | | | ^ R !                                       ",
"                                      a Y E a - % - % y R ..| | | | | | | | | | | B p e                                         ",
"                                      4 5 u 2 - - % - % a E | | | | | | | | | | ]                                               ",
"                                              - % - % - - i S Y ^ | ......| | | !                                               ",
"                                              : - % - % - - - 7 i s N S F F F M                                                 ",
"                                                : - - % % - % - % % - % 3 3 -                                                   ",
"                                                  5 - - - % - % - - % - - #                                                     ",
"                                                    < & % - % - % - % - 1                                                       ",
"                                                      ; - - ; ; ; $ - -                                                         ",
"              #.#.#.#.                                - - $       ; - &                                                         ",
"            #.#.#.#.#.#.#.#.+.#.#.                    ; % ;       $ - :                                                         ",
"                    @.#.#.#.#.#.#.#.#.#.#.#.#.$.#.$.@.y % e @.    p 3 B                                                         ",
"                        #.#.#.@.#.$.#.#.#.#.#.#.#.#.#.V - C #.#.#.X.r n                                                         ",
"                                        #.#.@.$.$.$.#.O.J o.#.                                                                  ",
"                                                                                                                                ",
"                                                                                                                                ",
"                                                                                                                                ",
"                                                                                                                                ",
"                                                                                                                                ",
"                                                                                                                                ",
"                                                                                                                                "
};
