/* XPM */
static char *_3c5dbe5ab624af0d636348a0b1d3495dCim5og6Ig005Pqo[] = {
/* columns rows colors chars-per-pixel */
"64 64 157 2 ",
"   c None",
".  c #5C2F32",
"X  c #5E3033",
"o  c #633335",
"O  c #673638",
"+  c #693738",
"@  c #6E393A",
"#  c #733A3A",
"$  c #7D3C3B",
"%  c #7B403F",
"&  c #4E3545",
"*  c #553746",
"=  c #563846",
"-  c #5D3A46",
";  c #5D3F4C",
":  c #62424E",
">  c #69444D",
",  c #754141",
"<  c #7C4342",
"1  c #7E4947",
"2  c #71464D",
"3  c #604450",
"4  c #6A4D57",
"5  c #704F57",
"6  c #755057",
"7  c #7E5C60",
"8  c #803E3D",
"9  c #82403E",
"0  c #854442",
"q  c #894745",
"w  c #804947",
"e  c #8D4946",
"r  c #834C4C",
"t  c #894E4B",
"y  c #904A47",
"u  c #954D49",
"i  c #9B4F4A",
"p  c #87504D",
"a  c #89514E",
"s  c #93514D",
"d  c #9D524C",
"f  c #8C5854",
"g  c #915752",
"h  c #995650",
"j  c #935855",
"k  c #905A59",
"l  c #995F59",
"z  c #A0564F",
"x  c #A05750",
"c  c #A55C54",
"v  c #A55F58",
"b  c #9C635D",
"n  c #A76057",
"m  c #A86057",
"M  c #A66159",
"N  c #AA645B",
"B  c #AC685F",
"V  c #846265",
"C  c #8D6B6B",
"Z  c #9C6863",
"A  c #946F6D",
"S  c #9C7571",
"D  c #997E7C",
"F  c #A46D66",
"G  c #AD6B62",
"H  c #B06E64",
"J  c #AE776E",
"K  c #AC796E",
"L  c #B27166",
"P  c #B3746A",
"I  c #B8776B",
"U  c #B6796E",
"Y  c #BA7B6E",
"T  c #B37C72",
"R  c #B97D72",
"E  c #A5827E",
"W  c #B38176",
"Q  c #BC8276",
"!  c #B78579",
"~  c #BD857B",
"^  c #BF897F",
"/  c #C38576",
"(  c #C28779",
")  c #C28A7E",
"_  c #CA8D7C",
"`  c #CC917E",
"'  c #9E8481",
"]  c #BF8A80",
"[  c #BA958A",
"{  c #B69A91",
"}  c #C18D83",
"|  c #C59185",
" . c #CA9385",
".. c #CD9987",
"X. c #C69789",
"o. c #CA9689",
"O. c #C7988B",
"+. c #CB9B8D",
"@. c #D19682",
"#. c #D69A85",
"$. c #D89C85",
"%. c #D49D8B",
"&. c #CB9F90",
"*. c #DCA48C",
"=. c #CDA394",
"-. c #D3A594",
";. c #DAA692",
":. c #D3A897",
">. c #DDAA95",
",. c #D2AA99",
"<. c #DAAD9A",
"1. c #D4B09E",
"2. c #DBB29E",
"3. c #E0A88F",
"4. c #E2AC93",
"5. c #E3AF98",
"6. c #E5B29B",
"7. c #E0B89E",
"8. c #CDB5A8",
"9. c #D7B4A3",
"0. c #DCB5A1",
"q. c #DDB9A5",
"w. c #D3BEAE",
"e. c #DABBA9",
"r. c #E4B6A1",
"t. c #E4BBA6",
"y. c #E6BDA8",
"u. c #D6C0AE",
"i. c #DCC0AE",
"p. c #DDC5B3",
"a. c #E9C2A7",
"s. c #E3C4AE",
"d. c #E9C4AD",
"f. c #ECC8AE",
"g. c #E3C6B1",
"h. c #E9C5B0",
"j. c #EBCCB4",
"k. c #E5CDB8",
"l. c #E6D1BD",
"z. c #ECD3BC",
"x. c #F1D1B3",
"c. c #F1D7BC",
"v. c #F2D8BC",
"b. c #E4D5C2",
"n. c #EBD6C2",
"m. c #EEDAC4",
"M. c #E7DCC8",
"N. c #F1DCC4",
"B. c #F0DFC9",
"V. c #F4E1C5",
"C. c #F3E4CC",
"Z. c #F7E9CD",
"A. c #F6EBD4",
"S. c #F8EFD7",
"D. c #FAF5DD",
"F. c #FBF7E0",
"G. c #FCF8E0",
/* pixels */
"                                                                                                                                ",
"                                                                                                                                ",
"                                                                                                                                ",
"                                                                                                                                ",
"                                                                                                                                ",
"                                                                                                                                ",
"                                                                                                              U R               ",
"                                                                                                            I -.-.Q             ",
"    m c                                                                                                 B I 5.y.r.}             ",
"  c n c c m                                                                                           B H ;.y.y.t...            ",
"  N _ _ N c n m                                                                                     m G #.6.t.y.r...            ",
"  G %.6.%.Y m c c n                                                                               c m  .5.6.6.t.6...            ",
"  N @.6.6.6.` G c c c                                                                           c c / 3.4.6.r.t.y.+.            ",
"  m _ 6.6.6.6.*.I c c c N                                                                     c c H $.4.4.6.6.t.y.%.            ",
"  m ( 6.6.6.6.6.4.Y c c m c                                                                 m c c / $.$.4.5.6.6.y.+.            ",
"  n Q r.6.6.6.6.6.;.H d c c c m                                                           m n c B @.$.$.*.5.6.r.y.%.            ",
"  c R 6.6.6.6.6.6.6.$.v c c m c c                               N c x c G 9.B.B.1.Q L H n n h n P $.$.$.*.4.5.6.y.-.            ",
"    I 4.6.6.5.4.4.4.4.Y c c c c c m                 c h z c c c n B Q } 1.A.F.F.D.B.c.n.i.,...! L ( $.$.$.*.3.6.6.*.            ",
"    L 4.6.5.5.4.3.3.3.` H c c c c c c m     c x d d d d i z B ^ 0.m.D.D.D.D.D.D.D.D.D.G.D.D.D.S.e.Q Y @.$.$.*.4.r.;.            ",
"    G ;.6.6.4.4.3.3.` $._ N c c c c c z z d d d i i i d H +.k.S.G.D.D.D.D.D.D.F.D.D.D.D.D.D.D.D.D.V.-.I _ $.$.4.6.;.            ",
"    m $.6.6.5.4.3.$.$.$.$.I c c c c z i i i i i d d L =.B.D.G.D.D.D.D.F.D.F.D.D.D.D.D.D.D.D.D.D.A.k.[ k j I @.3.6.*.R           ",
"    m @.6.6.5.4.3.$.$.$.$._ N c c z i i i i i z B | n.D.D.D.D.D.D.D.D.D.D.D.D.D.D.D.D.D.D.D.D.l.X.+.Z - * 2 P $.4.*.Q           ",
"    B @.6.5.4.3.$.$.$.$.$.$.Y c c i i i i i c } g.A.G.G.D.D.G.D.F.D.D.F.D.F.D.D.D.D.G.D.D.D.S.e.S 7 3 * & & r R *.*./           ",
"    N ` 6.5.3.$.$.$.$.$.$.$._ N z i i i i G :.C.D.C.p.i.u.p.m.S.D.D.D.D.D.G.D.D.G.G.D.D.S.D.D.D.A.b.8.{ D V 4 G _  .Q           ",
"    G ( 6.5.3.$.$.$.$.$.$.$.` B i i i i N 9.Z.A.,.| X.b : : C i.A.D.D.D.D.A.c.0.q.1.1.-.t.C.S.D.D.D.G.D.D.C.M.k.~ U Q           ",
"      R 5.6.*.$.$.$.$.$.$.$.@.N i i i c +.V.l.E 3 6 V : * 4 ' b.D.D.D.C.z.d.7. .Q N n P <.f.z.v.Z.D.D.D.F.D.D.S.q.Y Y           ",
"      L >.5.*.$.$.$.$.$.$.$._ c z z d L s.c.S = & ; 4 C { l.D.D.S.m.j.h.7.-.#.Q B h u h G W ` <.a.c.Z.S.D.D.D.S.v.+.I           ",
"      H *.6.$.$.$.$.$.$.$.$.I c c c c ) h.g.A S { u.z.A.D.D.D.V.k.y.<.Q l t % # o o o o o o % 1 b ~ 2.N.C.S.D.A.v.2.R           ",
"      H $.5.*.$.$.$.$.$.$.` B c c c G :.N.C.A.S.D.G.D.D.D.A.B.d.:.U t @ o X . . . . . . . . . . X o 1 K 2.x.c.m.h.y...L         ",
"      H @.6.*.$.$.$.$.$.$./ m c c c Q d.A.D.D.D.D.D.D.S.V.j.2.W t o . . . . . . . . . . . . . . X X . o p | t.y.y.a.2.P         ",
"        / 6.3.$.$.$.$.$.@.L c c c H :.C.D.D.D.D.D.Z.z.h.a.X.f o . . . . . . . . . . . . . . . . . . . . o , ! t.y.y.y.} P       ",
"        L ;.3.$.$.$.$.$._ c z z m ( j.A.D.D.S.B.j.s.y.0.W % . . . . . . . . . . . . . . . . . . . . . . . . 1 | 0.<.r.,.L       ",
"        v _ 4.$.$.$.$.$.Y d i x B -.n.A.A.B.h.y.0.9.-.F + . . . . . . . . . . . . . . . . . . . . . . . . . o F =.:.,.0.Q I     ",
"        c N $.$.$.$.$.@.G i i x P r.N.B.j.q.9.,.,.=.F + . . . . . . . . . . . . . . . . . . . . . . . . . . . 1 X.:.,.<.} L     ",
"          z I @.$.$.$./ c i i h } r.y.y.2.,.,.,.-.J @ . . . . . . . . . . . . . . . . . . . . . . . . . . . . O J ,.,.,.o.J     ",
"          d x R $.$.@.P d i i c o.t.2.,.,.,.,.,.^ < . . . . . . . . . . . . . . . . . . . . . . . . . . . . . . g +.,.=.=.I     ",
"          d i v _ @._ v i i i N =.9.,.,.,.,.,.O.k o . . . . . . . . . . . . . . . . . . . . . . . . . . . . . . 1 ] ,.,.:.R L   ",
"          c i i I | R x i i i G -.,.,.-.,.,.,.T # . . . . . . . . . . . . . . . . . . . . . . . . . . . . . . . @ T =.:.=.Q U   ",
"            i i v ( H d i i i P =.,.=.=.=.,.&.l o . . . . . . . . . . . . . . . . . . . . . . . . . . . X X X . O F =.,.,.~ G   ",
"            i i i G c i i i i I ,.,.&.&.&.=.o.r o . . o o X o o X . X o . X o X o . o X . o . o o O O O O O o . O b =.=.:.^ G   ",
"            d i i i i i i i d P &.=.&.&.&.&.} < o . o + + + o + O o O O o o O o O O o o o + o o O O o + + o o . o l +.=.=.^ G   ",
"            z i i i i d i i i H &.&.+.+.&.&.R < + o + + + o + + + + O @ + + O o O + + + + o + + O + + + O @ + . O b +.=.=.Q G   ",
"              i i i i i i i d G O.o.o.o.o.&.] q $ @ # - + + + @ @ @ + @ + @ + + + + @ + @ @ + @ + + o + + # @ X @ G +.=.=.R P   ",
"              z i i i i i i d N | | } | } o.} y $ $ # @ @ + @ @ @ @ @ # @ @ @ @ + + @ @ @ @ O + + + + # # $ # # q R ..+.=.I H   ",
"              x i i i i i i d v } | } } | |  .v 0 9 $ # @ @ # # @ @ # # # # @ @ + @ @ # @ @ + @ @ @ @ # $ $ 8 q v )  .+.+.P G   ",
"                i i i i i i d v ] | | } } | | P q q $ $ $ # # # # # $ $ $ # @ @ # # @ @ # @ @ @ # # $ 8 9 0 0 i H } } &.X.G     ",
"                h i i i i i i c R | } } } | | ~ u q 0 9 $ $ $ $ $ $ $ $ $ $ # $ $ $ # # $ $ @ @ # $ $ $ 0 e u M R } } &.) G     ",
"                  u i i i i i c ] } } ] ] } | | G i y q 0 q 0 0 0 8 $ 8 $ $ $ 8 $ $ 8 8 8 $ $ $ $ $ 8 q e u h L ~ } | +.I H     ",
"                  d i i i d i v ~ ] ] ^ ^ } } | ~ x i y q q q q q q q 9 9 9 8 9 0 0 0 0 8 8 8 8 8 0 0 q y i G R ] } O.| G       ",
"                    i i i i d N ^ ] ] } ^ ^ ^ } | P i u u u q q q q q q q q q q q q q q q 0 0 0 0 q q u i v R } ] } &.R H       ",
"                    d d i i i B ~ ^ ^ ^ ^ ^ ^ ^ | } G i i i i y q q q q q q q q q q q q q q q q q e u i d U } ] ] | | L         ",
"                      d i i i G ^ ^ ^ ^ ^ ^ ^ ^ ^ } ~ G i i i i y y y q q q q q q q q q q q q e u i i c P } } ] ] +.R H         ",
"                      x i i d H ~ ^ ^ ^ ^ ^ ^ } } } | } P x i i i i i u i y e q e q e y y u i i i i G U } | } ] X.| L           ",
"                      v z d c R ~ ^ ^ ^ ^ ^ ^ ^ } } } o.| ~ B i i i i i i i i u i i i i i i i i d G ] } } } } ] O.~ G           ",
"                      G L G P ~ ~ ^ ^ ^ ^ ^ ^ ^ ^ ^ } } | | } R v d i i i i i i i i i i i i z N I } } } } } ] ] &.Q H           ",
"                    G L R R ~ ~ ^ ^ ^ ^ ^ ^ ^ ^ ^ ^ ] } | |  . .} R B c z d i i i i i i c G R ^ | | | } | ] ] ] &.} P           ",
"                    N U ~ ~ ~ ] ^ ^ ^ ^ ^ ^ ^ ^ ^ ^ ^ } } | | | | | o.} ~ Y P G B G P R ( | |  . .| } } ] ] ^ ^ &.| H           ",
"                  G G ~ ] ] ~ ] ^ ^ ^ ^ ^ ^ ^ ^ ^ ^ ^ } } } } } } | } o.|  . .|  .| | | | | |  .|  .} } ] ) ^ ] O.| H           ",
"                  N I ~ ] ] ] ] ^ ^ ^ ^ ^ ^ ^ ^ ^ ^ ^ ^ } } } | } } | } | |  .| | | | | |  . .| } } } ~ ] ] ^ ^ O.o.H           ",
"                  N Q ] ~ ] ] ~ ^ ^ ^ ^ ^ ^ ^ ^ ^ ^ ^ ^ ^ ^ ^ } } } | | | | | | | | | | | | | ^ ] ) ] ] ] ~ ^ ^ O.o.H           ",
"                N L ~ } } ] ] ] ^ ^ ^ ^ ^ ^ ^ ^ ^ ^ ^ ^ ~ ~ ~ ~ ^ ^ ^ ^ } }  . .| | | } } } ] ] ~ ~ ~ ~ ~ ^ ^ ^ X.+.H           ",
"                N ~ ] ~ ~ ] } ~ ^ ^ ^ ^ ^ ^ ^ ^ ^ ^ ^ ^ ^ ~ ~ ~ ~ ~ ~ ~ ^ ^ ^ ^ ^ } } ~ R } R ~ ~ ~ ~ ~ ~ ^ ^ ^ | +.H           ",
"              N P ] ] ] } ~ ~ } } ^ ^ ^ ^ } } ^ ^ ^ ^ ^ ^ ^ ~ ~ ~ ~ ~ ~ ~ ~ ~ ~ R ~ ~ ~ ] ~ R ] ~ ~ ~ ~ ~ ] ] ] | &.P           ",
"              N ~ ] ] ] ~ } ~ ] ^ ^ ^ ^ ^ ^ } ^ ^ ^ ^ ^ ^ ~ ~ ~ ~ ~ ~ ~ ~ ~ ~ ~ ~ ~ ~ ~ ~ ~ ~ ~ ~ ~ ~ ~ ~ ^ ^ ] } +.U           "
};
