/* XPM */
static char *a879d6cf24aa4bace0705774a620e0afgGqgIJrtaVQ3mSee[] = {
/* columns rows colors chars-per-pixel */
"64 64 205 2 ",
"   c #4A9E3E",
".  c #4CA13D",
"X  c #62B33F",
"o  c #4D9E41",
"O  c #4FA542",
"+  c #4EAC46",
"@  c #4FAB48",
"#  c #52A545",
"$  c #53A944",
"%  c #5DAC43",
"&  c #55A64A",
"*  c #55AB4B",
"=  c #5AAC4D",
"-  c #4DB147",
";  c #4EB44C",
":  c #5DB343",
">  c #54B34C",
",  c #5CB44C",
"<  c #5DBA4C",
"1  c #53BA4D",
"2  c #5BAC50",
"3  c #55B452",
"4  c #5CB352",
"5  c #55BB52",
"6  c #5CBA53",
"7  c #5EBF5C",
"8  c #62B343",
"9  c #66BC45",
"0  c #6CBB45",
"q  c #62B54D",
"w  c #69B74E",
"e  c #64BB4D",
"r  c #6BBC4C",
"t  c #71BD4E",
"y  c #62B452",
"u  c #69B656",
"i  c #64BC54",
"p  c #6BBE53",
"a  c #65BD59",
"s  c #6BBC5B",
"d  c #70BF55",
"f  c #70BE59",
"g  c #5FC04D",
"h  c #57C257",
"j  c #5BC257",
"k  c #5EC659",
"l  c #5FC95D",
"z  c #65C24F",
"x  c #6BC24C",
"c  c #71C146",
"v  c #73C34D",
"b  c #7DC74E",
"n  c #73C94C",
"m  c #7CCC4E",
"M  c #64C255",
"N  c #6CC255",
"B  c #67C957",
"V  c #6BCA56",
"C  c #64C35B",
"Z  c #6CC35A",
"A  c #65CB5B",
"S  c #6CCB5C",
"D  c #74C455",
"F  c #7BC653",
"G  c #75CB55",
"H  c #7BCB55",
"J  c #73C55A",
"K  c #78C75A",
"L  c #74CA5C",
"P  c #7BCC5C",
"I  c #6CD15D",
"U  c #6FD95F",
"Y  c #75D557",
"T  c #7BD053",
"R  c #74D25C",
"E  c #7DD25C",
"W  c #71D95C",
"Q  c #7CDB5D",
"!  c #66C361",
"~  c #6DC561",
"^  c #67CE61",
"/  c #6DCD62",
"(  c #75C563",
")  c #79C761",
"_  c #74CC62",
"`  c #7BCD62",
"'  c #73CA69",
"]  c #7BCE6B",
"[  c #6CD363",
"{  c #6FD963",
"}  c #73D363",
"|  c #7CD363",
" . c #73DB64",
".. c #7DD965",
"X. c #75D569",
"o. c #7AD469",
"O. c #73DC68",
"+. c #7CDB6B",
"@. c #7DDF70",
"#. c #76E364",
"$. c #7DE666",
"%. c #7FE56D",
"&. c #7EEB6E",
"*. c #83CB55",
"=. c #81CE5B",
"-. c #84D455",
";. c #84D957",
":. c #83D35C",
">. c #8AD55C",
",. c #84DA5D",
"<. c #8BDB5D",
"1. c #90DB5E",
"2. c #8CE15E",
"3. c #93E35F",
"4. c #97EB5F",
"5. c #82CE64",
"6. c #83D463",
"7. c #89D662",
"8. c #85DA63",
"9. c #8BDC63",
"0. c #84D66A",
"q. c #84DB6A",
"w. c #8BDD6A",
"e. c #92DE64",
"r. c #98DF66",
"t. c #91DF69",
"y. c #8EDE70",
"u. c #85E164",
"i. c #8DE264",
"p. c #84E26C",
"a. c #8CE36B",
"s. c #86E96B",
"d. c #8EE96D",
"f. c #96E566",
"g. c #97E666",
"h. c #96E565",
"j. c #93E364",
"k. c #98E767",
"l. c #99E565",
"z. c #96E862",
"x. c #96E966",
"c. c #9BEB64",
"v. c #99E966",
"b. c #9BEB67",
"n. c #98E865",
"m. c #9AEE65",
"M. c #9CEC65",
"N. c #9CEC67",
"B. c #9DED66",
"V. c #9EEE67",
"C. c #9AEB65",
"Z. c #92E169",
"A. c #95E369",
"S. c #94E26A",
"D. c #92E46A",
"F. c #95E568",
"G. c #96E568",
"H. c #94E66A",
"J. c #94E46A",
"K. c #98E768",
"L. c #99E66A",
"P. c #9AE66A",
"I. c #93E86F",
"U. c #95E96B",
"Y. c #99E869",
"T. c #9AE969",
"R. c #9BEB68",
"E. c #9CEB6B",
"W. c #9CEC69",
"Q. c #9DED6A",
"!. c #9DEA6E",
"~. c #99EE6D",
"^. c #9DEC6D",
"/. c #9BEB6B",
"(. c #9EF267",
"). c #9EF16C",
"_. c #82E370",
"`. c #8CE372",
"'. c #85ED72",
"]. c #8DEC73",
"[. c #95E673",
"{. c #9AE771",
"}. c #92EB72",
"|. c #9FEB71",
" X c #9CED72",
".X c #9CEC71",
"XX c #96E578",
"oX c #94E878",
"OX c #9DF171",
"+X c #A2EB65",
"@X c #A2ED6C",
"#X c #A0F069",
"$X c #A3F16C",
"%X c #A9F56E",
"&X c #A7F86F",
"*X c #A3EE71",
"=X c #A0F073",
"-X c #A4F373",
";X c #A8F172",
":X c #AAFA72",
">X c #A5F578",
",X c #ADF77A",
"<X c #A7F878",
"1X c #ABFB7B",
"2X c #B3FF84",
/* pixels */
"c.N.N.#X#XN.N.M.z.l.f.j.w.t.e.9.3.4.b.z.z.OXU.d.a.I.].a.u.u.u.u. .} } } } S 6 < N N S L G G P :.E :.| ,.9.9.w.w.9.<.9.6.<.t.P.!.",
"N.N.N.N.(.N.N.N.c.k.f.G.j.t.t.t.z.z.(.z.~.~.F.8.8.i.a.w.w.p.8...+. .[ } / S Z C Z J L L L G P E :.:.6.8.6.9.9.9.9.<.>.<.>.9.A.A.",
"T.c.N.N.N.N.R.R.c.T.G.G.A.S.j.S.c.z.T.OXOXJ.8.E | q.q.`.q.q.q... .R S I S S S L ) | ..6.:.E >.,.,.8.,.8.>.8.9.8.6.6.>.:.7.9.e.e.",
"k.c.R.Q.Q.N.b.c.T.c.T.f.P.A.A.j.k.f.T. X.X8.E P ` 0.q.q.+.q.o.o.R L I L L S _ ....8.q.w.a.j.a.F.w.9.9.,.9.8.9.9.>.>.:.:.>.7.9.9.",
"j.j.T.^.^.Q.c.f.c.z.k.f.f.G.G.G.k.P.@X*XJ.:.P P L ` _ _ o.o.o._ R R R L V V L 8.9.w.a.D.D.f.F.z.2.i.i.,.9.9.9.>.8.>.:.=.6.7.9.t.",
"e.j.P.E.^.E.c.f.k.l.j.j.f.f.G.f.l.l.P.|.t.=.D D J J _ _ _ ] _ L N N z z 8 : x E a.a.Z.f.f.j.j.3.F.i.i.u.9.,.,.<.9.6.:.=.=.6.w.t.",
"t.j.S.P.P.T.T.T.k.l.z.z.f.f.k.l.r.l.P.P.A.e.P F D L L _ _ _ Z M 8 9 x x 9 9 n :.{.~.~.E.b.z.l.3.j.z.i.i.2.9.<.8.>.:.7.:.P =.6.w.",
"t.Z.t.S.f.G.T.Q.c.z.l.z.k.k.P.P.P.+X@X*X;X>XS.-.D P P L J Z i $ X x E 8.8.>.9.T.|.|.@X$X$X$X#X+Xz.j.i.2.<.<.8.<.>.8.9.6.P P 5.0.",
"9.w.I.|.|.~.R.R.c.f.j.2.f.U.R.R.+X+X+X+X$X$Xz.>.H J.}.R N L N : X G D.OX.XU.^.>X-X-X$X&X$X%X+X#X(.U.j.2.i.,.,.:.8.E 6.8.w.| P ) ",
"H >.D.|.=XOXU.F.j.j.c.R.c.f.j.3.4.+X%X%X:X%X3.>.i.>X XT x 8.w.P T E w.I.OXOX-X).$X$X$X#X%X@X$X+X).z.j.3.i.<.8.-.E E :.E 8.q.6.J ",
"H :.w.!.>X>X^.R.j.U.T.x.j.j.U.Q.+X%X%X#X$X$XM.4.-X2X>Xm n i.I.,.Z.i.j.k.-X<X<X$X$X$X$X$X$X&X#X@XR.U.i.2.i.i.8.8.:.E P G ` w.y.6.",
">.<.9.Z.~.|.-XOX$X).R.U.x.T.-X<X:X:X%X%X$X%X%X&X:X1Xb.m c <.I.Z.G.R.).;X-X-X$X$X+X$X$X$X%X$X$X@XT.x.j.F.i.i.i.i.w.E G E | 6.q.`.",
"a.w.9.<.i.G.U.x.).R.~.R.OX~.U.j.z.$X:X:X:X:X&X&X:X#X3.m m >.|.,X~.-X<X-X).(.(.$X#X#X#X$X$X;X;X^.U.I.f.f.U.D.a.a.8.:.,.8.8.E | 8.",
"Z.Z.F.F.x.D.j.j.2.<.;.;.<.9.i.<.<.3.R.R.b.(.$X$X#Xb.c.T.P.A.|.>X>X$XQ.b.Q.(.$X#X#X#XQ.#X@X@X@X!.~.G.F.F.i.a.D.U.i.a.a.L N Y ..8.",
"w.F.U.I.R.U.x.F.<.;.-.H T -.<.i.9.j.z.F.j.z.(.$X@X$X;X1X,X*XP.P.-X).T.x.b.(.(.(.N.M.z.z.T.T.~.~.U.G.i.i.i.i.a.[.I.I.u.G x G | q.",
"<.w.D.G.D.D.U.T.T.~.~.f.9.<.,.9.~.OX>X<X:X-X@XE.&X-X;X@X*X*X*X*Xx.R.).).(.b.b.(.M.M.z.l.j.x.G.G.J.D.F.w.9.9.a.J.d.u.8.u.,.P Y E ",
"w.i.9.G.L.{..X~.|.G.f.U.T.U.i.<.m ;.j.~.-X1X1X1X>X-X&X-X$X|.$XOXm.~.~.).).$XQ.c.z.z.z.c.x.x.F.F.G.Z.w.w.8.8.8.| a.a.u.8.| E E E ",
"8.8.w.w.Z.J.{.L.~.T.P.T.).R.z.j.OX).G.<.>.<.i.<.f.T.c.x.z.j.z.m.2.i.U.OX-X).N.m.m.z.j.j.i.x.x.U.Z.a.9.<.8.:.| 8.R | 8.8.8.8.8.,.",
"9.w.9.9.9.e.S.L.P.P.!.^.~.T.U.x.T.^.=X>X>X>X-X).R.~.T.z.2.<.<.2.Q 2.i.z.(.).@X#Xz.l.f.z.x.U.U.D.a.i.8.6.| ....q.q.q.8.| E E :.<.",
"-.-.<.,.>.<.t.A.P.P.E.!.T.U.f.j.9.j.<.:.;.<.F.f.f.f.j.z.z.j.3.3.i.z.x.x.F.x.R.N.4.3.x.c.U.i.i.i.8.8.:.E E ..8.q.oX].q.E P H H E ",
"m -.>.>.-.>.>.1.+Xr.A.S.T.U.f.e.^.f.e.<.<.>.<.<.-.m m ;.j.Q.^.E.U.U.(.U.E.l.l.k.l.l.l.1.9.<.>.-.E E E R | | ..q.8.q.a.w.8.:.P H ",
"m -.>.1.1.<.1.1.r.r.r.r.A.G.G.j.:.:.<.j.j.<.;.:.;.-.m -.<.j.j.<.;.2.F.Q.@X@X@X+X@Xl.z.1.<.<.9.8.,...Q ..| | ....| ..0.q.7.6.:.:.",
"-.-.1.1.e.r.r.r.e.e.e.e.e.t.t.j.~.j.t.9.9.<.<.j.f.i.<.<.<.<.:.;.-.>.<.z.@X;X*X+XE.P.l.r.t.w.t.a.u.q...E R | | o.o.| | P =.=.6.7.",
">.-.*.>.1.1.e.r.e.e.e.1.>.-.7.r.<.9.t.~.~.e.:.;.<.<.j.1.9.i.j.G.c.3.1.<.l.l.r.e.1.e.r.S.S.t.w.0.p.q.E S V V L L L L ] 5.6.6.5.6.",
"<.j.j.r.r.r.r.r.r.5.*.*.*.>.e.t.9.j.e.9.S.~.Z.>.>.9.j.<.9.j.S.t.~.P.l.l.P.l.r.r.>.b *.S.{.6.6.w.q.....| R Z M e , N L 6.0.6.0.7.",
"e.S.S.e.e.5.*.*.*.F b *.<.9.7.7.9.9.j.j.j.j.w.<.:.<.<.9.9.t.Z.j.l.l.P.l.l.l.@X@Xr.=.F :.w.w.0.0.o.| | o.} S M i , i Z ` 0.y.y.y.",
"Z.J.{.L.r.r.r.e.7.*.F *.=.6.7.9.>.9.Z.Z.w.9.<.w.>.-.:.>.9.t.t.Z.e.l.k.l.1.r.P.*Xr.7.P F 5.0.0.L R } } o.} _ C i M i p J 5.w.0.0.",
"=.5.6.7.7.7.5.7.7.*.F F H =.7.9.9.9.j.G.i.>.9.j.8.H H :.<.9.w.t.t.l.P.l.1.>.>.7.>.9.9.5.K ) ) Z J L L _ _ Z C a ( Z i Z ( ` ` 5.",
"P K K F D f t F *.F *.*.5.5.:.T w.<.9.G.Z.9.>.w.w.:.H H :.7.9.w.1.j.j.k.+X1.*.*.:.*.=.P ) J J Z N N Z N Z Z S Z C i i i p J L ) ",
"5.` K 5.5.5.5.5.) 5.>.5.=.7.:.H 9.,.<.w.Z.9.6.>.9.>.P F H :.9.9.<.<.<.c.@X@Xe.>.*.d r r Z Z Z Z J N N M a Z Z C i a i i p Z L L ",
"( J J ) 5.5.=.=.5.5.5.=.=.5.:.H :.>.9.9.w.9.>.H >.9.:.F F :.7.:.:.-.-.2.T.|.A.r.9.P d r p C a u Z N a Z s Z C Z ~ S S ~ S Z Z L ",
"J p f J f w 8 % t *.5.5.6.6.=.F H <.9.<.<.<.:.H P 6.:.v v P 6.P :.-.*.:.j.P.S.S.S.S.9.| J Z Z J f Z p N Z Z Z a ~ Z ~ _ ` ` o._ ",
"P K D D r 9 8 X r D D P E 5.=.P H *.:.7.7.>.:.=.D =.:.G G P P P =.:.>.>.9.P.P.j.j.w.e.i.w.9.P D D D p p p p N J L J D N J L ) | ",
"H P H P F K J P D D F P P *.P P H H =.=.:.:.=.P r D L H D J P ` =.:.:.6.9.t.A.j.e.<.<.Z.S.q.6.5.J J J J D J J D p p e e r p N D ",
"P P P :.5.5.P :.P P P K P K P P H H F F H F F K 9 8 p D r M L P H P :.7.9.9.e.t.t.<.<.9.S.e.q.w.0.6.6.6.6.| ` P P P ) ` | ` 6.` ",
"=.:.:.P :.P P P 6.=.P P K D K F F D D D D N D K p % q J q r J J J F =.9.9.7.9.Z.i.9.:.:.7.w.t.7.w.8.0.8.w.a.0.0.6.7.6.6.0.8.7.6.",
"P :.P :.:.=.P 6.=.P P P K K D f K J J f f r d f ` % q u = q s y p M J 8.7.6.6.Z.w.9.:.F H w.t.7.7.6.6.6.7.w.w.7.6.6.6.6.6.>.6.P ",
"=.P P =.P :.=.P P P P P K D K K P J K D p w y p ] 2 = y 2 2 y 2 q q N J } | | 8.6.9.P v F 7.t.7.q.7.6.:.7.9.8.8.6.>.6.,.6.6.6.:.",
"5.:.6.:.=.P P P F P K P K ) K ) J J f f p = = y u y & = 2 2 2 2 % , e N J | | P 6.6.7.=.F D =.7.7.>.8.,.7.,.9.>.6.:.:.H P -.P T ",
"P ` 6.6.6.7.6.7.` P P K K ) ` ` ( s s ( y = & y & = & & 2 2 2 4 : q e i S } | L ....0.q.H 8 t 7.=.:.>.8.6.6.:.:.8.>.:.P -.T =.:.",
"P ` P 6.7.6.P F 6.P P K ) ) ) f ] ~ s 2 # .   o * * & & 2 2 & * < , , e M V L o.V | q.w.6.D r X H v H -.:.E -.:.9.-.v n c n H -.",
"P P P :.7.6.P D =.P P J K J ( ( a y a 4 2 * * * = , 2 # o o 2 i , e < < < V S B L R } | 0.8.P t c m H H -.>.9.9.:.H H :.H b 0 0 ",
"d r t F P >.8.9.P =.P K f f K ( s ~ ( a y * O . . # = = # # , q e V z < < B A z I S N V P 6.6.P b :.:.T H 9.t.<.G.J.S.J.D.w.<.>.",
"w.6.P D D H H E P P F d y 2 u f 4 y a a i 4 i , . $ , p ( L N e | ..R z z V A B B S S N M N L | P ,.w.>.>.9.t.t.J.J.J.Z.Z.Z.Z.Z.",
"XXy.7.P H H P :.P P D w % % = u # * 6 , 4 Z L _ Z Z L o.q.y.q.8.a.s.s...S B A I A S [ S M z L 8.>.:.>.9.e.w.t.{.9.9.t.9.9.9.9.6.",
"` 5.6.6.6.8.6.>.6.E K f u y y 2 > 6 6 6 e C _ } q.q.`.`.`.a.d.}.a.a.].].p.U A S [ A S [ _ E | | 6.:.:.9.9.7.9.t.S.S.t.6.>.>.>.9.",
"P 5.6.:.:.P G n :.5.5.5.5.( s 2 # < a i M _ q.q.q.p.`.].d.a.a.d.i.d.].}.d.%. .I [ A A S } _ S N 6.>.7.7.t.t.7.6.7.7.6.*.H =.:.=.",
"D D J F H H P :.K ( ) 5.0.5.s = > M J S S } q.+.a.u.8.i.}..X.XI.U.OX}.s.s.'.&.[ [ A A A M < , : P 6.6.6.w.{.{.6.r F 6.7.7.7.P H ",
"6.P J K J D D D J P ` ` ) J p , S V V R R Y Y T u.u.i.x.I.~.~.~.~.[.I.d.].'.'.&.{ O.I k M S C * N E 0.8.8.y.[.[...e X P w.6.) 6.",
"P J D F L P L P ) J N p p N J Z ..W Y R E Q s.d.U.U.U.U.U.U.G.S.|.J.J.U.d.s.$.#.#.#.{ [ / [ ~ i r L 6.| | 6.y.`.oXJ 8 e E ..o.L ",
"D N D J P J L P J J L L L Z N M z V Y s.d.d.d.U.OX).OX~.R.T.P.k.L.{.U.a.i.s.Q W U U  .[ X.[ / S i J ` Z p J o.q.[.q.J e r D P J ",
"D D D L L P L J J N M r Z ) 0.`.| E | u.s.i.d.z.OXU.U.U.U.f.P.P.A.S.j.i.s.2.Q Y W A A / / k j a < i M q : i J L ) 8.0.J p D L J ",
"J L L P P | L L J Z p e e M L ..}.d.d.d.u.2.2.<.2.2.j.3.j.j.l.j.j.3.j.z.i.i.2.Q Y V V I A 5 5 j > , * # # , i i Z J L ` | P P D ",
"D J P L L P P L J L L S Z i i e G Y ,.a.d.2.;.-.z.z.f.k.l.l.k.k.l.4.z.k.x.F.u.u.Q Y I I ^ l k A 3 > @ @ * > , q Z N D ] ` P P 5.",
"D L L L L P L J N N N N N S | 0.n n n m ;.<.j.(.m.).).$X@X@X@XQ.(.(.z.z.x.x.j.u.8.Q R } [ [ A l 5 3 6 6 6 6 a a a N J P D D K 7.",
"P 6.P P ` | E L N L L | P L J L a.i.U.U.R.m.x.c.(.).$X$X%X;X;X;X#X#XM.M.c.z.i.<.w.....} { { l h 7 7 ! ! ! S ~ _ J Z p p D F P D ",
"D P P P D G E 6.E D r M L | 6.| a.i.j.f.U.R.#X&X$X$X@X$X@X@X;X*X#X(.(.U.z.x.F.w.8...} o.X.[ l l 7 3 * 3 a ~ S i J L J P P P F H ",
"E :.8.8.w.6.6.6.8.E G D G | w.J.J.G.T.T.R.R.Q.Q.+X+X@X@X;X;X;X$X$X$X).(.U.~.d.i.P | +.+.[ k 1 ; 3 3 * 3 6 a a p o.0.y.D.w.9.7.:.",
"t.9.t.J.I.G.w.7.w.9.6.:.E E q.a.G.~.~.~.^.c.c.c.c.R.^.$X;X;X*X@X(.m.U.x.U.}.d.a.J R X.X.S 5 - + 3 4 6 a a Z Z L L 6.`.[.{.{.[.J.",
"*XT.S.G.~.{.J.t.9.i.a.w.>.:.:.:.9.j.f.T.~.Q.E.Q.+X+X@X@X-X@X!.P.z.2.2.Q u.`.`.q.S S C M 6 > 5 M a Z Z ~ J L o.6.L 6.9.w.D.J.{.=X",
"*X!.P.G.r.L.S.S.w.j.G.P.J.a.>.-.<.<.j.T.~.R.Q.^.(.R.~.P.k.P.P.G.U.F.8.E ..p._.@.^ 7 > ; 3 6 Z ' S Z J J P P | | 6.8.w.i.a.Z.J.~.",
"L.!.P.E.+XA.S.j.j.j.t.t.D.J.j.w.<.<.F.x.R.R.Q.Q.T.c.j.j.j.f.P.|..XD.u.E  ...O.[ l 5 + ; 4 a ~ ( ( J L P ` 6.6.:.:.<.9.F.G.L.~.L.",
"@X+X@X@X@X@Xl.l.l.e.1.e.e.Z.j.j.i.j.G.T.T.R.T.T.c.j.<.2.j.t.S.L.J.a.8.} } [ ^ k h 5 ; 3 ! / ' ] P P E :.7.9.q.9.:.:.<.e.G.T.~.!.",
"*X*X@X@X*X*X@XP.l.k.j.e.j.r.j.j.9.F.G.T.U.U.x.x.U.x.j.1.9.e.t.w.w.8.6.} } [ ^ h 5 ; 3 7 ' ] o.] ` P 6.7.9.w.t.Z.j.<.:.<.i.P.T.~."
};
