/* XPM */
static char *_7a7b36c6001441dab14b697a0ec50e0U12pr7FCBdJv5Cq7[] = {
/* columns rows colors chars-per-pixel */
"64 64 199 2 ",
"   c #0C0F00",
".  c #0D1300",
"X  c #0D1900",
"o  c #141501",
"O  c #151B00",
"+  c #1A1D01",
"@  c #1B1E0A",
"#  c #211F05",
"$  c #241F09",
"%  c #162201",
"&  c #1C2301",
"*  c #1D2A01",
"=  c #1D220B",
"-  c #1D2B08",
";  c #1F2312",
":  c #222503",
">  c #232B03",
",  c #292D05",
"<  c #24250B",
"1  c #29270B",
"2  c #252C0A",
"3  c #2A2D0C",
"4  c #312E0B",
"5  c #253203",
"6  c #2A3305",
"7  c #2D3A04",
"8  c #25310A",
"9  c #2C330C",
"0  c #2D390C",
"q  c #313707",
"w  c #313C05",
"e  c #3A3F07",
"r  c #31350D",
"t  c #38360D",
"y  c #323B0D",
"u  c #393D0C",
"i  c #232614",
"p  c #2C2711",
"a  c #252B13",
"s  c #2B2D12",
"d  c #252618",
"f  c #262E19",
"g  c #2A2C1C",
"h  c #312F13",
"j  c #302F1A",
"k  c #263112",
"l  c #2D3412",
"z  c #2D3913",
"x  c #2E331A",
"c  c #2D3B1A",
"v  c #323514",
"b  c #3A3611",
"n  c #333B13",
"m  c #393D15",
"M  c #33351A",
"N  c #38341B",
"B  c #353B1A",
"V  c #3A3D1B",
"C  c #2D3120",
"Z  c #333722",
"A  c #343A22",
"S  c #3A3E21",
"D  c #403D1B",
"F  c #403F21",
"G  c #2F400C",
"H  c #344205",
"J  c #3A4207",
"K  c #35410C",
"L  c #3B430D",
"P  c #3A480D",
"I  c #354113",
"U  c #3A4314",
"Y  c #354914",
"T  c #3D4915",
"R  c #36421B",
"E  c #3C441B",
"W  c #3E491C",
"Q  c #3E521D",
"!  c #364022",
"~  c #3D4422",
"^  c #3E4B23",
"/  c #3C4428",
"(  c #3F4A28",
")  c #40480F",
"_  c #424616",
"`  c #414B15",
"'  c #42451C",
"]  c #424B1C",
"[  c #4A4E1F",
"{  c #435415",
"}  c #45521D",
"|  c #49541D",
" . c #4D581D",
".. c #515C1E",
"X. c #424523",
"o. c #444B23",
"O. c #494E25",
"+. c #42462C",
"@. c #484429",
"#. c #454C29",
"$. c #4B4D2B",
"%. c #465124",
"&. c #4B5424",
"*. c #465821",
"=. c #4D5A24",
"-. c #46532B",
";. c #4C542B",
":. c #465828",
">. c #4D5A2C",
",. c #525524",
"<. c #515B25",
"1. c #51552D",
"2. c #535C2C",
"3. c #585B2C",
"4. c #444732",
"5. c #4A4E34",
"6. c #454938",
"7. c #494E3A",
"8. c #504B35",
"9. c #455030",
"0. c #4D5432",
"q. c #4D5B32",
"w. c #535433",
"e. c #545C33",
"r. c #595E33",
"t. c #52563C",
"y. c #585739",
"u. c #555C3A",
"i. c #5A5C3B",
"p. c #566127",
"a. c #55622D",
"s. c #5A632D",
"d. c #55692D",
"f. c #5E6A2E",
"g. c #4F6131",
"h. c #556232",
"j. c #5B6434",
"k. c #546931",
"l. c #5D6A34",
"z. c #56633B",
"x. c #5E663F",
"c. c #5C643B",
"v. c #5E6A3D",
"b. c #5E6A3C",
"n. c #5E713B",
"m. c #616B2D",
"M. c #626B36",
"N. c #61653C",
"B. c #616A3E",
"V. c #656B3E",
"C. c #636C3C",
"Z. c #667336",
"A. c #697337",
"S. c #65723D",
"D. c #69733D",
"F. c #707C3E",
"G. c #555B41",
"H. c #585D46",
"J. c #566440",
"K. c #5E6541",
"L. c #5D6441",
"P. c #5D6840",
"I. c #626444",
"U. c #666D42",
"Y. c #646B43",
"T. c #686D45",
"R. c #656C49",
"E. c #696E49",
"W. c #657243",
"Q. c #6A7641",
"!. c #6A7443",
"~. c #677844",
"^. c #6E7A44",
"/. c #65724B",
"(. c #6B734B",
"). c #6D794B",
"_. c #707646",
"`. c #717B44",
"'. c #72754E",
"]. c #70794C",
"[. c #747D4B",
"{. c #726E55",
"}. c #6D7550",
"|. c #737A53",
" X c #7D7F57",
".X c #747355",
"XX c #758146",
"oX c #768149",
"OX c #79844E",
"+X c #7D8B4E",
"@X c #768157",
"#X c #7A8454",
"$X c #7E8856",
"%X c #758159",
"&X c #7C845C",
"*X c #808F54",
"=X c #838C5A",
"-X c #899464",
";X c #929A75",
/* pixels */
"5 7 w 7 7 K G G :.* h.^ 6 ).1.2.Y.c.> n n + A 2 < c 9.r.9 T &.y 2 B V o.;.' ' 1.4 4 h $.0.w.' W 6 W K K Y I 0 8 z k l 8 l U q 7 ",
"7 * H d.h.` =.~.:.* ).>.e.#XT.U u 0 W ;.#.B - M #.& / x.N.I U 9 > l B m 1.j.$.b V ' N N 3 v > : 0 ` } =.} 5 8 R - = = B W c.] w ",
"j.q > ` b.~.W.k.G Y ^ 5 O.).%.] & 8 j.I.L.0.< l ;.= W e.Y.0 y 6 c c l 0 O.V.V.@.@.@.h 1 3 o.m > 7 h.n.l.} 0 n R l / #.u.;.B.] _ ",
"C.=.5 > h.$X|.v.I Q 5 * 7 E O > > o.K.x.R.L.R % O : B O.2.2. .I l 8 9 0 v O.r.,.X.F 1 + 3 @.V & I k.~.b.} I W ^ > c 5.L.e.j.=.l.",
" XU.4 , U.W.>.v.>.5 z z 6 * Y n 9 -.u.q.K.R.B % l E ;.I.[.-XD.K z R ( %.m U ' v # 4 v 1 : 4 4 + T T T d.*.u W h.B = S 9.E.x.e.s.",
"'.N., > j.%.% 6 Y 5 5 I 8 0 h.(.6 l u.;.R.(.2 B 8 & 0 W 2.<.} % -.J.P.( n U b : # 1 v h r , , > 7 * > K K 7 W %.o.: B ~ Y.%._ I ",
"F @.4 # v l & > 5 %.G Y 0 W 0 -.E n #.#.R.R.2 S > . O 9 0 &.a.U q.z.-.5 & 0 q , F 3 3 b D : , q > 7 7 5 * 6 ` n - O 2 2 n > > 6 ",
"{.@.# : B o.I * I :.:.* * I W 0 ;.u.n B H.0.l > ^ m > T 6 =X[.L :.:.n * > > n w.D 1 N @.$.q O.`.U W } Y 5 * Y v 9 2 s & + & & > ",
"8.h 1 1 + 0 % 8 0 W >.W :.U >.> -.i.W 8 B ;.> > o.x.;.] W.#Xl.T ! % z - * 0 v i.I.v : @.E , 3.=XM.h.6 K f.&.U o.& B = l , X.9 0 ",
"F N : + o > 6 c.n Q h.%.h.q.%.R E W , & 9 n > 9 O.j.x.[.$X!.j.[.q.z - 5 I y , o.X.h N w.,.] 3.C.l.Q.w =.D.Q.=X&.v 3 + l l ;.o.t ",
"j N 3 s #.e.r.-XP.%.7 5 ] e.0 0 U v y E #.z z 9 0 E E %.V.!.e.>.-.% * 0 E 8 r : : v m o.X.%.l.d.$X[.| #X[.[.=X' ] 2 s S V i.I.O.",
"h N N V 1.c.h.C.~.&.6 0 U.I.9 > 9 > E >.r.m E 5 > 9 & O &.@Xe.& * - z W !.O.v r : < & 2 T a.F.S.j.%.| D.f.D.l.U m l V S X.$.c.;.",
"1 p v 3 , X.l.2.l.j._ U ).o.r , > & U ;.h.&.;.n 5 v T 9 E e.W , 8 % 0 E $.1.I.X.B 3 O n C.#X+XXX} D.D.<.T <.L & 9 9 B s V 3 n V ",
"1 + : : , &.[.h.} <.K > j.9 3 , 0 > ] 1.c.c.&.I % q ;.U 8 6 > 0 * 6 & & o.c.$.~ 3 l 9 -.W.n.d...Y [.M.<. .` <.u 9 2 < : V s 3 l ",
"M > : > u T 2.w 5 L u 0 3.O.m m U > I [ =.j.y 6 y 6 o.v 2 v > 0 > & 9 o.O.T.n . + B l z n 7 G 5 } !.j.` | J <.I m 2 : < v v N v ",
"3 3 > > I > w 7 U =.3.q r m r $.0.> 6 v W j.6 W e.* > 9 E o.v ^ W v , 9 , 1.: : +.w.c O 5 W } Y U o.l.5 | _.#Xe.&.1 < 3 + : r : ",
"k c R * Y T y H ..| a.5 % 0 = l S O < - 0 m 9 h.&.#.> & l > > ;.m & > O m # + : h X.: . 9 u.n - X z ! ! %X).z.%X&XY., 3 3 3 #.s ",
"0.A c 8 ^ &.*.*.XXD.} T U 9 n 2 f ; O & E m v Y.w.q.k O 8 E W c.m & , n r 1 + o o + # & + 2 2 R % - c 8 k q./.W o.W > 0 v m w.$.",
"9.z z > 0 } l.`.#X=.U 6 0 E ] u.v - O > 5 > ` >.0.u./ > : m o.h.R l 3 , 1 4 1 h w.3 v N 3 < l ! R 8 c k * #. X0 > 6 9 8 0 m #.u.",
"9.R ( 8 5 n h.!.^.| ] > & v E Y.;.x.U > _ I y o.;.B > O % > y n y o.;.r $.V h D y.3 3 : 3 c B > % - X % - 8 #.> % 5 U E ;.r.O.z.",
"%.W >.I z %.z.h.o.h.&.&.W q 2.r.l.a.f.| T =.[ y U = & s % O q 2.h.T X.0 3 : D I.y.F F : v v > . - z & & R > E Y 5 5 U U r.C.%.;.",
"I ^ z.o.U ^ ^ R 9 o.#.e.1.2.V.M.| s.` * T <.n ^ l = n ;.E * L ^.c.& v N.: 1 @.i..Xy.X.1 v n > & - % & % 8 6 >.] 7 5 7 U h.V.=.| ",
"Q h.).q.^ 9 & O l l E n E &._ | l.| 6 > 6 I O.E 9.f = B o.T ` p.!.n 0 ;.: m $.I.w.h + o + ' o.y 5 % 8 0 U W j.>.% > L a.S.D.j.} ",
"h.b.).c.W.9.2 & O 3 O 6 6 & y > j.r.* 6 E > 2 = G.0.E l 6 q  .XX=.&.m : 4 N 3 N b < 4 9 & e.N.I z > y ' c.&.T o.&.T T Y K K } T ",
"T a.S.v.L.P.0.= n 2 & m q 1.j.6 n n v l l 2 = & t.t.& B V.<.m.F.j.O.O.' : : X.y.v 1 : r t ] j.I ;.y > u O.=.=._ 6 y U > K 7 * 7 ",
"5 T 2.%.o.E 9.t.9.< 2 $.N.;.j.,.A +.A S 7./ = = i f O R j.f.m...*.!.!.c.' N N y.# 1 1 , _ I | U !.] U n > O.1.: > q U T j.&.6 K ",
"> % > I ;.2 = E B s , B N.c.I.e.O A C Z +.a . x Z f 2 l I a.A.p.| 2.2.o.1 V V 4 1 , : t T.D.M.2.3.;.2.m > U E 0 % 0 9 m c.Y.K K ",
"> > U -.r.& . & : V & & m N.;.E x i O = / l & < = 2 ! 9 5 _ | =.U ` 6 O 3 m h # + 1 1 ] N.M.l.C.| 2.!.3.U 9 O m E m > , U r.E , ",
"q 2.N.;.r.X.v 9 X.E + + r V > 3 +.f < R ^ E l > O % n 2 9 I 0 | T O u 6 + : w.1 b 3 4 ;.I ] `  .s.U M.c.0 > 3 o.I.~ 3 s & m v + ",
"0 W o.;.e.%.' ;.e.v 9 > v : + > B l 0.U.>.O.=.O.W v 2 & 2 l , T q > 0 + : : w.y.y.4 3 ;.L | ` | <.K I 5 > 0 B 0.u.< 2 B < 1 < : ",
"& & 0 e.n & > c.X.9 o.v , : 1 : E m %.M.D.F.M.<.] 6 2 < 2 l 2 & &.U y 6 + N 8.w.N : r m y 6 w p.*.%.5 % 8 > + v s o < p h p < 1 ",
"B l > W > 6 > q ] 6 O.w.& @ @ < 9 m U { <.<.|  .n : > 0 - B ;.0 } Z.U t > b + r V + + + U : & K T 7 7 R n > > & o < 1 o j h < h ",
"A 2 ^ (.> I _ & j.| 1.w.< o d i O ^ #.>.3.3.M.,.' > + 6 0 =.&.a.M.m.C.D.,.6 3 + & + + O : s 2 : > U & 0 U B > > 2 O + O +.3 s s ",
"z l x X.&.| ` ` A.,.6 w.F j p g i / 2 % y 3.!.M.U : U o.: 6 } | A.<.,.| r : 3 N O < < g x s v n z.$.& > v n l 9 & 3 B + B l M 2 ",
"/ ;.T ] D.2.` p.M.| u U w.# g M w.P.m % , _ 3.N.1., B $.E > 0 ] C.y w 6 , B B ~ M M 8 = : l E 1.).#.: , v ' #.^ $.$.;.l B 9 V ^ ",
"X.%.j.N.Q.M.M.M.,.,.1.9 @.: $.@.Y.c.u > > : : V D @.5.B V & % e.;.> 6 , v 9.E B B 9 v > E !.N.N.e.X.> + > n X.;.|.L.#., 3 2 m X.",
"} &.l.Q.l.M.M.<.C.f.&.[ ' Y.T.T.k.&.6 & > & + B < 7.6.o = = & B 9 * W c 9 #./ R ^ l > 7 } f.M.<.;.I.X.+ 2 9 v w.Y.I.;.: & v X.U ",
"=.j.<.=.2.s.` y &.6 > q u ] 1.r.;.e.j.U , > , M M i g < < 2 > > 8 > B 8 2 -.q.#.q.o.% &.} 5 Z.=.O.E.u.l #.B > o.n n E , & > v 0 ",
"L ` J 6 &.%.T U ] r , u N.> l.U.;.;.c.O.9 9 < = d o i Z i = 2 ' o.l > 8 B q.c.;.R I I ~.=.T +Xl.v ~ ~ l i.o.+ , , + : 0 > * > 6 ",
"H 6 J > U > n 6 v %.& %.#Xy !.[.r.3 9 n B #.Z ; o d o o 2 o.v U e.W 0 W o.;.z.q.T 5 2.=.7 =.~.a.T : > l I.>.2 > o.m r n y X.] r ",
"w =.<.%.1.U 2 n 9 B Y.(.8 * V.b.v x o #.S A 5.< @ Z i @ , O._ | ^.K T * 0 y l.R 0 5 (.T 6 I T I 0 > 9 B v X., & o.T.&.1.j.!.r.> ",
"` } U E ;.E 2 2 O z R ;.6 0 0 R 2 x @ 3 M S a o Z / x & > ] <.M.a.l.^.} 5 % W h.R I z.I 8 n 0 n v v 2 2 l n > 9 ^ v.N.|.|.].2.E ",
"y 6 9 W 0.#.R ^ k 8 8 B m Y 0 #.@ g C @ s B . B / B 2 : ] M._.Z. .a.P H 7 7 & > 0 0 z ^ z.L.9 & l ' m B e.m 9 m v n , n r.T.] E ",
"> 9 X.e.x.r.;.e.o.R c.6 9 z -.B Z d g @ l B * I.i.W c 6 O.3.s.) p.f.` K w T U ] e.-.> 6 R.J.B l & 0 U o.Y.X.m n 6 0 > + ;.|.' , ",
"U ;.c.Y.b.j.&.] I 0 k.W W 0 z R 6.$ O + ^ e.;.M.%.n z 9 E ] ,.[ P } ] w O & ;.C.j.Y.O.E (.^ > > , > U 1.U.1.;.U > m W O n r.9 > ",
"' ;.>.&.2.2.` 7 H } %.a.k.%.5 -.Z i & O m j.S.=.=.O.E U ' b , : > > 6 6 q > e.=.;.;.' > w.v v y 9 : X.j.U.B.;.I , > 9   & 6 O > ",
"r U q q *.=.T H T XXn.=.%.n.} 8 < p m & y s.f.{ =.` r ^ w.o.1 + O : > n ;., E v , y ' r ;.O.r : > & U X.1.N.r 0 E > 9 > X.E > : ",
"9 n 6 q <. .L T ` L { n.a.%.0.0 9 9 U & P f. . .k.j.U W X.v o : X.;.q m j.y q y &.2.2.y > q 6 > 6 > y 6 U c.> X.r.E 0 : m S E B ",
"0 m > n &.y t q ' u o.;.' E < % * * K =.| ..J ..) <.S.] & 3 1   ;.h.a.} { L 6 ` <.a.} 0 > 5 6 & B 9 + > m > 9 N.2.E : : , : s 0.",
"2 > , r , r 2.N.b m > $.$.2 9 % 5 5 Y <. .) e s.) M.l.T t r + : U a.a.| | =.=.f.`.D.*.T W > ^ 0 r l & & m n E !.j.;.q > , V w.I.",
"v O 0 W r ' 1._ & , . , X.2 l 2 % %.a._ u q D e | =.T 8 6 1 # 1 r T ] W ` =.l.~.OX<.K 7 * } U Y.6 r & + 6 y I 1.O.o.U > & 6 O.;.",
"O.: 0 9 6 ' m : : > :   8 v % % 0 >.j.3.,., e e C.2.e.o.1 1 1 + 6 > 5 T T W s.~.^.%.K 0 % %.v (.j.U.1.m E ] v v o.9 : + O > 0 6 ",
"0 8 v > > y > , , r n + E R - % 8 ] &.&.,.t _ u [ >.B.u.l : p $ B 0 6 -.e.&.c.l.` =.%.] 2.0 W.k.j.V.3.D ' ;.X.m U & > 0 * % K 2.",
"E o.E 9 0 6 + t v O.X.;.I.n m % % n m 6 t D ' t r ] l 2 M 1 $ 1 & 6 * n W R I % 5 ^ %.%.e.W W.j.[ [ t , q o.#.~ v & l -.I * U S.",
"/.P.n > r > > n ] e.x.E.|.0 z O 0 > , D D 4 4 ,.r.#.& + M < # + 8 o.v U &.W m % y y U I 5 &.q ] D.r._ q v V B M 0.c = n %.T Y *.",
"z.q.n W o.0 , : , n E.z.T.-.^ 8 & : q D 4 t 1 $.$.9 : ~ s o p $ 9 X.8 E u.^ ~ m * & * > 6 q w q 1._ 4 : : s i = H.t.! 8 8 0 %.^.",
"-.>.R 9 V W v v r v m E.e.c.q.R O > ~ + w.D t 4 & & B x s : : + O 6 0 n E B z.E & X.> 9 ] 2.j.U q U m & & i = ; 6.7.X / /.9.v.g.",
"q.E z R T.e.: v 9 v X.z.n E z 0 = v v 3 $.1 1 r O % 9 8 l s 3 N > > * X.l l / v & ^ 0 j.1.C.| ] y v B < ; x ; ; g C = A G.z.P.z.",
"q.%.~ B |.%XB o.3 > m ;.0 Y * % > 9.V V D 1 : # % % 8 B ^ ^ , m 6 , y &.9 3 > & l : & > e.j.D.l.0 l B k x A f = g f A x / z.u.z.",
"0 R E R |.;X}.E., & l n > I * 8 c $.$.~ F 1 # o q.e.:.h.>.E > | j.M.B.' X.E B M l 9 + & 0 <.U q l - k a k c f f ; O f O & ! ~ o.",
"^ ^ R g./.}.I.c 2 & 9 * O K I z.-.- A V $.< . n U.v.g.g.Y 5 7 XXOX`.&.& y v 9 v B #.#.E u _ L T R - z ( ( ^ ^ 0.0.B n l x E S V ",
"8 5 - ( u.E. X2 9 > 0 6 z %.:.~.9.X 9 = S v & ^ c.:.Q *.T 7 H l.`.Z.6 5 n E 2 B t.;.i.' e.I V.=Xn - ( /./.z.q.z.1.X.B E X.n l , ",
"z 0 5 8 l 0.L.< 2 > 9 ^ c.v.h.g.( k 2 + 1 m > G n.g.k.d.d.{ w w ) e * L 0 n E v E $.W 1.[ I *.^.G - Y g.:.>.%.} T ] U O.w.o.m X.",
"8 * * * 8 l v B + , n -.v.h.g.:.q.B & l 1 3 O 5 0 Y n.d.d.{ { { > > L _ , n &Xi.= X.0.E E & g.~.z.G 8 - % G } } U ] [ n m v + , "
};
