/* XPM */
static char *result[] = {
/* columns rows colors chars-per-pixel */
"64 64 198 2 ",
"   c #1C3B2D",
".  c #153529",
"X  c #1D3E34",
"o  c #233E2C",
"O  c #28422E",
"+  c #29483C",
"@  c #505C3D",
"#  c #47563A",
"$  c #2F4D43",
"%  c #117C62",
"&  c #425F57",
"*  c #455B4A",
"=  c #466158",
"-  c #556854",
";  c #4E6962",
":  c #5B746E",
">  c #5C7670",
",  c #607A73",
"<  c #667F7A",
"1  c #078C6D",
"2  c #0A8D6D",
"3  c #138D71",
"4  c #7D876A",
"5  c #6A827C",
"6  c #788B7E",
"7  c #8A8452",
"8  c #968D57",
"9  c #908959",
"0  c #A1935A",
"q  c #AB8E4B",
"w  c #97966F",
"e  c #AD9866",
"r  c #BBA463",
"t  c #BEA76D",
"y  c #BAA667",
"u  c #AAA179",
"i  c #B6A97C",
"p  c #C39D4B",
"a  c #C19D52",
"s  c #CAAA5E",
"d  c #CAA75B",
"f  c #D1AE5D",
"g  c #CEB35C",
"h  c #CDAD62",
"j  c #C3AA6B",
"k  c #D1AF61",
"l  c #CDB26A",
"z  c #CEB066",
"x  c #D2B165",
"c  c #D4B56C",
"v  c #D6B96B",
"b  c #C1AE7A",
"n  c #C6B173",
"m  c #CCB471",
"M  c #CDB37D",
"N  c #D4B770",
"B  c #D5B973",
"V  c #D5BC7B",
"C  c #D8BF7F",
"Z  c #D6C27F",
"A  c #EBD06F",
"S  c #ECD171",
"D  c #309D84",
"F  c #6E8582",
"G  c #718984",
"H  c #788F8B",
"J  c #619B8C",
"K  c #7A918E",
"L  c #7F9183",
"P  c #7D9491",
"I  c #71B9A8",
"U  c #819694",
"Y  c #839996",
"T  c #8A9F9D",
"R  c #869B99",
"E  c #959A80",
"W  c #9CA38E",
"Q  c #8CA19E",
"!  c #93A39A",
"~  c #A6A784",
"^  c #AEA98D",
"/  c #ACA984",
"(  c #B4AA84",
")  c #B4AF9E",
"_  c #BDB393",
"`  c #A9AB92",
"'  c #8EA3A1",
"]  c #91A6A4",
"[  c #93A8A7",
"{  c #96AAA9",
"}  c #99ADAC",
"|  c #9CB5AF",
" . c #9FB3B2",
".. c #B0ADA2",
"X. c #BFBCA1",
"o. c #B7B4A7",
"O. c #A3B5B4",
"+. c #A7B9B9",
"@. c #ACBDBC",
"#. c #C6B888",
"$. c #D9BF81",
"%. c #D3BE86",
"&. c #C4BB9D",
"*. c #C6B996",
"=. c #C5BDA0",
"-. c #89C7B8",
";. c #92CCBE",
":. c #88C3AA",
">. c #AAD2BE",
",. c #DAC285",
"<. c #DCC58C",
"1. c #D9C689",
"2. c #DECA92",
"3. c #DFCC9B",
"4. c #D2C494",
"5. c #EFD683",
"6. c #EEDA8D",
"7. c #E1CF9E",
"8. c #E0C996",
"9. c #EFDA93",
"0. c #E8D69A",
"q. c #EEDB9C",
"w. c #F1DE9E",
"e. c #C9C1A4",
"r. c #CFC8AF",
"t. c #CBC4AD",
"y. c #D1C7A4",
"u. c #D3C8A3",
"i. c #D4CCAB",
"p. c #D8CFAC",
"a. c #DBD1AD",
"s. c #CAC4B3",
"d. c #C9C6BA",
"f. c #D5CEB3",
"g. c #D3CEB8",
"h. c #DED6BB",
"j. c #D8D2B4",
"k. c #E3CFA2",
"l. c #E2D4AD",
"z. c #E7D6A5",
"x. c #F3DFA0",
"c. c #E7D9B4",
"v. c #E6DAB8",
"b. c #EBE0BE",
"n. c #F3E3B4",
"m. c #F4E8BC",
"M. c #9BCEC3",
"N. c #9AD0C3",
"B. c #B3C4C4",
"V. c #BCCCCC",
"C. c #A6D5CA",
"Z. c #AFD9D0",
"A. c #B4DCD2",
"S. c #BEDFD8",
"D. c #B7D6CF",
"F. c #C5C3C1",
"G. c #CFCDC8",
"H. c #DED9CB",
"J. c #D4D2CD",
"K. c #CAD9DA",
"L. c #D5D5D5",
"P. c #DBDBDB",
"I. c #D9D8D3",
"U. c #E9DEC5",
"Y. c #C1E0D8",
"T. c #ECE2C6",
"R. c #EEE5CB",
"E. c #E6E0CE",
"W. c #F6EAC1",
"Q. c #F6ECCA",
"!. c #F8EBC9",
"~. c #E8E5DA",
"^. c #F1E9D4",
"/. c #F3EEDB",
"(. c #F0E7D0",
"). c #FAF1D5",
"_. c #F1F0DF",
"`. c #FCF4DE",
"'. c #F6F0D6",
"]. c #CDE5E0",
"[. c #D2E5E2",
"{. c gray89",
"}. c #EFEFE3",
"|. c #EDECEC",
" X c #E8E7E6",
".X c #F5EFE2",
"XX c #F6F2E5",
"oX c #FCF5E1",
"OX c #F5F3ED",
"+X c #F9F6EC",
"@X c #FCF8EA",
"#X c #EFEFF0",
"$X c #F4F4F4",
"%X c #F9F7F4",
"&X c #FAF9F3",
"*X c #FEFDFC",
"=X c #F9F7F8",
"-X c None",
/* pixels */
"-X-X-X-X-X-X-X-X-X-X-X-X-X-X-X-X-X-X-X-X-X-X-X-X-X-X-X-X-X-X-X-X-X-X-X-X-X-X-X-X-X-X-X-X-X-X-X-X-X-X-X-X-X-X-X-X-X-X-X-X-X-X-X-X",
"-X-X-X-X-X-X-X-X-X-X-X-X-X-X-X-X-X-X-X-X-X-X-X-X-X-X-X-X-X-X-X-X-X-X-X-X-X-X-X-X-X-X-X-X-X-X-X-X-X-X-X-X-X-X-X-X-X-X-X-X-X-X-X-X",
"-X-X-X-X-X-X-X-X-X-X-X-X-X-X-X-X-X-X-X-X-X-X-X-X-X-X-X-X-X-X-X-X-X-X-X-X-X-X-X-X-X-X-X-X-X-X-X-X-X-X-X-X-X-X-X-X-X-X-X-X-X-X-X-X",
"-X-X-X-X-X-X-X-X-X-X-X-X-X-X-X-X-X-X-X-X-X-X-X-X-X-X-X-X-X-X-X-X-X-X-X-X-X-X-X-X-X-X-X-X-X-X-X-X-X-X-X-X-X-X-X-X-X-X-X-X-X-X-X-X",
"-X-X-X-X-X-X-X-X-X-X-X-X-X-X-X-X-X-X-X-X-X-X-X-X-X-X-X-X-X-X-X-X-X-X-X-X-X-X-X-X-X-X-X-X-X-X-X-X-X-X-X-X-X-X-X-X-X-X-X-X-X-X-X-X",
"-X-X-X-X-X-X-X-X-X-X-X-X-X-X-X-X-X-X-X-X-X-X-X-X-X-X-X-X-X-X-X-X-X-X-X-X-X-X-X-X-X-X-X-X-X-X-X-X-X-X-X-X-X-X-X-X-X-X-X-X-X-X-X-X",
"-X-X-X-X-X-X-X-X-X-X-X-X-X-X-X-X-X-X-X-X-X-X-X-X-X-X-X-X-X-X-X].-X-X-X-X-X-X-X-X-X-X-X-X-X-X-X-X-X-X-X-X-X-X-X-X-X-X-X-X-X-X-X-X",
"-X-X-X-X-X-X-X-X-X-X-X-X-X-X-X-X-X-X-X-X-X-X-X-X-X-X-X-X-X-XM.D Y.-X-X-X-X-X-X-X-X-X-X-X-X-X-X-X-X-X-X-X-X-X-X-X-X-X-X-X-X-X-X-X",
"-X-X-X-X-X-X-X-X-X-X-X-X-X-X-X-X-X-X-X-X-X-X-X-X-X-X-X-X-X-X;.1 A.-X-X-X-X-X-X-X-X-X-X-X-X-X-X-X-X-X-X-X-X-X-X-X-X-X-X-X-X-X-X-X",
"-X-X-X-X-X-X-X-X-X-X-X-X-X-X-X-X-X-X-X-X-X-X-X-X-X-X-X-X-X-XN.1 A.-X-X-X-X-X-X-X-X-X-X-X-X-X-X-X-X-X-X-X-X-X-X-X-X-X-X-X-X-X-X-X",
"-X-X-X-X-X-X-X-X-X-X-X-X-X-X-X-X-X-X-X-X-X-X-X-X-X-X-X-X-X-XC.1 C.-X-X-X-X-X-X-X-X-X-X-X-X-X-X-X-X-X-X-X-X-X-X-X-X-X-X-X-X-X-X-X",
"-X-X-X-X-X-X-X-X-X-X-X-X-X-X-X-X-X-X-X-X-X-X-X-X-X-X-X-X-X-XC.1 C.-X-X-X-X-X-X-X-X-X-X-X-X-X-X-X-X-X-X-X-X-X-X-X-X-X-X-X-X-X-X-X",
"-X-X-X-X-X-X-X-X-X-X-X-X-X-X-X-X-X-X-X-X-X-X-X-X-X-X-X-X-X-XA.1 N.-X-X-X-X-X-X-X-X-X-X-X-X-X-X-X-X-X-X-X-X-X-X-X-X-X-X-X-X-X-X-X",
"-X-X-X-X-X-X-X-X-X-X-X-X-X-X-X-X-X-X-X-X-X-X-X-X-X-X-X-X-X-XA.1 ;.-X-X-X-X-X-X-X-X-X-X-X-X-X-X-X-X-X-X-X-X-X-X-X-X-X-X-X-X-X-X-X",
"-X-X-X-X-X-X-X-X-X-X-X-X-X-X-X-X-X-X-X-X-X-X-X-X-X-X-X-X-X*XK.2 -.*X*X-X-X-X-X-X-X-X-X-X-X-X-X-X-X-X-X-X-X-X-X-X-X-X-X-X-X-X-X-X",
"-X-X-X-X-X-X-X-X-X-X-X-X-X-X-X-X-X-X-X-X-X-X-X-X-X-X=XOX X}.D.2 -.$X$X$X*X-X-X-X-X-X-X-X-X-X-X-X-X-X-X-X-X-X-X-X-X-X-X-X-X-X-X-X",
"-X-X-X-X-X-X-X-X-X-X-X-X-X-X-X-X-X-X-X-X-X-X-X-X-X|.I.P.{.P.| 2 J F.L.P.P.$X-X-X-X-X-X-X-X-X-X-X-X-X-X-X-X-X-X-X-X-X-X-X-X-X-X-X",
"-X-X-X-X-X-X-X-X-X-X-X-X-X-X-X-X-X-X-X-X-X-X-X=XP.P.$X*X*X*X].3 I *X*X*X|.L.#X-X-X-X-X-X-X-X-X-X-X-X-X-X-X-X-X-X-X-X-X-X-X-X-X-X",
"-X-X-X-X-X-X-X-X-X-X-X-X-X-X-X-X-X-X-X-X-X-X-XP.{.*X*X=X}._._.:.>.&X*X*X*X$XL.$X-X-X-X-X-X-X-X-X-X-X-X-X-X-X-X-X-X-X-X-X-X-X-X-X",
"-X-X-X-X-X-X-X-X-X-X-X-X-X-X-X-X-X-X-X-X-X-XP.{.*X&X&XXX X_.`.`.`.oXoX@X&X*X$XI.=X-X-X-X-X-X-X-X-X-X-X-X-X-X-X-X-X-X-X-X-X-X-X-X",
"-X-X-X-X-X-X-X-X-X-X-X-X-X-X-X-X-X-X-X-X-X$XI.&Xm.n.`.oXoX`.`.oXoXoX`.`.`.@X*X{.{.*X-X-X-X-X-X-X-X-X-X-X-X-X-X-X-X-X-X-X-X-X-X-X",
"-X-X-X-X-X-X-X-X-X-X-X-X-X-X-X-X-X-X-X-X-X{.~.Q.9.w.W.`.oXoX`.`.).!.W.).`.`.@X+XI.=X-X-X-X-X-X-X-X-X-X-X-X-X-X-X-X-X-X-X-X-X-X-X",
"-X-X-X-X-X-X-X-X-X-X-X-X-X-X-X-X-X-X-X-X*XL.v.w.x.9.6.x.n.Q.`.`.!.n.m.).oX_.'.'.H.#X*X-X-X-X-X-X-X-X-X-X-X-X-X-X-X-X-X-X-X-X-X-X",
"-X-X-X-X-X-X-X-X-X-X-X-X-X-X-X-X-X-X-X-X$Xg.x.Q.x.S S 5.5.!.).!.).oX`.`.`.Q.m.0.y.{.*X-X-X-X-X-X-X-X-X-X-X-X-X-X-X-X-X-X-X-X-X-X",
"-X-X-X-X-X-X-X-X-X-X-X-X-X-X-X-X-X-X-X-XL.o.f.a.v g g Z l.E.U.l.2.7.<.,.V 7.3.t.s.F. X-X-X-X-X-X-X-X-X-X-X-X-X-X-X-X-X-X-X-X-X-X",
"-X-X-X-X-X-X-X-X-X-X-X-X-X-X-X-X-X-X-XL.o.o...^ j m g v i.o.o...u q e ( i t _ t.d.d.d.$X-X-X-X-X-X-X-X-X-X-X-X-X-X-X-X-X-X-X-X-X",
"-X-X-X-X-X-X-X-X-X-X-X-X-X-X-X-X-X-X-Xo.g.~.H.U.i.i.y.i.f.r.r.f.p.p.p.f.j.i.v.h.f.=.o.P.-X-X-X-X-X-X-X-X-X-X-X-X-X-X-X-X-X-X-X-X",
"-X-X-X-X-X-X-X-X-X-X-X-X-X-X-X-X-X-X-XG.d.=.#.&._ u.&.y.&.=.&.y.=.i.=.=.e._ *.( i t.J.-X-X-X-X-X-X-X-X-X-X-X-X-X-X-X-X-X-X-X-X-X",
"-X-X-X-X-X-X-X-X-X-X-X-X-X-X-X-X-X-X-X*X*Xl.p p d q t _ #.t r j #.i b ) X.#.j l ,.OX-X-X-X-X-X-X-X-X-X-X-X-X-X-X-X-X-X-X-X-X-X-X",
"-X-X-X-X-X-X-X-X-X-X-X-X-X-X-X-X-X-X-X-X*XR.x x x v 4.j.j.c f x v v v %.%.%.v c <.+X-X-X-X-X-X-X-X-X-X-X-X-X-X-X-X-X-X-X-X-X-X-X",
"-X-X-X-X-X-X-X-X-X-X-X-X-X-X-X-X-X-X-X-X-X(.B c v c v V C c c c c c c c B %.B c 7.=X-X-X-X-X-X-X-X-X-X-X-X-X-X-X-X-X-X-X-X-X-X-X",
"-X-X-X-X-X-X-X-X-X-X-X-X-X-X-X-X-X-X-X-X-XXXV h c c c c c c c c c c c c x k h s l.-X-X-X-X-X-X-X-X-X-X-X-X-X-X-X-X-X-X-X-X-X-X-X",
"-X-X-X-X-X-X-X-X-X-X-X-X-X-X-X-X-X-X-X-X-X+XM h h z z h h d h k h s h h h h h l T.-X-X-X-X-X-X-X-X-X-X-X-X-X-X-X-X-X-X-X-X-X-X-X",
"-X-X-X-X-X-X-X-X-X-X-X-X-X-X-X-X-X-X-X-X-X=X%.c c c c c j r 0 8 0 r l v c c N B ^.-X-X-X-X-X-X-X-X-X-X-X-X-X-X-X-X-X-X-X-X-X-X-X",
"-X-X-X-X-X-X-X-X-X-X-X-X-X-X-X-X-X-X-X-X-X-Xc.c c c l 9 # o & 5 + O @ 0 c c c V ^.-X-X-X-X-X-X-X-X-X-X-X-X-X-X-X-X-X-X-X-X-X-X-X",
"-X-X-X-X-X-X-X-X-X-X-X-X-X-X-X-X-X-X-X-X-X-XR.N c N 7 o + & P V.: = X o 9 c c C XX-X-X-X-X-X-X-X-X-X-X-X-X-X-X-X-X-X-X-X-X-X-X-X",
"-X-X-X-X-X-X-X-X-X-X-X-X-X-X-X-X-X-X-X-X-X-X^.B c t * . F @. .] @.@.= . - y c ,.+X-X-X-X-X-X-X-X-X-X-X-X-X-X-X-X-X-X-X-X-X-X-X-X",
"-X-X-X-X-X-X-X-X-X-X-X-X-X-X-X-X-X-X-X-X-X-X_.B c w ] , > P ] +.P H ; H ! 9 v 2.+X-X-X-X-X-X-X-X-X-X-X-X-X-X-X-X-X-X-X-X-X-X-X-X",
"-X-X-X-X-X-X-X-X-X-X-X-X-X-X-X-X-X-X-X-X-X-XXX$.x E B.' G P T +.P Q F Q +.w c 7.=X-X-X-X-X-X-X-X-X-X-X-X-X-X-X-X-X-X-X-X-X-X-X-X",
"-X-X-X-X-X-X-X-X-X-X-X-X-X-X-X-X-X-X-X-X-X-X%X1.N W K $ F T B.+.} Q G $ Y ~ c k.*X-X-X-X-X-X-X-X-X-X-X-X-X-X-X-X-X-X-X-X-X-X-X-X",
"-X-X-X-X-X-X-X-X-X-X-X-X-X-X-X-X-X-X-X-X-X-X=X2.c ` 5   > R T R K Q <   F / c c.*X-X-X-X-X-X-X-X-X-X-X-X-X-X-X-X-X-X-X-X-X-X-X-X",
"-X-X-X-X-X-X-X-X-X-X-X-X-X-X-X-X-X-X-X-X-X-X*X7.c ( > + R [ } V.O.[ K + < i c v.-X-X-X-X-X-X-X-X-X-X-X-X-X-X-X-X-X-X-X-X-X-X-X-X",
"-X-X-X-X-X-X-X-X-X-X-X-X-X-X-X-X-X-X-X-X-X-X*Xk.c n G P } ' >.P.B.' Q T L n v T.-X-X-X-X-X-X-X-X-X-X-X-X-X-X-X-X-X-X-X-X-X-X-X-X",
"-X-X-X-X-X-X-X-X-X-X-X-X-X-X-X-X-X-X-X-X-X-X*Xv.l N ~ ' F [ [ K.} [ F P u c B ^.-X-X-X-X-X-X-X-X-X-X-X-X-X-X-X-X-X-X-X-X-X-X-X-X",
"-X-X-X-X-X-X-X-X-X-X-X-X-X-X-X-X-X-X-X-X-X-X-XT.c N m 9 < ] R V.' } R 4 l v B /.-X-X-X-X-X-X-X-X-X-X-X-X-X-X-X-X-X-X-X-X-X-X-X-X",
"-X-X-X-X-X-X-X-X-X-X-X-X-X-X-X-X-X-X-X-X-X-X-X^.N c c m ^ ] ' K.O.! ^ m v c C XX-X-X-X-X-X-X-X-X-X-X-X-X-X-X-X-X-X-X-X-X-X-X-X-X",
"-X-X-X-X-X-X-X-X-X-X-X-X-X-X-X-X-X-X-X-X-X-X-X/.B c N N c n #.4.#.n c c N c ,.+X-X-X-X-X-X-X-X-X-X-X-X-X-X-X-X-X-X-X-X-X-X-X-X-X",
"-X-X-X-X-X-X-X-X-X-X-X-X-X-X-X-X-X-X-X-X-X-X-XXXC v N c N c c c c c N c c c 2.=X-X-X-X-X-X-X-X-X-X-X-X-X-X-X-X-X-X-X-X-X-X-X-X-X",
"-X-X-X-X-X-X-X-X-X-X-X-X-X-X-X-X-X-X-X-X-X-X-X&X<.x x x x c c c c c c c c x k.*X-X-X-X-X-X-X-X-X-X-X-X-X-X-X-X-X-X-X-X-X-X-X-X-X",
"-X-X-X-X-X-X-X-X-X-X-X-X-X-X-X-X-X-X-X-X-X-X-X*X7.c x x x x x f k k k c x c c.-X-X-X-X-X-X-X-X-X-X-X-X-X-X-X-X-X-X-X-X-X-X-X-X-X",
"-X-X-X-X-X-X-X-X-X-X-X-X-X-X-X-X-X-X-X-X-X-X-X*Xl.c N c c c c x c c c k x x U.-X-X-X-X-X-X-X-X-X-X-X-X-X-X-X-X-X-X-X-X-X-X-X-X-X",
"-X-X-X-X-X-X-X-X-X-X-X-X-X-X-X-X-X-X-X-X-X-X-X-X^.<.c x x x x x k k x k c 3.XX-X-X-X-X-X-X-X-X-X-X-X-X-X-X-X-X-X-X-X-X-X-X-X-X-X",
"-X-X-X-X-X-X-X-X-X-X-X-X-X-X-X-X-X-X-X-X-X-X-X-X-X+XT.k.<.$.,.C $.<.8.l.^.&X-X-X-X-X-X-X-X-X-X-X-X-X-X-X-X-X-X-X-X-X-X-X-X-X-X-X",
"-X-X-X-X-X-X-X-X-X-X-X-X-X-X-X-X-X-X-X-X-X-X-X-X-X-X-X*X=X&X+X&X&X&X*X*X-X-X-X-X-X-X-X-X-X-X-X-X-X-X-X-X-X-X-X-X-X-X-X-X-X-X-X-X",
"-X-X-X-X-X-X-X-X-X-X-X-X-X-X-X-X-X-X-X-X-X-X-X-X-X-X-X-X-X-X-X-X-X-X-X-X-X-X-X-X-X-X-X-X-X-X-X-X-X-X-X-X-X-X-X-X-X-X-X-X-X-X-X-X",
"-X-X-X-X-X-X-X-X-X-X-X-X-X-X-X-X-X-X-X-X-X-X-X-X-X-X-X-X-X-X-X-X-X-X-X-X-X-X-X-X-X-X-X-X-X-X-X-X-X-X-X-X-X-X-X-X-X-X-X-X-X-X-X-X",
"-X-X-X-X-X-X-X-X-X-X-X-X-X-X-X-X-X-X-X-X-X-X-X-X-X-X-X-X-X-X-X-X-X-X-X-X-X-X-X-X-X-X-X-X-X-X-X-X-X-X-X-X-X-X-X-X-X-X-X-X-X-X-X-X",
"-X-X-X-X-X-X-X-X-X-X-X-X-X-X-X-X-X-X-X-X-X-X-X-X-X-X-X-X-X-X-X-X-X-X-X-X-X-X-X-X-X-X-X-X-X-X-X-X-X-X-X-X-X-X-X-X-X-X-X-X-X-X-X-X",
"-X-X-X-X-X-X-X-X-X-X-X-X-X-X-X-X-X-X-X-X-X-X-X-X-X-X-X-X-X-X-X-X-X-X-X-X-X-X-X-X-X-X-X-X-X-X-X-X-X-X-X-X-X-X-X-X-X-X-X-X-X-X-X-X",
"-X-X-X-X-X-X-X-X-X-X-X-X-X-X-X-X-X-X-X-X-X-X-X-X-X-X-X-X-X-X-X-X-X-X-X-X-X-X-X-X-X-X-X-X-X-X-X-X-X-X-X-X-X-X-X-X-X-X-X-X-X-X-X-X",
"-X-X-X-X-X-X-X-X-X-X-X-X-X-X-X-X-X-X-X-X-X-X-X-X-X-X-X-X-X-X-X-X-X-X-X-X-X-X-X-X-X-X-X-X-X-X-X-X-X-X-X-X-X-X-X-X-X-X-X-X-X-X-X-X",
"-X-X-X-X-X-X-X-X-X-X-X-X-X-X-X-X-X-X-X-X-X-X-X-X-X-X-X-X-X-X-X-X-X-X-X-X-X-X-X-X-X-X-X-X-X-X-X-X-X-X-X-X-X-X-X-X-X-X-X-X-X-X-X-X",
"-X-X-X-X-X-X-X-X-X-X-X-X-X-X-X-X-X-X-X-X-X-X-X-X-X-X-X-X-X-X-X-X-X-X-X-X-X-X-X-X-X-X-X-X-X-X-X-X-X-X-X-X-X-X-X-X-X-X-X-X-X-X-X-X",
"-X-X-X-X-X-X-X-X-X-X-X-X-X-X-X-X-X-X-X-X-X-X-X-X-X-X-X-X-X-X-X-X-X-X-X-X-X-X-X-X-X-X-X-X-X-X-X-X-X-X-X-X-X-X-X-X-X-X-X-X-X-X-X-X"
};
