/* XPM */
static char *d293cb839ddc4f4ffbe6f6637346bf24K9YH2muAvEf1ZOjH[] = {
/* columns rows colors chars-per-pixel */
"64 64 256 2 ",
"   c #033FB6",
".  c #003CA0",
"X  c #00538C",
"o  c #004C9D",
"O  c #004798",
"+  c #015499",
"@  c #004887",
"#  c #0046A5",
"$  c #014CA4",
"%  c #0245AC",
"&  c #014BAC",
"*  c #0A4AAC",
"=  c #094AA5",
"-  c #0052A4",
";  c #0053AD",
":  c #005BAC",
">  c #065AA8",
",  c #0145B4",
"<  c #014BB4",
"1  c #0145BB",
"2  c #014CBB",
"3  c #0B4BBB",
"4  c #0A47B7",
"5  c #1449BA",
"6  c #0153B4",
"7  c #025BB3",
"8  c #0153BC",
"9  c #0A55BD",
"0  c #025BBC",
"q  c #0B5BBD",
"w  c #0D58B7",
"e  c #1556B9",
"r  c #175BAC",
"t  c #0467AA",
"y  c #0774AB",
"u  c #0164B4",
"i  c #0A6CB5",
"p  c #0264BC",
"a  c #0C61BD",
"s  c #026CBC",
"d  c #0B6CBC",
"f  c #0468B2",
"g  c #146BBD",
"h  c #1768BB",
"j  c #0273BC",
"k  c #0C72BA",
"l  c #017ABD",
"z  c #0975B7",
"x  c #1676BB",
"c  c #1466AB",
"v  c #2376BC",
"b  c #00639F",
"n  c #0C3EC3",
"m  c #0146C2",
"M  c #0A45C1",
"N  c #024BC2",
"B  c #074BC7",
"V  c #0253C2",
"C  c #0B54C2",
"Z  c #035BC2",
"A  c #0C5CC4",
"S  c #0D5CC9",
"D  c #065ACA",
"F  c #125CC3",
"G  c #135CC9",
"H  c #1758C7",
"J  c #125BD5",
"K  c #0162C3",
"L  c #0D62C4",
"P  c #026BC3",
"I  c #0C6DC4",
"U  c #0265CB",
"Y  c #0D65CB",
"T  c #026DCB",
"R  c #0C6DCA",
"E  c #1364C5",
"W  c #146CC5",
"Q  c #1A6CC4",
"!  c #1365CB",
"~  c #1B65CC",
"^  c #146CCB",
"/  c #1A6DCC",
"(  c #1B65C5",
")  c #0373C4",
"_  c #0C73C4",
"`  c #037BC5",
"'  c #0274CC",
"]  c #0D74CB",
"[  c #027BCC",
"{  c #0D7ACC",
"}  c #0A7BC3",
"|  c #1372C4",
" . c #1B72C6",
".. c #137BC4",
"X. c #1472CB",
"o. c #1A71CC",
"O. c #137BCC",
"+. c #1A7BC6",
"@. c #016CD3",
"#. c #086CD4",
"$. c #1A66D2",
"%. c #156CD2",
"&. c #1B6DD2",
"*. c #1D6DDA",
"=. c #1466D3",
"-. c #0274D3",
";. c #0A74D4",
":. c #047CD3",
">. c #0B7BD4",
",. c #0979D9",
"<. c #1473D3",
"1. c #1B72D3",
"2. c #127BD3",
"3. c #1677DA",
"4. c #216CC6",
"5. c #226CCD",
"6. c #2366C9",
"7. c #2171CC",
"8. c #2577C7",
"9. c #3276CE",
"0. c #236CD2",
"q. c #226CDA",
"w. c #2868D7",
"e. c #2372D4",
"r. c #247AD4",
"t. c #247CD9",
"y. c #2678D8",
"u. c #3672D1",
"i. c #1773E2",
"p. c #0E74E2",
"a. c #217AE0",
"s. c #0584B9",
"d. c #0A93BF",
"f. c #0184CB",
"g. c #0586C7",
"h. c #1886C7",
"j. c #0896CA",
"k. c #1793CA",
"l. c #0183D3",
"z. c #0D82D4",
"x. c #0C8BD4",
"c. c #0B84DB",
"v. c #038CDB",
"b. c #0D8BDA",
"n. c #0486D9",
"m. c #1282D4",
"M. c #1283DC",
"N. c #138ADD",
"B. c #198BD8",
"V. c #0797D8",
"C. c #1194DD",
"Z. c #1899D9",
"A. c #2586CB",
"S. c #2599CB",
"D. c #369BCE",
"F. c #2584DA",
"G. c #279DDA",
"H. c #349AD9",
"J. c #02A3DC",
"K. c #0CA5D9",
"L. c #14A2DD",
"P. c #1AA5D9",
"I. c #28A5D9",
"U. c #39A7D6",
"Y. c #0C8CE2",
"T. c #0887E2",
"R. c #158CE4",
"E. c #1A8CE4",
"W. c #1788E8",
"Q. c #0E93E4",
"!. c #0C9CE3",
"~. c #049DE9",
"^. c #0C9DEB",
"/. c #0896E7",
"(. c #1394E3",
"). c #1A93E4",
"_. c #149CE4",
"`. c #1C9CE4",
"'. c #1C94ED",
"]. c #139CEC",
"[. c #1C9CEB",
"{. c #1593EB",
"}. c #1A9CF2",
"|. c #1799F5",
" X c #0F94F2",
".X c #2499E8",
"XX c #359CE6",
"oX c #269AF8",
"OX c #278BEC",
"+X c #02A3E4",
"@X c #0BA3E4",
"#X c #0CA3EC",
"$X c #05A9ED",
"%X c #0BAAEC",
"&X c #04A6E9",
"*X c #13A3E4",
"=X c #13A3EC",
"-X c #1CA3EC",
";X c #19A7E7",
":X c #1FB2EB",
">X c #0CA4F1",
",X c #08A7F3",
"<X c #13A3F3",
"1X c #1BA3F4",
"2X c #18A7F8",
"3X c #0FB3F0",
"4X c #26A7EA",
"5X c #3AA9EA",
"6X c #27B4EB",
"7X c #3BB5E7",
"8X c #25A3F8",
"9X c #38ABF7",
"0X c #28B4F4",
"qX c #37B6F7",
"wX c #44ABE5",
"eX c #47B6E8",
"rX c #49ACF6",
"tX c #47B9FC",
"yX c #54B8FB",
"uX c #51ADEE",
"iX c #52B3ED",
"pX c #49C7FC",
"aX c #56C9FC",
"sX c #47D3FF",
"dX c #5BD3FE",
"fX c #5BDBFF",
"gX c #54D7FC",
"hX c #49C1E5",
"jX c #66CBFE",
"kX c #6CDBFF",
"lX c #67D6FE",
"zX c #72DCFF",
"xX c #7BDDFF",
"cX c #76D5FF",
"vX c #7ECCFF",
"bX c #5CE5FF",
"nX c #57E2FF",
"mX c #4FE1FF",
"MX c #65E4FF",
"NX c #6CE5FF",
"BX c #6CEBFF",
"VX c #67EAFA",
"CX c #74E4FF",
"ZX c #7BE4FF",
"AX c #73EBFF",
"SX c #7BECFF",
"DX c #69F3FF",
"FX c #74F1FF",
"GX c #7CF2FF",
"HX c #82E3FF",
"JX c #83ECFF",
"KX c #89ECFF",
"LX c #82F3FF",
"PX c #89F2FF",
"IX c #91E1FF",
"UX c #85DDFF",
/* pixels */
">X>X].-.3.=.J n n B N V < & * = x  .Q / %.^ Q g z wXGXVXgXL.;X(.< 2 1 2 2 2 2 < , A / 1. .W X.s.HXVXVXFXNXGXA.o 6 A *.$.%.^ R B.",
"@X#X_.[ <.q.H M B m N N 2 6 * - h W Q / =.&.o.| i eXGXNXsXj.*X(.2 < 1 1 1 2 2 2 < Z ^ &./ ^ o.x HXFXVXGXNXFXA.- < S *.*.&.1.W e.",
"J.L.4X..g 5.< , m m M 3 4 4 & ; Q 7.0.&.$.=./ E i wXAXNXsXC._.E.8 2 2 < , , 2 8 9 L ^ / ^ W X.+.lXlXMXNXkXkXA.$ < C $.&.6.w.4.9.",
"DXVXkXt O 7 6 0 m m 1 M 3 4 < 6 % & < 1 1 N 8 0 - g.I.P.k.j :.;.%./ ! C < 8 Y $.! ! %.%./ ^ W | s.x s.k.Z.5XR & < < 3 2 e h ( 9.",
"VXNXHXt + - & < 2 2 M M M M 2 8 6 8 2 1   M 2 6 - f.L.*XZ.' 3.%.1.*.~ q < < L e.&.%./ 1./ / Q / h g ) B..X4XP ; 8 6 < & Z / 4.9.",
"JXzXzXt : - 6 < 2 m M M M m N V V 2 2 B B N 2 2 : f.*X-X).) %.=./ / Y 8 & < A &.&.&.&./ 1./ o./ / / 2..X.XN.s ; 0 6 6 6 p ] k ..",
"c h +.{ E.W.#.V N N N N N N N N 2 , B i.OXOXW.{.N.B.z.{ P P 3.a.1.1.1.^ Y W %.1.^ $.&.$.%./ / &.q.&.Y X.>.f.Q.^./.v.{.T.(.[._.;X",
"= # ; E.8XoXU 2 2 2 2 < 8 8 8 2 N 1 D W.oX|. X}.).N.I R 1.3.<.Y ^ ^ X.1.1.1.&.&.%.&.&.^ ~ / / / ^ ^ / 2.O.` v.@X,X<X2X].].^.@X3X",
"4 4 8 oXoX2XU 8 6 & ; o o o o $ < 8 6 |. X|.}.1X[.M.] X.X.%.X.1.W ^ ^ ^ ^ %./ %.*.*.&./ e.&.~ e.X.o.( i j l V.+X$X$X1X|.}.1X$X3X",
"C N 2 @.@.p.-.3...F.wXwXwXwXwX5Xm.p.,.:.-.-.l.n.N.N.B.B.3.<.^ / X.o.X.1.1.&.Y A 0 q 9 A A q q a | x x uXrXtX;X&X$Xv.-.T ;.[ ` v.",
"< < 2 2 2 Z n.4XI.aXLXJXJXPXJXNX4X2XoXp 6 & P [ l l.*X[.B.o./ 7.&.W E / &.~ 9 & < < < < < & % 6 z y x xXSXGX6X!.0X-.8 < 2 & & P ",
"# & 8 2 < 8 m.4Xk.eXCXZXHXZXSXVX1X].oX0 ; ; p O.[ C.-X-XN.] E W 1./ &.&.1.%.A 2 < 2 2 < 3 < & : y y y jXCXLXqX-X8X;.2 , 4 < & L ",
"a 0 F < 2 6 _ h.s.eXSXKXcXD.U.eXz.-.3.P p p a O.] m.N.N.N.N.m.2.L A L ! ! S V 2 2 2 2 < 9 4 < 7 U.U.I.hXpXaXG.{ i.Y 2 , e H e 6.",
"X.W ~ 2 2 , 6 - X S.AXSXeX@ X + 7 6 8 ] ^ o.E 1.I R R ' c.[.-X'.& < < < , 1 , 1 2 2 < , < < < : zXNXVX6XP.`.P # 8 2 N 2 C 6.6.u.",
"/ / / V N 1 < & O H.CXSXyX- * 6 < , , ^ 0.5.5.5.e.1.] T n.].@Xb.6 2 2 4 2 2 1 2 2 2 < , < < 6 w xXAXDXP.j.Z._ < , 2 V 8 K o.6.u.",
"^ &.^ C 2 8 ( 5.d 5XbXfX9X; 9 1 8 V 2 ~ e.6.5.~ =.%.R ' x.8X0X4X0 8 8 2 2 2 2 N 2 2 < < q q h 8.xXZXBXP.j.'.R < 2 N 0 8 K / 4.u.",
"%.1./ Q | z yXHXCXpXV.%XQ.; 2 2 *.*.$./ / / $.&.q.Z & - B.GXDXfX_ 3.%.8 < N D N 8 < 0 o +.KXZXxXHXcXxXk ; < < C 1 A 1.1.X.X.Q 9.",
"%.1.W g x x jXPXFXsX&X<XY.6 2 2 0.&.&.o.<.<.&.1.*.S < $ A.ZXCXlXz | T 8 < 2 2 , 8 & $ o x SXCXCXHXHXUXh % 2 N 1 , A o.W | Q W r.",
"%.1.W W x x rXdXgXqXV.).M.0 C 9 ( | | ..| X.! Y G 9 & $ A.KXGXVXz O.] P 0 U U D 8 0 7 u F.MXCXkXjXlXjXa < 2 C 1 V A / Q  .Q W r.",
"%.&.X.W x f Z.I.;XC.' ;.3.Y $.5.Q g g g ] X.Z 2 M 3 * O A.HXAXhXZ.`.).).E.'.'.'.'.8X).C.C.Z.L.k.b > : & < , $.q.~ ~ 7./  .o.W r.",
"$.$.<.W 8.z x.K.K.x.I / &./ w.5.8.x x | X.<.A 1 M 4   # A.JXFXbXP.%X%X=X#X>X>X~.~.>X,X2X%X+X%X@Xt + o 7 0 % A 0.5./ 5.Q /  .W 1.",
"q./ %.I | k V.L.*XC.X./ 5./ 6.6.4.Q W I X.R D , 4 4 * & A.AXDXmXL.@X!.=X^.!.^.<X^.~.~.$X,X~.$X~.: : : ; 8 6 ^ 0.5.6.Q Q o. .! F.",
"w.$.1.I _ ` V.@X=Xb.X.~ / / Q 4.6.6.E Z 8 Z 8 2 M 3 2 & s 9X;X*Xu 7 0 p p p T 2.m.' ;.-.c.;.:.:.)..XW.;.P Y X./ / Q 4.Q / / ^ F.",
"w.$.3.R { [ V.#X].c.] X. . .g o.~ *.%.0 < ; 8 < % , w ; p 8X!.Q.6 < < < < ; a o.W I 1.Y <.R <.3..X'.oXM.' 2.^ X.7.4.7.5./ &.R a.",
"w.w.*.P :.[ <X[.8Xb.' ' _ f t g ] #.,.Z 7 $ - $ o O 6 O T 8X|. XV 2 2 2 8 8 L o.W ^ X.^ R X.<.<.oXoXW.R.' ) ] X.Q 5.( ~ 5./ 1.t.",
"5 C A E.{.Y.:.P T ,.Q.b.4XyXaXtXR.Y.W.n.m.g.5XuXiXuXyXrXXXP ' @.N 2 N V A L E X.W | |  .X.X.^ R U T T Y.N.N.O.| W Q 5.5.( 7 8 W ",
"8 6 % OX}.}.T 8 % ,.1XV.qXAXGXbX2X$X>X=X`.G.aXLXSXHXUXKXyX# < 8 N N V =.a.q.1.o.o.^ W X.o.o./ ^ < V 0 W.8X.XN._ ^ 1.0.q.~ < & q ",
"6 6 6 OX8XoXU < 6 >.1X*X7XAXAXnXJ.+X&X@X;XI.aXLXCXLXZXHXyX$ & < 2 2 N ! *.1./ W  ./ W / o./ / o.0 8 6 R.4X[.z.) ] E ~ 0.H & & a ",
") ' >.;.3.3.D 2 8 U Y.g.4XVXVXnXJ.+X+Xl.f.l G.eX7X7XpXyXH.- * 4 C Z A W %.&./ ^ X./ X.o.Q q q A V 8 6 R.1X`.x.[ 3.Y A G H & & ( ",
"2X}.'.0 < , V N , 0 { f S.AXFXbXK.3X^.s ; $ p P l s.P.G.h.o . 4 / / X.X.o.X.1.<.! %.1.1.E 6 # < 2 6 6 N.-X[.n.:.3.Y 2 , 3 % $ e ",
"&X$X8XK 2   M 1 V K t.i S.AXAXMXK.%X{.D N N =.p.[ v.;X*Xm.; & w Q | g | W R ] ^ X.R %.%.S 2 , < < 2 7 R.-X_.l.P -.D 1   , % = w ",
"v.v.(.8 4 5 B C V 0 e.i S.fXgXaXC.{.OXD N m J p.' T.=X(.B._ 8. .+.m.m.m.z.m.2.] X.^ L Y Y K U U K K s 4X0X0X_.l.c.,.U A / Q 8.9.",
"6 < 6 < 3 4 E e.^ X. .d g.*XZ.b.6 2 2 N B m J i.%.] ..f U.PXKXkX4X X2X>X|.2X:.[ | 7 ; & K 8X|.<X<X*X`.fXMXDXqXL.-X=X1XC.qXGXCXSX",
", % < < , , F 1. .o. ._ l.^.1X'.< 2 1 N N N J *.*.^ O.f D.CXCXfX(./.,X&X,X&Xf.l +.c o - P 1X,X,X>X!.L.fXAXGX7XK.V.V.=XV.qXFXAXSX",
"9 2 8 V C C G *.! <.>.>.c.Q. XOX8 2 < N N 2 G *.! Y o.x H.kXCXkX`.=X@X+X&XJ.V.h.h c + c O.!.$X$X^._.Z.aXdXlX5XB.4X].1X[.qXlXjXcX",
"Y ! #.%.=.$.$.*.;.E.'.|.T.U D V 2 8 < 2 2 , G *.1.o.o.i d h.z y j f.l V.K.K.sXfXcXIXUXcXpXZ.&X+Xu 7 : p t i : 7 7 6 6 ; ; f + c ",
"| O.2.<.3.1.&.^ P N.].2XT.8 1 1 < 6 % < < < E &.~ Y X.| | O..._ k g.l V.K.K.sXDXkXJXHXKXdXZ.@X@X7 8 % & O # % 6 8 8 8 2 6 ; o r ",
"z } ..s j u X.| { N.~.2XT.8 N C 2 < & 8 9 6 E / / ^ ^ ^ R ] W R _ _ l .X;XL.sXDXMXAXCXCXdXZ._.{.Z N < 2 3 3 1 1 1 m m N 2 % = e ",
"aXaXdXG.P.Z.yXjXpXqXJ.%XN.< , 4 2 2 < A E E / / /  .W X.<.^ <.<.X.1.X.M.m.[ Z.0X:X:X:X6X`.p K Z 2 m 1 4 4 3 1   m B N N M * * e ",
"SXCXZXI.P.j.dXAXGXpXJ.*XB.6 1 , 2 2 2 ~ 0./ o./ W / ^ <.1.*.%.Y $.e.~ %.#.>.Q.!.~.J.&XV.b.6 < 2 2 N N 1 4   M B m B m M 2 * 5 5 ",
"ZXJXSXI.K.K.gXVXFXpXL.;XF.< % 2 N N N =.&./ / o. . ./  .X.1.&.&.*.w.$.q.*.,.W.2X#X$X$X<Xn.0 < 2 N 2 1 2 1 1 1 m m m N 1 , 4 % w ",
"D.D.H.s.d.d.:XqXtXZ.j ` Y < N B m 1 2 V V q a Q W W W W ^ ^ ^ $.F 9 C C Z Z -.R.v.l.f.v.Y.3.i.i.8 2 2 2 M 2 1 2 N m N , C E e 5.",
"x c z l f.f.j.!.`.[ - & 6 1 B B N N N 2 < 6 a o.W  .Q o./ / / / 6 < 2 < < 6 K 2.{ } ) ` b.[.oX'.< < < 8 8 2 2 1 2 , , & A o./ r.",
"x h W >.:.l.v.>X[.:.6 < 2 m B N N N 2 < & & a o.W W  .o./ / / 5.* & < < 6 8 L o./ X.o._ z.[.>X/.; 6 < < < 2 2 2 2 < < < q / ^ r.",
"W X.^ Y 0 T T.2X<XT.K S D N B B D A V q 0 q W / ^ W W / E E e q & & < 6 6 6 9 H e e ( u ) =X$X~.p A q 8 < 2 2 2 2 9 F q E ^ W r.",
"] <.$.9 , 8 T.2X<Xc.T &.$.1 N N 0.&./ o./ o.o.o.1.^ / ^ F 8 < 6 & 6 < < 2 < 2 4 4 * & $ s 1X,X~.] &.E 9 2 2 2 2 4 9 5.6.Q Q W F.",
"] X.&.4 5 , >.<X%XV._ / ( , , < ~ Q Q / / W W W 1./ &./ G 6 , 4 < 2 2 2 1 m 1 1 , % 8 & P |.>X/.<.5.~ C 2 2 2 , , 9 5.5.4.~ W y.",
"R P ( = 5 , m.<X#Xv.] / E 6 w 6 h Q  . .Q W / %.%.~ ^ $.A 2 < < 4 < 2 2 N N M 2 < 0 X.s :.1X X|.^ / / A 8 8 N 2 4 e 5.5.5.5.W r.",
"2 2 , 6 % 6 3.}.|.T.#.&.%.%.W 1.4.Q h Q  .7.X.%.&.S < 2 2 & * & * < 2 V N 2 4 6 o H.SXFXgX!.].|.] ^ X./ 1.1.A & % A e.5./ Q W r.",
"m N 2 8 & 6 Y.1X|.W.3.%.%.<.W / o.Q Q Q | ] R R ;.Z 6 < < & $ * * # % & 8 8 6 $ @ D.FXVXsXL.1X'.] ] | ^ X.^ q & % q / / W / W r.",
"1 1 , 2 % ; c.].^.c.R ^ o.o.o.o.1.^ X.2.{ [ [ l.:.P p 7 ; u - > - - p 6 0 6 7 + X U.GXFXgXZ.).B._ ^ X.^ / Y A 6 6 q ^ W W  .W r.",
"1 2 8 8 8 8 b.#X<XC.k E W W ~ ( %.] -.c._./.~.^.^.v.].R.9XcXcXcXcXcXlX.X).B.aXxXjXzXFXVX7X+ t p X.X.X.X.%./ W E E E / / /  .W r.",
"1 , 2 8 8 6 b.@XL.k.y y  .W 7.e.,.-.:./.<X2X,X2X>X^.1XC.9XSXCXCXkXCXBX4X`.B.aXZXHXCXSXSXaXX o 7 1.X.<./ <.1.&.1.o./ / /  ./ W 1.",
"4 < V < < & Q.:XK.d.y v x c W / ,.:.T.Y._.=X].Q.].].[.Z.qXCXCXNXAXCXfX4XZ.G.dXHXZXJXSXCXiXX - * ^ W E W %./ 1.%.&./ / / /  .E F.",
"E E &.V 2 8 9XmXbXbXjXzXeX..o.3.R.{.Q.c.>.c.m.2.2.2.X.{ ..k.h.h.d.h.h.g.` l s.A.s.eXNXZXaX+ * % 0 7 0 Y / / %./ / ^ / W  .Q W F.",
"/ / *.2 2 < tXFXbXDXZXPXaXz ) :.|.oX[.z.P I ^ W $.^ W 1.X.f j z i y j ` } z x x b wXZXLXyXo * 4 % % 6 E 1.&./ / / ^ o.^ ^ Q Q y.",
"/ / q.2 1 6 rXGXAXAXZXzXaXs.g.` }..XE.O.| W ~ 6.0.0.0.&.1.X.| ..x Q ] ] ] ] | X.i wXSXLXyX& < 3 < < < E 1.1./ ^ / / 1./ Q / E r.",
"W I 1.F 6.H F.H.S.hXZXSXgXg.V.v.z.m.m...| Q / Q 6.H C C G ^ ^ W Q / / ^ X.^ ^ X.E .X9XqX.X# 2 2 2 < 8 L &.&.%./ ^ / o.^  ./ E r.",
"o.^ %./ w.6.| z b U.LXSXsXj.%X;X) _ .._ ..| X.X.&.Z , 2 D *.q.&.0.5.&.&.*.&.&.&.^ m.).[.W.8 Z N 2 2 8 E / &.&.1.^ ^ o.Q /  .W r.",
"X._ W / ( 6.d } y 7XJXJXdXL.*X(._ | | g _ | O.<.<.U 2 2 D *.q.w.0.5.$.*.*.0.0.&.<.E.1X].Y.6 2 , 2 < V ~ &.&./ &./ W o.Q / / Q r.",
"W X.X.1./  ...h.g.G.rXrX9Xx.x.m.X. .^ R _ _ P p U Z 2 2 V S G G ~ &.^ %.~ ~ 5./ R R.<X=X/.:.,.3.2 2 2 A L A E / ^ W o.W / / W y.",
"X.^ X.| 7.O.Z.-X-Xx._ p s s _ O.X.&.1.X. .W 0 < 8 8 2 2 2 2 N 2 / / %./ &./ &./ R x.=X$X>X<X|.oX8 1 , < 2 6 L o.^ W o.^ /  .^ y.",
"/ d _ u g k C.#X<Xv.;.X.o.X.g | %.%.&.&.1./ 9 % 2 2 N 2 2 < < < / X.X.W  .Q ~ Q { x.&X&X&X$X^.N.8 2 , < < & q o.W W o.W / o.Q y.",
"F.F.OX..h.j V.!.~.v.,.%.X.o.Q Q ! =.! E 5.H e , 4 2 M 2 1 2 6 6 I I I I W E h W P f.V.J.+X3X2X8X2 2 2 2 < 6 q ^ ^ W  .W / 7.~ y."
};
