/* XPM */
static char *_e27f5595dbe41fedbe41a8e3b9301f4BY6oYwCpdG3186t8[] = {
/* columns rows colors chars-per-pixel */
"64 64 253 2 ",
"   c #711800",
".  c #671900",
"X  c #5A2800",
"o  c #763702",
"O  c #794700",
"+  c #76560B",
"@  c #7C672E",
"#  c #744F22",
"$  c #881700",
"%  c #852800",
"&  c #853800",
"*  c #963800",
"=  c #A63E00",
"-  c #8C4200",
";  c #884C00",
":  c #9B4400",
">  c #974900",
",  c #875604",
"<  c #9B5601",
"1  c #905A17",
"2  c #AA4400",
"3  c #AC4D00",
"4  c #A34700",
"5  c #B44C00",
"6  c #BC4C00",
"7  c #B54300",
"8  c #AD5501",
"9  c #AD5B02",
"0  c #A75503",
"q  c #B45400",
"w  c #BC5400",
"e  c #BC5A00",
"r  c #B45B02",
"t  c #AC5A13",
"y  c #87651A",
"u  c #92681A",
"i  c #AB6806",
"p  c #BC6301",
"a  c #BC6A02",
"s  c #B9650A",
"d  c #BA740A",
"f  c #A96715",
"g  c #BC6B1B",
"h  c #B76815",
"j  c #B97816",
"k  c #AC7618",
"l  c #96782A",
"z  c #91712C",
"x  c #B97926",
"c  c #B67C32",
"v  c #A7792C",
"b  c #C04B00",
"n  c #C35401",
"m  c #C35B01",
"M  c #CC5D00",
"N  c #C75A05",
"B  c #D55C00",
"V  c #C36301",
"C  c #CC6402",
"Z  c #C36B03",
"A  c #CC6D02",
"S  c #C6670B",
"D  c #D36401",
"F  c #D46C01",
"G  c #DB6D01",
"H  c #D86907",
"J  c #CC7502",
"K  c #CD7B03",
"L  c #C57C0C",
"P  c #CB7C0B",
"I  c #C67607",
"U  c #D47402",
"Y  c #DC7402",
"T  c #D47C02",
"R  c #DB7B02",
"E  c #D4740B",
"W  c #DD750A",
"Q  c #D47C0A",
"!  c #DB7B0B",
"~  c #C76913",
"^  c #D76C19",
"/  c #CC7414",
"(  c #CC7C13",
")  c #C67818",
"_  c #D47513",
"`  c #DC7513",
"'  c #D47C13",
"]  c #DB7B13",
"[  c #DB7C1B",
"{  c #D6771A",
"}  c #E36D02",
"|  c #E96903",
" . c #F16E02",
".. c #E37401",
"X. c #EB7501",
"o. c #E37B02",
"O. c #EC7B02",
"+. c #E37509",
"@. c #EC750A",
"#. c #E47C0B",
"$. c #EC7C0B",
"%. c #F37403",
"&. c #F37C02",
"*. c #FA7D03",
"=. c #F3740C",
"-. c #F27D0A",
";. c #FA7D0B",
":. c #FA7506",
">. c #E47613",
",. c #E47C13",
"<. c #EC7C13",
"1. c #E47B1B",
"2. c #EA7818",
"3. c #F37D13",
"4. c #F97A15",
"5. c #C97B25",
"6. c #D77A23",
"7. c #CC7C31",
"8. c #EB7722",
"9. c #E25F00",
"0. c #BC851B",
"q. c #9C8134",
"w. c #B98727",
"e. c #A68737",
"r. c #BC8D34",
"t. c #B78935",
"y. c #BC9439",
"u. c #AF872F",
"i. c #CA840A",
"p. c #D58103",
"a. c #DB8202",
"s. c #D5820C",
"d. c #DB820B",
"f. c #D9890C",
"g. c #CC8314",
"h. c #C68418",
"j. c #D48214",
"k. c #DB8414",
"l. c #D5821A",
"z. c #DC831C",
"x. c #D88B18",
"c. c #CE9715",
"v. c #E38205",
"b. c #EC8103",
"n. c #E3820A",
"m. c #ED830B",
"M. c #EF890D",
"N. c #F38203",
"B. c #FA8204",
"V. c #F3830B",
"C. c #FA830A",
"Z. c #F6890C",
"A. c #E28213",
"S. c #EC8313",
"D. c #E4831C",
"F. c #EC831C",
"G. c #E88A18",
"H. c #F48313",
"J. c #FA8413",
"K. c #F4841B",
"L. c #F88718",
"P. c #CC8B22",
"I. c #C88728",
"U. c #D78725",
"Y. c #C8922A",
"T. c #D79828",
"R. c #CA8737",
"E. c #C49234",
"W. c #C5963B",
"Q. c #D79539",
"!. c #D58838",
"~. c #E68625",
"^. c #F68625",
"/. c #E79A39",
"(. c #EC922D",
"). c #D6A933",
"_. c #EBA62C",
"`. c #F4A636",
"'. c #E9B837",
"]. c #F7B639",
"[. c #E9A635",
"{. c #FAC43A",
"}. c #9A8D53",
"|. c #A98E47",
" X c #B39344",
".X c #B89949",
"XX c #AB9C56",
"oX c #B49B54",
"OX c #B69955",
"+X c #AE904E",
"@X c #BCA34B",
"#X c #ABA65C",
"$X c #BDAA5C",
"%X c #B7A559",
"&X c #B3B15E",
"*X c #A79E63",
"=X c #ACA564",
"-X c #A6AA65",
";X c #AAAA65",
":X c #A4AC6C",
">X c #ACAB6B",
",X c #A7A567",
"<X c #B4A664",
"1X c #B3AA64",
"2X c #B4AD6B",
"3X c #B9A867",
"4X c #B4AD71",
"5X c #B6B274",
"6X c #ADB06E",
"7X c #C39B43",
"8X c #C79945",
"9X c #D09947",
"0X c #E69C45",
"qX c #C7A44D",
"wX c #C5A556",
"eX c #D6A756",
"rX c #DAB45B",
"tX c #D4A94C",
"yX c #E8A847",
"uX c #F2A748",
"iX c #EBB645",
"pX c #FCB847",
"aX c #E8AC56",
"sX c #E6B55A",
"dX c #F9B85A",
"fX c #F5AF57",
"gX c #C6A867",
"hX c #C8B367",
"jX c #DBBB65",
"kX c #C4BA7A",
"lX c #D1AF67",
"zX c #E4BB63",
"xX c #EBBB63",
"cX c #E7B966",
"vX c #FCBD6B",
"bX c #F6BB65",
"nX c #EFBE70",
"mX c #F9C749",
"MX c #FAC754",
"NX c #FBD356",
"BX c #F1CD49",
"VX c #CAC57A",
"CX c #DFC477",
"ZX c #EAC267",
"AX c #FDC464",
"SX c #FBC46C",
"DX c #F5C668",
"FX c #FEC573",
"GX c #FCC379",
"HX c #EDC572",
"JX c #C0BA80",
"KX c #CCC686",
"LX c #D1C88F",
/* pixels */
"X 1 1 < ; , ; O O , O O O , k L s.G.$.V.;.-.F.' /.SXZXHXHXcXFXcXe.$XoXXXoXXXoX|..XlXrXrXrXrXrXaX* S E J K i.K J T Q K L k u.OX}.",
"o c c g 5.9XeXt.v R.R.t.e.u.I.g.p.M.b.-.&.;.H.[ /.DXZXZXHXZXFXzX XwXOX%X%XOX3XoXOXcXjXjXZXZXcXfXh ~.U.f.f.i.f.i.! ! p.g.P.7XgX}.",
"X - f 9XaX9Xy.u.x W.8X8X7XW.P.I R b.&.&.&.*.-.! /.AXZXZXHXDXFXsXl .X+XOXOXOXOX.XwXlXjXsXzXcXaXaXh [ d.K i.K Q Q T R K L 5. X+X@ ",
"o 1 h ~ j w..Xy.k u.u.t.y.W.P.K v.N.N.*.*.&.b.W _.AXMXzXZXxXvXrXl OXOXOXgXOXgXOXwXnXcXzXcXzXcXfXs ] K K K p.R U U d.Q K j  X+X@ ",
"o t 5.I.x k u.l r.r.t.u.t.E.U.s.R N.&.&.%.&.-.E /.AXbXsXDXDXvXeXl #X XXX<XXX<XoXwXCXjXrXsXrXrXaX~ z.s.T p.p.R U U ! T K j r.|.z ",
"o f U.U.Y.k u.tX7Xr.r.u.u.E.g.T R M.O.N.N.V.F.[ ~.dXbXcXxXnXvXwXu %X#XXX<XXX%XoX@XzXsXrXsXsXrXaXa ] U T T T Y F G U J I 0.u.e.@ ",
". 5.U.a j E.W..XW.r.W.t.r.E.g.Q D.^.F.F.F.~.~.6.Q.vXFXvXvXLXvXeXq.&X#X#X&X%X%X@XqXZXsXsXZXsXsXsXa ' T T R R o.o.o.Y U i.0.u..Xq.",
"% 7.[ Z U.Y.y.y.y.r.W.r.W.Q.g.K Z / ~ ~ S S ~ 9 4 7.!.7.9X!.7.t + e.q.l e.q.q.u.E.yXyXyXyX[.yX/.s ' U T R U o...G Y J i.d 0.qX@X",
"* / [ Q h.h.y.r.Y.r.r.W.E.I.g.I /.x 5.!.9X7.5.> < h h g h f s o f 8X9XeXeX9XeXx 5.6.{ ] U.[ 6./ p ] J U Y G ..X.+.G U P d 0.r.y.",
"% S [ Q i.0.w.w.0.Y.W.9XE.x ' P 0XsXxXvXFXvXbXf ~ U.6.6.6.6.U.8 yXbXvXvXFXvXFX/.1.^.2.3.4.<.F.,.m ` F Y o.o.X.X.+...Y U I 0.Y.Y.",
"  ~ D.] j.h.I.Y.0.Y.E.E.r.x l.d 9XxXrXrXrXaXDXi j [ E Q Q ' j.i uXvXvXnXnXbXAX/.` 3.=.=.=.@.<.,.m { F G o.....X.@.G H J I L ) j ",
"% ~ ,.W Q L c.Y.).T.I.x R.!.U.d ).zXrXZXzXrXDXd L l.U ! Y Q j.p dXSXvXbXDXMXAX(.[ 4.=.=.=.$.K.1.C 1.....O.X.X.+.@.} U U Q l.( s ",
"* ^ 2.<.! i.g.P.T.U.x w.R.R.6.i 0XrXqXrXZXrXAXk S [ Y Y Y E Q 9 dXFXDXxXHXDXAX/.] H.=.=.X.#.#.E N 8.H } O.X.X.X.+.D F F Y ] ] C ",
"% ^ >.+.! Q g.g.g.l.P.!.8X7.) 0 aXxXrXeXrXrXDXf I [ +.,.W E j.i dXvXDXZXDXZXMXQ.` <.%.%.%.$.A.E n 8.2.+.%.X.X.+.} W ..Y F ! 2.,.",
"= 6.2.<.M.x.x.x.Q P ) I.c x g 0 0XcXHXHXCXcXcX< ~ 8.2.8.8.{ U.5.vXFXFXHXDXDXAX`.] 3.=.=.4.3.$.H = 8.4.=.-.&.X.2.2.2.,.#.o.@.K.>.",
"* g h s i i i < i < - ; O ; ; & h c R.c u.c R.- : w N C N w ~ 0 uXfXfXuXMXyXpX~.W =. .| | G C 7 $ b B D ..G ..Y Y A A A F E C 6 ",
"OXoX X X Xe.e.l e.y y z z q.z X > 9 9 < > > 0 8 3 5 q e q q 8 * E E Y E W E W ..O.X.| G D H w $ B D } W U J J P P g.L ) P.U.g - ",
"2X>X2X2X5X4X2X2XJX=X*X3X3X5X3X+ Q.(.~.{ { 6.1.U.U.1.1.~.U.~.~.S F.H.V.-.C.;.;.&.-.N.-.3.<.8.1.5 =.<.S.<.A.s.j.g.h.P.Y.Y.I.I.Y.f ",
">X=X=X=X>X>X4X>X6X*XXX=X*X4X*X# ) K J A A ` ] E ! Y F U H ] ] w m.-.-.-.-.-.%.&.X.&.O.<.W ` 1.N S.$.$.#.! R P K i.P.P.P.j 0.I.h ",
"=X;X=X,X,X=X:X,X5X6X:X4X>X4X*X1 j U U ! ! A.#.o.o.o.Y o.o.,.,.m C.N.-.-.;.&.*.&.&.&.&.$.Y H ` m H.b.$.#.#.d.a.Q x.x.j.g.h.I.P.i ",
">X>X;X6X6X6X6X6X6X6X:X>X*X*XXX# P R o.R o...Y G ......o.X.@.=.b V.*.*.*.*.*.*.*.N.&.O.V.#.W >.C H.b.O.b.b.v.o.d.d.s.I g.g.P.P.d ",
",X-X-X:X>X:X:X:X-X;X;X>X=X3X*Xu l.o.#.Y ..G } ..} X.X.&.-.4.=.b &.*.&.&.%.*.*.&.&.X...O...W ` m V.O.O.O.o.O.o.o.Y ! Q Q P ( h.d ",
"6X6X6X6X-X-X-X-X#X6X<X<X$XwXOXf ] o...} G | @.%. .X. .:.%.=.4.b B.*.*.*.*.*.*.*.B.O.O.O.o.#.,.N Z.N.N.N.N.N.N.b.o.v.! d.i.P g.a ",
">X,X-X-X&X-X&X&X&XwX.X.X.X8Xt.< ] ..| @.@.@.=.=.=. .%.=. .=.4.9.*.*.*.*.*.&.%.X.O.O.o.o.Y #.A.C O.N.N.N.N.*.N.&...Y U ! Q g.i.a ",
">X=X#X#X&X&X@X@X@X@X).y.w.j 5.9 <.$.=.@.=.=.=.:.%.:. .:.=.=.4.9.B.B.*.*.*.*.&.N.O.O.o.b.o.#.! e N.N.O.N.N.B.&.O.O.o.Y R J J P a ",
"3X<X<X$X$X$X@XW.w.0.0.0.) L ( r V.&.%.X.%.=.=.%. .:.:.:.:.:.=.9.*.*.&.&.&.&.O.O.b.b.o.o.R ! ! m O.b.&.N.B.B.N.&.O.O.o.d.! Q s.I ",
"oX@X@XqXW.y.r.0.0.h.i.i.k.k.A.w B.N.&.&.*.*.:.%. .%.%.*.*.*.:.B B.B.N.N.V.V.-.O.O.b.R o.! ! [ m $.O.b.O.N.N.O.o.o.o.Y ! T T K a ",
"y..XW.W.r.Y.h.h.i.P s.i.d.W #.w O.X.&.X.X.%.%.X.%.*.&.*.*.C.C.D &.b.N.$.O...o.o.Y o.Y ! W ! _ e m.N.N.N.N.N.b.o.Y R R R Q Q Q a ",
"w.w.w.0.L L P Q ! ! d.! A.#.A.V O.b.&.&.&.%.%.&.X.&.O.&.&.N.-.M m.V.m.m.#.#.Y R #.n.! d.] ' { e o.O.O.b.b.b.o.R U T U Q Q Q _ p ",
"h.h.i.L K Q W ! o.Y #.W ! E ] e O.O.O.X.X.} X.X.X.&.b.N.V.H.S.N o.o.#.o.Y W ! ,.U ! U J E _ _ w <.N.b.V.v.v.R R U T U T Q ] ] p ",
"c.f.i.d.d.n.$.O.H.$.S.,.D.z.U.p K.3.3.3.3.4.4.K.$.J.$.$.S.^.F.C m.m.n.A.#.[ F.~.A.D.k.D.[ U.6.N F.V.V.m.v.v.R p.Q d.P s.Q [ [ V ",
"I I J J U G D D n 6 w w V V Z : V m w n M D H D F F M m N D H 5 E A C e 5 3 q e q e e w q 2 *   p V Z Z I d d 0.d d d j h j j < ",
"V E Y Y o.o.X...} G G F F A ! e % ~ 8 q E ` m A E A U U W D 2.B n ^ C w w 5 6 6 n N B b b 6 N * o t.t. X Xy.+X.X X.X.XOXoXoXXXOX",
"G S.S.S.H.m.J.V.J.-.S.m.S.A.^./ - c I.U.' ! ] D.] k.n.v.S.-.^.8.^ (.~.,.D.D.^.^.8.^.^.4.4.^.^.g z 3X3X4X2X2X2X2X3X5X3X4X2X4X5X5X",
"Y <.#.+.$.O.-.O.m.O.$.$.n.#.F.Z - t s k.A U o.G Y Y Y o.&.X.4.| n 1.,.Y R ! ,.2.3.@.;.O.@.$.2.8 z 5X=X>X=X;X;X#X=X<X<X<X1X3X,X6X",
"Y S.$.O.$.X.-.O.O.X.$.O.o.W n.m 9 h a d.T b.m.G G G o...O.%.4.| b ` #.T R R o.#.H.-.N.&.Z.J.K.9 y ,X,X=X:X;X;X;X<X<X<X3X<X#X1X&X",
"..H.$.o.-.O.O.X.&.X.O.O.o.W #.V < U.( T J Y Y F Y Y ....-.&.4.| = F T T R R v.o.V.O.&.&.B.&.-.9 y =X=X>X>X;X6X6X4X2X4X3X3X2X2X&X",
"D V.o.O.O.X.X.X.O.X.O...o.G o.e : U.x.Q T R U o.Y Y Y Y O.+.3.B 2 Q v.R a.v.v.o.$.&.&.*.B.&.H.e , =X;X2X-X-X;X;X>X>X<X>X;X;X-X;X",
"Y C.-.O.&.O.&.%.&.X.&.X.O...#.V : I.L J p.a.U U W Q R R #.#.,.N 2 _ ! T T T ! F <.-.B.*.B.&.J.S y 3X%X&X;X;X;X6X2X6X6X6X:X:X:X:X",
"G b.O.X.X.X.%.X.&.X.O.X.+...+.m 8 5.g.s.J K J E Q W W T A.Q [ q 2 { k.Q a.d.#.W <.@.&.&.*.X.J./ u $X#X#X#X;X;X-X>X>X>X>X>X:X:X:X",
"G J.O.N.&.&.%.*.%.X.X.-...o...V 0 6.l.K Q U U U Q E ! T T J ( 8 4 { k.K p.p.A.#.+.$.&.*.&.&.4.~ u XX;X,X;X;X6X-X4X>X3X<X;X=X#X#X",
"D V.X.O.X.X.X.%.&.X.X.O...} +.m * 5.l.K T T T R #.#.o.v.v.d.k.p * _ D.a.p.p.! U +.V.&.B.B.B.J.{ l >X2X:X6X6X6X2X<X3X3XwX@X@X@X@X",
"F Z.-.V.%.&.X.%.&.%.@.-.@.$.<.H * ~ U.K T J U Y ..D o.Y o.R R q 4 E p.J p.p.T A o.O.O.&.&.&.;./ l :X:X:X:X-X<X1X%XwX8X8XE.w.0.0.",
"D V.X.$...X.} X.X.X.X.3.<.<.2.S % g 6.P p.p.R #.O.X.O.O.b.o.v.V q [ d.T p.p.R R o.O.O.N.&.N.B._ q.4X4X;X2X2X3X$X8X9XW.T.x.g.i.i.",
"D L.$.O.X.X.X.%.%.@.-.3.$.2.1.5 o c u.0.h.i.L P +.} O.O.O.o.m.A q ` k.n.f.J J R R O.O.N.&.&.;.E v <XOX<X$X$XwX8Xr.I.h.( i.p.T p.",
"D H.$.$...O.@.-.X.@.@.<.>.>.^ 3 1 +X@X X).Y.P.( [ ,.H.-.O.Y m.F V ^ S J d.p.R E Y $.O.O.&.O.-.E g 8XW.8X8X7XE.E.I.I.( Q ! d.p.p.",
"G ^.L.L.H.L.;.J.J.K.J.K.^.^.~.t # }.}.q.@Xy.8XR.7.[ ~.F.H.A.^.^ ^ 6.N q P z.~.{ ,.<.-.;.N.-.K.` Z U.P.P.Y.P.I.h.P.l.j.l.k.d.Q T ",
"2 U C D M B M n b 6 5 7 2 2 =   X @ + + + , , ; ; - < 9 h s 5.h * ~ ~ 2 3 e S V / _ E J F E 1.C w U A V I a a a p p Z Z A J Z p ",
"e S H A A F S V e q q 8 3 q 8   h 7.) ) / / 6.4 z $XgXgXgXgXlX Xg { ^ H W H E r Q.iXaXyXyXyXfX(.A ! Y T R R R Y R F F F Y E U = ",
"{ ~.~.k.G.D.~.[ ~.z.x.k.U.U.9X4 [ ^.K.K.K.4.8.~ OXLXLXKXKXLXLXlX5.1.>.=.=.<.D./ aXDXZXZXsXZXSXuXk.G.m.m.M.M.Z.Z.Z.b.m.$.K.K.K.N ",
"C Y a.U T R U U Q J T K Q ( ^ * F S.$.N.$.@.^.e @XVXJXJXJXKXVXwX) +.} +.+.+.[ I yXZXjXjXzXzXDX/.Q m.o.o.v.o.N.b.m.O.o...,.S.K.C ",
"C o.o.R o.o.! ! R T a.a.p.g.6.* Y V.b.N.$.m.^.s .XVX5XJXVXKXKXwX/ #.} X.@.+.,.L yXdXzXzXZXZXSX0XE n.R o.b.b.b.b.N.$.$.o.o...S.m ",
"C Y o.Y o...o.v.R U a.K K K ) : o.N.X.-.-.V.8.s .XVXkXJXKXKXVXwX( o...O.O.#.D.' iXAXsXcXxXxXbX!.J m.v.m.M.b.N.m.b.N.V.$.@.#.S.N ",
"..&.O.O.&.N.$.m.o.R a.T K K ) * +.4.O.&.V.$.~.s 7XjXhXkXJXkXVXqXL o.Y o.o.R A.' uXdXsXxXsXbXvXQ.A v.o.v.b.o.O.O.b.O.m.$.$.$.m.N ",
"=.;.X.X.&.O.$.@.#.R a.T Q j.) * =.J.4.4.3.2.~.~ 9XCXkXkXKXKXKXhXi.d.R v.n.! D.' pXvXdXAXvXvXSX0XU m.b.b.N.b.b.b.N.b.Z.O.V.$.H.M ",
"4.J.&.%.B.C.3.3.$.o.R T d.j.5.* n D D D n w r > r.eXeXlXjXhXhX7Xd p.T Q p.Q k.P `.pXuXuX0X/.uX( U m.b.b.b.O.b.N.N.O.b.X.O.$.m.N ",
"4.;.*.B.C.*.;.@.<.#.R R K l.5.: 0.c.).T.c.i.[.i g I.R.R.R.7.!.) ].pX].].].pX].(.j.D.k.' [ E z.r Y b.b.b.N.b.N.N.N.O.-.O.O.+.$.M ",
"J.;.*.B.*.B.H.4.O.+.o.a.T k.) - '.BXNXNXmXiXNXc.d [ { 6.` { 8.' pXmXMXmXdXMXMX`.D.G.F.S.K.2.^.D U m.b.b.M.N.Z.Z.N.&.N.&.V.O.H.M ",
"C.&.N.&.&.&.&.N.O.o.R a.T s.) & _.{.{.{.{.'.mXc.I ! Q p.R T a.K pXMXmXmXmXMXmX`.! S.-.&.J.$.L.D G m.m.b.N.O.N.B.N.O.b.O.$.O.H.M ",
"Z.B.N.N.N.B.N.-.C.b.o.o.T k.( - '.{.{.].'.'.{.c.T v.a.p.p.T a.K mXmXMXMXMXMXMX(.! C.;.:.C.$.J.M ..M.M.B.N.b.N.B.B.N.V.&.C.@.J.D ",
"b.b.b.b.&.N.N.N.V.b.b.a.T k.) & ].{.{.{.{.'.BXc.R b.a.p.p.T a.i.pXMXBXMXMXNXMX(.n.J.*.*.C.;.J.B D m.-.O.b.O.N.N.N.O.&.X.@.X.H.M ",
"M.m.b.b.b.V.J.L.Z.V.M.M.A.G.6.: _.{.{.{.{.{.BXc.R -.o.a.a.p.v.p.].pXBXBXBXMXmX(.o.N.*.:.;.%.H.D Y Z.N.b.&.O.B.N.B.&.N.-.-.$.3.M ",
"G.G.n.M.C.m.<.2.>.2.<.,.] 6.7.: _.mXmXpXmXmXNXT.W 3.! ! ] ' k.K mXmXBXBXBXmX].d.o.C.*.:.C.;.L.F ..L.Z.V.Z.&.C.B.C.C.C.J.H.3.3.B ",
"V C F U F M b 7 7 7 2 2 = 5 t % g.].].].iX'.BXY.` 3.,.] ] ] l.K ].{.{.'.).).c.a ..*.:.:.:.=.L.C M Y G Y X...O.X.X...X.} X.} } 6 "
};
