/* XPM */
static char *_0996_8bc2bffb607f52f6800ca6762dea5ac528bd4aa61db716a80ddeff6c3c65b69f_0[] = {
/* columns rows colors chars-per-pixel */
"64 64 256 2 ",
"   c None",
".  c #211614",
"X  c #2A1D15",
"o  c #2A1E18",
"O  c #231918",
"+  c #2E211A",
"@  c #332418",
"#  c #3B2A1A",
"$  c #312622",
"%  c #3A2C22",
"&  c #3B312E",
"*  c #422E1A",
"=  c #4B361C",
"-  c #49341C",
";  c #553D1F",
":  c #52371D",
">  c #633E1D",
",  c #453323",
"<  c #4D3A24",
"1  c #44362D",
"2  c #4B3A29",
"3  c #473727",
"4  c #503D28",
"5  c #413733",
"6  c #463931",
"7  c #463D3B",
"8  c #483F3D",
"9  c #4C3E32",
"0  c #5C411D",
"q  c #6B4219",
"w  c #61451D",
"e  c #714418",
"r  c #714E1F",
"t  c #5C4321",
"y  c #4A403D",
"u  c #544538",
"i  c #624523",
"p  c #654922",
"a  c #6C4E24",
"s  c #664C28",
"d  c #765524",
"f  c #785724",
"g  c #7D5B26",
"h  c #765728",
"j  c #634D38",
"k  c #4E4543",
"l  c #504744",
"z  c #524945",
"x  c #554C4A",
"c  c #5B4F44",
"v  c #5A514E",
"b  c #5D5553",
"n  c #5F5855",
"m  c #635346",
"M  c #625956",
"N  c #645D5A",
"B  c #67605E",
"V  c #68615E",
"C  c #6C6563",
"Z  c #6F6866",
"A  c #736A66",
"S  c #746D6C",
"D  c #78716F",
"F  c #76706E",
"G  c #7B7473",
"H  c #7F7977",
"J  c #7E7878",
"K  c #834F19",
"L  c #8A5119",
"P  c #A7621A",
"I  c #825E26",
"U  c #876125",
"Y  c #8B6426",
"T  c #866228",
"R  c #8F682A",
"E  c #926A29",
"W  c #9E722B",
"Q  c #A2762D",
"!  c #A6792D",
"~  c #AC7D2E",
"^  c #BA7724",
"/  c #DA7F1F",
"(  c #C7741D",
")  c #C27420",
"_  c #827C7B",
"`  c #B3822F",
"'  c #B58531",
"]  c #BC8932",
"[  c #DF8623",
"{  c #C48F33",
"}  c #C69134",
"|  c #CB9435",
" . c #CE983A",
".. c #D29A37",
"X. c #D89E38",
"o. c #ED8C23",
"O. c #E58621",
"+. c #F18D23",
"@. c #EE952A",
"#. c #F29629",
"$. c #F29D2E",
"%. c #F29226",
"&. c #DDA239",
"*. c #E2A53A",
"=. c #E5A93C",
"-. c #EBAD3C",
";. c #EFA636",
":. c #F2A433",
">. c #F4AD39",
",. c #F3A937",
"<. c #F5B43E",
"1. c #F8B63F",
"2. c #FAB83F",
"3. c #B48C48",
"4. c #DDA643",
"5. c #F4B645",
"6. c #F6BA4E",
"7. c #F6BC52",
"8. c #CBA562",
"9. c #DEB56C",
"0. c #F7C05E",
"q. c #F7C66D",
"w. c #F8CD7F",
"e. c #8A8583",
"r. c #8D8989",
"t. c #8E8886",
"y. c #938E8C",
"u. c #95908F",
"i. c #979291",
"p. c #9A9594",
"a. c #9F9A98",
"s. c #A29D9C",
"d. c #A4A09E",
"f. c #A7A2A1",
"g. c #A9A5A5",
"h. c #ADAAA9",
"j. c #ACA8A7",
"k. c #B2AEAE",
"l. c #B4B0AF",
"z. c #B2AFB0",
"x. c #B6B2B1",
"c. c #B9B6B5",
"v. c #BBB8B7",
"b. c #BEBBBA",
"n. c #C1BEBE",
"m. c #EEC780",
"M. c #F9D28C",
"N. c #FBD99B",
"B. c #F3CC86",
"V. c #C3C0BF",
"C. c #FBE0AF",
"Z. c #FCE4B8",
"A. c #C5C2C2",
"S. c #C9C6C5",
"D. c #CAC8C7",
"F. c #CDCBCA",
"G. c #D1CFCE",
"H. c #D2D0CF",
"J. c #D1CFD0",
"K. c #D5D3D3",
"L. c #D9D7D7",
"P. c gainsboro",
"I. c #D9D8D7",
"U. c #E0DEDE",
"Y. c #FDEBCB",
"T. c #E1E0DF",
"R. c #FEEED1",
"E. c #FDF0D8",
"W. c #DFE0E0",
"Q. c #E3E3E2",
"!. c #E8E7E6",
"~. c #ECECEB",
"^. c gray91",
"/. c #FFF9EE",
"(. c #FFF8E7",
"). c #F4F3F3",
"_. c #FEFEFE",
"`. c #FEFBF4",
"'. c black",
"]. c black",
"[. c black",
"{. c black",
"}. c black",
"|. c black",
" X c black",
".X c black",
"XX c black",
"oX c black",
"OX c black",
"+X c black",
"@X c black",
"#X c black",
"$X c black",
"%X c black",
"&X c black",
"*X c black",
"=X c black",
"-X c black",
";X c black",
":X c black",
">X c black",
",X c black",
"<X c black",
"1X c black",
"2X c black",
"3X c black",
"4X c black",
"5X c black",
"6X c black",
"7X c black",
"8X c black",
"9X c black",
"0X c black",
"qX c black",
"wX c black",
"eX c black",
"rX c black",
"tX c black",
"yX c black",
"uX c black",
"iX c black",
"pX c black",
"aX c black",
"sX c black",
"dX c black",
"fX c black",
"gX c black",
"hX c black",
"jX c black",
"kX c black",
"lX c black",
"zX c black",
"xX c black",
"cX c black",
"vX c black",
"bX c black",
"nX c black",
"mX c black",
"MX c black",
"NX c black",
"BX c black",
"VX c black",
"CX c black",
"ZX c black",
"AX c black",
"SX c black",
"DX c black",
"FX c black",
"GX c black",
"HX c black",
"JX c black",
"KX c black",
"LX c black",
"PX c black",
"IX c black",
"UX c black",
/* pixels */
"                                                                                                                                ",
"                                                                                                                                ",
"                                                                                                                                ",
"                                                                                                                                ",
"                                                                                                                                ",
"                                                                                                                                ",
"                                                                                                                                ",
"                                                                                                                                ",
"                                                                                                                                ",
"                                                                                                                                ",
"                                                                                                                                ",
"                                                                                                              W.F.b.A.Q.        ",
"                                                                                                            K.M x x l b S.      ",
"                                                                                                      ~.S.f.y.A s.P.!.G N !.    ",
"                                                                                                    _.a.k b N C x N Q.P.k V.    ",
"                                                                                      Q.D.x.j.a.a.a.s.i.h.P.).`.Q.C A ^.x h.    ",
"                                                                                Q.l.G x y 8 k x b n n b l k S A._.F.7 F.S k.    ",
"                                                                      ~.K.x.p.S z l H x.L.!.~.).).^.^.^.P.v.G y v.).b g.!.~.    ",
"                                                                  H.u.v & % + G v.Q._._._._._.).Q.W.P.P.)._._.G G _.N e.        ",
"                                                              Q.y.6 . X g ~ u !._._._._._._._.).).).Q.P.!._._.y.A _._ s.        ",
"                                                      !.F.n.h.b O O @ R | a y._._._.).s._ U._._._.).W.P.^._._.N y.  !.~.        ",
"                                              U.b.i.S x 9 4 < - - : = 0 - + r.Q._._.x.s d t._._._.^.P.W.)._.A.7 F.              ",
"                                        ).n.J z 2 w Y ~  .4.*.*.*.-.=.&.| Q t u b.L.m } ! _ _._._.W.P.~._.).C G ).              ",
"                                      L.G 3 d 3.9.B.N.Z.Y.E.N.<.<.<.<.5.1.5.=.E 1 z Q <.h h._._.).W.Q._._.f.k G.                ",
"                                    v.k p 8.Z.(.`._._._._.E.q.<.<.<.<.<.<.<.<.<.Q # ~ *.j P._._._.).)._.K.y f.                  ",
"                                  x.6 Y m./._._._._./.Y.M.6.<.<.<.<.<.<.<.<.<.<.<.! = I A _._._._._._.).N G ).                  ",
"                                v.6 E 5.Y._.`.E.C.w.0.5.<.<.<.<.<.<.<.<.<.<.<.<.<.<.R + d._._._._._._.u.x P.                    ",
"                              L.z I <.5.w.M.q.6.<.<.<.<.<.<.<.<.<.<.<.<.<.<.<.<.<.<.=.; i._._._._._.D.8 c.                      ",
"                            _.J w -.<.<.<.<.<.<.<.<.<.<.<.<.<.<.<.<.<.<.<.<.<.<.<.<.2.W x )._._._.).N 3.                        ",
"                            A.2 } 2.<.<.<.<.<.<.<.<.<.<.<.<.<.<.<.<.<.<.<.<.<.<.<.<.<...1 L._._._.f.x W.                        ",
"                          U.C f <.<.<.<.<.<.<.<.<.<.<.<.<.<.<.<.<.<.<.<.<.<.<.<.<.<.1.&.< F._._.~.x s.                          ",
"                        v.z o ] 1.<.<.<.1.1.1.1.<.<.<.<.<.<.<.<.<.<.<.<.<.<.<.<.<.<.<.&.2 G._._.z.x ^.                          ",
"                      c.y b < *.<.<.<.&.R T Y ~ X.<.<.<.<.<.<.<.<.<.<.<.<.<.<.<.<.<.1.' y !._._.Z e.                            ",
"                    K.k p.h.t -.<.<.2.' o k A z , T -.<.<.<.<.<.<.<.<.<.<.<.<.<.1.-.E * 1 U._.^.l v.                            ",
"                  ).Z A _.g.p -.-.| X.-.T 1 V S k o ' <.<.<.<.<.<.<.<.<.<.<.<.-.X.U = W 2 G._.A.l P.                            ",
"                  l.k P._.a.t <.| # # ' <.{ R f h W -.<.<.<.<.<.<.<.<.<.<.5.} p ; a  .Q v ~._.i.C ).                            ",
"                ^.M i._.F.y - =.-.~ g } <.<.1.1.} g T *.<.<.<.<.<.<.<.<.<.<.X.` ..<.} < c._._.N y.                              ",
"              Q.S N ~.P.c a *  .5.2.1.1.<.<.<.<.! * 4 ..1.<.<.<.<.<.<.<.<.<.<.2.5.' < y._._.P.y n.                              ",
"            n.b N P.).A E ..# W 1.<.<.<.<.<.<.<.<.=.-.<.<.<.<.<.<.<.<.<.<.<.<.| f # i._._._.k.x Q.                              ",
"        ~.i.7 _ ~._.j.a *.T $ i -.<.<.<.<.<.<.<.<.1.<.<.<.<.<.<.<.<.<.<.<.-.g @ O G _._._._.S G                                 ",
"      I.Z x c.~._.).M ` E M k.1 ~ 2.<.<.<.<.<.<.5.<.<.<.<.<.<.<.<.<.<.<.5.-.T X B ~._._._.U.y x.                                ",
"    I.N V U.~.P.~.).v w c I._.p.< ] <.<.<.,.,.,.>.<.<.<.<.<.<.<.<.>.,.$.@.W # B !._._._._.s.v !.                                ",
"    _ n ~.).P.P.)._.v.r.K._._._.y., ~ :.#.%.%.o.+.@.$.:.:.:.:.$.#.%.o.) q % _ ~._._._._.~.v p.                                  ",
"  I.z n._.Q.P.P.)._._._._._._._._.s.6 r ^ [ o.+.+.+.+.o.o.O.O./ ( P e % N v._._._._._._.s.z P.                                  ",
"  I.k A._.W.P.P.~._._._._._._._._._.F.Z 6 : e L L L K e > > i j m V r.S.)._._._._._._.K.8 d.                                    ",
"  ).G Z ).~.W.P.W.~.)._._._._._._._._._.P.l.r.G F S G r.p.z.F.Q.).`._._._._._._._._.P.v S ).                                    ",
"    L.v J Q.).~.W.W.P.Q.).).)._._._._._._._._._._._._._._._._._._._._._._._._._._.n.k C U.                                      ",
"      J.C x a.Q.).).~.!.Q.Q.Q.W.W.W.!._._._._._._._._.^.K.F.F.D.L.~._._._._.^.n.G 7 e.^.                                        ",
"        ~.f.M l B u.v.L.Q.~.~.~.~.~.~.~.Q.L.n.f.y.G N x l x x x l x N Z Z N x k F A.                                            ",
"            ~.A.i.C z k k x v v v x b x l l x M S e.f.v.K.Q.U.U.F.l.a.i.u.a.v.I._.                                              ",
"                  ).Q.D.v.f.s.a.s.s.f.x.n.F.Q.).                                                                                ",
"                                                                                                                                ",
"                                                                                                                                ",
"                                                                                                                                ",
"                                                                                                                                ",
"                                                                                                                                ",
"                                                                                                                                ",
"                                                                                                                                ",
"                                                                                                                                ",
"                                                                                                                                ",
"                                                                                                                                ",
"                                                                                                                                ",
"                                                                                                                                ",
"                                                                                                                                "
};
