/* XPM */
static char *_0996_8bc2bffb607f52f6800ca6762dea5ac528bd4aa61db716a80ddeff6c3c65b69f_1[] = {
/* columns rows colors chars-per-pixel */
"64 64 256 2 ",
"   c None",
".  c #1E1412",
"X  c #231815",
"o  c #271D1B",
"O  c #271B16",
"+  c #2E211A",
"@  c #3C2B1A",
"#  c #332419",
"$  c #2D2321",
"%  c #342824",
"&  c #312726",
"*  c #3B312E",
"=  c #3E3534",
"-  c #402E1B",
";  c #45311C",
":  c #49351D",
">  c #4E381D",
",  c #54371A",
"<  c #533C1E",
"1  c #5A3C1C",
"2  c #643D17",
"3  c #43362C",
"4  c #4A3A29",
"5  c #493826",
"6  c #553B20",
"7  c #513E2A",
"8  c #453933",
"9  c #463C3A",
"0  c #483F3C",
"q  c #4A3B30",
"w  c #5D421E",
"e  c #67431B",
"r  c #7C4918",
"t  c #714418",
"y  c #5B4221",
"u  c #54402A",
"i  c #5A412C",
"p  c #4C423E",
"a  c #4F4032",
"s  c #54463A",
"d  c #544230",
"f  c #654922",
"g  c #6A4D22",
"h  c #624C2F",
"j  c #6F5023",
"k  c #715224",
"l  c #795723",
"z  c #7C5924",
"x  c #675033",
"c  c #4E4542",
"v  c #504745",
"b  c #524946",
"n  c #544C4A",
"m  c #5A4F47",
"M  c #59514E",
"N  c #5C5452",
"B  c #615143",
"V  c #635548",
"C  c #615957",
"Z  c #655D5B",
"A  c #6A615C",
"S  c #6B6462",
"D  c #6F6866",
"F  c #736C6B",
"G  c #706967",
"H  c #77706E",
"J  c #7B7573",
"K  c #7F7877",
"L  c #7E7879",
"P  c #8E5419",
"I  c #AB671E",
"U  c #B56A1B",
"Y  c #825C24",
"T  c #8A6529",
"R  c #8D6628",
"E  c #956D2B",
"W  c #966C29",
"Q  c #9C722C",
"!  c #A6792C",
"~  c #AC7E30",
"^  c #CC771E",
"/  c #C67D25",
"(  c #827C7A",
")  c #B0802F",
"_  c #B58431",
"`  c #BD8A32",
"'  c #DD8221",
"]  c #DE952F",
"[  c #C28E33",
"{  c #C69134",
"}  c #CB9535",
"|  c #C9953A",
" . c #D29A37",
".. c #D59C38",
"X. c #D89E38",
"o. c #D09734",
"O. c #E38622",
"+. c #ED8C23",
"@. c #E78822",
"#. c #F18D23",
"$. c #EF9227",
"%. c #F19125",
"&. c #F29C2D",
"*. c #F29629",
"=. c #F29F30",
"-. c #DDA239",
";. c #E1A53A",
":. c #E6A93B",
">. c #EBAD3C",
",. c #F3A533",
"<. c #F4AC39",
"1. c #F3AA37",
"2. c #EFB03D",
"3. c #F5B43E",
"4. c #F8B63F",
"5. c #AD8749",
"6. c #87817F",
"7. c #D8A345",
"8. c #CAA25E",
"9. c #F6B746",
"0. c #F6BD56",
"q. c #D7B271",
"w. c #F7C365",
"e. c #EFC579",
"r. c #F8CB79",
"t. c #868080",
"y. c #898382",
"u. c #8F8986",
"i. c #8E8989",
"p. c #928C8B",
"a. c #969190",
"s. c #9A9593",
"d. c #9D9897",
"f. c #9F9A99",
"g. c #A19C9B",
"h. c #A4A09F",
"j. c #A6A2A1",
"k. c #A9A5A4",
"l. c #ACA8A7",
"z. c #AEAAA9",
"x. c #B1ADAC",
"c. c #B4B0AF",
"v. c #B5B2B1",
"b. c #B9B6B5",
"n. c #BDBAB9",
"m. c #BBB8B7",
"M. c #C0BEBD",
"N. c #EFCC8F",
"B. c #F9D189",
"V. c #C3C0BF",
"C. c #FBDEA9",
"Z. c #FCE4B8",
"A. c #C5C2C2",
"S. c #C8C6C5",
"D. c #CAC8C7",
"F. c #CDCBCA",
"G. c #D1CFCE",
"H. c #D4D2D2",
"J. c #D9D7D6",
"K. c #D8D7D8",
"L. c #DCDCDB",
"P. c #E0DEDF",
"I. c #FCE8C2",
"U. c #FDEFD6",
"Y. c #FEF1D8",
"T. c #DFE0E0",
"R. c #E4E3E3",
"E. c #E8E7E7",
"W. c #EDECEC",
"Q. c gray91",
"!. c #F0EFEF",
"~. c #FFF9EA",
"^. c #FAF3E8",
"/. c #F3F3F3",
"(. c #F8F7F7",
"). c #FEFEFE",
"_. c #FEFAF2",
"`. c black",
"'. c black",
"]. c black",
"[. c black",
"{. c black",
"}. c black",
"|. c black",
" X c black",
".X c black",
"XX c black",
"oX c black",
"OX c black",
"+X c black",
"@X c black",
"#X c black",
"$X c black",
"%X c black",
"&X c black",
"*X c black",
"=X c black",
"-X c black",
";X c black",
":X c black",
">X c black",
",X c black",
"<X c black",
"1X c black",
"2X c black",
"3X c black",
"4X c black",
"5X c black",
"6X c black",
"7X c black",
"8X c black",
"9X c black",
"0X c black",
"qX c black",
"wX c black",
"eX c black",
"rX c black",
"tX c black",
"yX c black",
"uX c black",
"iX c black",
"pX c black",
"aX c black",
"sX c black",
"dX c black",
"fX c black",
"gX c black",
"hX c black",
"jX c black",
"kX c black",
"lX c black",
"zX c black",
"xX c black",
"cX c black",
"vX c black",
"bX c black",
"nX c black",
"mX c black",
"MX c black",
"NX c black",
"BX c black",
"VX c black",
"CX c black",
"ZX c black",
"AX c black",
"SX c black",
"DX c black",
"FX c black",
"GX c black",
"HX c black",
"JX c black",
"KX c black",
"LX c black",
"PX c black",
"IX c black",
"UX c black",
/* pixels */
"                                                                                                                                ",
"                                                                                                                                ",
"                                                                                                                                ",
"                                                                                                                                ",
"                                                                                                                                ",
"                                                                                                                                ",
"                                                                                                                                ",
"                                                                                                                                ",
"                                                                                                                                ",
"                                                                                                                                ",
"                                                                                                                  W.W./.        ",
"                                                                                                              E.y.Z Z Z g./.    ",
"                                                                                                            !.R.g.x.n.g.b d.    ",
"                                                                                                        m.J N N N J G.).j.N Q.  ",
"                                                                                                      ).x.y.k.c.x.J n L.G.b H.  ",
"                                                                                      (.K.M.x.g.d.d.d.f.k.F.W.).  /.S p.J.n G.  ",
"                                                                                  L.j.S c 0 M Z S S A Z M 9 c ( G.  g.A Q.v.W.  ",
"                                                                        R.D.z.p.D b M i.M.L./.).)././.!.W.K.x.Z M R.A.n R.      ",
"                                                                  !.n.( v & $ D g.D.!.).).).).(.Q.T.L.L.T.(.).Q.b c.J.C R.      ",
"                                                                D.G % X O w 3 n.).).)./.(.).).).(./.!.T.L./.).(.N j.(.G.        ",
"                                                      !.R.F.V.a.* X o - ! ` u F.).).z.m p.(.).).).).W.L.L.(.).G.v F.            ",
"                                              Q.A.j.L C s q 4 @ - ; @ ; < @ N Q.).R.x ~ h H.).).).(.T.L.Q.).).K J               ",
"                                          A.( M 4 < l Q | 7.-.-.-.;.-...[ Q y N D.i.T :.x K.).).).W.L.T.(.).A.c F.              ",
"                                      H.J 4 k 5.q.N.C.Z.U.^.Z.9.3.4.3.4.4.9.-.z * u ;.} V W.).).).Q.L./.).Q.N a.                ",
"                                    v.p g 8.Z.~.).).).).).Y.r.3.3.3.3.3.3.3.3.3.E ; _ ~ J ).).).).(./.).(.H S Q.                ",
"                                  z.3 W e.~.).).).).~.I.B.9.3.9.3.3.3.3.3.3.3.3.3.E ; y k.).).).).).).).d.c G.                  ",
"                                v.3 Q 9.Z.)._.U.C.r.0.9.3.3.3.3.3.3.3.3.3.3.3.3.3.<.k # F.).).).).).).A.9 v.                    ",
"                              G.p W 3.3.w.r.w.9.3.3.3.9.3.3.3.3.3.3.3.3.3.3.3.3.3.9...; z.).).).).).R.n p.                      ",
"                            /.G g >.3.3.3.3.3.3.3.3.3.3.3.3.3.3.3.3.3.3.3.3.3.3.3.3.3.Y Z (.).).).).J S W.                      ",
"                            v.5  .4.3.3.3.3.3.3.3.3.3.3.3.3.3.3.3.3.3.3.3.3.3.3.3.3.9._ 9 R.).).).n.c F.                        ",
"                          R.C T 4.3.3.3.3.3.3.3.3.3.3.3.3.3.3.3.3.3.3.3.3.3.3.3.:.} 3.o.3 J.).)./.C p.                          ",
"                        A.N @ o.4.3.3.3.4.4.4.3.3.3.3.3.3.3.3.3.3.3.3.3.3.3.3.>.g @ Q { 3 P.).).m.b J.                          ",
"                      b.c 9 w >.3.3.9.;._ ~ ` -.3.4.3.3.3.3.3.3.3.3.3.3.3.3.3._ : T f Q n !.).).F y.                            ",
"                    A.p a.6.k 3.3.3.4.E O 9 s 6 l { 3.3.3.3.3.3.3.3.3.3.3.3.3.k T _ y e L ).).E.n M.                            ",
"                  R.C K (.L l 3.3.>.3.} 6 n p.J = @ o.4.3.3.3.3.3.3.3.3.3.>.W >  .Q @ @ b.).).n.N E.                            ",
"                  f.N Q.).L l 3.} < j ..-.T y 7 4 g ;.4.3.3.3.3.3.3.3.9.4.Q : ` 9.g . n W.).).y.(                               ",
"                G.v v.).).H g 3.-.g : ) 4.4.>.:.o.~ ` >.3.3.3.3.3.3.3.3.3.}  .9.[ # O k.).).!.M z.                              ",
"              F.M K (.).H.* > >.3.3.:.3.3.3.3.4.! o @ { 4.3.3.3.3.3.3.3.3.4.4.>.f . A /.).).A.b L.                              ",
"          /.g.c J !.).).( w ; { 4.3.3.3.3.3.3.3.:._ [ >.3.3.3.3.3.3.3.3.3.3.<.T X = H.).).).( H                                 ",
"        H.F p j.(.).).P.s [ 6 z 3.3.3.3.3.3.3.3.3.4.9.3.3.3.3.3.3.3.3.3.3.3.{ + $ x.).).).R.c x.                                ",
"      m.b D G./.).).).c.g X.; @ } 4.3.3.3.3.3.3.9.3.3.3.3.3.4.4.3.3.3.3.3.3.R + s.).).).).j.n R.                                ",
"    z.0 s.W.R.L.(.).).a.T Q S F < ..3.3.1.,.1.1.<.3.3.3.3.3.4.4.3.1.,.&.] l % p.(.).).)./.M a.                                  ",
"  F.0 h.).Q.L.R.).).).z.: 7 n./.F < [ ,.%.+.#.+.+.*.&.,.,.,.,.&.*.%.O.I , 9 z.).).).).).l.v L.                                  ",
"  p.S (.!.L.L.R.).).).W.f.b.).).!.6.5 z / O.+.#.#.+.+.@.O.O.^ ^ U P 1 3 ( L.).).).).).Q.n d.                                    ",
"  6.J ).W.L.L.T.).).).).).).).).).).n.S 4 < t r r r t 2 1 6 i B Z ( k.L.).).).).).).).( Z R.                                    ",
"  b.9 G.(.T.L.T.Q./.).).).).).).).).).(.K.z.t.F H F ( a.k.V.K.W.(.).).).).).).).).(.a.c D.                                      ",
"  /.L b S.)./.T.L.L.T.W.(.(.(.).).).).).).).).).).).).).).).).).).).).).).).).).R.K n n.                                        ",
"    Q.t.9 t.H.(.(.!.R.R.T.T.T.T.T.R.(.).).).).).).).W.L.F.F.F.F.E.(.).).)./.H.a.b D H.                                          ",
"      (.m.S c C p.n.J.R.W.!.W.W.W./.!.W.L.D.x.a.( A M c c c p p b C D D S M b S z.W.                                            ",
"          (.F.g.F M v b N Z A A Z C M b v v C G 6.g.m.D.H.H.H.F.m.g.a.a.s.x.G./.                                                ",
"                  R.F.n.k.g.f.f.g.g.k.m.S.L.W.                                                                                  ",
"                                                                                                                                ",
"                                                                                                                                ",
"                                                                                                                                ",
"                                                                                                                                ",
"                                                                                                                                ",
"                                                                                                                                ",
"                                                                                                                                ",
"                                                                                                                                ",
"                                                                                                                                ",
"                                                                                                                                ",
"                                                                                                                                ",
"                                                                                                                                ",
"                                                                                                                                "
};
