/* XPM */
static char *result[] = {
/* columns rows colors chars-per-pixel */
"64 64 204 2 ",
"   c #1D1B1D",
".  c #1C171C",
"X  c #211C1A",
"o  c #2C1B1D",
"O  c #1E231C",
"+  c #36291A",
"@  c #3E3019",
"#  c #352615",
"$  c #241E21",
"%  c #341F21",
"&  c #212121",
"*  c #2A2425",
"=  c #2E2D2D",
"-  c #2C2728",
";  c #312524",
":  c #332924",
">  c #392B2D",
",  c #322C2E",
"<  c #3D2D32",
"1  c #302F30",
"2  c #333232",
"3  c #3A393A",
"4  c #393637",
"5  c #402F19",
"6  c #4B3418",
"7  c #5B3E1A",
"8  c #613E1E",
"9  c #492B2D",
"0  c #523E2C",
"q  c #442F34",
"w  c #443436",
"e  c #44353A",
"r  c #49383B",
"t  c #5B3C3C",
"y  c #473825",
"u  c #5C431E",
"i  c #76561D",
"p  c #5C4628",
"a  c #4A4A3F",
"s  c #6B4A29",
"d  c #77562A",
"f  c #765535",
"g  c #6E4C33",
"h  c #4C3D41",
"j  c #643E41",
"k  c #444344",
"l  c #4E4345",
"z  c #4C494B",
"x  c #584346",
"c  c #5F574F",
"v  c #5F5D5E",
"b  c #565556",
"n  c #634344",
"m  c #6A4748",
"M  c #734746",
"N  c #694B55",
"B  c #754F53",
"V  c #6D535B",
"C  c #695055",
"Z  c #755552",
"A  c #7F584A",
"S  c #7C605C",
"D  c #686565",
"F  c #6B6A6A",
"G  c #706C6C",
"H  c #716F70",
"J  c #757373",
"K  c #797675",
"L  c #805C2F",
"P  c #816128",
"I  c #966A38",
"U  c #876331",
"Y  c #B37A2F",
"T  c #A06D33",
"R  c #A57639",
"E  c #B27B30",
"W  c #A57026",
"Q  c #89504F",
"!  c #91594F",
"~  c #8A5855",
"^  c #955A59",
"/  c #A45F5E",
"(  c #8A6149",
")  c #956D44",
"_  c #8E6459",
"`  c #995E61",
"'  c #9B6363",
"]  c #966562",
"[  c #80736A",
"{  c #AE696C",
"}  c #A76667",
"|  c #B5706E",
" . c #B97566",
".. c #A56870",
"X. c #F46D4F",
"o. c #F46E51",
"O. c #F57255",
"+. c #F3755D",
"@. c #CB777C",
"#. c #F27C66",
"$. c #F57C6B",
"%. c #F47764",
"&. c #B98435",
"*. c #AB8136",
"=. c #C18932",
"-. c #ECAB3D",
";. c #E9A53B",
":. c #F1AC3D",
">. c #FCAF3E",
",. c #FBB03E",
"<. c #F6B33D",
"1. c #BE8C40",
"2. c #B08852",
"3. c #AD884D",
"4. c #D09F58",
"5. c #D79B4A",
"6. c #DAA547",
"7. c #EDAB44",
"8. c #E6A648",
"9. c #F4AC44",
"0. c #FBAF41",
"q. c #F5AF4C",
"w. c #EAB24E",
"e. c #F5B145",
"r. c #FBB040",
"t. c #F8B24B",
"y. c #EBAD55",
"u. c #F1AB52",
"i. c #F0B354",
"p. c #F68264",
"a. c #F5866F",
"s. c #F2857A",
"d. c #F38978",
"f. c #F5937B",
"g. c #F7BD66",
"h. c #D47E83",
"j. c #848484",
"k. c #8D8C8D",
"l. c #908C8D",
"z. c #9E9795",
"x. c #9F9D9E",
"c. c #999798",
"v. c #9B978E",
"b. c #A2A09F",
"n. c #A2A2A2",
"m. c gray68",
"M. c #B0AEAE",
"N. c #B2B2B2",
"B. c #BCBCBC",
"V. c #BAB8B3",
"C. c #CA8485",
"Z. c #D78889",
"A. c #DE8B91",
"S. c #DD9E93",
"D. c #E4868A",
"F. c #ED8D8C",
"G. c #E68888",
"H. c #F38A84",
"J. c #F28C8D",
"K. c #EC908B",
"L. c #E59787",
"P. c #EC8D92",
"I. c #F38D91",
"U. c #EA9691",
"Y. c #F29A93",
"T. c #F29591",
"R. c #F69C87",
"E. c #EFA19A",
"W. c #EAA898",
"Q. c #F4A396",
"!. c #F6A39B",
"~. c #F5AA9B",
"^. c #F9AE9B",
"/. c #F6AA98",
"(. c #FAB297",
"). c #F6B49F",
"_. c #F9B29E",
"`. c #F6B99E",
"'. c #F9B89E",
"]. c #FBADA0",
"[. c #FAB5A1",
"{. c #F7B9A1",
"}. c #F9B8A0",
"|. c #F5B5A1",
" X c #FAE5BB",
".X c #CDCDCD",
"XX c #C3C2C0",
"oX c #D2D2D2",
"OX c #DDDCDC",
"+X c #D9D8D6",
"@X c #FAE8CC",
"#X c #DEDFE0",
"$X c #E5E5E5",
"%X c #E6E7E9",
"&X c #E6E9EA",
"*X c #EBEBEC",
"=X c #F1F1EE",
"-X c #FAF1E1",
";X c #EDEFF0",
":X c #EFF1F2",
">X c #F3F3F4",
",X c #FEFEFE",
"<X c #F8F7F7",
"1X c None",
/* pixels */
"1X1X1X1X1X1X1X1X1X1X1X1X1X1X1X1X1X1X1X1X1X1X1X1X1X1X1X1X1X1X1X1X1X1X1X1X1X1X1X1X1X1X1X1X1X1X1X1X1X1X1X1X1X1X1X1X1X1X1X1X1X1X1X1X",
"1X1X1X1X1X1X1X1X1X1X1X1X1X1X1X1X1X1X1X1X1X1X1X1X1X1X1X1X1X1X1X1X1X1X1X1X1X1X1X1X1X1X1X1X1X1X1X1X1X1X1X1X1X1X1X1X1X1X1X1X1X1X1X1X",
"1X1X1X1X1X1X1X1X1X1X1X1X1X1X1X1X1X1X1X1X1X1X1X1X1X1X1X1X1X1X1X1X1X1X1X1X1X1X1X1X1X1X1X1X1X1X1X1X1X1X1X1X1X1X1X1X1X1X1X1X1X1X1X1X",
"1X1X1X1X1X1X1X1X1X1X1X1X1X1X1X1X1X1X1X1X1X1X1X1X1X1X1X1X1X1X1X1X1X1X1X1X1X1X1X1X1X1X1X1X1X1X1X1X1X1X1X1X1X1X1X1X1X1X1X1X1X1X1X1X",
"1X1X1X1X1X1X1X1X1X1X1X1X1X1X1X1X1X1X1X1X1X1X1X1X1X1X1X1X1X1X1X1X1X1X1X1X1X1X1X1X1X1X1X1X1X1X1X1X1X1X1X1X1X1X1X1X1X1X1X1X1X1X1X1X",
"1X1X1X1X1X1X1X1X1X1X1X1X1X1X1X1X1X1X1X1X1X1X1X1X1X1X1X1X1X1X1X1X1X1X1X1X1X1X1X1X1X1X1X1X1X1X1X1X1X1X1X1X1X1X1X1X1X1X1X1X1X1X1X1X",
"1X1X1X1X1X1X1X1X1X1X1X1X1X1X1X1X1X1X1X1X1X1X1X1X1X1X1X1X1X1X1X1X1X1X1X1X1X1X1X1X1X1X1X1X1X1X1X1X1X1X1X1X1X1X1X1X1X1X1X1X1X1X1X1X",
"1X1X1X1X1X1X1X1X1X1X1X1X1X1X1X1X1X1X1X1X1X1X1X1X1X1X1X1X1X1X1X1X1X1X1X1X1X1X1X1X1X1X1X1X1X1X1X1X1X1X1X1X1X1X1X1X1X1X1X1X1X1X1X1X",
"1X1X1X1X1X1X1X1X1X1X1X1X1X1X1X1X1X1X1X1X1X1X1X1X1X1X1X1X1X1X1X1X1X1X1X1X1X1X1X1X1X1X1X1X1X1X1X1X1X1X1X1X1X1X1X1X1X1X1X1X1X1X1X1X",
"1X1X1X1X1X1X1X1X1X1X1X1X1X1X1X1X1X1X1X1X1X1X1X1X1X1X1X1X1X1X1X1X1X1X1X1X1X1X1X1X1X1X1X1X1X1X1X1X1X1X1X1X1X1X1X1X1X1X1X1X1X1X1X1X",
"1X1X1X1X1X1X1X1X1X1X1X1X1X1X1X1X1X1X1X1X1X1X1X1X1X1X1X1X1X1X1X1X1X1X1X1X1X1X1X1X1X1X1X1X1X1X1X1X1X1X1X1X1X1X1X1X1X1X1X1X1X1X1X1X",
"1X1X1X1X1X1X1X1X1X1X1X1X1X1X1X1X1X1X1X1X1X1X1X1X1X1X1X1X1X1X1X1X1X1X1X1X1X1X1X1X1X1X1X1X1X1X1X1X1X1X1X1X1X1X1X1X1X1X1X1X1X1X1X1X",
"1X1X1X1X1X1X1X1X1X1X1X1X1X1X1X1X1X1X1X1X1X1X1X1X1X1X1X1X1X1X1X1X1X1X1X1X1X1X1X1X1X1X1X1X1X1X1X1X1X1X1X1X1X1X1X1X1X1X1X1X1X1X1X1X",
"1X1X1X1X1X1X1X1X1X1X1X1X1X1X1X1X1X1X1X1X1X1X1X1X1X1X1X1X1X1X1X1X1X1X1X1X1X1X1X1X1X1X1X1X1X1X1X1X1X1X1X1X1X1X1X1X1X1X1X1X1X1X1X1X",
"1X1X1X1X1X1X1X1X1X1X1X1X1X1X1X1X1X1X1X1X1X1X1X1X1X1X1X1X1X1X1X1X1X1X1X1X1X1X1X1X1X1X1X1X1X1X1X1X1X1X1X1X1X1X1X1X1X1X1X1X1X1X1X1X",
"1X1X1X1X1X1X1X1X1X1X1X1X1X1X1X1X1X1X1X1X1X1X1X1X1X1X1X1X1X1X1X1X1X1X1X1X1X1X1X1X1X1X1X1X1X1X1X1X1X1X1X1X1X1X1X1X1X1X1X1X1X1X1X1X",
"1X1X1X1X1X1X1X1X1X1X1X1X1X1X1X1X1X1X1X1X1X1X1X1X1X1X1X1X1X1X1X1X1X1X1X1X1X1X1X1X1X1X1X1X1X1X1X1X1X1X1X1X1X1X1X1X1X1X1X1X1X1X1X1X",
"1X1X1X1X1X1X1X1X1X1X1X1X1X1X1X1X1X1X1X1X1X1X1X1X1X1X1X1X1X1X1X1X1X1X1X1X1X1X1X1X1X1X1X1X1X1X1X1X1X1X1X1X1X1X1X1X1X1X1X1X1X1X1X1X",
"1X1X1X1X1X1X1X1X1X1X1X1X1X1X1X1X1X1X1X1X1X1X1X1X1X1X1X1X1X1X1X1X1X1X1X1X1X1X1X1X1X1X1X1X1X1X1X1X1X1X1X1X1X1X1X1X1X1X1X1X1X1X1X1X",
"1X1X1X1X1X1X1X1X1X1X1X1X1X1X1X1X1X1X1X1X1X1X1X1X1X1X1X1X1X1XX o o O X 1X1X1X1X1X1X1X1X1X1X1X1X1X1X1X1X1X1X1X1X1X1X1X1X1X1X1X1X1X",
"1X1X1X1X1X1X1X1X1X1X1X1X1X1X1X1X1X1X1X1X1X1X1X1X1X1X1X1Xm { Q./.{./.L. .] Z # 1X1X1X1X1X1X1X1X1X1X1X1X1X1X1X1X1X1X1X1X1X1X1X1X1X",
"1X1X1X1X1X1X1X1X1X1X1X1X1X1X1X1X1X1X1X1X1X1X1X1X1X1Xo } Q.[.Q.H.$.f.(.).).W.S.M > 1X1X1X1X1X1X1X1X1X1X1X1X1X1X1X1X1X1X1X1X1X1X1X",
"1X1X1X1X1X1X1X1X1X1X1X1X1X1X1X1X1X1X1X1X1X; y p s : ' ~._.J.a.#.(.'.).E.` j e r w e 1X1X1X1X1X1X1X1X1X1X1X1X1X1X1X1X1X1X1X1X1X1X",
"1X1X1X1X1X1X1X1X1X1X1X1X1X1X1X1X1X1X1X1Xs 7.r.r.:.g _.^.F.+.a.'._.(.| r x d &.d ] ~ r 1X1X1X1X1X1X1X1X1X1X1X1X1X1X1X1X1X1X1X1X1X",
"1X1X1X1X1X1X1X1X1X1X1X1X1X1X1X1X1X1X1XI ,.r.r.r.R W.).J.%.p.{.'.~.@.x g 8.>.0. X4.^ / w 1X1X1X1X1X1X1X1X1X1X1X1X1X1X1X1X1X1X1X1X",
"1X1X1X1X1X1X1X1X1X1X1X1X1X1X1X1X1X1XU r.>.,.>.9.Q `.Y.d.O.'.}.[.H.r p >.>.>.r.@X-XR Z.j , 1X1X1X1X1X1X1X1X1X1X1X1X1X1X1X1X1X1X1X",
"1X1X1X1X1X1X1X1X1X1X1X1X1X1X1X1X1X: e.r.>.0.,.*.W.).F.o.R.}.`.F...q 9.0.r.r.>.q.@Xg.! } x $ 1X1X1X1X1X1X1X1X1X1X1X1X1X1X1X1X1X1X",
"1X1X1X1X1X1X1X1X1X1X1X1X1X1X1Xk %X2.r.,.,.,.,.) {.!.s.O.'.'.).H.> 3.>.>.r.r.r.r.,.>.U P.t l 1X1X1X1X1X1X1X1X1X1X1X1X1X1X1X1X1X1X",
"1X1X1X1X1X1X1X1X1X1X1X1X1X= .X,X,X&.,.>.0.,.9.~ {.K.a.#.}.[.Y.F.C :.r.>.r.r.,.0.,.,.6.} { C ; 1X1X1X1X1X1X1X1X1X1X1X1X1X1X1X1X1X",
"1X1X1X1X1X1X1X1X1X1X1X1X3 >X,X,X>X&.,.0.0.r.Y S.|.T.+.f.'.}.F.C.; 0.0.>.,.r.r.>.;.;.0.( J.B V o 1X1Xb 3 3 1 * 1X1X1X1X1X1X1X1X1X",
"1X1X1X1X1X1X1X1X1X1X= .X,X,X,X,X,X&.,.,.,.r.) |.~.J.o.^.'.).J.t 5 >.7.>.r.r.r.,.f * W I I.I.m V l - c.$X*X=X*X,XB.4 * 1X1X1X1X1X",
"1X1X1X1X1X1X1X& k <X,X,X,X,X,X,X=X=.,.,.>.9.^ ).~.H.o.[.'.[.J.o =.# O :.>.5.7 u 7.0.>.T P.J.J.D.9 < N N C e = ,X,X,X,Xj.1X1X1X1X",
"1X1X1X1X1X= $X,X,X,X,X,X,X,XOX<Xc e.,.0.>.I W.`.T.d.O.`.}.].F.< u.9.e.w.v.>Xx., =.r.e.( K.K.K.T.C.^ j q o K <X,X,X,X,X,XD 1X1X1X",
"1X1X1X= *X,X,X,X,X,X,X,X,Xa ;.8.0.,.0.>.8.^ _.'.J.#.#.`.}.^.G.z 0.,.0.<.8.;.9.>.r.q.P 8.K *X*X*X>X<X<X,X,X,X,X,X,X*X,X,X$X1X1X1X",
"1X1X- =X&X<X,X,X,X,X,X,X,X2.i.7 *.9.>.0.f Y.}.~.J.X.d.'.}.Q.D.< q.i i 9.<.>.,.>.8.@ y.d *X,X,X,X,X,X,X,X,X,X,X,X&X%X&X,X,X1X1X1X",
"1X1XG <X%X>X,X,X,X,X,X,X,XOXOX<X&XV.0 s U.}.).!.a.o.^.}.}.F.Z.# e.9.:.8 6 6 0 z.OX:X+X>X,X,X,X,X,X,X,X,X,X,X,X,X%X%X>X,X*X1X1X1X",
"1X1XJ >X%X*X,X,X,X,X,X,X,X,X,X,X,XJ | U.[.}.[.H.o.s.`.).|.J.' s y.K I d =X,X,X,X,X,X,X,X,X,X,X,X,X,X,X,X,X,X<X$X&X*X,X,XK 1X1X1X",
"1X1Xz <X$X$X*X,X,X,X,X,X,X,X,X,XZ P.).'.}.}.Y.O.%.).}.}.^.F.% z.XX,X&X$X,X,X,X,X,X,X,X,X,X,X,X,X,X,X,X<X;X*X%X:X<X,X,X<X4 1X1X1X",
"1X1X1Xn.>X$X$X$X&X=X>X>X,X,X,XK D.F./.[.{.!.%.d.^.}.}.}.U.Z.N <X,X,X,X,X,X,X,X,X,X,X,X,X,X,X,X,X,X,X,X$X>X<X,X,X,X,X,Xk 1X1X1X1X",
"1X1X1X* c.,X<X>X$X$X&X>X,X,X,XOXM } ^ } Z.J.Q.'.}.}.}.~.F.9 h ,X,X,X,X,X,X,X,X,X,X,X,X,X,X,X,X,X,X,X,X,X,X,X,X,X,X$X4 1X1X1X1X1X",
"1X1X1X1X1X3 K j.N..X*X,X,X,X,X,XB.G D l ; > C ~ W.Q.Y.G.m V M.,X,X,X,X,X,X,X,X,X,X,X,X,X,X,X,X,X,X,X,X,X,X,X<Xx.D 1X1X1X1X1X1X1X",
"1X1X1X1X1X1X1X1X1X1X1X1X= v j.x.:X,X,X,X,X$Xb.J - B Q x h b.,X,X,X,X,X,X<X>X>X,X,X,X,X<X.Xx.k.j.j.j.j.J b 1 1X1X1X1X1X1X1X1X1X1X",
"1X1X1X1X1X1X1X1X1X1X1X1X1X1X1X1X1Xk k.&X,X,X,X,X>Xn.l.l.$X<X<X>X>X*X%X&X*X>X<X,X#Xk.z & 1X1X1X1X1X1X1X1X1X1X1X1X1X1X1X1X1X1X1X1X",
"1X1X1X1X1X1X1X1X1X1X1X1X1X1X1X1X1X1X1X$ J oX<X,X<X&X&X&X&X%X&X%X&X>X>X,X,X>Xn.z   1X1X1X1X1X1X1X1X1X1X1X1X1X1X1X1X1X1X1X1X1X1X1X",
"1X1X1X1X1X1X1X1X1X1X1X1X1X1X1X1X1X1X1X1X1X  v M.,X<X;X;X*X>X>X<X,X,X,XN.H & 1X1X1X1X1X1X1X1X1X1X1X1X1X1X1X1X1X1X1X1X1X1X1X1X1X1X",
"1X1X1X1X1X1X1X1X1X1X1X1X1X1X1X1X1X1X1X1X1X1X1X1X& b n.V.oXOX$XB.m.G & 1X1X1X1X1X1X1X1X1X1X1X1X1X1X1X1X1X1X1X1X1X1X1X1X1X1X1X1X1X",
"1X1X1X1X1X1X1X1X1X1X1X1X1X1X1X1X1X1X1X1X1X1X1X1X1X1X1X1X  .   1X1X1X1X1X1X1X1X1X1X1X1X1X1X1X1X1X1X1X1X1X1X1X1X1X1X1X1X1X1X1X1X1X",
"1X1X1X1X1X1X1X1X1X1X1X1X1X1X1X1X1X1X1X1X1X1X1X1X1X1X1X1X1X1X1X1X1X1X1X1X1X1X1X1X1X1X1X1X1X1X1X1X1X1X1X1X1X1X1X1X1X1X1X1X1X1X1X1X",
"1X1X1X1X1X1X1X1X1X1X1X1X1X1X1X1X1X1X1X1X1X1X1X1X1X1X1X1X1X1X1X1X1X1X1X1X1X1X1X1X1X1X1X1X1X1X1X1X1X1X1X1X1X1X1X1X1X1X1X1X1X1X1X1X",
"1X1X1X1X1X1X1X1X1X1X1X1X1X1X1X1X1X1X1X1X1X1X1X1X1X1X1X1X1X1X1X1X1X1X1X1X1X1X1X1X1X1X1X1X1X1X1X1X1X1X1X1X1X1X1X1X1X1X1X1X1X1X1X1X",
"1X1X1X1X1X1X1X1X1X1X1X1X1X1X1X1X1X1X1X1X1X1X1X1X1X1X1X1X1X1X1X1X1X1X1X1X1X1X1X1X1X1X1X1X1X1X1X1X1X1X1X1X1X1X1X1X1X1X1X1X1X1X1X1X",
"1X1X1X1X1X1X1X1X1X1X1X1X1X1X1X1X1X1X1X1X1X1X1X1X1X1X1X1X1X1X1X1X1X1X1X1X1X1X1X1X1X1X1X1X1X1X1X1X1X1X1X1X1X1X1X1X1X1X1X1X1X1X1X1X",
"1X1X1X1X1X1X1X1X1X1X1X1X1X1X1X1X1X1X1X1X1X1X1X1X1X1X1X1X1X1X1X1X1X1X1X1X1X1X1X1X1X1X1X1X1X1X1X1X1X1X1X1X1X1X1X1X1X1X1X1X1X1X1X1X",
"1X1X1X1X1X1X1X1X1X1X1X1X1X1X1X1X1X1X1X1X1X1X1X1X1X1X1X1X1X1X1X1X1X1X1X1X1X1X1X1X1X1X1X1X1X1X1X1X1X1X1X1X1X1X1X1X1X1X1X1X1X1X1X1X",
"1X1X1X1X1X1X1X1X1X1X1X1X1X1X1X1X1X1X1X1X1X1X1X1X1X1X1X1X1X1X1X1X1X1X1X1X1X1X1X1X1X1X1X1X1X1X1X1X1X1X1X1X1X1X1X1X1X1X1X1X1X1X1X1X",
"1X1X1X1X1X1X1X1X1X1X1X1X1X1X1X1X1X1X1X1X1X1X1X1X1X1X1X1X1X1X1X1X1X1X1X1X1X1X1X1X1X1X1X1X1X1X1X1X1X1X1X1X1X1X1X1X1X1X1X1X1X1X1X1X",
"1X1X1X1X1X1X1X1X1X1X1X1X1X1X1X1X1X1X1X1X1X1X1X1X1X1X1X1X1X1X1X1X1X1X1X1X1X1X1X1X1X1X1X1X1X1X1X1X1X1X1X1X1X1X1X1X1X1X1X1X1X1X1X1X",
"1X1X1X1X1X1X1X1X1X1X1X1X1X1X1X1X1X1X1X1X1X1X1X1X1X1X1X1X1X1X1X1X1X1X1X1X1X1X1X1X1X1X1X1X1X1X1X1X1X1X1X1X1X1X1X1X1X1X1X1X1X1X1X1X",
"1X1X1X1X1X1X1X1X1X1X1X1X1X1X1X1X1X1X1X1X1X1X1X1X1X1X1X1X1X1X1X1X1X1X1X1X1X1X1X1X1X1X1X1X1X1X1X1X1X1X1X1X1X1X1X1X1X1X1X1X1X1X1X1X",
"1X1X1X1X1X1X1X1X1X1X1X1X1X1X1X1X1X1X1X1X1X1X1X1X1X1X1X1X1X1X1X1X1X1X1X1X1X1X1X1X1X1X1X1X1X1X1X1X1X1X1X1X1X1X1X1X1X1X1X1X1X1X1X1X",
"1X1X1X1X1X1X1X1X1X1X1X1X1X1X1X1X1X1X1X1X1X1X1X1X1X1X1X1X1X1X1X1X1X1X1X1X1X1X1X1X1X1X1X1X1X1X1X1X1X1X1X1X1X1X1X1X1X1X1X1X1X1X1X1X",
"1X1X1X1X1X1X1X1X1X1X1X1X1X1X1X1X1X1X1X1X1X1X1X1X1X1X1X1X1X1X1X1X1X1X1X1X1X1X1X1X1X1X1X1X1X1X1X1X1X1X1X1X1X1X1X1X1X1X1X1X1X1X1X1X",
"1X1X1X1X1X1X1X1X1X1X1X1X1X1X1X1X1X1X1X1X1X1X1X1X1X1X1X1X1X1X1X1X1X1X1X1X1X1X1X1X1X1X1X1X1X1X1X1X1X1X1X1X1X1X1X1X1X1X1X1X1X1X1X1X",
"1X1X1X1X1X1X1X1X1X1X1X1X1X1X1X1X1X1X1X1X1X1X1X1X1X1X1X1X1X1X1X1X1X1X1X1X1X1X1X1X1X1X1X1X1X1X1X1X1X1X1X1X1X1X1X1X1X1X1X1X1X1X1X1X"
};
