/* XPM */
static char *_0996_8bc2bffb607f52f6800ca6762dea5ac528bd4aa61db716a80ddeff6c3c65b69f_2[] = {
/* columns rows colors chars-per-pixel */
"64 64 256 2 ",
"   c None",
".  c #271A14",
"X  c #2C201B",
"o  c #362618",
"O  c #3D2B1A",
"+  c #312216",
"@  c #2D2320",
"#  c #3B2F2A",
"$  c #352B27",
"%  c #39302E",
"&  c #3F3024",
"*  c #3D3330",
"=  c #412D1A",
"-  c #45311B",
";  c #4C371D",
":  c #4E381D",
">  c #543C1E",
",  c #593C1D",
"<  c #53351C",
"1  c #633E19",
"2  c #493829",
"3  c #523C22",
"4  c #553D27",
"5  c #443B39",
"6  c #483F3C",
"7  c #463B35",
"8  c #5E431E",
"9  c #61451F",
"0  c #694119",
"q  c #774819",
"w  c #5C4220",
"e  c #54432F",
"r  c #5A422B",
"t  c #4B413D",
"y  c #4F4137",
"u  c #504236",
"i  c #51453C",
"p  c #5A4938",
"a  c #654922",
"s  c #6C4E21",
"d  c #614623",
"f  c #6D5129",
"g  c #745424",
"h  c #785725",
"j  c #7B5926",
"k  c #634F36",
"l  c #4D4442",
"z  c #504744",
"x  c #524946",
"c  c #544C49",
"v  c #584F4D",
"b  c #5B4E43",
"n  c #59514E",
"m  c #5D5553",
"M  c #5F5856",
"N  c #655142",
"B  c #645D5B",
"V  c #635A55",
"C  c #68615F",
"Z  c #67605F",
"A  c #6C6563",
"S  c #676160",
"D  c #736C6B",
"F  c #7A7372",
"G  c #7E7877",
"H  c #777170",
"J  c #8A5219",
"K  c #8C541A",
"L  c #B86B1C",
"P  c #815D26",
"I  c #8B6426",
"U  c #856128",
"Y  c #936A27",
"T  c #946B29",
"R  c #9F6923",
"E  c #9C712B",
"W  c #9D793E",
"Q  c #A6792D",
"!  c #A77A2D",
"~  c #AD7E30",
"^  c #D0791E",
"/  c #827B7A",
"(  c #807977",
")  c #B4832F",
"_  c #B38331",
"`  c #BC8A32",
"'  c #B88835",
"]  c #CE8C2E",
"[  c #DE8221",
"{  c #D28024",
"}  c #C28E33",
"|  c #CC9636",
" . c #C99435",
".. c #D29A37",
"X. c #D69D38",
"o. c #D89F38",
"O. c #ED8D24",
"+. c #E48622",
"@. c #F18E23",
"#. c #EF9227",
"$. c #F19629",
"%. c #F29D2E",
"&. c #F19025",
"*. c #DCA139",
"=. c #E2A63A",
"-. c #E6A93B",
";. c #EAAC3C",
":. c #F3A433",
">. c #F3AA37",
",. c #F4AD39",
"<. c #EFB03D",
"1. c #F5B43E",
"2. c #F8B63F",
"3. c #FAB83F",
"4. c #BC924B",
"5. c #87807E",
"6. c #D39F43",
"7. c #CB9A43",
"8. c #F5B644",
"9. c #F7BE55",
"0. c #EAB85D",
"q. c #CCA767",
"w. c #F7C05D",
"e. c #F7C466",
"r. c #F8CB7A",
"t. c #8A8583",
"y. c #8A8584",
"u. c #918C8B",
"i. c #97918F",
"p. c #979190",
"a. c #999593",
"s. c #9E9A99",
"d. c #9E9997",
"f. c #A29D9C",
"g. c #A5A09F",
"h. c #A39FA0",
"j. c #A6A2A0",
"k. c #AAA6A5",
"l. c #ACA8A7",
"z. c #AFABAA",
"x. c #B2AEAD",
"c. c #B5B2B1",
"v. c #B9B5B4",
"b. c #BBB8B7",
"n. c #BEBBBA",
"m. c #C1BEBE",
"M. c #F9CF84",
"N. c #F9D79A",
"B. c #FAD696",
"V. c #E9C687",
"C. c #C3C0BF",
"Z. c #F3D6A3",
"A. c #FCE3B4",
"S. c #C4C1C1",
"D. c #C9C6C5",
"F. c #CDCBCA",
"G. c #C8C7C8",
"H. c #D0CECD",
"J. c #D2D0CF",
"K. c #D5D3D3",
"L. c #D8D7D6",
"P. c #D9D8D7",
"I. c gainsboro",
"U. c #E0DFDE",
"Y. c #FFEDCC",
"T. c #FDEDD0",
"R. c #FEF3DC",
"E. c #DFE0E0",
"W. c #E3E3E2",
"Q. c #E8E7E7",
"!. c #E9E8E7",
"~. c #E7E8E8",
"^. c #ECECEC",
"/. c #F0EFEF",
"(. c #FEF7E8",
"). c #EFF0F0",
"_. c #F4F4F4",
"`. c #F8F7F7",
"'. c #FBF9F7",
"]. c #FEFEFE",
"[. c black",
"{. c black",
"}. c black",
"|. c black",
" X c black",
".X c black",
"XX c black",
"oX c black",
"OX c black",
"+X c black",
"@X c black",
"#X c black",
"$X c black",
"%X c black",
"&X c black",
"*X c black",
"=X c black",
"-X c black",
";X c black",
":X c black",
">X c black",
",X c black",
"<X c black",
"1X c black",
"2X c black",
"3X c black",
"4X c black",
"5X c black",
"6X c black",
"7X c black",
"8X c black",
"9X c black",
"0X c black",
"qX c black",
"wX c black",
"eX c black",
"rX c black",
"tX c black",
"yX c black",
"uX c black",
"iX c black",
"pX c black",
"aX c black",
"sX c black",
"dX c black",
"fX c black",
"gX c black",
"hX c black",
"jX c black",
"kX c black",
"lX c black",
"zX c black",
"xX c black",
"cX c black",
"vX c black",
"bX c black",
"nX c black",
"mX c black",
"MX c black",
"NX c black",
"BX c black",
"VX c black",
"CX c black",
"ZX c black",
"AX c black",
"SX c black",
"DX c black",
"FX c black",
"GX c black",
"HX c black",
"JX c black",
"KX c black",
"LX c black",
"PX c black",
"IX c black",
"UX c black",
/* pixels */
"                                                                                                                                ",
"                                                                                                                                ",
"                                                                                                                                ",
"                                                                                                                                ",
"                                                                                                                                ",
"                                                                                                                                ",
"                                                                                                                                ",
"                                                                                                                                ",
"                                                                                                                                ",
"                                                                                                                                ",
"                                                                                                                  v.p.a.z.W.    ",
"                                                                                                                '.j.G F V B P.  ",
"                                                                                                          /.H.v.b.C.W.]._.H y.  ",
"                                                                                                          j.n B D A v x.].z.A   ",
"                                                                                                          !.I./.  _.k.c W.z.C   ",
"                                                                                        _.I.m.c.g.d.d.f.f.v.K.!.    _.C l.D.f.  ",
"                                                                                  _.H.a.C l l l x n m V m c l v u.W.].y.t.].    ",
"                                                                          I.C.g.t.B l B d.D.U.!./._.^.!.~.~.K.s.l D '.a.(       ",
"                                                                    W.j.D x x C ( f.L.'.].].].]._.~.E.E.I.~.].].S.l P.K.F.      ",
"                                                                _.l.m 5 6 l C D.].].I.I.].].].].'._._.~.I.W.'.].D.c P.          ",
"                                                        W.L.K.G.D . % 6 e Y 8 ( ].F.p p m.].].].].].`.E.I.~.].].y.D             ",
"                                              _.K.x.u.D x y y 2 o O o + : h 2 c.].( Q E 5.].].].].].~.I.I._.].L.l v.            ",
"                                          K.a.A y r q Y ' 7.6...o.*.X.| ~ j - A x.k =.E u.].].].].'.E.I.^.].`.D H _.            ",
"                                      I.u.y a W q.V.N.A.Y.(.Y.9.1.1.2.8.2.8...a X U 2.j j.].].].].'.I.~.].].s.c P.              ",
"                                    S.m 9 4.Z.(.'.].].].].(.B.8.1.1.1.1.1.1.1.-.h - } f n.].].].].].).'.].C.l v.                ",
"                                  b.y I 0.R.].].].].(.T.N.9.1.1.1.1.1.1.1.1.1.1.;.h - 2 P.].].].].].].].P.x a.                  ",
"                                m.7 E 1.N.].'.(.A.M.e.8.1.1.1.1.1.1.1.1.1.1.1.1.2.-.w * W.].].].].].].^.B / `.                  ",
"                              K.i Y 1.1.9.r.e.8.1.1.1.8.1.1.1.1.1.1.1.1.1.1.1.1.1.8. .# m.].].].].].'./ A !.                    ",
"                            ^.D h <.1.1.1.1.1.1.1.1.1.1.1.1.1.1.1.1.1.1.1.1.1.1.1.1.1.q H ].].].].].k.x J.                      ",
"                            z.2 X.2.1.1.1.1.1.1.1.1.1.1.1.1.1.1.1.1.1.1.8.;.=.1.1.1.1.Q x _.].].].P.l x.                        ",
"                          W.m T 2.1.1.1.1.1.1.1.1.1.1.1.1.1.1.1.1.1.1.1.;.j : ! 1.1.2.} i !.].].].F F '.                        ",
"                        F.V - o.1.1.1.1.1.1.1.1.1.1.1.1.1.1.1.1.1.1.1.2.o.: U : X.2.2._ x ^.].].D.l K.                          ",
"                      n.x $ s 1.1.1.1.1.-.-.<.1.8.1.1.1.1.1.1.1.1.1.1.2.*.> } s T 1.2.I Z `.].].H 5.                            ",
"                    F.c p.S I 2.1.1.1.E ; 3 d I } ,.1.1.1.1.1.1.1.1.1.1.;.8 } Q a <.-.8 a.].].I.l C.                            ",
"                  U.M y.`.M E 2.1.3.1.E X S y.B & g =.1.1.1.1.1.1.1.1.1.| > o.` , -.~ $ F.].].l.m !.                            ",
"                  t.B ).].M Y 3.*.E _ =.Q e i n * O | 8.1.1.1.1.1.1.1.8.T d 8. ., X.> A `.].'.A u.                              ",
"                b.z F.].].C I 3.| - X ~ 3.-.` ! ! ` -.8.1.1.1.1.1.1.1.1.~ ` 2._ w T $ m.].].L.l G.                              ",
"              c.l f.].].].H 9 2.1..._ *.1.1.1.3.` : :  .1.1.1.1.1.1.1.1.1.1.8.E : O F ].].].a.C _.                              ",
"          W.y.l f.'.].]._.m - =.1.1.1.1.1.1.1.2.| g g | 1.1.1.1.1.1.1.1.1.1.1.h . c W.].]._.m j.                                ",
"        n.m m D.].].].].Q.6 . _ 3.1.1.1.1.1.1.1.1.1.1.1.1.1.1.1.1.1.1.1.1.2.;.s % D.].].].v.c I.                                ",
"    ^.u.l a.U._.].].].].I.u 8 w -.1.1.1.1.1.1.1.8.1.1.1.1.1.1.1.1.1.1.1.2.-.P # x.].].].'.A u.                                  ",
"  !.H n F.).E.!.].].].].P.r ` = j <.1.1.>.>.>.<.,.1.1.1.1.1.1.1.1.>.:.%.] d # z.].].].].n.l K.                                  ",
"  y.m U.`.E.I.^.].].].].^.b Y 2 7 h *.%.@.O.@.&.#.%.%.:.:.:.:.%.&.@.^ R = c S.].].].]._.V u.                                    ",
"K.l C.].~.I.I._.].].].].].g.i i.K.B , R { O.O.@.@.O.O.O.+.+.[ ^ L K < 7 u.!.].].].].].a.n W.                                    ",
"F.5 J.].I.I.I.).].].].].].'.~.'.]./.f.v 2 1 J J J J q 0 , 4 k N V ( z.W.].].].].].].n.t v.                                      ",
"E.c y.].~.I.I.E.^.`.].].].].].].].].]._.G.d.G D D H y.a.x.G.P.!.`.].].].].].].].].m.l a.                                        ",
"  c.* f._.`.~.I.I.I.~._.'.`.].'.].].].].].].].].].].].].].].].].].].].].].].].^.a.6 a._.                                        ",
"    k.t A m.).`._.~.~.E.W.E.E.W.W.^.].].].].].].'._.W.F.F.F.F.W._.].].'._.I.j.m m c.                                            ",
"      J.G l v G l.F.I.!.^.^.^.^.^./.Q.I.H.x.d.t.D m x c c c z l m A A A m x V f.W.                                              ",
"          K.k.F n t t x m n n n n v x z x m A / a.x.D.U.U.W.L.n.f.p.a.a.z.F.^.                                                  ",
"                !.J.m.l.f.f.d.d.f.x.n.D.P.!.                                                                                    ",
"                                                                                                                                ",
"                                                                                                                                ",
"                                                                                                                                ",
"                                                                                                                                ",
"                                                                                                                                ",
"                                                                                                                                ",
"                                                                                                                                ",
"                                                                                                                                ",
"                                                                                                                                ",
"                                                                                                                                ",
"                                                                                                                                ",
"                                                                                                                                ",
"                                                                                                                                "
};
