/* XPM */
static char *_0996_8bc2bffb607f52f6800ca6762dea5ac528bd4aa61db716a80ddeff6c3c65b69f_3[] = {
/* columns rows colors chars-per-pixel */
"64 64 256 2 ",
"   c None",
".  c #2B1D14",
"X  c #261B18",
"o  c #2A201E",
"O  c #3C2A1A",
"+  c #35261B",
"@  c #382D27",
"#  c #3C312D",
"$  c #362E30",
"%  c #3D3431",
"&  c #412E1A",
"*  c #4B351C",
"=  c #4B351C",
"-  c #523B1E",
";  c #633E1C",
":  c #493929",
">  c #523C21",
",  c #483C35",
"<  c #453C3A",
"1  c #443A37",
"2  c #5B411F",
"3  c #64471F",
"4  c #6C4118",
"5  c #694B1E",
"6  c #794818",
"7  c #5D4320",
"8  c #4B413E",
"9  c #5D4E3E",
"0  c #664A22",
"q  c #6A4D22",
"w  c #624425",
"e  c #6E5024",
"r  c #735323",
"t  c #795724",
"y  c #7C5924",
"u  c #664E33",
"i  c #655035",
"p  c #62503C",
"a  c #4E4542",
"s  c #514744",
"d  c #524946",
"f  c #554D4A",
"g  c #584F4C",
"h  c #5A514E",
"j  c #5C5452",
"k  c #5F5857",
"l  c #635445",
"z  c #615957",
"x  c #645D5B",
"c  c #685E56",
"v  c #67605D",
"b  c #68605E",
"n  c #6E6257",
"m  c #6C6563",
"M  c #6F6867",
"N  c #746D6B",
"B  c #78716F",
"V  c #7A7473",
"C  c #7F7977",
"Z  c #7F7978",
"A  c #864F18",
"S  c #8A521A",
"D  c #855019",
"F  c #AE661B",
"G  c #8B6529",
"H  c #8A6428",
"J  c #946C29",
"K  c #986F2B",
"L  c #9C722C",
"P  c #806234",
"I  c #9C7330",
"U  c #A1762E",
"Y  c #A5782D",
"T  c #AB7C2D",
"R  c #B27123",
"E  c #A47D3D",
"W  c #CB761D",
"Q  c #D47D21",
"!  c #837D7B",
"~  c #B3822F",
"^  c #BC842E",
"/  c #B48431",
"(  c #BC8A33",
")  c #B5893E",
"_  c #DC8221",
"`  c #C18D33",
"'  c #C59034",
"]  c #CC9536",
"[  c #D39B37",
"{  c #D89E38",
"}  c #ED8C23",
"|  c #E58722",
" . c #F08E23",
".. c #EF9227",
"X. c #F29B2C",
"o. c #F29427",
"O. c #DDA239",
"+. c #DEA237",
"@. c #E5A83A",
"#. c #EBAD3C",
"$. c #E5A73A",
"%. c #F2A332",
"&. c #F3AA37",
"*. c #F2AD39",
"=. c #EFB03D",
"-. c #F5B43E",
";. c #F8B63F",
":. c #FBB83F",
">. c #B3925C",
",. c #86807E",
"<. c #DFAA4E",
"1. c #F5B540",
"2. c #F6BA4C",
"3. c #F6BC54",
"4. c #D8B77F",
"5. c #F7C364",
"6. c #F9C66A",
"7. c #F8CA78",
"8. c #8A8483",
"9. c #8E8887",
"0. c #868180",
"q. c #938E8D",
"w. c #96918F",
"e. c #969291",
"r. c #9A9594",
"t. c #9D9897",
"y. c #9E9A99",
"u. c #A29D9C",
"i. c #A6A2A1",
"p. c #A9A5A4",
"a. c #ACA8A7",
"s. c #ADA9A9",
"d. c #B0ACAB",
"f. c #B4B0AF",
"g. c #B5B2B1",
"h. c #BAB6B5",
"j. c #BBB8B7",
"k. c #BDBAB9",
"l. c #C1BEBD",
"z. c #FAD187",
"x. c #F0D098",
"c. c #E7C994",
"v. c #C3C0BF",
"b. c #FBDEAA",
"n. c #FADBA2",
"m. c #FBE3B8",
"M. c #C6C3C2",
"N. c #C9C7C6",
"B. c #CDCBCA",
"V. c #D1CFCE",
"C. c #D2D0CF",
"Z. c #D5D3D3",
"A. c #D8D6D6",
"S. c gainsboro",
"D. c #D9D8D8",
"F. c #E1DFDF",
"G. c #FFECC8",
"H. c #E1E0DF",
"J. c #FDEFD6",
"K. c #FEF2DA",
"L. c #DFE0E0",
"P. c #E4E3E3",
"I. c #E8E7E7",
"U. c #E9E8E7",
"Y. c #ECECEC",
"T. c #F0EFEF",
"R. c #F0F0EF",
"E. c #EFEFF0",
"W. c #F0EFF0",
"Q. c #F4F3F3",
"!. c #FEFBF3",
"~. c #FEFEFE",
"^. c #F8F8F7",
"/. c black",
"(. c black",
"). c black",
"_. c black",
"`. c black",
"'. c black",
"]. c black",
"[. c black",
"{. c black",
"}. c black",
"|. c black",
" X c black",
".X c black",
"XX c black",
"oX c black",
"OX c black",
"+X c black",
"@X c black",
"#X c black",
"$X c black",
"%X c black",
"&X c black",
"*X c black",
"=X c black",
"-X c black",
";X c black",
":X c black",
">X c black",
",X c black",
"<X c black",
"1X c black",
"2X c black",
"3X c black",
"4X c black",
"5X c black",
"6X c black",
"7X c black",
"8X c black",
"9X c black",
"0X c black",
"qX c black",
"wX c black",
"eX c black",
"rX c black",
"tX c black",
"yX c black",
"uX c black",
"iX c black",
"pX c black",
"aX c black",
"sX c black",
"dX c black",
"fX c black",
"gX c black",
"hX c black",
"jX c black",
"kX c black",
"lX c black",
"zX c black",
"xX c black",
"cX c black",
"vX c black",
"bX c black",
"nX c black",
"mX c black",
"MX c black",
"NX c black",
"BX c black",
"VX c black",
"CX c black",
"ZX c black",
"AX c black",
"SX c black",
"DX c black",
"FX c black",
"GX c black",
"HX c black",
"JX c black",
"KX c black",
"LX c black",
"PX c black",
"IX c black",
"UX c black",
/* pixels */
"                                                                                                                                ",
"                                                                                                                                ",
"                                                                                                                                ",
"                                                                                                                                ",
"                                                                                                                                ",
"                                                                                                                                ",
"                                                                                                                                ",
"                                                                                                                                ",
"                                                                                                                                ",
"                                                                                                                                ",
"                                                                                                                    Z.V.P.      ",
"                                                                                                                  Y.V j z ! D.  ",
"                                                                                                            Z.j.h.j.C.P.B.V N Y.",
"                                                                                                          U.! m N b h p.~.S.g V.",
"                                                                                                                  T.j.j B.U.h B.",
"                                                                                          U.F.Z.B.B.B.V.S.Q.          ,.r.F.j D.",
"                                                                                  ^.B.y.N j g d s s s s d x ! j.Q.    e.! T.l.Q.",
"                                                                          I.B.d.q.m a j 8.a.B.S.P.S.S.D.N.p.Z a ,.R.  w.C       ",
"                                                                    D.i.V h d h m u.Z.Q.~.~.~.~.E.P.P.L.U.~.~.M.< l.  v.j.      ",
"                                                                S.q.d g 9.p.v.Y.~.D.a.P.~.~.~.^.E.E.U.S.S.Q.~.Q.g d.            ",
"                                                        R.U.U.f.d # m ! B l 9 r.T.c 5 n Y.~.~.~.~.~.Y.S.S.Q.~.C.s B.            ",
"                                                P.N.p.! v h d @ . @ + X . e 5 N N.u $.i D.~.~.~.~.^.L.S.P.~.~.Z m Q.            ",
"                                          P.a.V d : 2 r L ) ) ( ( ' ( / L e O M ! K @.i S.~.~.~.~.Y.S.L.^.~.N.< k.              ",
"                                      U.y.g : y >.4.x.b.G.K.K.6.;.;.-.-.;.-.( - + ' +.p P.~.~.~.~.U.S.E.~.Y.j 8.                ",
"                                    N.x - E c.K.!.~.~.~.~.!.n.2.-.-.-.-.-.-.;.+.q 7 / p U.~.~.~.~.Q.Y.~.~.8.x I.                ",
"                                  j.8 y <.G.~.~.~.~.!.J.n.5.1.-.-.-.-.-.-.-.-.-.$.0 & g Q.~.~.~.~.~.~.~.p.s N.                  ",
"                                h., J *.z.~.!.K.m.z.5.2.-.-.-.-.-.-.-.-.-.-.-.-.-.O.= g Q.~.~.~.~.~.~.V.8 a.                    ",
"                              B.8 J -.-.3.7.5.2.-.-.-.-.-.-.-.-.-.-.-.-.-.-.-.-.-.-./ : A.~.~.~.~.~.Y.j ! ^.                    ",
"                            U.v t -.-.-.-.-.-.-.-.-.-.-.-.-.-.-.-.-.-.-.-.-.-.-.-.;.#.2 q.~.~.~.~.~.8.j P.                      ",
"                            y.> +.-.-.-.-.-.-.-.-.-.-.-.-.-.-.-.-.-.1.1.;.-.-.-.-.-.;.G x ~.~.~.~.l.8 M.                        ",
"                          D.s Y -.-.-.-.-.-.-.-.-.-.-.-.-.-.-.-.-.#.Y J ' -.-.-.-.-.;.Y j ^.~.~.Q.x 8.                          ",
"                        N.j - $.-.-.-.-.-.-.-.-.-.-.-.-.-.-.-.-.;.[ O 0 = L -.-.-.-.;.L x ~.~.~.h.a D.                          ",
"                      j.d X H -.-.-.-.-.;.;.;.-.-.-.-.-.-.-.-.-.-.@.7 L / = Y 1.-.-.-.r Z ~.~.~.N 0.                            ",
"                    N.8 9.g T ;.-.-.-.( L J T { =.-.-.-.-.-.-.-.-.;./ = [ ( - ' -.-.O.> g.~.~.I.s k.                            ",
"                  U.z B P.d ` ;.-.-.-.0 X j j : q ` -.-.-.-.-.-.-.-.-.e G -.y r -.-.J 1 P.~.~.h.h U.                            ",
"                  t.d I.T.8 ` ;.#.O.#.] w g Z N % & O.-.-.-.-.-.-.-.-.L q 1.] > [ O.= ! ~.~.~.! V                               ",
"                V.a a.~.U.s ~ :.( O 7 ] @.T t 0 0 J 1.1.-.-.-.-.-.-.;./ r -.#.7 Y H % A.~.~.Y.f d.                              ",
"              N.g ,.^.~.Q.f J -.@.L q ( ;.1.-.-.[ J J { ;.-.-.-.-.-.-.#.O.1.1.H - O e.~.~.~.M.a S.                              ",
"          U.t.8 8.Q.~.~.~.N 3 #.-.-.-.-.-.-.-.-.( & O / 1.-.-.-.-.-.-.-.-.-.-.] O z Y.~.~.~.! V                                 ",
"        N.x g j.~.~.~.~.~.a.O [ 1.-.-.-.-.-.-.1.-.O.{ 1.-.-.-.-.-.-.-.-.-.-.$.q < A.~.~.~.I.d f.                                ",
"      i.8 ,.S.Y.~.~.~.~.~.S.# H -.-.-.-.-.;.-.-.-.-.-.-.-.-.-.-.-.-.-.-.-.[ 2 % M.~.~.~.~.i.j U.                                ",
"    y.a f.Q.P.L.^.~.~.~.~.Q.h . U -.-.-.&.%.&.-.-.-.-.-.-.-.-.-.-.&.%.X.^ = 1 l.~.~.~.~.Q.j u.                                  ",
"  M.a l.~.P.D.P.^.~.~.~.~.~.e.X + L @.X. .} } o...X.%.%.%.%.%.X.o. .Q S O x Z.~.~.~.~.~.p.h P.                                  ",
"  q.m ~.Q.S.S.P.~.~.~.~.~.~.U.b @ # 3 R _ }  . . . .} } } | _ W F 6 : d u.Q.~.~.~.~.~.P.d i.                                    ",
"  r.k ^.E.S.S.L.^.~.~.~.~.~.~.Y.D.Z.Z , * 4 D S S D 4 4 ; w u l c ! k.Y.~.~.~.~.~.~.Q.M N T.                                    ",
"  B.a u.^.U.L.S.L.U.Q.~.~.~.~.~.~.~.~.P.g.q.V N B V 9.e.s.N.L.Q.^.~.~.~.~.~.~.~.~.U.N g Z.                                      ",
"    a.< e.U.^.E.L.L.L.P.Y.Q.Q.Q.Q.^.~.~.~.~.~.~.~.~.~.~.~.~.~.~.~.~.~.~.~.~.~.^.l.h x V.                                        ",
"      g.g g y.C.E.Q.Q.U.I.I.P.P.P.U.Q.~.~.~.~.^.T.S.N.a.u.u.u.p.N.S.P.H.H.B.u.b a 9.I.                                          ",
"        H.u.x a j ! u.j.B.A.Z.A.A.A.B.j.a.w.V x f f f z m m m x j d d d d d x w.C.                                              ",
"            Q.Z.i.,.b f d d d d d d d j x N 8.u.g.B.P.Y.        P.V.N.M.N.S.Q.                                                  ",
"                      I.D.B.B.B.B.V.S.U.                                                                                        ",
"                                                                                                                                ",
"                                                                                                                                ",
"                                                                                                                                ",
"                                                                                                                                ",
"                                                                                                                                ",
"                                                                                                                                ",
"                                                                                                                                ",
"                                                                                                                                ",
"                                                                                                                                ",
"                                                                                                                                ",
"                                                                                                                                ",
"                                                                                                                                ",
"                                                                                                                                "
};
