/* XPM */
static char *_0996_8bc2bffb607f52f6800ca6762dea5ac528bd4aa61db716a80ddeff6c3c65b69f_4[] = {
/* columns rows colors chars-per-pixel */
"64 64 256 2 ",
"   c None",
".  c #291F1C",
"X  c #281C17",
"o  c #36281E",
"O  c #3C2A19",
"+  c #352518",
"@  c #312521",
"#  c #352D2D",
"$  c #3C322E",
"%  c #412E19",
"&  c #47321B",
"*  c #4C361C",
"=  c #533B1E",
"-  c #51351C",
";  c #623E1D",
":  c #402F20",
">  c #443222",
",  c #4E3A24",
"<  c #43372E",
"1  c #4B3A29",
"2  c #513C22",
"3  c #463D3A",
"4  c #483F3D",
"5  c #463A33",
"6  c #5B411D",
"7  c #6A481D",
"8  c #734518",
"9  c #754C1D",
"0  c #564024",
"q  c #5C4220",
"w  c #584329",
"e  c #4E4136",
"r  c #4B413E",
"t  c #52453A",
"y  c #654922",
"u  c #6B4D22",
"i  c #634728",
"p  c #6E5024",
"a  c #735425",
"s  c #7D5A25",
"d  c #795723",
"f  c #664E3A",
"g  c #4E4543",
"h  c #504744",
"j  c #524945",
"k  c #554C4A",
"l  c #584F4D",
"z  c #59514E",
"x  c #5C5452",
"c  c #605856",
"v  c #645C5A",
"b  c #66554A",
"n  c #69615F",
"m  c #67605E",
"M  c #6C6563",
"N  c #6F6866",
"B  c #716967",
"V  c #746D6C",
"C  c #77706F",
"Z  c #79706B",
"A  c #7A7472",
"S  c #7E7876",
"D  c #777170",
"F  c #814D19",
"G  c #8A5119",
"H  c #A8621B",
"J  c #845F25",
"K  c #866128",
"L  c #896429",
"P  c #8B6527",
"I  c #906827",
"U  c #956C2A",
"Y  c #986E2A",
"T  c #9C722C",
"R  c #806338",
"E  c #9C7536",
"W  c #AC7C2E",
"Q  c #A3772C",
"!  c #A87C34",
"~  c #BB7523",
"^  c #DA7F1F",
"/  c #C8741D",
"(  c #CB7820",
")  c #837D7B",
"_  c #807977",
"`  c #B5832F",
"'  c #AF8030",
"]  c #B38331",
"[  c #BC8932",
"{  c #B88631",
"}  c #C28E33",
"|  c #C69134",
" . c #CC9535",
".. c #D39B37",
"X. c #D49C38",
"o. c #D89E38",
"O. c #E28622",
"+. c #ED8C23",
"@. c #F18D23",
"#. c #EF972B",
"$. c #F19529",
"%. c #F2982A",
"&. c #DCA239",
"*. c #E1A53A",
"=. c #E6A93B",
"-. c #EBAD3C",
";. c #F3A332",
":. c #F2A937",
">. c #F3AE3A",
",. c #F5B43E",
"<. c #F8B63F",
"1. c #FBB83F",
"2. c #B68D46",
"3. c #BA9350",
"4. c #87817F",
"5. c #B39667",
"6. c #DEA541",
"7. c #F5B643",
"8. c #F6B849",
"9. c #F6BF5B",
"0. c #F6BC53",
"q. c #F7C05C",
"w. c #F7C262",
"e. c #F8CD7E",
"r. c #8A8584",
"t. c #8D8989",
"y. c #8A8583",
"u. c #928D8B",
"i. c #96918F",
"p. c #969190",
"a. c #999494",
"s. c #9D9897",
"d. c #9E9A99",
"f. c #A19D9B",
"g. c #A5A09F",
"h. c #A7A2A2",
"j. c #AAA6A5",
"k. c #AEABAA",
"l. c #ACA8A7",
"z. c #B1ADAC",
"x. c #B4B0AF",
"c. c #B5B2B1",
"v. c #B9B6B5",
"b. c #BBB8B7",
"n. c #BDBAB9",
"m. c #D9BE90",
"M. c #C1BEBD",
"N. c #FBD99A",
"B. c #E7C892",
"V. c #C3C0BF",
"C. c #F6DCAD",
"Z. c #FCE2B2",
"A. c #C5C3C2",
"S. c #CAC7C7",
"D. c #CDCBCB",
"F. c #CBC8C7",
"G. c #D1CECE",
"H. c #D2D0CF",
"J. c #D5D3D2",
"K. c #D8D7D6",
"L. c gainsboro",
"P. c #DAD8D7",
"I. c #E0DEDE",
"U. c #FCE9C6",
"Y. c #FDEED3",
"T. c #FFF2DA",
"R. c #DFE0E0",
"E. c #E4E3E3",
"W. c #E8E7E7",
"Q. c #E9E8E7",
"!. c #E7E8E8",
"~. c #ECEBEB",
"^. c #F0EFEF",
"/. c #FEF9ED",
"(. c #F9F3E9",
"). c #EFF0F0",
"_. c #F4F4F4",
"`. c #FEFEFE",
"'. c #FBF9F4",
"]. c black",
"[. c black",
"{. c black",
"}. c black",
"|. c black",
" X c black",
".X c black",
"XX c black",
"oX c black",
"OX c black",
"+X c black",
"@X c black",
"#X c black",
"$X c black",
"%X c black",
"&X c black",
"*X c black",
"=X c black",
"-X c black",
";X c black",
":X c black",
">X c black",
",X c black",
"<X c black",
"1X c black",
"2X c black",
"3X c black",
"4X c black",
"5X c black",
"6X c black",
"7X c black",
"8X c black",
"9X c black",
"0X c black",
"qX c black",
"wX c black",
"eX c black",
"rX c black",
"tX c black",
"yX c black",
"uX c black",
"iX c black",
"pX c black",
"aX c black",
"sX c black",
"dX c black",
"fX c black",
"gX c black",
"hX c black",
"jX c black",
"kX c black",
"lX c black",
"zX c black",
"xX c black",
"cX c black",
"vX c black",
"bX c black",
"nX c black",
"mX c black",
"MX c black",
"NX c black",
"BX c black",
"VX c black",
"CX c black",
"ZX c black",
"AX c black",
"SX c black",
"DX c black",
"FX c black",
"GX c black",
"HX c black",
"JX c black",
"KX c black",
"LX c black",
"PX c black",
"IX c black",
"UX c black",
/* pixels */
"                                                                                                                                ",
"                                                                                                                                ",
"                                                                                                                                ",
"                                                                                                                                ",
"                                                                                                                                ",
"                                                                                                                                ",
"                                                                                                                                ",
"                                                                                                                                ",
"                                                                                                                                ",
"                                                                                                                                ",
"                                                                                                                                ",
"                                                                                                                M.) ) t.x._.    ",
"                                                                                                              '.v.y.a.) j u.    ",
"                                                                                                        H.) m v v _ D.`.b.j K.  ",
"                                                                                                        K.u.h.c.x.4.g A._.x n.  ",
"                                                                                        !.K.V.x.z.k.z.b.K._.`.    `.y.V ~.x n.  ",
"                                                                                  L.h.V l g l x l l x j g l A v._.  A.z E.u.J.  ",
"                                                                        ~.H.b.s.V j x y.z.H.E.).).Q.!.E.J.z.A 3 s.  D.k K.`.    ",
"                                                                  ~.x._ x k x M u.A._.`.`.`.`.'.!.R.I.I.~.`.`.j.k E.J.z J.      ",
"                                                              '.v.v 3 C n.R._.`.Q.a.x._.`.`.`._.).).!.L.L.`.`.D.j P.  S.^.      ",
"                                                        ^.~.L.) $ B c.A.z.t._ f.y.7 i v.`.`.`.`.`.`.R.L.R.`.`.f.v _.            ",
"                                                E.S.h.) v z e + + 3 < @ X + p & $ [ Q r.`.`.`.`.`.).L.L.~.`.~.l s.              ",
"                                          E.l.A j 1 w a E 2.3.2.[ } [ ] T p & @ , *.Q _ `.`.`.`.`.E.L.!.`.`.a.k R.              ",
"                                      W.d.j 2 R 5.m.C.Z.T././.N.<.<.<.<.<.,.[ = & &.' A `.`.`.`.`.R.R._.`.J.4 k.                ",
"                                    S.v 2 ! B.T.`.`.`.`.`./.Z.0.<.,.,.,.,.,.<.&.p q I Z `.`.`.`.`.)._.`._.v ) '.                ",
"                                  b.e d &.Z.`.`.`.`.(.Y.N.q.7.,.,.,.,.,.,.,.,.<.*.y + B '.`.`.`.`.`.`.`.t.x E.                  ",
"                                b.5 U -.q.(./.Y.C.e.q.7.,.>.,.,.,.,.,.,.,.,.,.,.<.o.* c '.`.`.`.`.`.`.b.r V.                    ",
"                              D.t U ,.<.7.9.9.7.,.,.,.<.,.,.,.,.,.,.,.,.,.,.,.,.<.<.' < K.`.`.`.`.`.L.j s.                      ",
"                            ~.m s >.,.,.,.,.,.,.,.,.,.,.,.,.,.,.,.,.,.,.,.,.,.,.,.<.=.= u.`.`.`.`.'.V M ~.                      ",
"                            d.0 &.7.,.,.,.,.,.,.,.,.,.,.,.,.,.,.,.,.,.,.,.,.,.,.,.,.<.J v `.`.`.`.x.g H.                        ",
"                          K.j W <.,.,.,.,.,.,.,.,.,.,.,.,.,.,.,.,.,.,.,.,.,.,.,.,.,.<.U x '.`.`._.x u.                          ",
"                        A.k 6 -.<.<.,.,.,.,.,.,.,.,.,.,.,.,.,.,.,.,.,.,.,.,.,.,.,.<.<.P M `.`.`.c.h P.                          ",
"                      v.r . U <.,.,.,.<.<.<.<.7.,.,.,.,.,.,.,.<.,.,.,.,.,.,.,.,.,.,.,.u t.`.`.`.B )                             ",
"                    H.j y.t { <.,.,.,...{ ` } =.,.<.,.,.,.,.,.<.-.=.-.,.7.<.,.,.,.<...> M.`.`.Q.j b.                            ",
"                  ~.N Z P.t  .<.,.<.>.y . j t 0 K ..,.,.,.,.=.Y q 0 6 p Q &.,.<.<.<.L g ~.`.`.M.j L.                            ",
"                  h.j E.E.4  .<.,.*.,.{ , c t.V # * &.<.,.<.[ O P ' ] U q - T -.<.X.O u.`.`.`.u.B                               ",
"                K.l j.`.R.3 } <.[ * a &.o.I y w 2 s =.<.,.<.&.y 6 a { ,.-.' 6 a *.d 4 E.`.`._.x f.                              ",
"              G.c Z _.`.~.g W <.&.s * ] <.<.-.=...! ] =.,.,.,.-.[ K * K >.7.&.U U o j.`.`.`.K.g D.                              ",
"          '.z.g B ~.`.`.'.v s 7.<.,.-.7.,.,.,.<.{ O + ] <.,.,.,.7.<. .= T <.7...& C '.`.`.`.s.v _.                              ",
"        P.S g d._.`.`.`.`.p.& &.,.,.,.,.,.,.,.7.-. .| =.,.,.,.,.,.,.<... .<.&.6 x E.`.`.`._.v a.                                ",
"      M.l m G._.`.`.`.`.`.P.5 U <.,.,.,.,.<.,.,.7.<.<.,.,.,.,.,.,.,.,.,.1. .= g J.`.`.`.`.F.g J.                                ",
"    b.4 y.~.!.P._.`.`.`.`.`.d.> ] <.<.>.:.:.:.>.>.,.,.,.,.,.,.,.,.;.;.#.W % j J.`.`.`.`.`.S S                                   ",
"  E.x y.`.!.L.L._.`.`.`.`.`.'.t.& W -.$.@.+.+.$.$.%.;.;.;.;.;.$.$.+.( 9 @ V E.`.`.`.`.`.J.g A.                                  ",
"  n.g E.'.R.L.R.'.`.`.`.`.`.`.'.s.$ 9 ~ O.+.@.@.@.+.+.+.O.O.O./ H 8 > x c._.`.`.`.`.`.'.V S '.                                  ",
"  n.g I._.L.L.L.).`.`.`.`.`.`.`.`.F.M < - 8 F G G F 8 7 ; i f b n t.A._.`.`.`.`.`.`.`.g.j K.                                    ",
"  E.l t.'.).R.L.R.~._.`.`.`.`.`.`.`.'.P.k.t.C C V S t.a.x.D.E._.`.`.`.`.`.`.`.`.`.`.l.4 c.                                      ",
"    b.4 r.)._.).R.L.I.E.~._._.'.'.'.`.`.`.`.`.`.`.`.`.`.`.`.`.`.`.`.`.`.`.`.`.`.~.t.r l.                                        ",
"      n.x l h.L._._.).!.E.E.R.R.R.R.~.`.`.`.`.`.`._.E.D.c.z.z.x.J.Q._._._.Q.D.p.k c M.                                          ",
"        E.f.v h v u.c.D.L.E.E.E.E.W.E.L.G.b.f.) B x k j k k k k k k z x z j k M j.Q.                                            ",
"            ~.F.f.A x j j k l l k k j j k z m ) u.z.A.K.E.    E.P.M.b.c.c.M.L._.                                                ",
"                    ~.K.A.M.M.n.M.M.M.F.P.~.                                                                                    ",
"                                                                                                                                ",
"                                                                                                                                ",
"                                                                                                                                ",
"                                                                                                                                ",
"                                                                                                                                ",
"                                                                                                                                ",
"                                                                                                                                ",
"                                                                                                                                ",
"                                                                                                                                ",
"                                                                                                                                ",
"                                                                                                                                ",
"                                                                                                                                ",
"                                                                                                                                "
};
