/* XPM */
static char *_0996_8bc2bffb607f52f6800ca6762dea5ac528bd4aa61db716a80ddeff6c3c65b69f_5[] = {
/* columns rows colors chars-per-pixel */
"64 64 256 2 ",
"   c None",
".  c #281C16",
"X  c #35261A",
"o  c #3D2B1A",
"O  c #302115",
"+  c #2D2322",
"@  c #362A23",
"#  c #3C3028",
"$  c #3F3633",
"%  c #45311C",
"&  c #4B351C",
"*  c #4D381E",
"=  c #543D1E",
"-  c #56371A",
";  c #613E1E",
":  c #423225",
">  c #43352B",
",  c #46382C",
"<  c #4C3C2C",
"1  c #493520",
"2  c #583F20",
"3  c #433832",
"4  c #4B3E35",
"5  c #463D3A",
"6  c #493F3B",
"7  c #59401F",
"8  c #6A4018",
"9  c #60451E",
"0  c #744518",
"q  c #73491B",
"w  c #5D4320",
"e  c #52402C",
"r  c #4A413E",
"t  c #56483A",
"y  c #614621",
"u  c #654922",
"i  c #6C4C21",
"p  c #634529",
"a  c #6F5126",
"s  c #745425",
"d  c #7A5623",
"f  c #7D5A25",
"g  c #654E36",
"h  c #4E4543",
"j  c #504744",
"k  c #514845",
"l  c #544C4A",
"z  c #59514E",
"x  c #57504E",
"c  c #5D5553",
"v  c #5F5855",
"b  c #615957",
"n  c #645D5B",
"m  c #6A5E53",
"M  c #65554B",
"N  c #68615F",
"B  c #67605D",
"V  c #6D6564",
"C  c #6B6463",
"Z  c #706967",
"A  c #746D6C",
"S  c #76706E",
"D  c #78716F",
"F  c #7B7473",
"G  c #7F7978",
"H  c #7B7473",
"J  c #804D19",
"K  c #8A5119",
"L  c #A25F1A",
"P  c #825E25",
"I  c #8C6527",
"U  c #856128",
"Y  c #8A6529",
"T  c #976E2B",
"R  c #9D732C",
"E  c #846432",
"W  c #9C7637",
"Q  c #A1752C",
"!  c #A6792E",
"~  c #AC7D2E",
"^  c #BD7F2B",
"/  c #AD7E30",
"(  c #C5731D",
")  c #D87E1F",
"_  c #C67922",
"`  c #837D7C",
"'  c #B1812F",
"]  c #B58431",
"[  c #B98731",
"{  c #BD8B34",
"}  c #D88C2B",
"|  c #C38E33",
" . c #C59034",
".. c #CB9535",
"X. c #CF9836",
"o. c #D59C37",
"O. c #D59C38",
"+. c #EE8D24",
"@. c #E48924",
"#. c #F18D23",
"$. c #EF9126",
"%. c #F1972A",
"&. c #EE9E30",
"*. c #DBA139",
"=. c #E2A63A",
"-. c #ECAD3C",
";. c #E7A93B",
":. c #F3A433",
">. c #F3A936",
",. c #F4AE3A",
"<. c #F5B43E",
"1. c #F8B63F",
"2. c #FAB83F",
"3. c #B18B4B",
"4. c #BC9758",
"5. c #85807F",
"6. c #B69764",
"7. c #F6B744",
"8. c #F6B94C",
"9. c #F9BC4F",
"0. c #F6BE58",
"q. c #F7C05C",
"w. c #F7C66C",
"e. c #E9C17A",
"r. c #8A8482",
"t. c #8C8887",
"y. c #928D8C",
"u. c #95908F",
"i. c #969190",
"p. c #9A9594",
"a. c #9E9999",
"s. c #A29D9C",
"d. c #A4A09E",
"f. c #A6A2A1",
"g. c #A9A5A4",
"h. c #AFABA9",
"j. c #ABA8A7",
"k. c #B2AEAD",
"l. c #B4B0AF",
"z. c #B6B2B2",
"x. c #B9B6B5",
"c. c #BBB8B7",
"v. c #BDBAB9",
"b. c #C1BEBD",
"n. c #DAC092",
"m. c #F8CF84",
"M. c #FBD285",
"N. c #C3C0BF",
"B. c #FADDA9",
"V. c #F1DBB3",
"C. c #FBE0B0",
"Z. c #C5C2C1",
"A. c #C9C6C5",
"S. c #CAC8C7",
"D. c #CDCACA",
"F. c #D1CFCE",
"G. c #D2D0CF",
"H. c #D5D3D3",
"J. c gainsboro",
"K. c #D9D7D6",
"L. c #E0DFDE",
"P. c #FDEAC7",
"I. c #E1E0DF",
"U. c #FDEED2",
"Y. c #FFF2D8",
"T. c #DFE0E0",
"R. c #E3E2E2",
"E. c #E8E7E6",
"W. c #ECEBEB",
"Q. c #E8E8E7",
"!. c #FEF7EB",
"~. c #F8F5EE",
"^. c #F4F3F3",
"/. c #FFFCF6",
"(. c #FEFEFE",
"). c black",
"_. c black",
"`. c black",
"'. c black",
"]. c black",
"[. c black",
"{. c black",
"}. c black",
"|. c black",
" X c black",
".X c black",
"XX c black",
"oX c black",
"OX c black",
"+X c black",
"@X c black",
"#X c black",
"$X c black",
"%X c black",
"&X c black",
"*X c black",
"=X c black",
"-X c black",
";X c black",
":X c black",
">X c black",
",X c black",
"<X c black",
"1X c black",
"2X c black",
"3X c black",
"4X c black",
"5X c black",
"6X c black",
"7X c black",
"8X c black",
"9X c black",
"0X c black",
"qX c black",
"wX c black",
"eX c black",
"rX c black",
"tX c black",
"yX c black",
"uX c black",
"iX c black",
"pX c black",
"aX c black",
"sX c black",
"dX c black",
"fX c black",
"gX c black",
"hX c black",
"jX c black",
"kX c black",
"lX c black",
"zX c black",
"xX c black",
"cX c black",
"vX c black",
"bX c black",
"nX c black",
"mX c black",
"MX c black",
"NX c black",
"BX c black",
"VX c black",
"CX c black",
"ZX c black",
"AX c black",
"SX c black",
"DX c black",
"FX c black",
"GX c black",
"HX c black",
"JX c black",
"KX c black",
"LX c black",
"PX c black",
"IX c black",
"UX c black",
/* pixels */
"                                                                                                                                ",
"                                                                                                                                ",
"                                                                                                                                ",
"                                                                                                                                ",
"                                                                                                                                ",
"                                                                                                                                ",
"                                                                                                                                ",
"                                                                                                                                ",
"                                                                                                                                ",
"                                                                                                                                ",
"                                                                                                                                ",
"                                                                                                              L.D.b.Z.R.        ",
"                                                                                                            H.b l l k c A.      ",
"                                                                                                      W.A.g.y.A s.J.E.F n E.    ",
"                                                                                                    (.a.j x n C l n I.J.h N.    ",
"                                                                                      R.S.z.j.a.a.a.s.i.h.J.^./.R.V Z Q.l h.    ",
"                                                                                R.l.D l r r h l c b c c j h A Z.(.S.6 D.A l.    ",
"                                                                      W.F.k.i.S k h ` z.K.R.W.^.^.Q.Q.Q.J.v.F r v.^.l g.Q.W.    ",
"                                                                  D.y.c h l V t.x.E.(.(.(.(.(.^.R.J.J.T.^.(.(.G F /.n r.        ",
"                                                              R.y.r x a.H.^.(.(.x.t.G.(.(.(.(.^.^.^.R.J.R.(.(.y.A (.5.s.        ",
"                                                          W.Z.z r d.J.Q.I.F.v.j.t K B ^.(.(.(.(.(.^.J.J.Q.(./.n y.  Q.W.        ",
"                                                R.Z.f.` n z > . > t r 5 $ + % & 7 ;.g H.(.(.(.(.(.Q.J.T.^.(.Z.5 D.              ",
"                                          J.f.A j < w s W 3.4.4.{ | [ ' T i % o a <.a x.(.(.(.(.(.R.J.W.(.^.C F ^.              ",
"                                      R.u.j 2 E 6.n.V.P.Y.!./.P.9.1.1.1.<.<.| = 7 *.U a.(.(.(.(.^.T.R.(.(.f.h F.                ",
"                                    Z.c = / e.U./.(.(.(.(./.P.w.<.<.<.<.<.<.7.*.u 7 f 5.(.(.(.(.(.^.^.(.H.r g.                  ",
"                                  l.4 P =.M./.(.(.(.!.U.B.w.7.<.<.<.<.<.<.<.<.1.=.y O A (.(.(.(.(.(.(.^.n F ^.                  ",
"                                k., R <.7.B.!.U.B.m.q.7.<.<.<.<.<.<.<.<.<.<.<.<.1.o.% c ^.(.(.(.(.(.(.u.l J.                    ",
"                              N.4 Q <.<.<.8.0.8.7.<.<.<.<.<.<.<.<.<.<.<.<.<.<.<.<.<.Q 3 L.(.(.(.(.(.S.6 x.                      ",
"                            R.b P <.<.<.<.<.<.<.<.<.<.<.<.<.<.<.<.<.<.<.<.<.<.<.<.<.=.* s.(.(.(.(.^.n 5.                        ",
"                            u.7 =.<.<.<.<.<.<.<.<.<.<.<.<.<.<.<.<.<.<.<.<.<.<.<.<.<.<.d A (.(.(.(.f.l J.                        ",
"                          F.6 ' 1.<.<.<.<.<.<.<.<.<.<.<.<.<.<.<.<.<.<.<.<.<.<.<.<.<.1.U C (.(.(.W.l s.                          ",
"                        v.h 7 -.<.<.<.<.<.<.<.<.<.<.<.<.<.<.<.<.<.<.<.<.<.<.<.<.<.<.1.P A (.(.(.k.l R.                          ",
"                      z.6 . R 1.<.<.<.1.1.1.<.<.<.<.<.<.<.<.<.<.<.<.<.<.<.<.<.<.<.<.-.y a.(.(.(.V r.                            ",
"                    H.k G 4 | 1.<.<.<.=... .*.7.1.1.<.<.<.<.<.<.<.<.<.<.<.<.<.<.<.<...: D.(.(.Q.k x.                            ",
"                  ^.V A H.< o.1.<.<.-.a X r e u Q =.<.<.<.<.<.<.<.<.<.<.<.<.<.<.<.<.d z ^.(.(.Z.j J.                            ",
"                  l.h L.J.< o.1.<.<.<.~ o C y.Z # w =.<.<.<.<.<.<.<.1.1.<.<.<.<.7.| X s.(.(.(.i.C ^.                            ",
"                Q.b p.(.J., ..2. .y Y =...d e e : u =.<.<.<.<.<.1.-. .R P d ! 7.-.w l W.(.(./.N y.                              ",
"              R.A n W.(.R.3 [ 1.O.y o ' 1.<.=.o...{ ..-.<.<.<.<.{ y & y f U [ <.R + z.(.(.(.T.r b.                              ",
"            N.c b J.(.(.^.k Y <.1.-.*.-.<.<.1.7.] X X ] <.<.-.T & Y *.<.1.1.7. .o ` /.(.(.(.k.k R.                              ",
"        W.i.5 ` W.(.(.(.(.G = -.<.<.<.7.<.<.<.<.;.] ' *.<.7.! = { *.....*.<.o.& n W.(.(.(.(.A F                                 ",
"      K.Z k x.W./.(.(.(.(.Z.@ / 1.<.<.<.<.<.<.<.<.1.1.<.<.-.w s P & & * s / % x L.(.(.(.(.L.r z.                                ",
"    J.b N L.W.J.W.(.(.(.(.(.` %  .1.<.<.>.>.>.<.<.<.<.<.<.<.Y & i ^ } } Y X v J.(.(.(.(.(.s.z E.                                ",
"    ` b W.^.J.J.^.(.(.(.(.(.^.F & [ >.$.+.#.+.$.$.%.:.:.:.:.&.@.+.+._ q @ ` Q.(.(.(.(.(.W.x p.                                  ",
"  K.k b.(.R.J.T.^.(.(.(.(.(.(.^.r.# f _ @.+.#.#.#.#.#.#.@.@.) ( L 0 : n v./.(.(.(.(.(.(.s.k L.                                  ",
"  K.h Z.(.T.J.J.W.(.(.(.(.(.(.(.(.b.n > - 0 K K K q 0 ; 2 p g M C y.S.^.(.(.(.(.(.(.(.H.6 d.                                    ",
"  /.F V ^.W.T.J.T.Q.^.(.(.(.(.(.(.(.^.K.f.r.S S S G y.a.x.G.E.^./.(.(.(.(.(.(.(.(.(.J.z A ^.                                    ",
"    K.x H R.^.W.T.T.T.R.^.^.(.(./.(.(.(.(.(.(.(.(.(.(.(.(.(.(.(.(.(.(.(.(.(.(.(.(.b.h V J.                                      ",
"      H.C l s.R.^.^.W.Q.R.T.T.T.T.T.Q./.(.(.(.(.(.(./.Q.H.D.D.S.K.W.(./.(./.Q.N.F 5 r.Q.                                        ",
"        W.f.n j n i.c.K.I.W.W.W.W.W.W.W.R.K.b.f.y.F n l j l l l j l n Z V n l j S Z.                                            ",
"            Q.b.i.V l h h l z z x x c l j j l b A r.g.c.H.R.L.L.D.z.a.i.i.a.x.K./.                                              ",
"                  ^.R.D.x.f.s.a.a.s.g.z.b.D.R.^.                                                                                ",
"                                                                                                                                ",
"                                                                                                                                ",
"                                                                                                                                ",
"                                                                                                                                ",
"                                                                                                                                ",
"                                                                                                                                ",
"                                                                                                                                ",
"                                                                                                                                ",
"                                                                                                                                ",
"                                                                                                                                ",
"                                                                                                                                ",
"                                                                                                                                ",
"                                                                                                                                "
};
