/* XPM */
static char *_0996_8bc2bffb607f52f6800ca6762dea5ac528bd4aa61db716a80ddeff6c3c65b69f_6[] = {
/* columns rows colors chars-per-pixel */
"64 64 256 2 ",
"   c None",
".  c #2B1D15",
"X  c #261A16",
"o  c #2F2119",
"O  c #33251B",
"+  c #38281B",
"@  c #3A2D26",
"#  c #3A2E29",
"$  c #342925",
"%  c #3E332D",
"&  c #412E1A",
"*  c #44301B",
"=  c #4D351C",
"-  c #4E381D",
";  c #543C1D",
":  c #5C3919",
">  c #653F1A",
",  c #423225",
"<  c #46382D",
"1  c #4D3C2A",
"2  c #483828",
"3  c #533D20",
"4  c #513F2B",
"5  c #493D34",
"6  c #463D3B",
"7  c #483F3C",
"8  c #453B36",
"9  c #623F20",
"0  c #5F441F",
"q  c #7C4A18",
"w  c #704318",
"e  c #5C4322",
"r  c #4D423B",
"t  c #52463E",
"y  c #504134",
"u  c #634823",
"i  c #6B4D20",
"p  c #634627",
"a  c #735324",
"s  c #7D5B26",
"d  c #75562A",
"f  c #675038",
"g  c #4D4542",
"h  c #524946",
"j  c #554D4A",
"k  c #544B49",
"l  c #59514E",
"z  c #5C5452",
"x  c #62554A",
"c  c #655D5B",
"v  c #615957",
"b  c #68615F",
"n  c #6C6462",
"m  c #6F6866",
"M  c #6E696A",
"N  c #746E6C",
"B  c #77716F",
"V  c #767070",
"C  c #7B7472",
"Z  c #7F7877",
"A  c #8A5219",
"S  c #B4691C",
"D  c #815D25",
"F  c #8B5E22",
"G  c #8A6426",
"H  c #84612B",
"J  c #886227",
"K  c #936B2A",
"L  c #986F2C",
"P  c #9E732C",
"I  c #9C7638",
"U  c #A6792D",
"Y  c #AB7C2E",
"T  c #A1752B",
"R  c #AE7F30",
"E  c #D67D1F",
"W  c #CA7D24",
"Q  c #827C7B",
"!  c #AF8030",
"~  c #B48331",
"^  c #BB8932",
"/  c #B98730",
"(  c #C28D33",
")  c #C59034",
"_  c #CC9636",
"`  c #CF9837",
"'  c #D39A36",
"]  c #D69D38",
"[  c #E68822",
"{  c #EE8D24",
"}  c #E38521",
"|  c #F08D23",
" . c #ED9328",
".. c #F29E2F",
"X. c #F09428",
"o. c #DDA239",
"O. c #E2A63A",
"+. c #E6A93B",
"@. c #EBAD3C",
"#. c #F3A433",
"$. c #F3A937",
"%. c #F4AE3A",
"&. c #EFB03D",
"*. c #F5B43E",
"=. c #F8B63E",
"-. c #FAB83F",
";. c #B18C4D",
":. c #BF9245",
">. c #87817F",
",. c #BA9963",
"<. c #F5B644",
"1. c #F6B849",
"2. c #F6BC52",
"3. c #E8BA68",
"4. c #F7C05D",
"5. c #F9C973",
"6. c #F8CC7C",
"7. c #FAC464",
"8. c #857F80",
"9. c #898482",
"0. c #8C8786",
"q. c #918C8A",
"w. c #979290",
"e. c #9A9594",
"r. c #9D9897",
"t. c #9F9A99",
"y. c #A19C9B",
"u. c #A4A09F",
"i. c #A6A2A1",
"p. c #A9A5A4",
"a. c #ADAAA9",
"s. c #ABA7A8",
"d. c #B2AEAD",
"f. c #B4B0AF",
"g. c #B5B2B1",
"h. c #BAB6B5",
"j. c #BBB8B7",
"k. c #BDBAB9",
"l. c #C1BEBD",
"z. c #DAC094",
"x. c #F9D085",
"c. c #C3C0BF",
"v. c #FADDA8",
"b. c #F2DDB8",
"n. c #FBE0B0",
"m. c #C6C3C2",
"M. c #C8C6C5",
"N. c #CAC8C7",
"B. c #CDCBCA",
"V. c #D1CFCE",
"C. c #D4D2D2",
"Z. c #D9D7D6",
"A. c #DCDCDB",
"S. c #E0DEDE",
"D. c #FCECCD",
"F. c #FEEAC7",
"G. c #FDEED3",
"H. c #FFF3DB",
"J. c #DFE0E0",
"K. c #E4E3E3",
"L. c #E8E7E6",
"P. c #ECECEC",
"I. c #E7E8E8",
"U. c #F0EFEF",
"Y. c #FEF4E3",
"T. c #FFFAED",
"R. c #F7F3ED",
"E. c #F3F3F3",
"W. c #F8F7F7",
"Q. c #FFFDF7",
"!. c #FEFEFE",
"~. c black",
"^. c black",
"/. c black",
"(. c black",
"). c black",
"_. c black",
"`. c black",
"'. c black",
"]. c black",
"[. c black",
"{. c black",
"}. c black",
"|. c black",
" X c black",
".X c black",
"XX c black",
"oX c black",
"OX c black",
"+X c black",
"@X c black",
"#X c black",
"$X c black",
"%X c black",
"&X c black",
"*X c black",
"=X c black",
"-X c black",
";X c black",
":X c black",
">X c black",
",X c black",
"<X c black",
"1X c black",
"2X c black",
"3X c black",
"4X c black",
"5X c black",
"6X c black",
"7X c black",
"8X c black",
"9X c black",
"0X c black",
"qX c black",
"wX c black",
"eX c black",
"rX c black",
"tX c black",
"yX c black",
"uX c black",
"iX c black",
"pX c black",
"aX c black",
"sX c black",
"dX c black",
"fX c black",
"gX c black",
"hX c black",
"jX c black",
"kX c black",
"lX c black",
"zX c black",
"xX c black",
"cX c black",
"vX c black",
"bX c black",
"nX c black",
"mX c black",
"MX c black",
"NX c black",
"BX c black",
"VX c black",
"CX c black",
"ZX c black",
"AX c black",
"SX c black",
"DX c black",
"FX c black",
"GX c black",
"HX c black",
"JX c black",
"KX c black",
"LX c black",
"PX c black",
"IX c black",
"UX c black",
/* pixels */
"                                                                                                                                ",
"                                                                                                                                ",
"                                                                                                                                ",
"                                                                                                                                ",
"                                                                                                                                ",
"                                                                                                                                ",
"                                                                                                                                ",
"                                                                                                                                ",
"                                                                                                                                ",
"                                                                                                                                ",
"                                                                                                                  P.P.E.        ",
"                                                                                                              L.9.c c c y.E.    ",
"                                                                                                            E.K.y.f.k.y.h r.    ",
"                                                                                                        h.C z z z C V.!.i.z I.  ",
"                                                                                                      !.d.9.p.f.d.C j Z.V.h C.  ",
"                                                                                      W.A.l.a.y.r.r.r.t.p.B.P.!.  E.n q.Z.k V.  ",
"                                                                                  Z.p.n g r l c n n n c l 6 g Q V.  y.b L.g.P.  ",
"                                                                        K.M.s.0.N h l 0.k.Z.E.!.W.W.E.P.I.A.d.c l K.m.j L.      ",
"                                                                  U.j.Z j h l C t.N.U.!.!.!.!.W.I.A.A.A.J.W.!.I.h d.Z.v K.      ",
"                                                                M.m 8 m h.K.W.C.Q i.W.!.!.!.!.!.W.W.E.A.A.E.!.W.z i.W.V.        ",
"                                                        E.  K.e.6 B N.E.Q.Q.E.C D p f.!.!.!.!.!.!.!.I.A.A.W.!.V.h B.            ",
"                                                K.m.p.Q c l t O O h l c b c h @ ) Y C !.!.!.!.!.!.W.J.A.I.!.!.Z C               ",
"                                          S.s.C h 2 e d I ;.,.,.) ( / R K i o . ( ' x U.!.!.!.!.!.P.A.K.W.!.m.g B.              ",
"                                      L.w.h 3 H ,.z.b.F.H.T.Q.T.5.=.=.-.*.*.) 0 0 _ f C.!.!.!.!.!.I.A.E.!.I.z w.                ",
"                                    m.z ; Y 3.F.Q.!.!.!.!.Q.D.6.<.*.*.*.*.*.=.o.u 0 u s.!.!.!.!.!.W.E.!.W.C b P.                ",
"                                  d.5 J O.7.Y.!.!.!.T.D.v.5.1.*.*.*.*.*.*.*.*.*.O.u X Q !.!.!.!.!.!.!.!.r.g V.                  ",
"                                d.< P *.*.6.Y.G.v.x.4.1.*.*.*.*.*.*.*.*.*.*.*.*.=.] * j E.!.!.!.!.!.!.c.6 d.                    ",
"                              m.5 P *.*.*.<.2.1.*.*.*.*.*.*.*.*.*.*.*.*.*.*.*.*.*.=.U % A.!.!.!.!.!.L.j q.                      ",
"                            A.z J *.*.*.*.*.*.*.*.*.*.*.*.*.*.*.*.*.*.*.*.*.*.*.*.*.+.; a.!.!.!.!.W.Q n I.                      ",
"                            0.e +.*.*.*.*.*.*.*.*.*.*.*.*.*.*.<.*.*.*.*.*.*.*.*.*.*.*.a Q !.!.!.!.k.r B.                        ",
"                          B.5 ^ *.*.*.*.*.*.*.*.*.*.*.*.*.*.*.*.*.*.*.*.*.*.*.*.*.*.*.J V !.!.!.W.v q.                          ",
"                        m.j i &.*.*.*.*.*.*.*.*.*.*.*.*.*.*.*.*.*.*.*.*.*.*.*.*.*.*.*.s 9.!.!.!.h.h Z.                          ",
"                      h.6 X U =.*.*.*.<.*.*.*.*.*.*.*.*.*.*.*.*.*.*.*.*.*.*.*.*.*.*.@.e a.!.!.!.N 9.                            ",
"                    m.g V 2 _ =.*.*.*.@.O.O.@.<.=.*.*.*.*.*.*.*.*.*.*.*.*.*.*.*.*.*.( < A.!.!.L.j l.                            ",
"                  L.z Q M.1 o.*.*.*.%.s & 4 e s ^ @.*.*.*.*.*.*.*.*.*.*.*.*.*.*.*.*.i c W.!.!.k.z L.                            ",
"                  r.z P.m.1 O.*.*.*.=.K $ M q.c # a +.*.*.*.*.*.*.*.*.*.*.*.*.*.<.~ O g.!.!.!.9.Q                               ",
"                B.g h.!.l.2 o.=.` s Y +.R u y t @ ; O.*.*.*.*.*.*.*.*.*.@.*.*.*.+.3 c E.!.!.U.l a.                              ",
"              B.l Q W.!.B., ` =._ = O R -.@.' ( ^ ( ] *.*.*.*.*.*.*.@.H K *.*.*.G # M.!.!.!.m.k Z.                              ",
"          E.y.g Z U.!.!.K.8 Y <.*.O._ O.*.*.=.=.^ & & ^ =.*.*.*.*.@.D ; ` *.*.~ + e.!.!.!.!.Q B                                 ",
"        C.N r u.W.!.!.!.W.n i *.*.*.*.*.*.*.*.<.o.L K ] =.*.*.*.*.P - ' <.*.) * C W.!.!.!.L.g a.                                ",
"      h.h m V.E.!.!.!.!.!.g.+ ( <.*.=.=.*.*.*.*.*.=.=.*.*.*.*.*.] - Y -.@.~ & m P.!.!.!.!.p.k K.                                ",
"    a.r e.U.K.J.W.!.!.!.!.E.m ; ] =.=.%.#.$.$.*.*.*.*.*.<.*.*.=.K u *.` e o N I.!.!.!.!.U.l w.                                  ",
"  B.7 y.!.K.A.J.!.!.!.!.!.!.L.c ; _ #.| { | |  .X...#.#.#.#... .> U ' * # w.E.!.!.!.!.!.a.h A.                                  ",
"  q.n W.E.A.A.K.!.!.!.!.!.!.!.L.N , A ( [ | | | | | { { [ } E S = ) a c B.!.!.!.!.!.!.L.k r.                                    ",
"  9.V !.P.A.A.J.!.!.!.!.!.!.!.!.W.a.j 2 : q A A A q w 0 9 p x x , G 5 A.!.!.!.!.!.!.W.Q c L.                                    ",
"  g.r V.W.J.A.A.K.E.!.!.!.!.!.!.!.!.E.B.y.Q B B V Q q.t.k.C.L.E.Q < i.!.!.!.!.!.!.W.w.g N.                                      ",
"  E.Z h B.W.E.J.A.A.J.P.W.W.W.!.W.!.!.!.!.!.!.!.!.!.!.!.!.!.!.!.E.A.!.!.!.!.!.!.K.Z j k.                                        ",
"    I.9.6 9.C.W.W.P.I.K.J.J.J.J.K.L.E.!.!.!.!.!.!.!.P.Z.B.B.N.V.I.!.!.!.!.E.C.w.h m C.                                          ",
"      W.h.m g v q.k.Z.L.P.P.P.P.P.E.E.I.Z.V.d.w.Q n j h g g r g h v m m n l h n a.U.                                            ",
"          W.N.y.N z g h z c c n c v l h g h z N Q y.h.M.C.C.C.B.h.t.w.w.e.d.V.E.                                                ",
"                  L.B.k.s.y.y.t.t.y.p.k.M.A.P.                                                                                  ",
"                                                                                                                                ",
"                                                                                                                                ",
"                                                                                                                                ",
"                                                                                                                                ",
"                                                                                                                                ",
"                                                                                                                                ",
"                                                                                                                                ",
"                                                                                                                                ",
"                                                                                                                                ",
"                                                                                                                                ",
"                                                                                                                                ",
"                                                                                                                                ",
"                                                                                                                                "
};
