/* XPM */
static char *_0996_8bc2bffb607f52f6800ca6762dea5ac528bd4aa61db716a80ddeff6c3c65b69f_7[] = {
/* columns rows colors chars-per-pixel */
"64 64 256 2 ",
"   c None",
".  c #271C18",
"X  c #2F2016",
"o  c #2C201B",
"O  c #312217",
"+  c #3D2C1A",
"@  c #372618",
"#  c #382B23",
"$  c #3D312C",
"%  c #3F3022",
"&  c #3D3536",
"*  c #412E1A",
"=  c #4A351B",
"-  c #513A1E",
";  c #583D1F",
":  c #643E1A",
">  c #443323",
",  c #44362B",
"<  c #46392E",
"1  c #4D3C2C",
"2  c #533B22",
"3  c #5A3F28",
"4  c #453933",
"5  c #4B3E33",
"6  c #433A37",
"7  c #5B421F",
"8  c #60441E",
"9  c #6A441B",
"0  c #714519",
"q  c #5B4120",
"w  c #4B413E",
"e  c #514234",
"r  c #5A493A",
"t  c #614622",
"y  c #654922",
"u  c #6B4D22",
"i  c #6F5024",
"p  c #735222",
"a  c #785623",
"s  c #725428",
"d  c #4D4442",
"f  c #504744",
"g  c #524946",
"h  c #554C4A",
"j  c #584F4C",
"k  c #59514E",
"l  c #5D5553",
"z  c #615249",
"x  c #615956",
"c  c #655E5B",
"v  c #69615E",
"b  c #6C6462",
"n  c #6F6866",
"m  c #736C6B",
"M  c #716966",
"N  c #78716F",
"B  c #756F70",
"V  c #7A7472",
"C  c #7E7876",
"Z  c #7A7474",
"A  c #834F1A",
"S  c #895119",
"D  c #A05E1A",
"F  c #AD671E",
"G  c #825E26",
"H  c #835F28",
"J  c #8C6527",
"K  c #8B6529",
"L  c #946B2A",
"P  c #986E29",
"I  c #9A702B",
"U  c #957138",
"Y  c #A5782D",
"T  c #AB7D2E",
"R  c #A0742B",
"E  c #B77726",
"W  c #AC7E30",
"Q  c #C4721D",
"!  c #D67D1F",
"~  c #817A77",
"^  c #827C7A",
"/  c #B4832F",
"(  c #B58531",
")  c #BD8B34",
"_  c #B78837",
"`  c #DF8624",
"'  c #C28E33",
"]  c #C79134",
"[  c #CD9636",
"{  c #CD9738",
"}  c #D19937",
"|  c #D79D38",
" . c #D89E38",
".. c #ED8C24",
"X. c #E38522",
"o. c #F18D23",
"O. c #EF9227",
"+. c #F29629",
"@. c #DDA239",
"#. c #E6A83B",
"$. c #EBAD3C",
"%. c #EDA737",
"&. c #F2A332",
"*. c #F4A936",
"=. c #F4AD39",
"-. c #EFB03D",
";. c #F5B43E",
":. c #F8B63F",
">. c #FBB83F",
",. c #86807D",
"<. c #C79D53",
"1. c #C8A15D",
"2. c #F6B744",
"3. c #F7BA4B",
"4. c #F6BF5A",
"5. c #F6BB50",
"6. c #C8A56B",
"7. c #F7C466",
"8. c #8A8583",
"9. c #8E8989",
"0. c #878180",
"q. c #928C8B",
"w. c #96918F",
"e. c #969191",
"r. c #9A9594",
"t. c #9F9A98",
"y. c #9E9997",
"u. c #A19D9C",
"i. c #A5A09F",
"p. c #A6A2A1",
"a. c #A9A5A4",
"s. c #ACA8A7",
"d. c #AFABAA",
"f. c #B2AEAD",
"g. c #B6B2B2",
"h. c #B9B5B4",
"j. c #BBB8B7",
"k. c #BEBBBA",
"l. c #C2BFBE",
"z. c #F5CC83",
"x. c #FCD690",
"c. c #E8CB97",
"v. c #C3C0BF",
"b. c #FADAA1",
"n. c #FAE2B5",
"m. c #FCE6BE",
"M. c #C4C2C1",
"N. c #C9C6C5",
"B. c #CDCBCA",
"V. c #D1CECE",
"C. c #D2D0CF",
"Z. c #D5D3D2",
"A. c #D9D7D6",
"S. c #D9D8D7",
"D. c gainsboro",
"F. c #E0DFDE",
"G. c #FEEAC5",
"H. c #FCECCE",
"J. c #FEF1D9",
"K. c #FFF1D6",
"L. c #DFE0E0",
"P. c #E3E3E2",
"I. c #E8E7E7",
"U. c #E7E8E8",
"Y. c #ECECEC",
"T. c #E9E8E7",
"R. c #F0EFEF",
"E. c #FEF9ED",
"W. c #FEF7E9",
"Q. c #EFF0F0",
"!. c #F4F4F4",
"~. c #F8F7F7",
"^. c #FCFAF5",
"/. c #FEFEFE",
"(. c black",
"). c black",
"_. c black",
"`. c black",
"'. c black",
"]. c black",
"[. c black",
"{. c black",
"}. c black",
"|. c black",
" X c black",
".X c black",
"XX c black",
"oX c black",
"OX c black",
"+X c black",
"@X c black",
"#X c black",
"$X c black",
"%X c black",
"&X c black",
"*X c black",
"=X c black",
"-X c black",
";X c black",
":X c black",
">X c black",
",X c black",
"<X c black",
"1X c black",
"2X c black",
"3X c black",
"4X c black",
"5X c black",
"6X c black",
"7X c black",
"8X c black",
"9X c black",
"0X c black",
"qX c black",
"wX c black",
"eX c black",
"rX c black",
"tX c black",
"yX c black",
"uX c black",
"iX c black",
"pX c black",
"aX c black",
"sX c black",
"dX c black",
"fX c black",
"gX c black",
"hX c black",
"jX c black",
"kX c black",
"lX c black",
"zX c black",
"xX c black",
"cX c black",
"vX c black",
"bX c black",
"nX c black",
"mX c black",
"MX c black",
"NX c black",
"BX c black",
"VX c black",
"CX c black",
"ZX c black",
"AX c black",
"SX c black",
"DX c black",
"FX c black",
"GX c black",
"HX c black",
"JX c black",
"KX c black",
"LX c black",
"PX c black",
"IX c black",
"UX c black",
/* pixels */
"                                                                                                                                ",
"                                                                                                                                ",
"                                                                                                                                ",
"                                                                                                                                ",
"                                                                                                                                ",
"                                                                                                                                ",
"                                                                                                                                ",
"                                                                                                                                ",
"                                                                                                                                ",
"                                                                                                                                ",
"                                                                                                                  g.w.r.d.F.    ",
"                                                                                                                /.p.C V c c S.  ",
"                                                                                                          R.B.h.j.l.P./.!.N 8.  ",
"                                                                                                          p.l c m n j d./.d.b   ",
"                                                                                                          T.F.Y.  !.a.j P.d.v   ",
"                                                                                        !.D.M.f.i.y.y.y.u.h.Z.T.    !.v s.N.u.  ",
"                                                                                  !.V.r.c f d d g l l l l h d k q.P./.8.0./.    ",
"                                                                          S.v.i.0.c g c u.N.D.T.R.!.Y.T.T.U.Z.t.d m ~.r.^       ",
"                                                                    P.a.M g g v ^ p.S.!././././.~.U.P.D.D.U././.v.d S.Z.B.      ",
"                                                                !.a.l g 0.N.I.~.Z.u.B./././././.~.!.!.U.D.P.~./.N.g D.          ",
"                                                        T.D.Z.N.m $ 0.k.k.i.~ V f a r D././././././.~.L.D.U././.8.m             ",
"                                              !.S.g.e.B k e 5 , X + 5 $ . . 0 7 * @.s j././././././.U.D.D.!./.S.d j.            ",
"                                          V.e.v w q u L _ <.1.<.{ } ] ' W K - X 7 ;.G u./././././.~.P.D.Y./.~.m N !.            ",
"                                      S.^ 5 8 U 6.c.n.G.J.^.^.G.3.:.;.2.2.;.} y * [ L 9./././././.~.D.U././.t.h A.              ",
"                                    g.g y ) z.K./././././.^.m.7.;.;.;.;.;.;.;.#.i - G ~ /./././././.!.~./.l.d j.                ",
"                                  p.< P $.x././././.W.H.x.7.2.;.;.;.;.;.;.;.;.;.#.i . M ^./././././././.S.g r.                  ",
"                                a., T ;.2.n.W.J.n.z.4.2.;.;.;.;.;.;.;.;.;.;.;.;.:.@.= l ~././././././.Y.c ^ !.                  ",
"                              k.< Y ;.;.;.5.4.3.:.;.;.;.;.;.;.;.;.;.;.;.;.;.;.;.;.:./ < Z./././././.~.^ b I.                    ",
"                            F.j J ;.;.;.;.;.;.;.;.;.;.;.;.;.;.;.;.;.;.;.;.;.;.;.;.;.$.; e./././././.a.g C.                      ",
"                      I.Z.!.8.7 #.;.;.;.;.;.;.;.;.;.;.;.;.;.;.;.;.;.;.;.;.;.;.;.;.;.:.J b /./././.S.d f.                        ",
"                    ~.,.5 v < ( ;.;.;.;.;.;.;.;.;.;.;.;.;.;.;.;.;.;.;.;.;.;.;.;.;.;.2.P l ~././.~.V Z ~.                        ",
"                    R.c I 8 7 $.;.;.;.;.;.;.;.;.;.;.;.;.;.;.;.;.;.;.;.;.;.;.;.;.;.;.:.J b /././.N.g Z.                          ",
"                      ^ u t I :.;.;.;.;.:.;.:.:.;.;.;.;.;.;.;.;.;.;.;.;.;.;.;.;.;.;.;.9 w./././.V ^                             ",
"                    B.f # O ) :.;.;.;.[ I P Y } $.;.;.;.;.;.;.;.;.;.;.;.;.;.;.;.;.:.[ > N././.F.d l.                            ",
"                  F.x 8.0.O [ ;.;.;.:.G . h x 5 t ( ;.;.;.;.;.;.;.;.;.;.;.;.;.;.;.;.G g Y././.a.l T.                            ",
"                  0.c !.V., [ :.=. .#. .y f Z m & @ [ :.;.;.;.;.;.;.;.;.;.;.;.;.2.{ + r././.~.M q.                              ",
"                k.d B./.U.5 ' :.] + > ] $.W a y y L $.2.;.;.;.;.;.;.;.;.;.;.;.2.$.p d T././.S.d B.                              ",
"              g.f u././.T.d Y :.$.I u ( 2.;.:.;.} K L @.;.;.;.;.;.;.| G $.;.;.;.Y # f./././.y.v !.                              ",
"          P.8.d u.~././.~.c a ;.;.;.;.;.;.;.;.;.) * + ( :.;.;.;.;.;.( 7 $.;.:.[ * ^ ~././.!.l i.                                ",
"        k.l l N./././././.r.* @.2.;.;.;.;.;.;.;.;.@.@.$.;.;.;.;.;.:.T t ;.$.Y - x Y./././.h.h D.                                ",
"    Y.q.d e.P.!./././././.D.6 L ;.;.;.;.;.;.;.;.2.;.;.;.;.;.;.;.;.2.T y ;.| @ h D./././.~.b q.                                  ",
"  T.V k B.Y.L.T././././././.a.% / ;.;.;.*.*.=.=.=.;.;.;.;.;.;.;.=.*.E 7 %./ w S././././.k.f Z.                                  ",
"  8.l F.~.L.D.Y./././././././.r.% I %.+.o.....O.O.+.&.%.*.&.&.+.o...F * | R v /./././.!.x q.                                    ",
"Z.d v./.U.D.D.!./././././././.~.i.4 9 E ` ..o.o.o.......X.X.! Q D 9 > # P / j Y./././.r.k P.                                    ",
"B.6 Z.~.D.D.D.Q./././././././././.Z.Z 5 - 0 A S S S 0 : ; 3 r z v 9.N.g.1 T e F././.k.w h.                                      ",
"P.h 9./.U.D.D.L.Y.~./././././././././.U.g.9.V m m Z q.p.j.Z.P.!./././.~.8.> w I./.l.d y.                                        ",
"  f.& t.!.~.U.D.D.D.U.!.~.~.~./././././././././././././././././././././.~.v.B.Y.r.6 r.!.                                        ",
"    p.d b l.Q.~.Q.U.U.P.P.P.L.L.U.Y./././././././.!.P.V.N.B.B.P.!./././.~.F.i.l l g.                                            ",
"      C.C d j C s.B.D.T.Y.Y.Y.Y.Y.R.I.D.V.f.y.,.m l g h j h d d l b n n l g x u.P.                                              ",
"          Z.s.V k w w g k k k l k j g f g l b ^ e.g.N.D.F.P.A.k.u.w.w.e.f.B.Y.                                                  ",
"                T.C.k.d.u.t.y.y.u.f.k.N.S.Y.                                                                                    ",
"                                                                                                                                ",
"                                                                                                                                ",
"                                                                                                                                ",
"                                                                                                                                ",
"                                                                                                                                ",
"                                                                                                                                ",
"                                                                                                                                ",
"                                                                                                                                ",
"                                                                                                                                ",
"                                                                                                                                ",
"                                                                                                                                ",
"                                                                                                                                ",
"                                                                                                                                "
};
