/* XPM */
static char *_0996_8bc2bffb607f52f6800ca6762dea5ac528bd4aa61db716a80ddeff6c3c65b69f_8[] = {
/* columns rows colors chars-per-pixel */
"64 64 256 2 ",
"   c None",
".  c #2B1E17",
"X  c #2D211D",
"o  c #2E2016",
"O  c #332418",
"+  c #3C2B1A",
"@  c #352516",
"#  c #3C2D21",
"$  c #352B28",
"%  c #3C322E",
"&  c #3E3533",
"*  c #432F19",
"=  c #4A341C",
"-  c #4E381E",
";  c #553D1E",
":  c #583F1E",
">  c #663F19",
",  c #443323",
"<  c #433429",
"1  c #4C3B2C",
"2  c #4A3421",
"3  c #523C22",
"4  c #493C31",
"5  c #463D3B",
"6  c #493F3A",
"7  c #62461F",
"8  c #6D4118",
"9  c #764718",
"0  c #5B4322",
"q  c #54412C",
"w  c #574021",
"e  c #4B413D",
"r  c #4F4033",
"t  c #55473B",
"y  c #664921",
"u  c #6B4D22",
"i  c #634B2B",
"p  c #624123",
"a  c #7D5A25",
"s  c #745425",
"d  c #644C33",
"f  c #665136",
"g  c #675339",
"h  c #4E4542",
"j  c #504745",
"k  c #524946",
"l  c #554D4A",
"z  c #584F4C",
"x  c #5A514E",
"c  c #5D5552",
"v  c #625956",
"b  c #645C5B",
"n  c #655244",
"m  c #67605D",
"M  c #68605E",
"N  c #6C6563",
"B  c #6F6866",
"V  c #746D6B",
"C  c #756B64",
"Z  c #79716C",
"A  c #7A7473",
"S  c #7F7977",
"D  c #7A7574",
"F  c #875019",
"G  c #8A5219",
"H  c #935B1D",
"J  c #844E18",
"K  c #B4691B",
"L  c #835F26",
"P  c #8F682A",
"I  c #8A6427",
"U  c #946B29",
"Y  c #9B6D28",
"T  c #9C712B",
"R  c #A86F24",
"E  c #A2762C",
"W  c #A6792E",
"Q  c #A97B2D",
"!  c #AD7F30",
"~  c #CE781E",
"^  c #9D7A40",
"/  c #837D7B",
"(  c #B1812E",
")  c #B38330",
"_  c #B88836",
"`  c #DD8221",
"'  c #D78324",
"]  c #C28E33",
"[  c #C79235",
"{  c #CB9535",
"}  c #D39A36",
"|  c #D79E38",
" . c #D99F38",
".. c #ED8C24",
"X. c #E68722",
"o. c #F18D23",
"O. c #EF9328",
"+. c #F19126",
"@. c #F29B2D",
"#. c #DCA139",
"$. c #E2A53A",
"%. c #E6A83B",
"&. c #EBAD3C",
"*. c #F3A333",
"=. c #F3A937",
"-. c #F4AD3A",
";. c #F5B43E",
":. c #F8B63F",
">. c #FAB83F",
",. c #BE9043",
"<. c #86807F",
"1. c #CB9E50",
"2. c #D4A045",
"3. c #D4A655",
"4. c #EBB147",
"5. c #F5B643",
"6. c #F6BA4D",
"7. c #F6BE59",
"8. c #CDAB71",
"9. c #F7C05E",
"0. c #F8C260",
"q. c #F8CC7D",
"w. c #878282",
"e. c #8A8483",
"r. c #8F8989",
"t. c #938E8D",
"y. c #96908F",
"u. c #959191",
"i. c #999493",
"p. c #9F9A99",
"a. c #9D9897",
"s. c #A29D9C",
"d. c #A7A2A2",
"f. c #A9A5A4",
"g. c #ACA8A7",
"h. c #ADAAAA",
"j. c #B0ADAC",
"k. c #B4B0AF",
"l. c #B6B3B2",
"z. c #BAB6B5",
"x. c #BDBABA",
"c. c #BBB8B7",
"v. c #C1BEBD",
"b. c #F6D599",
"n. c #F3D091",
"m. c #C3C0BF",
"M. c #FBDEAB",
"N. c #FCE4B8",
"B. c #C6C3C3",
"V. c #C9C6C6",
"C. c #CDCBCB",
"Z. c #CAC8C7",
"A. c #D1CECE",
"S. c #D2D0CF",
"D. c #D5D3D2",
"F. c #D8D7D6",
"G. c #DCDCDB",
"H. c #D8D7D9",
"J. c #E1DFDF",
"K. c #FDEAC6",
"L. c #FDEFD7",
"P. c #FFF2D9",
"I. c #DFE0E0",
"U. c #E4E4E3",
"Y. c #E8E7E7",
"T. c #ECECEC",
"R. c #E9E8E7",
"E. c #F0EFEF",
"W. c #FEF5E4",
"Q. c #FEF7E9",
"!. c #FFF9ED",
"~. c #F0F0EF",
"^. c #F4F4F4",
"/. c #F8F7F7",
"(. c #FEFEFE",
"). c #FEF9F1",
"_. c black",
"`. c black",
"'. c black",
"]. c black",
"[. c black",
"{. c black",
"}. c black",
"|. c black",
" X c black",
".X c black",
"XX c black",
"oX c black",
"OX c black",
"+X c black",
"@X c black",
"#X c black",
"$X c black",
"%X c black",
"&X c black",
"*X c black",
"=X c black",
"-X c black",
";X c black",
":X c black",
">X c black",
",X c black",
"<X c black",
"1X c black",
"2X c black",
"3X c black",
"4X c black",
"5X c black",
"6X c black",
"7X c black",
"8X c black",
"9X c black",
"0X c black",
"qX c black",
"wX c black",
"eX c black",
"rX c black",
"tX c black",
"yX c black",
"uX c black",
"iX c black",
"pX c black",
"aX c black",
"sX c black",
"dX c black",
"fX c black",
"gX c black",
"hX c black",
"jX c black",
"kX c black",
"lX c black",
"zX c black",
"xX c black",
"cX c black",
"vX c black",
"bX c black",
"nX c black",
"mX c black",
"MX c black",
"NX c black",
"BX c black",
"VX c black",
"CX c black",
"ZX c black",
"AX c black",
"SX c black",
"DX c black",
"FX c black",
"GX c black",
"HX c black",
"JX c black",
"KX c black",
"LX c black",
"PX c black",
"IX c black",
"UX c black",
/* pixels */
"                                                                                                                                ",
"                                                                                                                                ",
"                                                                                                                                ",
"                                                                                                                                ",
"                                                                                                                                ",
"                                                                                                                                ",
"                                                                                                                                ",
"                                                                                                                                ",
"                                                                                                                                ",
"                                                                                                                                ",
"                                                                                                                    D.A.U.      ",
"                                                                                                                  T.A c v / H.  ",
"                                                                                                            D.c.l.x.A.U.C.A V T.",
"                                                                                                          Y./ N V M x f.(.G.z A.",
"                                                                                                                  E.x.x A.R.x Z.",
"                                                                                          R.J.D.C.C.C.A.J.^.          <.i.G.c G.",
"                                                                                  /.C.a.V c z k j k k j k b / c.^.    i.S ~.v.^.",
"                                                                          U.C.j.y.N h c e.g.C.G.J.G.G.F.V.f.S h <.~.  y.S       ",
"                                                                    H.d.A c k c N s.D.^.(.(.(.(.E.U.U.I.R.(.(.B.5 v.  m.x.      ",
"                                                                G.t.k l / / Z h.^.Y.S.T.(.(.(./.E.E.R.G.G.^.(.^.z h.            ",
"                                                      ^.U.H.D.j.k 4 N V x i L 1 B.C i Z ^.(.(.(.(.(.T.G.I.^.(.D.h C.            ",
"                                              T.C.g.w.N t t r + @ < + . @ s I z v.f } d H.(.(.(.(./.I.G.I.(.(.S N ^.            ",
"                                          C.t.c 4 - u U _ 1.3.2.| #.} { ! a + x / P &.f H.(.(.(.(.T.G.I.(.(.B.5 x.              ",
"                                      H.<.4 p ^ 8.n.N.K.P.).!.n.;.;.:.5.:.;.} u o ( &.f G.(.(.(.(.R.G.E.(.T.c e.                ",
"                                    x.l y ,.b.W.(.(.(.(.(.!.M.6.;.;.;.;.;.;.;.&.L ; ( g U.(.(.(.(.^.T.(.(.e.b U.                ",
"                                  j.4 U 4.N.(.(.(.(.Q.K.b.7.;.;.;.;.;.;.;.;.;.;.&.a * t U.(.(.(.(.(.(.(.g.h C.                  ",
"                                l.1 Q ;.0.W.).L.M.q.7.5.;.;.;.;.;.;.;.;.;.;.;.;.;.%.: e R.(.(.(.(.(.(.A.6 g.                    ",
"                              Z.e E ;.;.5.9.9.5.;.;.;.5.;.;.;.;.;.;.;.;.;.;.;.;.;.;.] < Z.(.(.(.(.(.T.c / /.                    ",
"                            R.b a ;.;.;.;.;.;.;.;.;.;.;.;.;.;.;.;.;.;.;.;.;.;.;.;.;.;.7 w.(.(.(.(.(.e.c U.                      ",
"                            p.3 #.;.;.;.;.;.;.;.;.;.;.;.;.;.;.;.;.;.;.;.;.;.;.;.;.;.;.Y c /.(.(.(.v.e B.                        ",
"                          H.k E :.;.;.;.;.;.;.;.;.;.;.;.;.;.;.;.;.;.;.;.;.;.;.;.;.;.:.( z ^.(.(.^.b e.                          ",
"                        Z.c = $.:.;.;.;.;.;.;.;.;.;.;.;.;.;.;.;.;.;.;.;.;.;.;.;.;.;.:.W x ^.(.(.z.h H.                          ",
"                E.z.u.y.h . a ;.;.;.;.;.&.&.;.;.;.;.;.;.;.;.;.;.;.;.;.;.;.;.;.;.;.;.:.a V (.(.(.V <.                            ",
"                c.1 a u # $ T :.;.;.;.Q ; : y U [ ;.5.;.;.;.;.;.;.;.;.;.;.5.;.;.;.;.$.- f.(.(.U.j x.                            ",
"                C.t U | { = Q :.;.>.:.E . c e.c < a %.;.;.;.;.;.;.;.;.;.;.;.;.;.;.:.T % H.(.(.c.x Y.                            ",
"                  <.$ r I = Q >.$.Q _ 4.T q l v & @ { ;.;.;.;.;.;.;.;.;.;.;.;.;.;.$.= V (.(.(./ D                               ",
"                S.h f.C.V X T 5.[ + o ( >.#.( T T _ &.;.;.;.;.;.;.;.;.5.;.;.;.;.5.P $ C.(.(.T.l j.                              ",
"              B.x <./.(.^.b a ;.;.{ W | ;.;.:.>._ ; 7 { ;.;.;.;.;.;.;.%.;.;.&.| ] + r.(.(.(.B.k G.                              ",
"          T.i.e e.^.(.(.(.t.; &.;.;.5.;.;.;.;.;.[ y y } ;.;.;.;.;.;.#.u { >.#.w * c T.(.(.(./ Z                                 ",
"        B.b z x.(.(.(.(.(.B.# ] >.;.;.;.;.;.;.;.;.&.;.;.;.;.;.;.;.;.;.a u &.;.a $ A.(.(.(.U.k k.                                ",
"      d.e / G.T.(.(.(.(.(.^.b u &.:.;.;.;.;.;.;.5.;.;.;.;.;.;.;.;.;.;.#.: P ;.} q s./.(.(.d.c R.                                ",
"    a.h l.^.U.I./.(.(.(.(.(.A.e I ;.:.;.=.=.=.-.-.;.;.;.;.;.;.;.-.=.*.@.Y . L $.] 3 / /.^.c s.                                  ",
"  B.h v.(.U.G.I./.(.(.(.(.(.(.B.6 L $.@.+.....+.O.@.@.*.*.*.*.@.+.o.` H + z b w T E + v.g.z U.                                  ",
"  t.B (.^.G.G.U.(.(.(.(.(.(.(.(.Z.l : R ' ..o.o.o.........X.` ~ K F = e i.R.^.h.b r v x.l d.                                    ",
"  i.c /.E.G.G.I./.(.(.(.(.(.(.(.(.U.r.e = > F G G G 9 8 > p d n v D h.U.(.(.(.(.^.Y.U.V B ^.                                    ",
"  S.h p./.T.I.G.I.R.^.(.(.(.(.(.(.(.(.Y.x.u.D V V A e.u.g.B.G.T./.(.(.(.(.(.(.(.(.T.V z D.                                      ",
"    g.5 u.T./.T.I.I.I.U.T.^.^.^.^.^.(.(.(.(.(.(.(.(.(.(.(.(.(.(.(.(.(.(.(.(.(./.v.x b A.                                        ",
"      l.z z p.S.E./.E.T.R.U.U.U.U.R.^.(.(.(.(./.E.G.V.h.s.s.s.f.V.G.U.J.J.C.s.M h r.U.                                          ",
"        U.a.b h c / s.c.C.D.D.D.F.D.A.v.f.u.A v z k l v N N N b c k k k k k b y.S.                                              ",
"            ^.D.f./ M z k k k l k k k x b V e.s.z.C.U.T.        U.A.B.B.V.G.^.                                                  ",
"                      Y.F.A.C.C.C.A.G.R.                                                                                        ",
"                                                                                                                                ",
"                                                                                                                                ",
"                                                                                                                                ",
"                                                                                                                                ",
"                                                                                                                                ",
"                                                                                                                                ",
"                                                                                                                                ",
"                                                                                                                                ",
"                                                                                                                                ",
"                                                                                                                                ",
"                                                                                                                                ",
"                                                                                                                                ",
"                                                                                                                                "
};
