/* XPM */
static char *_0996_8bc2bffb607f52f6800ca6762dea5ac528bd4aa61db716a80ddeff6c3c65b69f_9[] = {
/* columns rows colors chars-per-pixel */
"64 64 256 2 ",
"   c None",
".  c #291E1A",
"X  c #2C211F",
"o  c #34251A",
"O  c #3C2B1A",
"+  c #2E2423",
"@  c #342924",
"#  c #3A2C21",
"$  c #3E332E",
"%  c #3D3432",
"&  c #412E1A",
"*  c #4B361F",
"=  c #4F381D",
"-  c #493216",
";  c #543618",
":  c #533B1D",
">  c #5C3D1C",
",  c #473625",
"<  c #43352B",
"1  c #46382F",
"2  c #4A3A2B",
"3  c #563D23",
"4  c #483B32",
"5  c #443B3A",
"6  c #483F3C",
"7  c #423732",
"8  c #58401F",
"9  c #7A4A19",
"0  c #6D4419",
"q  c #5D4321",
"w  c #55402D",
"e  c #4B413E",
"r  c #4E4034",
"t  c #57483C",
"y  c #614622",
"u  c #6B4D22",
"i  c #634A26",
"p  c #6F5021",
"a  c #745424",
"s  c #7D5A25",
"d  c #4E4543",
"f  c #504744",
"g  c #514946",
"h  c #554C4A",
"j  c #584F4D",
"k  c #594D44",
"l  c #5A514E",
"z  c #5C5451",
"x  c #605246",
"c  c #605856",
"v  c #645C5A",
"b  c #6B5E50",
"n  c #69615F",
"m  c #67605E",
"M  c #6C6563",
"N  c #6F6866",
"B  c #736B67",
"V  c #746D6B",
"C  c #76706E",
"Z  c #7A7473",
"A  c #7E7877",
"S  c #8B5219",
"D  c #B0691D",
"F  c #845E25",
"G  c #866126",
"H  c #8C6527",
"J  c #916927",
"K  c #936A28",
"L  c #996F2C",
"P  c #99702B",
"I  c #A2762C",
"U  c #A6792E",
"Y  c #AB7D2E",
"T  c #AD7E30",
"R  c #CC771E",
"E  c #C97E24",
"W  c #837D7B",
"Q  c #B4832F",
"!  c #AF8030",
"~  c #B38331",
"^  c #DD8221",
"/  c #C28E33",
"(  c #C69134",
")  c #CA9435",
"_  c #D29A37",
"`  c #D89F38",
"'  c #ED8C23",
"]  c #E48722",
"[  c #F18D23",
"{  c #EA942A",
"}  c #F19025",
"|  c #F29C2D",
" . c #F29629",
".. c #F19F30",
"X. c #DDA239",
"o. c #E1A53A",
"O. c #E6A93B",
"+. c #EBAD3C",
"@. c #F3A433",
"#. c #F4AC39",
"$. c #F3AA37",
"%. c #F5B43E",
"&. c #F8B63F",
"*. c #FBB83F",
"=. c #AB8649",
"-. c #87817F",
";. c #C29341",
":. c #C89E56",
">. c #D9A64B",
",. c #F5B745",
"<. c #F6BD56",
"1. c #F7BF58",
"2. c #D8B476",
"3. c #EEBC63",
"4. c #F8CB79",
"5. c #F7C364",
"6. c #868181",
"7. c #8B8583",
"8. c #8D8887",
"9. c #8F8B8B",
"0. c #928D8B",
"q. c #96918F",
"w. c #969291",
"e. c #9A9593",
"r. c #9D9897",
"t. c #9F9A99",
"y. c #A19D9C",
"u. c #A5A09F",
"i. c #A7A2A1",
"p. c #A9A5A5",
"a. c #ACA8A7",
"s. c #AFABA9",
"d. c #B1ADAC",
"f. c #B4B0AF",
"g. c #B6B2B1",
"h. c #B9B6B5",
"j. c #BCB8B7",
"k. c #BEBABA",
"l. c #C1BEBD",
"z. c #F9D189",
"x. c #F6D59A",
"c. c #C3C0BF",
"v. c #F8DEB0",
"b. c #FADEAA",
"n. c #FCE1AF",
"m. c #C5C2C2",
"M. c #CAC7C7",
"N. c #CECBCB",
"B. c #CBC8C7",
"V. c #D1CFCE",
"C. c #D2D0CF",
"Z. c #D5D3D2",
"A. c #D8D6D6",
"S. c gainsboro",
"D. c #D9D8D8",
"F. c #E0DFDE",
"G. c #FDE9C5",
"H. c #FDEFD4",
"J. c #FFF3DB",
"K. c #DFE0E0",
"L. c #E4E3E3",
"P. c #E8E7E7",
"I. c #E9E8E7",
"U. c #E7E8E8",
"Y. c #ECECEC",
"T. c #F0EFEF",
"R. c #FEF4E2",
"E. c #FFF8E9",
"W. c #F0F0EF",
"Q. c #EFF0F0",
"!. c #F4F4F4",
"~. c #FEFEFE",
"^. c #FBF8F4",
"/. c black",
"(. c black",
"). c black",
"_. c black",
"`. c black",
"'. c black",
"]. c black",
"[. c black",
"{. c black",
"}. c black",
"|. c black",
" X c black",
".X c black",
"XX c black",
"oX c black",
"OX c black",
"+X c black",
"@X c black",
"#X c black",
"$X c black",
"%X c black",
"&X c black",
"*X c black",
"=X c black",
"-X c black",
";X c black",
":X c black",
">X c black",
",X c black",
"<X c black",
"1X c black",
"2X c black",
"3X c black",
"4X c black",
"5X c black",
"6X c black",
"7X c black",
"8X c black",
"9X c black",
"0X c black",
"qX c black",
"wX c black",
"eX c black",
"rX c black",
"tX c black",
"yX c black",
"uX c black",
"iX c black",
"pX c black",
"aX c black",
"sX c black",
"dX c black",
"fX c black",
"gX c black",
"hX c black",
"jX c black",
"kX c black",
"lX c black",
"zX c black",
"xX c black",
"cX c black",
"vX c black",
"bX c black",
"nX c black",
"mX c black",
"MX c black",
"NX c black",
"BX c black",
"VX c black",
"CX c black",
"ZX c black",
"AX c black",
"SX c black",
"DX c black",
"FX c black",
"GX c black",
"HX c black",
"JX c black",
"KX c black",
"LX c black",
"PX c black",
"IX c black",
"UX c black",
/* pixels */
"                                                                                                                                ",
"                                                                                                                                ",
"                                                                                                                                ",
"                                                                                                                                ",
"                                                                                                                                ",
"                                                                                                                                ",
"                                                                                                                                ",
"                                                                                                                                ",
"                                                                                                                                ",
"                                                                                                                                ",
"                                                                                                                                ",
"                                                                                                                l.W W 8.f.!.    ",
"                                                                                                              ^.h.-.w.-.g 0.    ",
"                                                                                                        C.W n v v W N.~.j.g A.  ",
"                                                                                                        A.0.i.g.d.-.f m.!.z k.  ",
"                                                                                        I.A.l.g.d.d.d.h.A.!.~.    ~.7.V Y.l k.  ",
"                                                                                  S.i.V h d h z j j j h d h Z h.!.  m.l L.0.Z.  ",
"                                                                        Y.Z.j.y.V g l 7.f.V.U.Q.Y.Y.P.L.Z.d.Z 5 r.  N.h A.~.    ",
"                                                                  Y.g.W z % + z 0.m.!.~.~.~.~.^.U.K.K.K.Y.~.~.p.h P.V.l Z.      ",
"                                                              !.h.v % 5 $ O & W ~.~.!.P.~.~.~.!.Q.Q.U.D.S.~.~.N.g D.  M.T.      ",
"                                                      Q.D.m.h.W @ % 5 @ a ) a 8.~.!.W t y.~.~.~.~.~.K.S.K.~.~.y.v !.            ",
"                                              P.m.y.A v r 2 , O O * O & 3 : $ N.~.m.i Y x Y.~.~.~.Q.S.S.Y.~.Y.j r.              ",
"                                        !.l.W h 2 q s I ;.>.>.X.X.o.X.` ( U y j l.V ! _ b !.~.~.~.P.D.U.~.~.w.h F.              ",
"                                      A.Z 2 p =.2.x.n.G.J.E.H.<.%.%.%.*.%.*.O.s # y +.Q B ~.~.~.~.K.K.!.~.Z.e s.                ",
"                                    j.d u :.v.E.~.~.~.~.~.J.z.%.%.%.%.%.%.%.%.%.L O Y K 8.~.~.~.~.!.!.~.!.v W ^.                ",
"                                  f.4 J 3.R.~.~.~.~.E.G.z.<.%.%.%.%.%.%.%.%.%.%.%.L & = a.~.~.~.~.~.~.~.8.z L.                  ",
"                                j.1 I %.x.~.E.H.b.4.<.,.%.%.%.%.%.%.%.%.%.%.%.%.%.%.F X B.~.~.~.~.~.~.h.d l.                    ",
"                              V.f J %.%.1.4.5.,.%.%.%.%.%.%.%.%.%.%.%.%.%.%.%.%.%.%.` = y.~.~.~.~.~.S.g r.                      ",
"                            !.V u +.%.%.%.%.%.%.%.%.%.%.%.%.%.%.%.%.%.%.%.%.%.%.%.%.%.J z !.~.~.~.!.V N Y.                      ",
"                            g., _ *.%.%.%.%.%.%.%.%.%.%.%.%.%.%.%.%.%.%.%.%.%.%.%.%.*.~ 1 L.~.~.~.f.e C.                        ",
"                          F.z G %.%.%.%.%.%.%.%.%.%.%.%.%.%.%.%.%.%.%.%.%.%.%.%.%.%.,.) < D.~.~.!.z 0.                          ",
"                        m.h o ) *.%.%.%.%.&.%.%.%.%.%.%.%.%.%.%.%.%.%.%.%.%.%.%.%.*.*.( 1 S.~.~.g.g D.                          ",
"                      h.d 5 8 +.%.%.%.+._ ( ) O.%.*.%.%.%.%.%.%.%.%.%.%.%.%.%.%.%.%.%.I g !.~.~.V -.                            ",
"                    Z.d e.-.a %.%.%.&.! o 1 r w s ( %.%.%.%.%.%.%.%.%.%.%.%.%.%.%.%.%.u A ~.~.P.d h.                            ",
"                  Y.M B L.V a %.%.+.&._ = d 9.A 5 O ( *.%.%.%.%.%.%.%.%.%.%.%.%.%.*./ O h.~.~.l.g S.                            ",
"                  i.+ j k @ s ,._ u a _ X.s 3 w < q _ %.%.%.%.%.%.%.%.%.%.%.%.%.%.%.u g Y.~.~.0.B                               ",
"                B.t y I ( a u %.X.u O U *.%.O.X.( ~ ( +.%.%.%.%.%.%.%.%.%.%.o.s Y ~ o y.~.~.!.z t.                              ",
"              C.g a ( Y J : = +.&.+.X.+.%.%.%.*.Y o O ( *.%.%.%.%.%.%.%.%.%.,.U 8 O . g M Z.A.d N.                              ",
"          ^.s.g t t t n 6.A # ( *.%.,.*.%.%.%.%.o.~ ~ +.%.%.%.%.%.%.%.%.X.+.%.*.+./ Q I - q.t.v T.                              ",
"        D.A d t.Y.L.P.~.~.!.g G %.%.%.%.%.%.%.%.%.*.%.%.%.%.%.%.%.%.%.+.a : F U Q Q J y l N.v e.                                ",
"      l.h M N.Y.~.~.~.~.~.~.t.& ) *.%.%.%.%.&.%.%.,.%.%.%.%.%.%.%.%.%.%.o.Y O . g z V p.Y.B.d Z.                                ",
"    h.6 8.Y.U.S.!.~.~.~.~.~.!.N : X.%.%.#.@.$.$.#.%.%.%.%.%.%.%.%.$.@.| ` s o 7.Y.!.~.~.~.A A                                   ",
"  L.l 7.!.Y.S.K.!.~.~.~.~.~.~.P.n : ( ..} [ ' ' '  .| ..@.@.@.|  .' ] D ; % p.^.~.~.~.~.Z.d m.                                  ",
"  k.d P.~.S.S.K.^.~.~.~.~.~.~.~.Y.-., F ^ ] ' } [ [ ' ' ] ] ^ R D S ; $ Z A.~.~.~.~.~.^.V A ^.                                  ",
"  j.d L.!.S.S.S.!.~.~.~.~.~.~.~.~.~.k.M 1 : 9 S S S 9 0 > 3 w t x V t.A.~.~.~.~.~.~.~.u.g A.                                    ",
"  L.j 7.~.Y.K.S.K.U.!.~.~.~.~.~.~.~.~.^.A.p.A C V V 6.w.a.m.D.P.!.~.~.~.~.~.~.~.~.~.a.6 g.                                      ",
"    j.6 7.Y.^.Q.K.K.S.L.Y.!.!.!.!.^.~.~.~.~.~.~.~.~.~.~.~.~.~.~.~.~.~.~.~.~.~.~.Y.8.e a.                                        ",
"      l.z j u.S.!.!.Q.U.L.L.K.L.K.L.Y.~.~.~.~.~.~.!.P.V.d.d.d.f.Z.I.!.!.!.I.N.w.h c l.                                          ",
"        L.y.v f v 0.g.V.S.L.L.P.P.P.F.S.V.h.y.W B z h g h g h g h h l z l g h N p.I.                                            ",
"            Y.M.y.Z z g f h h h h h g g g z n W 0.a.m.D.P.    P.S.l.g.g.h.l.D.!.                                                ",
"                    Y.A.m.l.k.l.l.l.l.B.S.I.                                                                                    ",
"                                                                                                                                ",
"                                                                                                                                ",
"                                                                                                                                ",
"                                                                                                                                ",
"                                                                                                                                ",
"                                                                                                                                ",
"                                                                                                                                ",
"                                                                                                                                ",
"                                                                                                                                ",
"                                                                                                                                ",
"                                                                                                                                ",
"                                                                                                                                ",
"                                                                                                                                "
};
